<svg width="18" height="18" xmlns="http://www.w3.org/2000/svg"><path d="M4.273 13.727C5.602 15.029 7.177 15.68 9 15.68c1.823 0 3.392-.658 4.707-1.973S15.68 10.823 15.68 9s-.658-3.392-1.973-4.707S10.823 2.32 9 2.32s-3.392.658-4.707 1.973S2.32 7.177 2.32 9s.651 3.398 1.953 4.727zM3.102 3.14C4.742 1.5 6.708.68 9 .68s4.251.813 5.879 2.441C16.507 4.75 17.32 6.708 17.32 9c0 2.292-.813 4.251-2.441 5.879C13.25 16.507 11.292 17.32 9 17.32c-2.292 0-4.251-.813-5.879-2.441C1.493 13.25.68 11.292.68 9c0-2.292.807-4.245 2.422-5.86zM9.82 4.82v3.36h3.36v1.64H9.82v3.36H8.18V9.82H4.82V8.18h3.36V4.82h1.64z" fill="#4B658A" fill-rule="evenodd"/></svg>