<svg width="39" height="35" xmlns="http://www.w3.org/2000/svg"><g fill="none" fill-rule="evenodd"><path d="M36.65 23.436l.038.07c1.138 2.15 1.079 4.824-.168 6.887-1.148 1.919-3.16 3.107-5.358 3.107H7.83c-2.186 0-4.213-1.194-5.359-3.108-1.222-2.045-1.278-4.53-.234-6.733l.069-.128L13.132 5.469c.731-1.096 1.504-1.97 2.423-2.666 1.182-.854 2.49-1.303 3.95-1.303 1.464 0 2.78.453 3.946 1.314.91.675 1.687 1.547 2.466 2.717l10.732 17.905z" stroke="#FFF" stroke-width="3"/><g fill="#FFF" fill-rule="nonzero"><path d="M23.824 25.47a.405.405 0 01-.58 0l-8.124-8.273a.423.423 0 010-.591l1.056-1.076a.405.405 0 01.58 0l8.124 8.273c.16.164.16.428 0 .591l-1.056 1.076z"/><path d="M15.03 24.324a.405.405 0 010-.58l8.273-8.124a.423.423 0 01.591 0l1.076 1.056c.163.16.163.42 0 .58l-8.273 8.124a.423.423 0 01-.591 0l-1.076-1.056z"/></g></g></svg>