<svg width="82" height="73" xmlns="http://www.w3.org/2000/svg"><g fill="none" fill-rule="evenodd"><path d="M77.288 48.694c2.4 4.448 2.275 9.986-.354 14.252-2.41 3.947-6.613 6.382-11.196 6.382H16.243c-4.557 0-8.794-2.447-11.198-6.384-2.576-4.23-2.696-9.377-.492-13.936l.064-.132 22.96-37.571.08-.124c1.545-2.268 3.174-4.075 5.103-5.51C35.235 3.92 37.966 3 41.01 3c3.055 0 5.8.927 8.24 2.693 1.915 1.392 3.55 3.194 5.112 5.488l.08.123 22.766 37.25.08.14z" stroke="#C4514D" stroke-width="6"/><g fill="#C4514D" fill-rule="nonzero"><path d="M50.412 52.746a.928.928 0 01-1.277 0l-17.87-17.184a.844.844 0 010-1.227l2.323-2.235a.928.928 0 011.277 0l17.87 17.184a.844.844 0 010 1.227l-2.323 2.235z"/><path d="M31.677 50.835a.928.928 0 010-1.277l17.184-17.87a.844.844 0 011.227 0l2.235 2.323a.928.928 0 010 1.277l-17.184 17.87a.844.844 0 01-1.227 0l-2.235-2.323z"/></g></g></svg>