<svg width="120" height="36" xmlns="http://www.w3.org/2000/svg"><g fill="none"><path d="M115.73 35.556H4.205A4.213 4.213 0 010 31.348V4.201A4.207 4.207 0 014.204 0H115.73c2.317 0 4.27 1.884 4.27 4.2v27.148c0 2.316-1.953 4.208-4.27 4.208z" fill="#FFF"/><path d="M119.14 31.35a3.404 3.404 0 01-3.408 3.404H4.204A3.409 3.409 0 01.79 31.349V4.2A3.413 3.413 0 014.204.791H115.73a3.408 3.408 0 013.408 3.409v27.15z" fill="#FFF"/><path d="M26.78 17.586c-.025-2.865 2.346-4.259 2.455-4.324-1.343-1.958-3.425-2.226-4.157-2.247-1.748-.184-3.444 1.046-4.335 1.046-.908 0-2.28-1.028-3.758-.998-1.902.03-3.682 1.13-4.658 2.841-2.014 3.487-.512 8.612 1.418 11.43.965 1.38 2.093 2.922 3.57 2.868 1.444-.06 1.984-.921 3.727-.921 1.727 0 2.234.92 3.74.886 1.55-.025 2.526-1.387 3.457-2.78 1.116-1.582 1.564-3.14 1.581-3.22-.036-.012-3.01-1.147-3.04-4.581zM23.936 9.16c.777-.97 1.308-2.292 1.16-3.634-1.124.05-2.53.778-3.34 1.728-.716.838-1.356 2.21-1.19 3.5 1.262.095 2.56-.637 3.37-1.593zm23.748 18.844h-2.018l-1.106-3.475h-3.844l-1.053 3.475h-1.965l3.808-11.83h2.352l3.826 11.83zm-3.457-4.933l-1-3.089c-.106-.315-.304-1.058-.597-2.228h-.035a86 86 0 01-.562 2.228l-.982 3.09h3.176zm13.25.563c0 1.45-.392 2.597-1.176 3.439-.702.75-1.574 1.123-2.615 1.123-1.123 0-1.93-.403-2.422-1.21h-.036v4.493h-1.895v-9.197c0-.912-.024-1.848-.07-2.808h1.667l.106 1.352h.035c.632-1.019 1.591-1.527 2.878-1.527 1.007 0 1.847.397 2.519 1.193.673.796 1.01 1.843 1.01 3.142zm-1.93.07c0-.831-.187-1.516-.562-2.054-.41-.562-.96-.843-1.65-.843a1.97 1.97 0 00-1.272.465c-.38.311-.63.717-.746 1.22a2.481 2.481 0 00-.088.578v1.422c0 .62.19 1.144.571 1.572.38.428.875.64 1.483.64.713 0 1.269-.275 1.666-.824.399-.55.598-1.276.598-2.177zm11.741-.07c0 1.45-.392 2.597-1.177 3.439-.701.75-1.573 1.123-2.614 1.123-1.124 0-1.93-.403-2.421-1.21h-.036v4.493h-1.895v-9.197c0-.912-.024-1.848-.07-2.808h1.666l.106 1.352h.036c.63-1.019 1.59-1.527 2.878-1.527 1.005 0 1.845.397 2.519 1.193.671.796 1.008 1.843 1.008 3.142zm-1.93.07c0-.831-.188-1.516-.563-2.054-.41-.562-.959-.843-1.65-.843-.468 0-.892.157-1.272.465-.38.311-.629.717-.745 1.22a2.53 2.53 0 00-.088.578v1.422c0 .62.19 1.144.569 1.572.38.427.875.64 1.484.64.714 0 1.27-.275 1.667-.824.398-.55.597-1.276.597-2.177zm12.899.982c0 1.006-.35 1.825-1.05 2.457-.771.69-1.844 1.036-3.223 1.036-1.273 0-2.293-.246-3.066-.737l.44-1.58a5.195 5.195 0 002.739.756c.714 0 1.27-.162 1.668-.484.398-.322.596-.754.596-1.292 0-.48-.164-.885-.492-1.213-.326-.328-.87-.633-1.632-.914-2.07-.773-3.105-1.904-3.105-3.392 0-.973.362-1.77 1.088-2.39.724-.622 1.69-.932 2.896-.932 1.077 0 1.971.187 2.685.562l-.474 1.545c-.667-.363-1.42-.544-2.264-.544-.667 0-1.187.164-1.56.491a1.404 1.404 0 00-.475 1.071c0 .468.18.854.544 1.158.315.281.888.585 1.72.913 1.018.41 1.766.89 2.247 1.439.479.547.718 1.232.718 2.05zm6.266-3.79h-2.09v4.141c0 1.054.369 1.58 1.107 1.58.338 0 .62-.03.841-.088l.053 1.439c-.374.14-.865.21-1.474.21-.748 0-1.333-.229-1.756-.685-.42-.457-.632-1.223-.632-2.3v-4.299h-1.244v-1.422h1.244V17.91l1.862-.562v2.124h2.089v1.424zm9.425 2.772c0 1.312-.376 2.388-1.124 3.23-.785.866-1.827 1.298-3.125 1.298-1.252 0-2.248-.415-2.991-1.245-.744-.83-1.115-1.878-1.115-3.141 0-1.322.382-2.405 1.15-3.246.765-.843 1.797-1.264 3.096-1.264 1.252 0 2.259.415 3.019 1.246.727.806 1.09 1.847 1.09 3.122zm-1.967.062c0-.787-.168-1.462-.508-2.024-.397-.681-.965-1.02-1.701-1.02-.762 0-1.34.34-1.738 1.02-.34.563-.509 1.249-.509 2.06 0 .786.168 1.46.509 2.022.41.681.982 1.02 1.72 1.02.724 0 1.292-.346 1.702-1.037.35-.574.525-1.255.525-2.041zm8.127-2.59a3.29 3.29 0 00-.598-.052c-.666 0-1.182.252-1.545.756-.315.444-.473 1.006-.473 1.684v4.476h-1.895l.018-5.844c0-.983-.024-1.878-.071-2.685h1.65l.07 1.632h.052c.2-.561.516-1.013.948-1.351a2.291 2.291 0 011.37-.457c.175 0 .333.012.474.034v1.807zm8.475 2.195c0 .34-.022.626-.07.86h-5.685c.023.842.297 1.487.825 1.931.48.398 1.099.597 1.86.597.842 0 1.61-.135 2.3-.404l.297 1.316c-.807.352-1.76.527-2.86.527-1.322 0-2.36-.39-3.116-1.167-.754-.778-1.131-1.823-1.131-3.133 0-1.286.35-2.357 1.054-3.211.736-.912 1.73-1.368 2.982-1.368 1.23 0 2.16.456 2.792 1.368.5.724.752 1.62.752 2.684zm-1.807-.491c.012-.562-.111-1.048-.368-1.457-.328-.527-.832-.79-1.51-.79-.62 0-1.124.256-1.509.772-.315.41-.503.901-.56 1.474h3.947zM43.6 8.897c0 1.046-.314 1.834-.94 2.363-.58.488-1.406.732-2.474.732a11.3 11.3 0 01-1.363-.07V6.207c.495-.08 1.029-.12 1.605-.12 1.017 0 1.784.22 2.302.663.58.5.87 1.216.87 2.148zm-.982.026c0-.679-.18-1.199-.539-1.561-.359-.362-.883-.543-1.574-.543-.293 0-.543.02-.75.06v4.346c.114.018.324.026.629.026.713 0 1.263-.199 1.65-.595.388-.396.584-.974.584-1.733zm6.19.887c0 .645-.184 1.173-.552 1.587-.386.426-.897.639-1.535.639-.615 0-1.105-.204-1.47-.613-.365-.408-.547-.923-.547-1.543 0-.649.188-1.181.564-1.595.377-.413.884-.62 1.522-.62.615 0 1.11.203 1.484.611.355.397.534.909.534 1.535zm-.966.03c0-.386-.084-.717-.25-.994-.196-.334-.474-.501-.836-.501-.374 0-.658.167-.854.501-.167.277-.25.614-.25 1.012 0 .386.084.718.25.994.202.335.483.502.846.502.355 0 .634-.17.835-.51.173-.282.259-.616.259-1.003zm7.949-2.09l-1.311 4.19h-.853l-.543-1.82c-.138-.453-.25-.905-.337-1.353h-.017a9.96 9.96 0 01-.337 1.354l-.577 1.82h-.863L49.72 7.75h.957l.474 1.991c.115.471.209.92.285 1.345h.016c.07-.35.184-.796.346-1.336l.595-2h.759l.57 1.957c.138.478.25.937.336 1.38h.026c.063-.431.158-.89.284-1.38l.508-1.957h.915zm4.829 4.19h-.931v-2.4c0-.74-.281-1.109-.845-1.109a.84.84 0 00-.672.305 1.082 1.082 0 00-.26.718v2.486h-.93V8.948c0-.368-.012-.768-.034-1.2h.818l.044.656h.026a1.34 1.34 0 01.482-.506c.253-.157.535-.236.845-.236.39 0 .716.126.975.38.322.31.482.773.482 1.388v2.51zm2.57 0h-.931V5.828h.93zm5.484-2.13c0 .645-.184 1.173-.552 1.587-.386.426-.898.639-1.535.639-.616 0-1.106-.204-1.47-.613-.365-.408-.547-.923-.547-1.543 0-.649.187-1.181.564-1.595.377-.413.884-.62 1.521-.62.616 0 1.11.203 1.485.611.355.397.534.909.534 1.535zm-.967.03c0-.386-.084-.717-.25-.994-.195-.334-.474-.501-.835-.501-.375 0-.66.167-.854.501-.167.277-.25.614-.25 1.012 0 .386.084.718.25.994.202.335.483.502.845.502.356 0 .634-.17.835-.51.173-.282.259-.616.259-1.003zm5.475 2.1h-.836l-.07-.482h-.025c-.287.385-.695.578-1.224.578-.396 0-.716-.128-.957-.38a1.19 1.19 0 01-.328-.853c0-.512.214-.903.643-1.173.428-.27 1.031-.402 1.807-.396v-.078c0-.552-.29-.828-.87-.828-.414 0-.778.104-1.093.31l-.189-.611c.39-.241.87-.362 1.437-.362 1.095 0 1.645.578 1.645 1.733v1.543c0 .419.02.752.06 1zm-.967-1.44v-.646c-1.027-.018-1.541.264-1.541.845 0 .218.058.382.178.491a.65.65 0 00.456.164.94.94 0 00.57-.194.794.794 0 00.337-.66zm6.261 1.44h-.827l-.044-.672h-.025c-.264.512-.714.768-1.346.768-.505 0-.926-.199-1.259-.595-.333-.397-.5-.911-.5-1.543 0-.678.181-1.228.544-1.647a1.67 1.67 0 011.293-.587c.563 0 .956.19 1.18.569h.018V5.828h.933v4.984c0 .408.01.784.033 1.128zm-.966-1.767v-.698a1.061 1.061 0 00-.363-.858.916.916 0 00-.623-.229.956.956 0 00-.82.415c-.197.276-.298.629-.298 1.06 0 .414.095.75.286 1.009a.959.959 0 00.815.413c.305 0 .55-.114.736-.345.18-.212.267-.468.267-.767zm8.933-.363c0 .645-.184 1.173-.552 1.587-.386.426-.896.639-1.535.639-.615 0-1.104-.204-1.47-.613-.365-.408-.547-.923-.547-1.543 0-.649.187-1.181.564-1.595.377-.413.884-.62 1.523-.62.614 0 1.11.203 1.482.611.356.397.535.909.535 1.535zm-.966.03c0-.386-.083-.717-.25-.994-.196-.334-.473-.501-.836-.501-.373 0-.658.167-.854.501-.167.277-.25.614-.25 1.012 0 .386.084.718.25.994.202.335.483.502.845.502.356 0 .636-.17.837-.51.171-.282.258-.616.258-1.003zm5.975 2.1h-.931v-2.4c0-.74-.281-1.109-.845-1.109-.277 0-.5.101-.672.305a1.077 1.077 0 00-.26.718v2.486h-.932V8.948c0-.368-.01-.768-.032-1.2h.817l.044.656h.026a1.36 1.36 0 01.482-.506c.254-.157.535-.236.846-.236.39 0 .715.126.974.38.323.31.483.773.483 1.388v2.51zm6.268-3.492h-1.025v2.036c0 .517.182.776.543.776.167 0 .306-.015.415-.044l.024.707c-.184.069-.425.104-.723.104-.368 0-.654-.112-.862-.336-.208-.224-.31-.601-.31-1.13V8.448h-.613V7.75h.612v-.768l.913-.275v1.042h1.026v.699zm4.932 3.492h-.932V9.558c0-.75-.28-1.127-.844-1.127-.432 0-.727.218-.888.653a1.17 1.17 0 00-.044.336v2.52h-.93V5.828h.93v2.525h.018c.293-.46.714-.689 1.258-.689.386 0 .705.126.959.38.315.315.473.784.473 1.405v2.491zm5.088-2.293c0 .167-.013.308-.035.422h-2.794c.013.415.146.73.405.949.236.195.54.293.914.293.414 0 .79-.066 1.13-.198l.146.647c-.398.172-.865.259-1.406.259-.65 0-1.16-.191-1.53-.574-.372-.382-.556-.895-.556-1.538 0-.632.172-1.159.518-1.578.36-.448.848-.672 1.464-.672.603 0 1.06.224 1.37.672.25.355.374.795.374 1.318zm-.89-.24a1.254 1.254 0 00-.18-.716c-.162-.259-.408-.389-.741-.389a.884.884 0 00-.741.38 1.41 1.41 0 00-.277.724h1.94z" fill="#C9CED2"/></g></svg>