<svg width="25" height="28" xmlns="http://www.w3.org/2000/svg" xmlns:xlink="http://www.w3.org/1999/xlink"><defs><path d="M19.729 26.512l3.85 2.859 2.121-1.357V7.86a1.2 1.2 0 00-1.197-1.198H6.325A1.2 1.2 0 005.128 7.86v19.88l2.187 1.623 4.288-2.851 3.84 2.85 4.286-2.85zm-4.353 5.45l-3.84-2.85-4.288 2.85L3 28.812V7.86a3.33 3.33 0 013.325-3.326h18.178a3.33 3.33 0 013.325 3.326v21.318l-4.338 2.777-3.829-2.843-4.285 2.85zM9 14v2h13v-2H9zm0 6v2h13v-2H9z" id="a"/></defs><use fill="#C0BDBC" xlink:href="#a" transform="translate(-3 -4)" fill-rule="evenodd"/></svg>