<svg width="38" height="38" xmlns="http://www.w3.org/2000/svg"><g fill="none" fill-rule="evenodd"><path d="M9.11 28.943l-.068-.069c-4.024-4.434-5.948-7.163-7.12-10.663-.792-2.364-1.081-4.77-.839-7.148.104-1.014.575-1.968 1.394-3.14.387-.553.795-.933 1.632-1.607l.15-.121.32-.26c1.525-1.274 3.225-1.196 4.615.216a113.894 113.894 0 013.025 3.193c1.34 1.472 1.319 3.206-.085 4.596-1.605 1.591-2.052 3.458-1.361 5.543 1.163 3.507 3.555 6.019 7.053 7.394 2.05.806 3.968.483 5.685-.975 1.45-1.23 3.214-1.166 4.551.173a84.576 84.576 0 013.243 3.428c1.228 1.375 1.151 3.136-.168 4.435-.093.091-.188.187-.322.324l-.143.148c-.807.829-1.248 1.217-1.883 1.564-1.187.649-2.34 1.032-3.418 1.026-4.797-.027-9.11-1.755-12.925-5.04a94.735 94.735 0 01-2.073-1.856c.006.007-1.04-.96-1.263-1.161z" stroke="#6F95CC" stroke-width="2"/><path d="M20.201 22.878a.89.89 0 01-.34-1.18c.241-.46.955-1.739 1.535-2.745a13.22 13.22 0 01-.342-.256c-2.294-1.795-3.631-4.169-3.976-7.054-.316-2.655.33-5.113 1.92-7.309A10.41 10.41 0 0124.37.468a10.354 10.354 0 016.437.092c.767.267 1.485.595 2.136.976 2.58 1.51 4.213 3.88 4.855 7.044.411 2.025.19 4.027-.657 5.95-1.425 3.236-3.952 5.314-7.513 6.174a322.56 322.56 0 00-6.096 1.56c-.82.216-1.67.439-2.506.656l-.025.01a.9.9 0 01-.8-.052z" fill="#6F95CC" fill-rule="nonzero"/><path d="M21 10.479a1.502 1.502 0 001.479 1.52l.022.001c.815 0 1.488-.664 1.499-1.48A1.502 1.502 0 0022.52 9 1.51 1.51 0 0021 10.479zm5 0a1.502 1.502 0 001.479 1.52l.022.001c.815 0 1.488-.664 1.499-1.48A1.502 1.502 0 0027.52 9 1.51 1.51 0 0026 10.479zm5 0a1.502 1.502 0 001.479 1.52l.022.001c.815 0 1.488-.664 1.499-1.48A1.502 1.502 0 0032.52 9 1.51 1.51 0 0031 10.479z" fill="#FFF" fill-rule="nonzero"/></g></svg>