<svg width="24" height="24" xmlns="http://www.w3.org/2000/svg"><path d="M7.313 19.531c1.117 0 2.03.914 2.03 2.032a2.037 2.037 0 01-2.03 2.03 2.037 2.037 0 01-2.032-2.03c0-1.118.914-2.032 2.032-2.032zm13 0c1.117 0 2.03.914 2.03 2.032a2.037 2.037 0 01-2.03 2.03 2.037 2.037 0 01-2.032-2.03c0-1.118.914-2.032 2.032-2.032zM7.146 2.47H23.97l-.09 1.092c-.012.228-.418 5.636-.596 6.779-.241 1.638-1.637 2.856-3.542 3.123-1.193.165-7.44.889-9.991 1.193v-2.044c2.679-.33 8.582-1.003 9.725-1.168 1.003-.127 1.688-.673 1.802-1.409.115-.71.343-3.516.495-5.535H7.312v10.55c0 .749.521 1.231 1.346 1.231h13.686v2.032H8.658c-1.93 0-3.377-1.397-3.377-3.263V3.459c0-.736-.698-1.397-1.498-1.397H0V.033h3.783c1.562 0 2.92 1.04 3.364 2.437z" fill="#4C454D" fill-rule="evenodd"/></svg>