<svg width="43" height="30" xmlns="http://www.w3.org/2000/svg" xmlns:xlink="http://www.w3.org/1999/xlink"><defs><path d="M25.6 16.837l-4.078-4.418 12.954-5.801 3.762 4.404L25.6 16.837zm8.295 5.324l-12.928 5.763V14.21l3.85 4.164c.23.252.626.333.935.19l8.143-3.745v7.343zM20.159 11.238L8.014 5.82 19.35 1.79v4.668a.808.808 0 001.616 0V1.83l11.181 4.06-11.99 5.348zm-.808 16.699L6.423 22.161v-7.343l8.143 3.745a.827.827 0 00.934-.19l3.85-4.164v13.728zM2.08 11.022l3.762-4.404 12.953 5.801-4.077 4.418L2.08 11.022zM35.776 5.64L20.465.065a.757.757 0 00-.612 0L4.542 5.64.148 10.794c-.264.373-.177 1.062.278 1.27l4.38 2.018v8.612c.004.31.199.61.48.736l14.532 6.5a.806.806 0 00.656 0l14.557-6.5a.832.832 0 00.48-.736v-8.612l4.38-2.018c.455-.208.604-.89.279-1.27L35.776 5.64z" id="a"/></defs><g transform="translate(1)" fill="none" fill-rule="evenodd"><mask id="b" fill="#fff"><use xlink:href="#a"/></mask><use fill="#000" xlink:href="#a"/><g mask="url(#b)" fill="#4B658A"><path d="M-1 0h45v30H-1z"/></g></g></svg>