<svg width="30" height="20" xmlns="http://www.w3.org/2000/svg" xmlns:xlink="http://www.w3.org/1999/xlink"><defs><path d="M11.875 7.188C12.667 6.396 13.605 6 14.688 6c1.083 0 2.02.396 2.812 1.188.792.791 1.188 1.729 1.188 2.812 0 1.083-.396 2.02-1.188 2.813-.792.791-1.73 1.187-2.813 1.187-1.083 0-2.02-.396-2.812-1.188-.792-.791-1.188-1.729-1.188-2.812 0-1.083.396-2.02 1.188-2.813zM9.937 14.75c1.334 1.292 2.917 1.938 4.75 1.938 1.834 0 3.407-.657 4.72-1.97 1.312-1.312 1.968-2.885 1.968-4.718 0-1.833-.656-3.406-1.969-4.719-1.312-1.312-2.885-1.968-4.718-1.968-1.834 0-3.407.656-4.72 1.968C8.657 6.594 8 8.167 8 10c0 1.833.646 3.417 1.938 4.75zm-4.187-12C8.417.917 11.396 0 14.688 0c3.291 0 6.27.917 8.937 2.75S28.208 7 29.375 10c-1.167 3-3.083 5.417-5.75 7.25-2.667 1.833-5.646 2.75-8.938 2.75-3.291 0-6.27-.917-8.937-2.75S1.167 13 0 10c1.167-3 3.083-5.417 5.75-7.25z" id="a"/></defs><use fill="#DDDFE2" xlink:href="#a" fill-rule="evenodd"/></svg>