<svg width="107" height="59" xmlns:xlink="http://www.w3.org/1999/xlink" xmlns="http://www.w3.org/2000/svg"><defs><clipPath id="b"><use xlink:href="#a"/></clipPath><path d="M29.772.09c-.138-.042-.3-.08-.478-.088-.178-.01-.373.01-.566.088L.87 11.332c-.516.21-.877.757-.87 1.316v30.213a1.44 1.44 0 00.87 1.296l27.857 11.242c.33.135.713.135 1.044 0L57.63 44.157a1.44 1.44 0 00.87-1.296V12.65a1.442 1.442 0 00-.87-1.317L29.772.09zm-.522 2.832L5.158 12.65l8.837 3.557L36.736 5.952l-7.487-3.03zm-9.814 15.48l23.482-9.97 10.425 4.217-24.092 9.705-9.816-3.952zM2.786 41.895V14.713l9.75 3.93v10.869l5.57 2.107V20.905l9.75 3.93v27.16l-25.07-10.1zm52.928-27.182L30.643 24.835v27.16l25.07-10.1V14.713z" id="a"/></defs><path d="M46.125 14.599V42.06l26.464 11.77 30.536-9.808V14.599l-28.5-11.77-28.5 9.808V14.6z" fill="#FFF"/><path d="M75.897 1.42c-.138-.043-.3-.08-.478-.088a1.32 1.32 0 00-.566.087L46.996 12.661c-.516.21-.877.757-.87 1.317v30.213c.002.553.361 1.087.87 1.295l27.857 11.242c.33.135.714.135 1.044 0l27.857-11.242c.509-.208.868-.742.87-1.295V13.978a1.442 1.442 0 00-.87-1.317L75.897 1.42zm-.522 2.832l-24.092 9.726 8.836 3.557L82.862 7.281l-7.487-3.03zm-9.815 15.48l23.483-9.97 10.425 4.216-24.092 9.705-9.816-3.952zM48.91 43.224V16.042l9.75 3.931v10.868l5.571 2.108V22.235l9.75 3.93v27.16l-25.07-10.1zm52.929-27.183L76.768 26.164v27.161l25.07-10.1V16.042z" fill-rule="evenodd"/><g clip-path="url(#b)" transform="translate(46.125 1.33)"><path d="M-13.5-4.5H75v65h-88.5v-65z" fill="#6F95CC"/></g><path d="M3.124 12.125h32.002q.098 0 .196.01t.194.028q.096.02.19.048.094.029.185.066.09.038.177.084.087.046.169.1.081.055.157.118.076.062.145.131.07.07.132.146.063.076.117.157.055.082.101.169.046.086.084.177.037.09.066.185.028.094.048.19.019.096.028.194.01.098.01.196v.002q0 .098-.01.196t-.028.194q-.02.096-.048.19-.029.094-.066.185-.038.09-.084.177-.046.087-.1.169-.056.081-.118.157-.062.076-.132.146-.069.069-.145.131-.076.063-.157.117-.082.055-.169.101-.086.046-.177.084-.09.037-.185.066-.094.028-.19.048-.096.019-.194.028-.098.01-.196.01H3.124q-.098 0-.196-.01t-.194-.028q-.096-.02-.19-.048-.094-.029-.185-.066-.09-.038-.177-.084-.087-.046-.169-.1-.081-.055-.157-.118-.076-.062-.146-.131-.069-.07-.131-.146-.063-.076-.117-.157-.055-.082-.101-.169-.046-.086-.084-.177-.037-.09-.066-.185-.028-.094-.048-.19-.019-.096-.028-.194-.01-.098-.01-.196v-.002q0-.098.01-.196t.028-.194q.02-.096.048-.19.029-.094.066-.185.038-.09.084-.177.046-.087.1-.169.055-.081.118-.157.062-.076.131-.146.07-.069.146-.131.076-.063.157-.117.082-.055.169-.101.086-.046.177-.084.09-.037.185-.066.094-.028.19-.048.096-.019.194-.028.098-.01.196-.01zm6 14h26.002q.098 0 .196.01t.194.028q.096.02.19.048.094.029.185.066.09.038.177.084.087.046.169.1.081.055.157.118.076.062.145.131.07.07.132.146.063.076.117.157.055.082.101.169.046.086.084.177.037.09.066.185.028.094.048.19.019.096.028.194.01.098.01.196v.002q0 .098-.01.196t-.028.194q-.02.096-.048.19-.029.094-.066.185-.038.09-.084.177-.046.087-.1.169-.056.081-.118.157-.062.076-.131.146-.07.069-.146.131-.076.063-.157.117-.082.055-.169.101-.086.046-.177.084-.09.037-.185.066-.094.028-.19.048-.096.019-.194.028-.098.01-.196.01H9.124q-.098 0-.196-.01t-.194-.028q-.096-.02-.19-.048-.094-.029-.185-.066-.09-.038-.177-.084-.087-.046-.169-.1-.081-.055-.157-.118-.076-.062-.146-.131-.069-.07-.131-.146-.063-.076-.117-.157-.055-.082-.101-.169-.046-.086-.084-.177-.037-.09-.066-.185-.028-.094-.048-.19-.019-.096-.028-.194-.01-.098-.01-.196v-.002q0-.098.01-.196t.028-.194q.02-.096.048-.19.029-.094.066-.185.038-.09.084-.177.046-.087.1-.169.055-.081.118-.157.062-.076.131-.146.07-.069.146-.131.076-.063.157-.117.082-.055.169-.101.086-.046.177-.084.09-.037.185-.066.094-.028.19-.048.096-.019.194-.028.098-.01.196-.01zm7.5 14h18.502q.098 0 .196.01t.194.028q.096.02.19.048.094.029.185.066.09.038.177.084.087.046.169.1.081.055.157.118.076.062.145.131.07.07.132.146.062.076.117.157.055.082.101.169.046.086.084.177.037.09.066.185.028.094.048.19.019.096.028.194.01.098.01.196v.002q0 .098-.01.196t-.028.194q-.02.096-.048.19-.029.094-.066.185-.038.09-.084.177-.046.087-.1.169-.056.081-.118.157-.062.076-.132.146-.069.069-.145.131-.076.063-.157.117-.082.055-.169.101-.086.046-.177.084-.09.037-.185.066-.094.028-.19.048-.096.019-.194.028-.098.01-.196.01H16.624q-.098 0-.196-.01t-.194-.028q-.096-.02-.19-.048-.094-.029-.185-.066-.09-.038-.177-.084-.087-.046-.169-.1-.081-.055-.157-.118-.076-.062-.146-.131-.069-.07-.131-.146-.063-.076-.117-.157-.055-.082-.101-.169-.046-.086-.084-.177-.037-.09-.066-.185-.028-.094-.048-.19-.019-.096-.028-.194-.01-.098-.01-.196v-.002q0-.098.01-.196t.028-.194q.02-.096.048-.19.029-.094.066-.185.038-.09.084-.177.046-.087.1-.169.055-.081.118-.157.062-.076.131-.146.07-.069.146-.131.076-.063.157-.117.082-.055.169-.101.086-.046.177-.084.09-.037.185-.066.094-.028.19-.048.096-.019.194-.028.098-.01.196-.01z" fill="#6F95CC"/></svg>