<svg width="100" height="47" xmlns="http://www.w3.org/2000/svg"><g stroke="#FFF" stroke-width="2.045" fill="none" fill-rule="evenodd" stroke-linecap="round" stroke-linejoin="round"><path d="M89.764 38.7h5.804a2.982 2.982 0 002.98-2.983V27.04c0-1.781-5.343-12.837-7.665-17.557A3.816 3.816 0 0087.46 7.35H75.5V4.142a3.02 3.02 0 00-3.02-3.023l-39.303.027a3.021 3.021 0 00-3.017 3.023v31.548a2.981 2.981 0 002.98 2.984h5.828m36.738-.001H53.223"/><path d="M53.223 38.7a6.903 6.903 0 01-6.898 6.906 6.902 6.902 0 01-6.899-6.905 6.903 6.903 0 016.9-6.907c3.809 0 6.897 3.092 6.897 6.907zm36.485-.111a6.903 6.903 0 01-6.899 6.905 6.903 6.903 0 01-6.898-6.905c0-3.815 3.089-6.907 6.898-6.907 3.81 0 6.9 3.092 6.9 6.907z"/><path d="M85.143 38.592a2.306 2.306 0 11-4.61 0 2.306 2.306 0 114.61 0zm-36.488.108a2.331 2.331 0 11-4.66 0 2.331 2.331 0 114.66 0zm42.829-16.273H80.529V12.76h5.566c.554 0 1.057.322 1.29.825l4.099 8.84zm-65.945-2.192h-8.267m8.267 6.155H9.399m16.14 6.155H1.39M25.539 38.7h-8.267m13.342-11.756h44.887V7.35"/></g></svg>