<svg width="73" height="73" xmlns="http://www.w3.org/2000/svg"><g transform="translate(2 2)" fill="none" fill-rule="evenodd"><rect stroke="#E2E5E7" stroke-width="2" fill="#FFF" x="-.875" y="-.875" width="70.75" height="70.75" rx="3"/><g transform="translate(11.063 11.063)"><circle fill="#6F95CC" cx="23.438" cy="23.438" r="23.438"/><g fill="#FFF"><path d="M24.68 40.445V7.782c0-.441.005-.887 0-1.328v-.06c0-.618-.571-1.21-1.243-1.182-.675.028-1.242.52-1.242 1.183v32.662c0 .442-.005.887 0 1.329v.059c0 .619.571 1.21 1.242 1.182.676-.027 1.243-.52 1.243-1.182z"/><path d="M28.654 7.285L26.599 9.24a943677372.116 943677372.116 0 01-4.04 3.843h1.757l-2.055-1.955-3.281-3.121-.759-.722c-.46-.437-1.305-.469-1.756 0-.456.473-.493 1.207 0 1.672l2.055 1.955 3.281 3.121.758.722c.477.453 1.28.453 1.757 0L26.37 12.8l3.281-3.122.758-.721c.46-.438.493-1.242 0-1.672-.497-.43-1.268-.465-1.756 0zm1.756 30.59l-2.055-1.955-3.281-3.122-.758-.72a1.305 1.305 0 00-1.757 0l-2.055 1.954a94367745.115 94367745.115 0 00-4.04 3.843c-.459.437-.492 1.242 0 1.671.498.434 1.269.47 1.757 0l2.055-1.955 3.282-3.121.758-.722h-1.757l2.055 1.955 3.281 3.122.759.721c.46.438 1.305.47 1.756 0 .456-.469.493-1.202 0-1.671zm9.156-6.965c-.277-.15-.55-.303-.828-.453-.75-.414-1.504-.824-2.254-1.237l-3.335-1.833-4.069-2.235-4.458-2.448-4.499-2.47-4.197-2.307c-1.18-.65-2.365-1.296-3.546-1.947-.85-.469-1.703-.934-2.552-1.403-.402-.22-.804-.45-1.21-.666-.017-.008-.033-.02-.054-.028-.563-.31-1.388-.141-1.698.426-.315.564-.158 1.289.447 1.616.278.15.551.304.829.453.75.414 1.503.824 2.253 1.238l3.335 1.833 4.069 2.235c1.487.815 2.97 1.631 4.458 2.447l4.499 2.471c1.4.77 2.797 1.538 4.197 2.306 1.18.65 2.366 1.297 3.546 1.947.85.47 1.703.934 2.552 1.403.402.221.804.45 1.21.667.017.007.033.02.054.027.563.312 1.388.142 1.699-.426.31-.563.153-1.284-.448-1.616z"/><path d="M11.365 11.065c.253.891.501 1.782.754 2.673.402 1.422.8 2.841 1.201 4.264.091.327.187.658.278.986l.87-1.455c-.936.24-1.873.477-2.809.718-1.496.382-2.987.76-4.483 1.143-.344.086-.692.177-1.035.264-.63.161-1.074.851-.87 1.454.207.615.857.997 1.528.828.937-.24 1.873-.477 2.81-.718 1.495-.382 2.986-.76 4.482-1.143.344-.086.692-.177 1.036-.264.65-.165 1.04-.84.87-1.454-.253-.89-.502-1.782-.754-2.672l-1.202-4.265-.277-.985c-.17-.6-.895-1.021-1.53-.828-.645.197-1.051.812-.87 1.454zm28.711 13.839l-2.81.717c-1.495.382-2.986.76-4.482 1.143l-1.036.264c-.65.166-1.04.84-.87 1.455.253.89.502 1.781.754 2.672.402 1.423.8 2.842 1.202 4.264.091.328.186.659.277.986.17.599.895 1.02 1.53.828.645-.198 1.047-.816.87-1.455-.254-.89-.502-1.781-.755-2.672-.402-1.423-.8-2.842-1.201-4.265-.091-.327-.187-.658-.278-.985l-.87 1.454c.936-.24 1.873-.477 2.809-.717 1.496-.382 2.987-.76 4.483-1.143l1.035-.264c.63-.162 1.074-.852.87-1.455a1.275 1.275 0 00-1.528-.827zM38.31 13.883c-.277.15-.55.304-.828.454-.75.414-1.504.823-2.254 1.237l-3.335 1.833-4.068 2.235-4.458 2.448-4.5 2.47-4.196 2.307c-1.18.65-2.366 1.296-3.546 1.947-.85.469-1.703.934-2.553 1.403-.401.22-.807.437-1.21.666-.016.008-.032.02-.053.027-.564.308-.808 1.084-.448 1.616.365.54 1.098.757 1.699.426.278-.15.551-.303.829-.453.75-.414 1.504-.824 2.253-1.238l3.336-1.833 4.068-2.234 4.458-2.448 4.5-2.471 4.196-2.306c1.18-.65 2.366-1.297 3.546-1.947.85-.47 1.703-.934 2.552-1.403.402-.22.808-.438 1.21-.666.017-.008.033-.02.054-.028.563-.307.808-1.084.447-1.616a1.298 1.298 0 00-1.698-.426z"/><path d="M13.76 36.4c.252-.89.5-1.78.753-2.671l1.202-4.265c.091-.327.186-.658.278-.985.174-.615-.216-1.29-.87-1.455l-2.81-.717c-1.495-.382-2.987-.76-4.482-1.143-.344-.087-.692-.178-1.036-.264-.625-.162-1.38.2-1.529.827-.149.623.195 1.285.87 1.455l2.81.717c1.495.383 2.986.76 4.482 1.143.344.087.692.178 1.036.264l-.87-1.454c-.253.89-.502 1.781-.754 2.672l-1.202 4.265c-.09.327-.186.658-.277.985-.17.595.211 1.313.87 1.455.654.138 1.35-.19 1.528-.828zm26.979-16.75c-.937-.24-1.873-.477-2.81-.718-1.495-.382-2.986-.76-4.482-1.143-.344-.086-.692-.177-1.036-.264l.87 1.455c.253-.891.502-1.782.754-2.673.402-1.422.8-2.841 1.202-4.264.09-.327.186-.658.277-.986.17-.595-.211-1.312-.87-1.454-.654-.142-1.35.185-1.528.828-.253.89-.502 1.781-.754 2.672l-1.202 4.265c-.091.327-.186.658-.278.985-.174.615.216 1.289.87 1.454.937.24 1.873.477 2.81.718 1.495.382 2.987.76 4.482 1.143l1.036.264c.625.161 1.38-.201 1.529-.828a1.205 1.205 0 00-.87-1.454z"/></g></g><path fill="#E2E5E7" fill-rule="nonzero" d="M7.938 12.625h3.125v7.813H7.938z"/></g></svg>