<svg width="31" height="37" xmlns="http://www.w3.org/2000/svg" xmlns:xlink="http://www.w3.org/1999/xlink"><defs><path d="M1.429 7.422v13.712l12.857 5.095V12.528l-5-1.982v5.404l-2.857-1.063V9.405l-5-1.983zm27.142 0l-12.857 5.106v13.7l12.857-5.094V7.422zM22.01 4.254L9.966 9.283 15 11.276l12.355-4.895-5.346-2.127zM15 1.474L2.645 6.381l4.531 1.794L18.84 3.003 15 1.474zm.023-1.473a.98.98 0 01.245.045l14.286 5.67a.727.727 0 01.446.665v15.24a.727.727 0 01-.446.654l-14.286 5.67a.728.728 0 01-.536 0L.446 22.276A.727.727 0 010 21.62V6.381a.727.727 0 01.446-.665L14.732.046a.693.693 0 01.29-.045z" id="a"/></defs><g transform="translate(1 9)" fill="none" fill-rule="evenodd"><mask id="b" fill="#fff"><use xlink:href="#a"/></mask><use fill="#000" xlink:href="#a"/><g mask="url(#b)" fill="#4B658A"><path d="M-7-2h45v30H-7z"/></g></g></svg>