<svg width="107" height="107" xmlns="http://www.w3.org/2000/svg"><g fill="none" fill-rule="evenodd"><path d="M107 53.5c0 29.547-23.955 53.5-53.5 53.5C23.953 107 0 83.047 0 53.5S23.953 0 53.5 0C83.045 0 107 23.953 107 53.5" fill="#432918"/><path d="M100 54c0 25.405-20.596 46-46 46-25.405 0-46-20.595-46-46S28.595 8 54 8c25.404 0 46 20.595 46 46" fill="#FFF"/><path d="M99 54c0 24.853-20.147 45-45 45C29.148 99 9 78.853 9 54S29.148 9 54 9c24.853 0 45 20.147 45 45" fill="#432918"/><path d="M29 51.5c0 .217-.01.403-.03.56a1.68 1.68 0 01-.082.376.42.42 0 01-.13.196.296.296 0 01-.182.056c-.101 0-.266-.067-.493-.202a7.67 7.67 0 00-.905-.437 9.98 9.98 0 00-1.346-.437c-.522-.135-1.126-.202-1.816-.202-.737 0-1.403.122-1.999.365a4.342 4.342 0 00-1.527 1.031c-.424.445-.749.98-.976 1.604a6.004 6.004 0 00-.34 2.067c0 .83.115 1.56.346 2.192.231.631.555 1.16.97 1.587.416.426.914.747 1.498.963a5.516 5.516 0 001.934.326c.346 0 .686-.038 1.022-.113.337-.074.65-.186.94-.335v-3.364h-2.88c-.14 0-.25-.084-.329-.252-.077-.168-.117-.454-.117-.858 0-.209.01-.385.03-.526.02-.142.05-.257.087-.343a.48.48 0 01.143-.19.304.304 0 01.187-.062h5.137a.87.87 0 01.335.062.736.736 0 01.258.185.82.82 0 01.17.297c.04.115.06.248.06.398v5.774c0 .223-.041.42-.125.588-.081.168-.25.3-.504.398a13.512 13.512 0 01-4.579.796c-1.214 0-2.301-.166-3.26-.499-.96-.332-1.774-.815-2.44-1.446a6.272 6.272 0 01-1.529-2.31c-.351-.908-.528-1.937-.528-3.089 0-1.188.188-2.254.565-3.2a6.731 6.731 0 011.598-2.41c.69-.661 1.522-1.168 2.498-1.52.976-.35 2.062-.526 3.26-.526.659 0 1.258.044 1.8.129.54.086 1.011.19 1.416.314.403.123.738.256 1.005.398.266.142.452.265.558.37a.903.903 0 01.229.443c.047.19.071.472.071.846m11 11.23c0 .232-.01.426-.028.583a1.826 1.826 0 01-.084.393.501.501 0 01-.14.224.302.302 0 01-.198.07h-6.672a.903.903 0 01-.624-.225c-.17-.15-.254-.395-.254-.733V49.485c0-.077.025-.146.073-.208a.508.508 0 01.242-.15 2.28 2.28 0 01.457-.093c.19-.022.428-.034.714-.034.292 0 .532.012.72.034.187.024.336.054.45.094a.512.512 0 01.241.15c.05.061.073.13.073.207v12.011h4.58c.076 0 .141.02.197.064a.459.459 0 01.14.207c.038.097.067.223.085.38.018.159.028.353.028.583m13-4.456c0 .9-.132 1.705-.397 2.415a4.75 4.75 0 01-1.17 1.803c-.514.491-1.15.866-1.907 1.122-.758.258-1.627.386-2.611.386-.923 0-1.752-.116-2.486-.346-.735-.23-1.356-.58-1.863-1.049a4.586 4.586 0 01-1.163-1.751c-.269-.7-.403-1.517-.403-2.455v-8.923c0-.075.023-.143.068-.204a.48.48 0 01.244-.147c.117-.038.27-.068.46-.091.19-.023.43-.034.726-.034.287 0 .526.011.716.034a2.4 2.4 0 01.454.091.51.51 0 01.244.147.318.318 0 01.074.204v8.662c0 .582.072 1.087.216 1.514.143.426.35.78.619 1.06.268.28.59.49.964.63.375.14.793.21 1.255.21a3.47 3.47 0 001.26-.217c.371-.143.685-.353.943-.629a2.82 2.82 0 00.595-1.02c.14-.404.21-.863.21-1.378v-8.832c0-.075.023-.143.068-.204a.482.482 0 01.24-.147 2.35 2.35 0 01.459-.091 6.46 6.46 0 01.72-.034c.289 0 .525.011.71.034.186.023.335.053.449.091a.477.477 0 01.238.147.33.33 0 01.068.204v8.798m13-8.028c0 .223-.01.414-.028.571a1.674 1.674 0 01-.083.381.516.516 0 01-.139.214.29.29 0 01-.184.069h-3.6v12.034a.334.334 0 01-.071.208.513.513 0 01-.24.15c-.111.038-.26.069-.45.092-.19.023-.424.035-.705.035-.282 0-.517-.012-.706-.035a2.308 2.308 0 01-.45-.092.506.506 0 01-.239-.15.33.33 0 01-.073-.208V51.481h-3.599a.278.278 0 01-.188-.069.551.551 0 01-.134-.214 1.56 1.56 0 01-.083-.38 4.75 4.75 0 01-.028-.572c0-.23.008-.427.028-.588a1.56 1.56 0 01.083-.387.489.489 0 01.134-.207.288.288 0 01.188-.064h10.133a.3.3 0 01.184.064.46.46 0 01.139.207c.036.096.064.225.083.387.018.161.028.357.028.588m11 12.559c0 .225-.01.412-.029.563a1.384 1.384 0 01-.088.365.467.467 0 01-.146.203.325.325 0 01-.194.064h-7.627a.965.965 0 01-.651-.226c-.177-.151-.265-.396-.265-.736V49.962c0-.34.088-.585.265-.736a.963.963 0 01.65-.226h7.582c.07 0 .132.02.186.059a.443.443 0 01.142.202c.039.097.068.22.087.371.02.151.03.342.03.573 0 .217-.01.4-.03.551a1.385 1.385 0 01-.087.366.49.49 0 01-.142.202.29.29 0 01-.186.064h-5.422v3.663h4.587c.071 0 .135.021.195.064a.472.472 0 01.147.197c.038.089.067.209.087.36.02.15.03.334.03.55 0 .224-.01.41-.03.557-.02.146-.05.264-.087.353a.428.428 0 01-.147.19.345.345 0 01-.195.06h-4.587v4.23h5.468a.33.33 0 01.194.064c.058.042.107.11.146.203.04.092.07.214.088.365.019.15.029.338.029.561m15 .067c0 .177-.03.334-.09.472a.984.984 0 01-.242.345.922.922 0 01-.36.201 1.43 1.43 0 01-.421.064h-1.26c-.263 0-.49-.027-.68-.08a1.34 1.34 0 01-.529-.294 2.535 2.535 0 01-.467-.575 11.1 11.1 0 01-.506-.938l-3.62-6.959a35.53 35.53 0 01-.643-1.34 24.136 24.136 0 01-.584-1.398h-.022a63.75 63.75 0 01.09 3.348l-.001 7.787a.37.37 0 01-.061.207.472.472 0 01-.214.156 1.71 1.71 0 01-.41.098 5.245 5.245 0 01-.664.034c-.263 0-.48-.012-.653-.034a1.626 1.626 0 01-.405-.098.428.428 0 01-.202-.156.395.395 0 01-.056-.207V50.127c0-.36.103-.63.31-.81.206-.181.458-.271.76-.271h1.584c.285 0 .525.025.72.074.196.05.37.133.523.248.154.115.298.274.432.477.136.203.275.455.417.754l2.834 5.44c.165.33.328.655.49.973.16.318.315.636.466.955l.439.937c.142.307.28.613.416.92h.011a81.017 81.017 0 01-.067-3.348v-6.982c0-.076.022-.145.067-.207a.535.535 0 01.225-.16c.105-.046.244-.08.415-.098a6.04 6.04 0 01.664-.029c.256 0 .47.01.641.03.173.018.306.05.4.096a.47.47 0 01.197.161.388.388 0 01.056.207v13.378M43 73.246c0 .231-.01.425-.028.583a1.34 1.34 0 01-.088.375.593.593 0 01-.137.208.259.259 0 01-.176.069h-4.662v4.015h4.374c.067 0 .126.02.178.058a.489.489 0 01.138.196 1.4 1.4 0 01.088.369c.018.154.027.346.027.577 0 .23-.01.423-.027.577-.02.153-.048.28-.088.38a.54.54 0 01-.138.214.277.277 0 01-.178.064H37.91v5.561a.36.36 0 01-.066.22.507.507 0 01-.237.155 2.04 2.04 0 01-.446.098 5.87 5.87 0 01-.706.035 5.86 5.86 0 01-.699-.035 1.973 1.973 0 01-.447-.098.55.55 0 01-.237-.156.344.344 0 01-.071-.219V72.957c0-.337.082-.583.248-.732A.875.875 0 0135.86 72h6.712c.066 0 .124.021.176.064a.518.518 0 01.137.207c.04.096.07.225.088.387a5.4 5.4 0 01.028.588m10.115 3.161c0-.491-.11-.907-.332-1.246-.223-.338-.585-.577-1.09-.715a4.008 4.008 0 00-.52-.092 7.16 7.16 0 00-.808-.035h-1.352v4.235h1.535c.428 0 .803-.052 1.124-.156.32-.104.587-.25.802-.439.213-.188.373-.413.48-.674a2.3 2.3 0 00.16-.878zM57 86.537a.444.444 0 01-.046.215c-.03.057-.102.105-.218.144a2.163 2.163 0 01-.503.08 14.03 14.03 0 01-.905.024c-.32 0-.577-.008-.768-.023a1.708 1.708 0 01-.453-.087.489.489 0 01-.235-.162.912.912 0 01-.114-.236l-1.33-3.335c-.16-.376-.317-.71-.47-1.003a3.218 3.218 0 00-.51-.733 1.87 1.87 0 00-.647-.444c-.244-.1-.527-.15-.848-.15h-.939v5.688a.32.32 0 01-.075.208.517.517 0 01-.245.15c-.116.038-.27.069-.46.092a6.232 6.232 0 01-.733.035c-.291 0-.533-.012-.727-.035a2.335 2.335 0 01-.464-.093.479.479 0 01-.242-.15.338.338 0 01-.068-.207V72.957c0-.337.086-.583.257-.732a.934.934 0 01.637-.225h3.839c.389 0 .71.008.962.023.252.016.48.035.687.058a6.17 6.17 0 011.61.439c.478.207.883.478 1.215.812.332.335.586.732.762 1.19.175.457.264.982.264 1.574 0 .5-.063.956-.189 1.368a3.552 3.552 0 01-.556 1.101 3.701 3.701 0 01-.905.843 4.98 4.98 0 01-1.225.577 3.294 3.294 0 011.173.951c.172.22.334.47.487.75.153.281.302.598.446.952l1.25 2.942c.114.293.19.506.228.64.04.136.058.242.058.318zm11-.731c0 .224-.01.412-.03.562a1.5 1.5 0 01-.088.365.466.466 0 01-.147.204.325.325 0 01-.194.063h-7.626a.97.97 0 01-.652-.226c-.175-.15-.263-.396-.263-.737V72.962c0-.34.088-.586.263-.736a.968.968 0 01.652-.226h7.579c.071 0 .134.019.189.058a.443.443 0 01.14.203c.039.097.068.22.088.37.02.152.03.343.03.574 0 .217-.01.4-.03.551-.02.151-.05.272-.088.366a.49.49 0 01-.14.202.298.298 0 01-.19.064h-5.42v3.663h4.589c.07 0 .135.021.193.064a.46.46 0 01.146.197c.04.089.07.209.088.36.02.15.03.333.03.55 0 .224-.01.41-.03.556a1.285 1.285 0 01-.088.354.422.422 0 01-.146.191.342.342 0 01-.193.058h-4.589v4.231h5.468c.07 0 .135.021.194.064a.46.46 0 01.147.203c.039.092.068.214.088.365.02.15.03.338.03.562m12 0c0 .224-.01.412-.03.562a1.41 1.41 0 01-.089.365.461.461 0 01-.146.204.326.326 0 01-.193.063h-7.627a.968.968 0 01-.652-.226c-.175-.15-.263-.396-.263-.737V72.962c0-.34.088-.586.263-.736a.966.966 0 01.652-.226h7.58c.07 0 .133.019.188.058a.437.437 0 01.14.203c.04.097.069.22.088.37.02.152.03.343.03.574 0 .217-.01.4-.03.551-.02.151-.049.272-.088.366a.483.483 0 01-.14.202.297.297 0 01-.189.064h-5.421v3.663h4.588c.07 0 .135.021.194.064a.46.46 0 01.147.197c.039.089.068.209.088.36.02.15.029.333.029.55 0 .224-.009.41-.03.556a1.323 1.323 0 01-.087.354.423.423 0 01-.147.191.344.344 0 01-.194.058h-4.588v4.231h5.469a.32.32 0 01.193.064.45.45 0 01.146.203c.04.092.069.214.09.365.019.15.029.338.029.562M31.377 39.052a.15.15 0 00-.132.03 5.795 5.795 0 01-.235-.39c-.438-.795-.732-1.671-.975-2.549-.467-1.684-.66-3.41-.986-5.122-.007-.03-.052-.028-.049.006.172 1.751.488 3.53.961 5.22.246.882.553 1.762 1.003 2.555.07.121.143.241.221.358a.18.18 0 00-.005.146c.513 1.174.803 2.344 1.587 3.382.702.931 1.704 1.519 2.843 1.244a.261.261 0 00.134-.078c.139-.001.28-.11.252-.28-.422-2.542-2.37-3.96-4.62-4.522" fill="#FFF"/><path d="M32.057 34.779c-.122-.048-.256.093-.217.22l.041.143a8.483 8.483 0 01-.159-.323c-.39-.836-.656-1.736-.877-2.636-.42-1.7-.588-3.424-.79-5.158-.005-.037-.055-.03-.055.005.013.793.117 1.59.224 2.375.132.972.311 1.938.545 2.889.226.919.515 1.828.921 2.68.092.19.192.38.3.563.265 1.001.454 1.975.995 2.902.572.98 1.472 1.668 2.601 1.547a.245.245 0 00.138-.058c.135.016.284-.07.276-.237-.12-2.49-1.836-4.093-3.943-4.913" fill="#FFF"/><path d="M33.23 30.542c-.068-.045-.155-.017-.204.042a19.59 19.59 0 01-.577-2.541c-.214-1.335-.258-2.675-.386-4.017-.004-.033-.058-.036-.058 0-.035 1.336.124 2.708.34 4.027.148.913.355 1.825.648 2.703.1 1.134.025 2.198.4 3.305.342 1.007 1.042 1.817 2.108 1.937a.242.242 0 00.14-.025c.12.042.274-.005.298-.16.36-2.286-.92-4.096-2.709-5.271" fill="#FFF"/><path d="M33.993 25.797a.17.17 0 00-.141-.01c-.137-.382-.249-.77-.341-1.164-.203-.862-.287-1.74-.463-2.603-.005-.029-.051-.025-.048.004.064.903.218 1.813.432 2.7.09.375.2.75.338 1.114a.137.137 0 00-.04.108c.116 1.101.026 2.133.44 3.205.372.96 1.131 1.733 2.288 1.848a.292.292 0 00.151-.025c.131.04.298-.005.325-.152.392-2.18-1-3.904-2.94-5.025" fill="#FFF"/><path d="M34.587 22.153a.089.089 0 00-.037-.017 14.2 14.2 0 01-.436-4.113c0-.026-.035-.033-.04-.006-.187 1.35-.006 2.796.38 4.135a.148.148 0 00-.078.139c.093 1.026.02 1.987.353 2.986.298.896.908 1.614 1.837 1.722a.208.208 0 00.12-.023c.106.038.24-.004.26-.141.316-2.033-.8-3.639-2.359-4.682m2.67-9.143c-.316.985-.479 2.022-.566 3.06a17.438 17.438 0 00-.068 1.6.138.138 0 00-.088.099c-.21.998-.55 1.882-.534 2.933.015.943.365 1.823 1.179 2.23.04.02.08.024.117.02.085.068.219.074.277-.048.869-1.814.313-3.698-.807-5.196a.113.113 0 00-.057-.041c0-.528.015-1.054.057-1.583a19.57 19.57 0 01.52-3.064c.005-.02-.025-.028-.03-.01m7.683 19.015c-.203 1.61-.338 3.214-.714 4.8-.238.997-.55 2.072-1.113 2.964-.036-.089-.131-.158-.23-.13-2.474.692-4.56 2.264-4.881 4.938-.022.18.143.285.297.28.04.037.092.064.155.075 1.285.235 2.366-.425 3.094-1.43.776-1.071 1.043-2.247 1.503-3.44.11-.162.21-.329.3-.49.44-.79.714-1.666.938-2.536.234-.908.394-1.833.516-2.762.1-.75.187-1.512.195-2.268.002-.034-.055-.035-.06-.001" fill="#FFF"/><path d="M43.937 28.023c-.068.715-.073 1.437-.13 2.151a16.319 16.319 0 01-.305 2.125 9.173 9.173 0 01-1.05 2.687c-.004 0-.01 0-.016.002-2.256.658-4.154 2.14-4.434 4.64-.02.168.132.266.273.26.037.034.083.06.14.07 1.176.213 2.161-.41 2.82-1.351.737-1.053.964-2.208 1.416-3.38.03-.08-.014-.172-.084-.218a9.228 9.228 0 00.998-2.543c.172-.72.267-1.457.333-2.195.067-.742.12-1.5.096-2.246-.001-.032-.055-.034-.057-.002" fill="#FFF"/><path d="M43.938 25.024c-.187.735-.33 1.478-.53 2.21-.201.73-.444 1.449-.719 2.154a21.088 21.088 0 01-1.138 2.429c-.023-.1-.15-.177-.25-.126-2.013 1.042-3.516 2.76-3.276 5.088.016.158.181.217.314.185a.27.27 0 00.148.036c1.16-.037 1.97-.796 2.407-1.783.45-1.02.467-2.036.62-3.097.5-.864.913-1.786 1.276-2.689.559-1.395 1.037-2.906 1.21-4.397.004-.039-.053-.048-.062-.01" fill="#FFF"/><path d="M45.937 16.018c-.335.82-.59 1.67-.887 2.504-.099.28-.202.558-.308.835-.015-.002-.03.006-.033.023l-.023.121a26.869 26.869 0 01-.652 1.556 15.87 15.87 0 01-1.38 2.432 11.5 11.5 0 01-.279.378c-.028-.072-.11-.128-.194-.104-2.023.576-3.712 1.828-3.93 3.906-.014.14.124.219.25.213a.272.272 0 00.128.056c1.062.161 1.941-.368 2.522-1.158.612-.835.815-1.74 1.164-2.662.707-.887 1.274-1.88 1.749-2.872.186-.387.357-.781.518-1.178-.245 1.338-.51 2.669-.982 3.958a12.57 12.57 0 01-.979 2.063c-.233.395-.5.767-.782 1.128-.047-.052-.125-.081-.196-.054-2.066.842-3.69 2.363-3.642 4.592.003.15.16.218.292.198a.285.285 0 00.144.044c1.145.05 2.006-.612 2.517-1.517.568-1.009.64-2.047.923-3.128.805-.981 1.396-2.134 1.826-3.284.525-1.404.835-2.887 1.025-4.366.138-.35.272-.704.4-1.059.31-.861.623-1.729.871-2.61.01-.032-.05-.047-.062-.015" fill="#FFF"/><path d="M44.936 15.023c-.292 1.14-.528 2.286-.938 3.397-.225.612-.518 1.356-.97 1.949-.024-.06-.093-.107-.165-.091-1.9.425-3.533 1.494-3.86 3.403-.022.13.1.21.217.21a.234.234 0 00.114.06c.968.203 1.81-.24 2.394-.94.626-.75.866-1.592 1.256-2.44.5-.578.818-1.354 1.06-1.98A18 18 0 0045 15.033c.005-.038-.053-.046-.064-.01m-3.98-4.008c-.27.78-.452 1.613-.63 2.424a18.4 18.4 0 00-.26 1.443.12.12 0 00-.114.044c-.594.78-1.259 1.394-1.673 2.331-.371.839-.418 1.785.143 2.542a.204.204 0 00.096.074c.048.102.165.172.267.093 1.514-1.178 1.786-3.111 1.398-4.98a.131.131 0 00-.05-.078c.073-.458.157-.913.255-1.365.182-.844.446-1.668.612-2.515.005-.027-.035-.04-.044-.013" fill="#FFF"/><path d="M39.806 19.054c-.43 1.078-.684 2.215-1.004 3.322a48.611 48.611 0 00-.896 3.508c-.486 2.308-.715 4.668-.836 7.012-.12 2.325-.08 4.656.07 6.98.078 1.183.191 2.363.332 3.54.136 1.145.195 2.41.608 3.509.043.116.275.09.279-.032.02-1.045-.261-2.121-.39-3.16a73.04 73.04 0 01-.356-3.534 59.475 59.475 0 01-.1-7.25c.107-2.284.352-4.574.789-6.827.227-1.183.55-2.347.866-3.513.314-1.155.726-2.323.832-3.51.008-.095-.154-.143-.194-.045m7.57 19.997a.152.152 0 00-.133.032 7.188 7.188 0 01-.234-.392c-.437-.795-.731-1.67-.975-2.548-.467-1.684-.659-3.41-.986-5.122-.006-.03-.052-.027-.048.006a30.62 30.62 0 00.96 5.22c.247.882.554 1.762 1.005 2.555.067.121.141.242.22.358a.185.185 0 00-.005.147c.512 1.174.802 2.343 1.586 3.381.703.931 1.706 1.519 2.844 1.244a.263.263 0 00.134-.078c.14-.002.281-.11.252-.28-.423-2.542-2.37-3.96-4.62-4.523" fill="#FFF"/><path d="M47.057 34.778c-.123-.048-.257.094-.218.221l.042.143a8.748 8.748 0 01-.159-.323c-.39-.838-.656-1.737-.878-2.636-.42-1.7-.588-3.425-.79-5.159-.005-.036-.055-.029-.054.006.012.793.117 1.59.223 2.375.132.972.313 1.938.546 2.888.227.92.514 1.829.922 2.68.09.19.19.38.3.564.265 1 .452 1.975.993 2.902.572.98 1.471 1.668 2.602 1.547a.259.259 0 00.138-.058c.135.015.284-.07.276-.238-.12-2.489-1.836-4.092-3.943-4.912" fill="#FFF"/><path d="M48.23 30.54c-.069-.043-.155-.015-.204.045-.25-.831-.439-1.68-.577-2.542-.215-1.334-.258-2.675-.386-4.017-.004-.032-.057-.036-.058-.001-.035 1.338.125 2.71.34 4.028.149.913.355 1.825.648 2.703.099 1.134.025 2.199.4 3.304.342 1.008 1.042 1.818 2.108 1.938a.231.231 0 00.139-.025c.12.041.274-.005.299-.16.36-2.288-.92-4.096-2.709-5.272" fill="#FFF"/><path d="M48.992 25.797a.17.17 0 00-.141-.01 11.234 11.234 0 01-.341-1.164c-.203-.862-.286-1.738-.462-2.604-.005-.028-.051-.024-.048.005.064.903.218 1.814.432 2.7a9 9 0 00.339 1.114.141.141 0 00-.042.108c.116 1.101.026 2.133.44 3.205.372.96 1.132 1.733 2.29 1.848a.287.287 0 00.149-.025c.131.04.299-.005.326-.152.392-2.18-.999-3.904-2.942-5.025" fill="#FFF"/><path d="M49.587 22.153a.094.094 0 00-.037-.017 14.23 14.23 0 01-.437-4.113c.002-.026-.034-.033-.038-.006-.189 1.35-.006 2.796.379 4.136a.147.147 0 00-.078.138c.093 1.027.021 1.987.353 2.986.298.896.908 1.615 1.837 1.722a.209.209 0 00.12-.023c.105.037.24-.004.26-.141.316-2.033-.801-3.639-2.359-4.682m2.669-9.143c-.316.985-.478 2.022-.565 3.06a17.333 17.333 0 00-.068 1.6.134.134 0 00-.088.099c-.21.999-.551 1.882-.534 2.934.015.942.364 1.822 1.179 2.229.04.02.08.025.116.02.085.068.22.074.278-.048.87-1.814.312-3.698-.807-5.196a.112.112 0 00-.057-.04c0-.528.015-1.055.058-1.584.082-1.039.274-2.059.52-3.064.004-.02-.025-.028-.032-.01m7.684 19.014c-.204 1.61-.339 3.215-.715 4.8-.238.999-.55 2.073-1.114 2.966-.034-.09-.13-.159-.23-.131-2.473.692-4.558 2.263-4.879 4.938-.022.18.143.285.298.28.04.037.09.064.154.076 1.284.234 2.366-.426 3.093-1.431.776-1.072 1.044-2.246 1.503-3.44.11-.162.21-.33.3-.49.44-.79.714-1.666.938-2.537.233-.907.394-1.833.517-2.763.099-.748.187-1.51.195-2.267 0-.033-.056-.034-.06 0" fill="#FFF"/><path d="M58.936 28.024c-.068.715-.072 1.435-.13 2.15A15.944 15.944 0 0158.5 32.3a9.121 9.121 0 01-1.047 2.687c-.006 0-.01 0-.016.002-2.257.658-4.155 2.139-4.435 4.64-.02.168.133.265.273.26a.27.27 0 00.141.07c1.175.214 2.16-.41 2.82-1.352.736-1.052.963-2.208 1.414-3.379.031-.081-.012-.172-.083-.217a9.303 9.303 0 00.997-2.544c.173-.72.269-1.457.334-2.194.066-.742.12-1.5.096-2.247 0-.033-.055-.034-.058-.001" fill="#FFF"/><path d="M58.938 25.025c-.188.734-.33 1.478-.53 2.21-.202.73-.444 1.448-.719 2.153a21.17 21.17 0 01-.908 2.002c-.075.143-.152.286-.231.427-.022-.1-.15-.177-.25-.125-2.012 1.04-3.515 2.758-3.275 5.087.016.158.18.217.314.184a.27.27 0 00.147.037c1.161-.038 1.971-.796 2.407-1.783.451-1.021.468-2.036.62-3.098.5-.863.914-1.785 1.276-2.688.56-1.395 1.037-2.906 1.21-4.398.004-.038-.052-.046-.061-.008" fill="#FFF"/><path d="M60.937 16.018c-.335.82-.59 1.67-.888 2.504-.098.28-.202.558-.308.836a.027.027 0 00-.033.022l-.022.122a26.64 26.64 0 01-.652 1.555c-.39.843-.843 1.661-1.38 2.432-.09.128-.183.253-.28.378-.026-.072-.11-.128-.193-.104-2.023.577-3.712 1.828-3.929 3.906-.015.14.123.219.25.213a.25.25 0 00.128.056c1.062.16 1.94-.368 2.521-1.159.613-.833.815-1.738 1.164-2.66.706-.888 1.274-1.88 1.749-2.872.186-.388.355-.782.518-1.179-.246 1.338-.51 2.67-.983 3.959a12.45 12.45 0 01-.978 2.062c-.233.396-.5.767-.782 1.128-.047-.052-.124-.082-.196-.053-2.066.841-3.688 2.363-3.642 4.59.003.152.16.22.293.199.04.025.087.042.143.044 1.146.05 2.006-.612 2.516-1.517.569-1.008.641-2.047.923-3.127.807-.983 1.397-2.134 1.827-3.284.525-1.405.835-2.889 1.024-4.366.14-.351.272-.705.4-1.06.311-.861.624-1.73.872-2.609.01-.033-.05-.048-.062-.016" fill="#FFF"/><path d="M59.937 15.024c-.292 1.139-.528 2.285-.937 3.396-.227.612-.52 1.356-.97 1.95-.027-.062-.094-.108-.168-.092-1.898.425-3.53 1.494-3.86 3.403-.021.129.1.21.218.21a.23.23 0 00.114.059c.969.205 1.81-.239 2.395-.938.625-.751.865-1.593 1.256-2.44.499-.579.818-1.355 1.061-1.98.444-1.146.755-2.355.954-3.558.006-.039-.053-.047-.063-.01m-3.981-4.009c-.27.78-.451 1.613-.63 2.425-.105.476-.192.957-.26 1.442a.121.121 0 00-.114.045c-.594.78-1.259 1.393-1.672 2.33-.373.839-.419 1.786.142 2.542a.205.205 0 00.096.074c.048.102.165.172.266.093 1.516-1.178 1.787-3.111 1.4-4.98a.134.134 0 00-.05-.078c.071-.458.157-.913.255-1.365.181-.844.446-1.668.61-2.514.006-.028-.034-.041-.043-.014" fill="#FFF"/><path d="M54.806 19.054c-.431 1.077-.685 2.214-1.004 3.322a48.873 48.873 0 00-.896 3.509c-.486 2.307-.716 4.667-.836 7.01-.12 2.327-.08 4.657.071 6.982a64.69 64.69 0 00.331 3.54c.136 1.144.195 2.409.608 3.508.044.116.275.092.278-.032.02-1.044-.26-2.12-.389-3.159a73.08 73.08 0 01-.356-3.535 59.409 59.409 0 01-.1-7.25 48.05 48.05 0 01.787-6.828c.229-1.182.552-2.346.868-3.512.313-1.155.725-2.323.832-3.51.007-.095-.154-.143-.194-.045m7.57 19.997a.15.15 0 00-.132.032 7.088 7.088 0 01-.234-.391c-.438-.795-.732-1.671-.975-2.549-.467-1.684-.66-3.41-.987-5.122-.006-.03-.051-.027-.048.006a30.7 30.7 0 00.96 5.22c.247.883.554 1.762 1.004 2.555.07.121.143.242.22.358a.184.184 0 00-.004.147c.512 1.174.803 2.343 1.587 3.381.702.931 1.704 1.519 2.844 1.244a.261.261 0 00.133-.078c.14-.002.28-.11.252-.28-.422-2.541-2.37-3.96-4.62-4.523" fill="#FFF"/><path d="M62.057 34.778c-.123-.047-.257.094-.218.22.016.05.028.097.042.144a7.916 7.916 0 01-.158-.323c-.391-.837-.657-1.737-.88-2.635-.418-1.7-.586-3.425-.79-5.16-.004-.037-.053-.03-.053.006.012.793.116 1.59.223 2.376.132.971.312 1.937.546 2.887.227.92.515 1.829.921 2.68.092.19.19.38.3.564.265 1 .453 1.975.995 2.903.572.979 1.472 1.668 2.602 1.546a.257.257 0 00.138-.058c.134.016.283-.07.275-.237-.12-2.49-1.836-4.093-3.943-4.913" fill="#FFF"/><path d="M63.23 30.54c-.068-.043-.155-.015-.204.044a19.46 19.46 0 01-.576-2.542c-.215-1.334-.259-2.674-.388-4.016-.003-.032-.056-.036-.057-.001-.035 1.337.124 2.709.34 4.028.148.913.354 1.825.648 2.703.1 1.134.026 2.199.401 3.305.34 1.007 1.041 1.817 2.107 1.937a.237.237 0 00.138-.025c.12.042.275-.004.3-.16.36-2.287-.92-4.096-2.71-5.272" fill="#FFF"/><path d="M63.993 25.797a.17.17 0 00-.142-.01c-.136-.382-.248-.77-.34-1.164-.204-.862-.287-1.739-.462-2.605-.006-.026-.051-.023-.049.006.063.903.218 1.813.432 2.7.09.375.2.75.339 1.114a.14.14 0 00-.042.108c.117 1.101.027 2.133.44 3.205.372.96 1.132 1.733 2.29 1.847a.282.282 0 00.15-.024c.13.04.299-.004.325-.152.391-2.18-1-3.905-2.941-5.025" fill="#FFF"/><path d="M64.587 22.153a.099.099 0 00-.037-.017 14.238 14.238 0 01-.436-4.113c.001-.025-.035-.033-.039-.006-.189 1.35-.007 2.796.38 4.135-.048.027-.085.08-.079.139.093 1.026.02 1.988.353 2.987.3.895.908 1.613 1.837 1.72a.206.206 0 00.12-.022c.106.038.24-.004.26-.141.316-2.033-.8-3.64-2.359-4.682m2.669-9.143c-.316.985-.478 2.023-.566 3.06-.045.528-.07 1.065-.067 1.6a.135.135 0 00-.088.1c-.21.997-.55 1.88-.534 2.933.014.942.364 1.822 1.18 2.23a.19.19 0 00.115.018c.085.07.22.075.278-.047.869-1.814.313-3.698-.807-5.197a.116.116 0 00-.057-.04c0-.527.015-1.054.057-1.583a19.62 19.62 0 01.52-3.064c.004-.02-.025-.029-.03-.01m7.683 19.014c-.203 1.61-.339 3.215-.715 4.8-.238.999-.55 2.074-1.113 2.965-.035-.089-.13-.158-.23-.13-2.473.692-4.558 2.264-4.88 4.938-.022.18.143.286.297.28.04.037.09.065.154.076 1.285.234 2.367-.426 3.094-1.43.777-1.072 1.043-2.247 1.504-3.44.11-.163.209-.33.3-.49.44-.79.713-1.667.936-2.537.234-.908.395-1.834.517-2.763.1-.749.188-1.51.196-2.268 0-.033-.056-.033-.06-.001" fill="#FFF"/><path d="M73.937 28.023c-.068.715-.073 1.436-.131 2.152a16.144 16.144 0 01-.305 2.124 9.16 9.16 0 01-1.048 2.687c-.005.001-.01 0-.016.002-2.256.658-4.154 2.138-4.435 4.64-.019.168.132.266.273.26a.27.27 0 00.141.07c1.175.213 2.16-.41 2.82-1.351.736-1.053.963-2.208 1.414-3.38.032-.081-.012-.172-.083-.217a9.28 9.28 0 00.998-2.544c.172-.72.268-1.457.334-2.194.065-.742.119-1.5.095-2.247-.002-.032-.054-.034-.057-.002" fill="#FFF"/><path d="M73.938 25.024c-.187.735-.33 1.479-.53 2.21a21.402 21.402 0 01-1.626 4.155 14.57 14.57 0 01-.232.428c-.021-.1-.149-.177-.25-.126-2.012 1.042-3.515 2.76-3.275 5.089.017.157.181.216.314.184a.27.27 0 00.148.036c1.16-.037 1.971-.797 2.406-1.783.45-1.02.468-2.035.62-3.097.5-.864.914-1.786 1.277-2.689.558-1.394 1.037-2.906 1.21-4.397.003-.039-.053-.047-.062-.01" fill="#FFF"/><path d="M75.937 16.018c-.334.82-.59 1.67-.887 2.504-.099.28-.202.559-.308.836-.015-.002-.03.005-.033.022l-.022.122a26.913 26.913 0 01-.653 1.555 15.85 15.85 0 01-1.38 2.432c-.09.128-.183.253-.278.378-.029-.072-.11-.128-.194-.103-2.024.575-3.713 1.827-3.93 3.905-.015.14.124.219.25.213a.252.252 0 00.128.056c1.062.16 1.94-.368 2.521-1.158.613-.834.815-1.74 1.165-2.662.706-.887 1.274-1.88 1.748-2.871.187-.387.357-.781.519-1.179-.246 1.338-.51 2.67-.983 3.959-.26.712-.59 1.402-.978 2.062-.234.396-.5.767-.783 1.128-.046-.052-.124-.082-.195-.053-2.067.84-3.689 2.363-3.643 4.59.003.151.16.22.293.199a.286.286 0 00.143.044c1.146.05 2.007-.611 2.517-1.516.568-1.01.64-2.049.923-3.128.806-.982 1.397-2.134 1.827-3.285.524-1.404.835-2.887 1.024-4.365.139-.351.272-.704.4-1.06.311-.861.624-1.73.87-2.609.01-.034-.048-.048-.06-.016" fill="#FFF"/><path d="M74.936 15.024c-.292 1.14-.529 2.285-.937 3.396-.225.612-.519 1.356-.97 1.949-.026-.06-.094-.108-.166-.092-1.9.426-3.532 1.494-3.86 3.404-.021.129.1.209.218.21.028.027.065.05.114.059.968.204 1.81-.24 2.393-.938.627-.752.866-1.593 1.256-2.44.5-.58.818-1.355 1.061-1.98.444-1.146.756-2.355.955-3.559.005-.038-.054-.046-.064-.01m-2.98-4.008c-.27.78-.452 1.613-.63 2.424-.105.478-.192.958-.26 1.443a.12.12 0 00-.114.045c-.595.779-1.26 1.393-1.673 2.33-.371.84-.418 1.786.143 2.543a.21.21 0 00.095.073c.05.103.166.172.268.093 1.514-1.178 1.787-3.111 1.399-4.98a.126.126 0 00-.05-.078c.072-.457.157-.913.255-1.365.181-.844.445-1.668.61-2.515.006-.027-.033-.04-.043-.013" fill="#FFF"/><path d="M69.806 19.053c-.432 1.078-.685 2.215-1.004 3.322a48.99 48.99 0 00-.897 3.51c-.486 2.307-.714 4.668-.835 7.012a60.028 60.028 0 00.071 6.98 65.75 65.75 0 00.33 3.54c.137 1.144.195 2.408.608 3.508.045.116.277.091.28-.032.02-1.044-.26-2.12-.39-3.16a73.01 73.01 0 01-.356-3.534 59.216 59.216 0 01-.101-7.25c.107-2.284.354-4.574.789-6.828.228-1.181.552-2.347.867-3.512.313-1.155.726-2.322.832-3.51.007-.095-.155-.143-.194-.046" fill="#FFF"/></g></svg>