<svg width="617" height="116" xmlns:xlink="http://www.w3.org/1999/xlink" xmlns="http://www.w3.org/2000/svg"><defs><clipPath id="b"><use xlink:href="#a"/></clipPath><path d="M29.009.087a1.91 1.91 0 00-.466-.085 1.299 1.299 0 00-.552.085L.848 11.026A1.402 1.402 0 000 12.306v29.397c.003.538.353 1.058.848 1.26l27.143 10.939c.322.13.696.13 1.018 0l27.143-10.938c.495-.203.845-.723.848-1.261V12.307a1.403 1.403 0 00-.848-1.281L29.009.087zM28.5 2.843L5.026 12.307l8.61 3.46 22.159-9.976L28.5 2.843zm-9.564 15.061l22.88-9.7 10.158 4.103L28.5 21.75l-9.564-3.846zM2.714 40.763V14.315l9.5 3.824v10.575l5.429 2.05V20.34l9.5 3.824V50.59L2.714 40.763zm51.572-26.448l-24.429 9.849V50.59l24.429-9.827V14.315z" id="a"/></defs><path d="M38.5 14.039v26.923L64.036 52.5 93.5 42.885V14.039L66 2.5l-27.5 9.615v1.924z" fill="#FFF"/><path d="M67.509 1.587a1.91 1.91 0 00-.466-.085 1.299 1.299 0 00-.552.085L39.348 12.526a1.402 1.402 0 00-.848 1.28v29.397c.003.538.353 1.058.848 1.26l27.143 10.939c.322.13.696.13 1.018 0l27.143-10.938c.495-.203.845-.723.848-1.261V13.807a1.403 1.403 0 00-.848-1.281L67.509 1.587zM67 4.343l-23.474 9.464 8.61 3.46 22.159-9.976L67 4.343zm-9.564 15.061l22.88-9.7 10.158 4.103L67 23.25l-9.564-3.846zM41.214 42.263V15.815l9.5 3.824v10.575l5.429 2.05V21.84l9.5 3.824V52.09l-24.429-9.827zm51.572-26.448l-24.429 9.849V52.09l24.429-9.827V15.815z" fill-rule="evenodd"/><g clip-path="url(#b)" transform="translate(38.5 1.5)"><path d="M-13-5h86v64h-86V-5z" fill="#DDDFE2"/></g><path d="M3.099 15.633h25.602q.079 0 .157.007.078.008.155.023.077.016.152.039.075.022.148.052t.142.068q.069.037.134.08.066.044.126.094.061.05.117.105.055.056.105.116.05.061.093.126.044.066.081.135.037.07.067.142.03.072.053.148.023.075.038.152.016.077.023.155.008.078.008.157v.002q0 .078-.008.156-.007.079-.023.156-.015.077-.038.152t-.053.148q-.03.072-.067.141-.037.07-.08.135-.044.065-.094.126-.05.06-.105.116-.056.056-.117.106-.06.05-.126.093-.065.044-.134.08-.07.038-.142.068-.073.03-.148.053t-.152.038q-.077.015-.155.023t-.157.008H3.099q-.079 0-.157-.008t-.155-.023q-.077-.015-.152-.038t-.148-.053q-.072-.03-.142-.067-.069-.037-.134-.08-.066-.044-.126-.094-.061-.05-.117-.106-.055-.055-.105-.116-.05-.06-.094-.126-.043-.065-.08-.135-.037-.069-.067-.141-.03-.073-.053-.148t-.038-.152q-.016-.077-.023-.156-.008-.078-.008-.156v-.002q0-.079.008-.157.007-.078.023-.155.015-.077.038-.152.023-.076.053-.148.03-.073.067-.142.037-.07.08-.135.044-.065.094-.126.05-.06.105-.116.056-.056.117-.105.06-.05.126-.094.065-.043.134-.08.07-.038.142-.068.073-.03.148-.052.075-.023.152-.039.077-.015.155-.023.078-.007.157-.007zm4.8 11.2h20.802q.079 0 .157.007.078.008.155.023.077.016.152.039.075.022.148.052t.142.068q.069.037.134.08.066.044.126.094.061.05.117.105.055.056.105.116.05.061.093.126.044.066.081.135.037.07.067.142.03.072.053.148.023.075.038.152.016.077.023.155.008.078.008.157v.002q0 .078-.008.156-.007.079-.023.156-.015.077-.038.152t-.053.148q-.03.072-.067.141-.037.07-.08.135-.044.065-.094.126-.05.06-.105.116-.056.056-.117.106-.06.05-.126.093-.065.044-.134.08-.07.038-.142.068-.073.03-.148.053t-.152.038q-.077.015-.155.023t-.157.008H7.899q-.079 0-.157-.008t-.155-.023q-.077-.015-.152-.038t-.148-.053q-.072-.03-.142-.067-.069-.037-.134-.08-.066-.044-.126-.094-.061-.05-.117-.106-.055-.055-.105-.116-.05-.06-.094-.126-.043-.065-.08-.135-.037-.069-.067-.141-.03-.073-.053-.148t-.038-.152q-.016-.077-.023-.156-.008-.078-.008-.156v-.002q0-.079.008-.157.007-.078.023-.155.015-.077.038-.152.023-.076.053-.148.03-.073.067-.142.037-.07.08-.135.044-.065.094-.126.05-.06.105-.116.056-.056.117-.105.06-.05.126-.094.065-.043.134-.08.07-.038.142-.068.073-.03.148-.052.075-.023.152-.039.077-.015.155-.023.078-.007.157-.007zm6 11.2h14.802q.079 0 .157.007.078.008.155.023.077.016.152.039.075.022.148.052t.142.068q.069.037.134.08.066.044.126.094.061.05.117.105.055.056.105.116.05.061.093.126.044.066.081.135.037.07.067.142.03.072.053.148.023.075.038.152.016.077.023.155.008.078.008.157v.002q0 .078-.008.156-.007.079-.023.156-.015.077-.038.152t-.053.148q-.03.072-.067.141-.037.07-.08.135-.044.065-.094.126-.05.06-.105.116-.056.056-.117.106-.06.05-.126.093-.065.044-.134.08-.07.038-.142.068-.073.03-.148.053t-.152.038q-.077.015-.155.023t-.157.008H13.899q-.079 0-.157-.008t-.155-.023q-.077-.015-.152-.038t-.148-.053q-.072-.03-.142-.067-.069-.037-.134-.08-.066-.044-.126-.094-.061-.05-.117-.106-.055-.055-.105-.116-.05-.06-.094-.126-.043-.065-.08-.135-.037-.069-.067-.141-.03-.073-.053-.148t-.038-.152q-.016-.077-.023-.156-.008-.078-.008-.156v-.002q0-.079.008-.157.007-.078.023-.155.015-.077.038-.152.023-.076.053-.148.03-.073.067-.142.037-.07.08-.135.044-.065.094-.126.05-.06.105-.116.056-.056.117-.105.06-.05.126-.094.065-.043.134-.08.07-.038.142-.068.073-.03.148-.052.075-.023.152-.039.077-.015.155-.023.078-.007.157-.007z" fill="#6F95CC"/><path d="M44.322 78.358h4.101v-1.113h-5.332v10.503h1.23v-4.651h3.795V81.99h-3.794v-3.633zm22.287 9.55q.696 0 1.121-.233v-1.026q-.33.25-.784.25-.593 0-.85-.323-.256-.322-.256-1.077v-4.226h1.89v-1.025h-1.89v-2.22l-1.2.389v1.83h-1.29v1.026h1.29v4.439q0 2.197 1.97 2.197zm-12.187-.16h1.201V82.87q0-2.798-2.644-2.798-1.443 0-2.549.703v1.23q1.091-.922 2.446-.922 1.546 0 1.546 1.911l-2.249.315q-2.475.345-2.475 2.447 0 .981.633 1.574.634.594 1.754.594 1.524 0 2.308-1.348h.029v1.172zm3.01-.271v-1.29q.982.726 2.16.726 1.583 0 1.583-1.055 0-.3-.136-.509-.135-.209-.366-.37-.23-.16-.542-.29-.311-.127-.67-.266-.498-.198-.875-.4-.378-.201-.63-.454-.253-.252-.381-.575-.128-.322-.128-.754 0-.527.241-.934.242-.406.645-.681t.92-.414q.516-.139 1.065-.139.974 0 1.743.337v1.216q-.828-.542-1.904-.542-.337 0-.608.077-.271.077-.465.216t-.3.333q-.107.194-.107.428 0 .293.106.491.107.198.312.352.205.154.498.278.293.125.666.271.498.19.894.392.395.201.674.454.278.253.428.582.15.33.15.784 0 .557-.245.967-.245.41-.656.68-.41.272-.944.404-.535.132-1.121.132-1.157 0-2.007-.447zm17.93-3.179h-5.296q.03 1.253.674 1.934.645.68 1.773.68 1.267 0 2.329-.834v1.128q-.989.718-2.615.718-1.59 0-2.498-1.022-.908-1.022-.908-2.875 0-1.75.993-2.853.992-1.102 2.464-1.102t2.278.952q.806.952.806 2.644v.63zm4.82-3.076q.592 0 .907.242v-1.245q-.249-.103-.717-.103-.652 0-1.18.443-.527.443-.783 1.234h-.03v-1.545h-1.2v7.5h1.2v-3.823q0-1.253.517-1.978.516-.725 1.285-.725zm-6.05 2.058q-.008-1.04-.502-1.619-.495-.578-1.374-.578-.85 0-1.443.608-.593.608-.732 1.589h4.05zm-21.52.923l1.81-.25v.748q0 .96-.582 1.586-.583.626-1.476.626-.652 0-1.044-.348t-.392-.897q0-.755.425-1.051.425-.297 1.26-.414zm-4.767 24.545h1.2v-4.622q0-3.054-2.533-3.054-1.597 0-2.461 1.42h-.03v-4.848h-1.2v11.104h1.2V104.5q0-1.062.601-1.74.6-.677 1.48-.677 1.743 0 1.743 2.344v4.32zm24.463 0h-1.685l-3.31-3.604h-.03v3.604h-1.201V97.644h1.201v7.039h.03l3.149-3.435h1.575l-3.48 3.618 3.75 3.882zm-34.366.176q1.736 0 2.9-.616v-1.193q-1.156.703-2.738.703-1.707 0-2.758-1.14-1.051-1.138-1.051-3.057 0-2.022 1.124-3.23 1.124-1.209 2.934-1.209 1.362 0 2.49.63v-1.31q-.982-.433-2.476-.433-2.329 0-3.845 1.553t-1.516 4.072q0 2.344 1.348 3.787 1.347 1.443 3.588 1.443zm55.232-.015q.696 0 1.12-.234v-1.026q-.329.25-.783.25-.593 0-.85-.323-.256-.322-.256-1.077v-4.226h1.89v-1.025h-1.89v-2.22l-1.2.389v1.83h-1.29v1.026h1.29v4.439q0 2.197 1.97 2.197zm-35.837-3.61H52.04q.03 1.252.674 1.933.645.68 1.773.68 1.267 0 2.329-.834v1.128q-.989.718-2.615.718-1.59 0-2.497-1.022-.909-1.022-.909-2.875 0-1.75.993-2.853.992-1.102 2.464-1.102 1.473 0 2.278.952.806.952.806 2.644v.63zm4.878 3.625q1.186 0 2.05-.52v-1.143q-.864.652-1.845.652-1.165 0-1.857-.762t-.692-2.08q0-1.34.736-2.164.736-.824 1.886-.824.952 0 1.787.586v-1.23q-.754-.367-1.743-.367-1.772 0-2.834 1.124-1.062 1.125-1.062 2.978 0 1.662.985 2.706t2.589 1.044zm11.803-1.051q.992 1.05 2.655 1.05 1.706 0 2.72-1.08 1.015-1.08 1.015-2.874 0-1.832-.94-2.864-.942-1.033-2.62-1.033-1.757 0-2.79 1.062-1.033 1.062-1.033 2.952 0 1.736.993 2.787zm14.374.875H87.19v-1.187h-.029q-.747 1.363-2.314 1.363-2.681 0-2.681-3.194v-4.482h1.194v4.292q0 2.373 1.816 2.373.88 0 1.447-.648.567-.649.567-1.696v-4.321h1.202v7.5zm-32.286-4.468q-.007-1.04-.501-1.619-.495-.578-1.374-.578-.85 0-1.442.608-.594.608-.733 1.589h4.05zm18.824-1.41q.673-.787 1.83-.787 1.165 0 1.791.761.627.762.627 2.168 0 1.392-.627 2.146-.626.755-1.79.755-1.143 0-1.824-.77-.681-.768-.681-2.101 0-1.385.674-2.172zm137.959-15.122h-1.201V76.644h1.2v11.104zm21.167 0h-1.201V76.644h1.2v11.104zm-13.037-9.405q-.323 0-.55-.22-.227-.219-.227-.556 0-.337.227-.56.227-.224.55-.224.33 0 .56.224.23.223.23.56 0 .322-.23.55-.23.226-.56.226zm-66.358 7.53v1.45q.206.14.546.253.34.113.722.19.38.077.747.117.366.04.615.04.747 0 1.42-.15.674-.15 1.19-.487.517-.337.821-.875.304-.538.304-1.315 0-.585-.223-1.04-.224-.454-.605-.827-.38-.374-.886-.681-.505-.308-1.07-.586-.548-.271-.97-.498-.42-.227-.714-.47-.293-.24-.443-.534-.15-.293-.15-.696 0-.432.198-.732t.512-.49q.315-.191.718-.275.403-.085.806-.085 1.457 0 2.388.645v-1.384q-.71-.374-2.264-.374-.68 0-1.336.169-.656.168-1.168.512-.513.344-.828.875-.315.531-.315 1.25 0 .585.201 1.021.202.436.553.78.352.344.828.63.476.286 1.025.564.52.264.97.502.451.238.78.498.33.26.517.575.187.315.187.74 0 .79-.56 1.211-.56.422-1.696.422-.33 0-.718-.066-.388-.066-.772-.187-.385-.12-.733-.297-.348-.175-.597-.395zm45.938 1.875h-1.223v-7.046q0-.835.102-2.044h-.029q-.176.71-.315 1.019l-3.589 8.07h-.6l-3.582-8.012q-.154-.351-.315-1.077h-.03q.06.63.06 2.059v7.03h-1.187V77.246h1.626l3.222 7.324q.374.842.484 1.26h.044q.315-.864.505-1.29l3.289-7.294h1.538v10.503zm17.08.16q.696 0 1.12-.233v-1.026q-.329.25-.783.25-.593 0-.85-.323-.256-.322-.256-1.077v-4.226h1.89v-1.025h-1.89v-2.22l-1.201.389v1.83h-1.29v1.026h1.29v4.439q0 2.197 1.97 2.197zm-50.552-.16h1.201V82.87q0-2.798-2.644-2.798-1.442 0-2.548.703v1.23q1.09-.922 2.446-.922 1.545 0 1.545 1.911l-2.248.315q-2.476.345-2.476 2.447 0 .981.634 1.574.633.594 1.754.594 1.523 0 2.307-1.348h.03v1.172zm11.382-3.45h5.295v-.63q0-1.692-.805-2.644-.806-.952-2.278-.952t-2.465 1.102q-.992 1.103-.992 2.853 0 1.853.908 2.875t2.498 1.022q1.626 0 2.614-.718v-1.128q-1.062.835-2.329.835-1.128 0-1.772-.681-.645-.681-.674-1.934zm46.729 2.366h.029q.79 1.26 2.248 1.26 1.59 0 2.505-1.132.916-1.132.916-3.014 0-1.692-.813-2.699t-2.263-1.007q-1.707 0-2.593 1.494h-.03v-1.318h-1.2v10.95h1.2v-4.534zm11.982-2.366h5.295v-.63q0-1.692-.805-2.644-.806-.952-2.278-.952t-2.465 1.102q-.992 1.103-.992 2.853 0 1.853.908 2.875t2.498 1.022q1.626 0 2.614-.718v-1.128q-1.062.835-2.329.835-1.128 0-1.772-.681-.645-.681-.674-1.934zm-60.732-4.05l-2.989 7.5h-1.179l-2.842-7.5h1.319l1.904 5.449q.212.6.264 1.047h.029q.073-.564.234-1.018l1.992-5.478h1.267zm31.574 7.5h1.201v-7.5h-1.2v4.321q0 1.047-.568 1.696-.568.648-1.447.648-1.816 0-1.816-2.373v-4.292h-1.194v4.482q0 3.194 2.68 3.194 1.568 0 2.315-1.363h.03v1.187zm13.543 0h-1.201v-7.5h1.2v7.5zm-39.533-6.087q.495.579.502 1.619h-4.05q.139-.981.732-1.59.593-.607 1.443-.607.879 0 1.373.578zm43.165 3.025V83.64q0-1.099.638-1.827.637-.73 1.684-.73.99 0 1.568.711.578.71.578 1.963 0 1.487-.619 2.322-.618.835-1.71.835-.93 0-1.534-.648-.604-.649-.604-1.579zm15.546-3.025q.495.579.502 1.619h-4.05q.139-.981.732-1.59.593-.607 1.443-.607.879 0 1.373.578zm-75.465 2.542l1.81-.25v.748q0 .96-.583 1.586-.582.626-1.476.626-.652 0-1.044-.348t-.392-.897q0-.755.425-1.051.425-.297 1.26-.414zm-7.368 24.545h-1.201v-4.321q0-2.344-1.743-2.344-.88 0-1.48.677-.6.678-.6 1.74v4.248h-1.202V97.644h1.202v4.849h.029q.864-1.421 2.46-1.421 2.535 0 2.535 3.054v4.622zm64.673 0h-1.201v-1.275h-.03q-.835 1.45-2.578 1.45-1.413 0-2.26-1.006-.845-1.008-.845-2.743 0-1.86.937-2.981.938-1.121 2.498-1.121 1.545 0 2.248 1.216h.03v-4.644h1.2v11.104zm7.632 0h1.2V97.644h-1.2v4.644h-.03q-.703-1.216-2.248-1.216-1.56 0-2.498 1.12-.937 1.121-.937 2.982 0 1.735.846 2.743.846 1.007 2.26 1.007 1.742 0 2.577-1.45h.03v1.274zm-69.976-9.624q.227.22.55.22.329 0 .56-.228.23-.227.23-.549 0-.337-.23-.56-.231-.224-.56-.224-.323 0-.55.224-.227.223-.227.56 0 .337.227.557zm21.819.22q-.322 0-.55-.22-.227-.22-.227-.557 0-.337.228-.56.227-.224.549-.224.33 0 .56.224.23.223.23.56 0 .322-.23.55-.23.227-.56.227zm-38.672 8.979v-1.45q.249.22.597.395.348.176.732.297.385.12.773.187.388.066.718.066 1.135 0 1.695-.422.56-.42.56-1.212 0-.424-.186-.74-.187-.314-.516-.574-.33-.26-.78-.498t-.97-.502q-.55-.278-1.026-.564-.476-.286-.828-.63-.351-.344-.553-.78-.201-.436-.201-1.022 0-.717.315-1.248.315-.532.827-.876.513-.344 1.169-.512.655-.169 1.336-.169 1.553 0 2.263.374v1.384q-.93-.645-2.387-.645-.403 0-.806.085-.403.084-.718.274-.315.19-.512.49-.198.301-.198.733 0 .403.15.696.15.293.443.535.293.242.714.469.421.227.97.498.565.278 1.07.586.505.307.886.68.381.374.604.828.224.455.224 1.04 0 .777-.304 1.315-.304.538-.82.875-.517.337-1.19.487-.674.15-1.422.15-.249 0-.615-.04t-.747-.117q-.38-.077-.721-.19-.34-.114-.546-.253zm70.049.425h1.362l-4.043-10.503h-1.274l-4.029 10.503h1.37l1.047-2.945h4.454l1.113 2.945zm-3.164-8.526l1.648 4.476h-3.64l1.633-4.476q.095-.256.168-.703h.03q.08.484.16.703zm-45.235 7.442h-.029v4.534h-1.201v-10.95h1.201v1.318h.03q.886-1.494 2.592-1.494 1.45 0 2.263 1.007t.813 2.699q0 1.882-.915 3.014-.916 1.132-2.505 1.132-1.458 0-2.249-1.26zm8.79 0h.029q.79 1.26 2.248 1.26 1.59 0 2.505-1.132.916-1.132.916-3.014 0-1.692-.813-2.699t-2.264-1.007q-1.706 0-2.592 1.494h-.03v-1.318h-1.2v10.95h1.2v-4.534zm16.274 1.084h1.201v-4.585q0-1.502-.652-2.296-.652-.795-1.882-.795-1.611 0-2.461 1.42h-.03v-1.244h-1.2v7.5h1.2v-4.278q0-1.032.59-1.71.59-.677 1.49-.677 1.744 0 1.744 2.387v4.278zm9.866-.6q0 4.13-3.956 4.13-1.391 0-2.431-.527v-1.201q1.267.703 2.417.703 2.768 0 2.768-2.945v-.82h-.029q-.857 1.436-2.578 1.436-1.399 0-2.252-1-.853-1-.853-2.684 0-1.912.919-3.04.919-1.128 2.516-1.128 1.516 0 2.248 1.216h.03v-1.04h1.2v6.9zm39.829-2.85h5.295v-.63q0-1.692-.806-2.644-.805-.952-2.277-.952-1.473 0-2.465 1.102-.992 1.103-.992 2.853 0 1.853.908 2.875t2.497 1.022q1.626 0 2.615-.718v-1.128q-1.062.835-2.329.835-1.128 0-1.772-.681-.645-.681-.674-1.934zm6.657 3.179v-1.29q.982.726 2.161.726 1.582 0 1.582-1.055 0-.3-.135-.509-.136-.209-.367-.37-.23-.16-.542-.29-.311-.127-.67-.266-.498-.198-.875-.4-.377-.201-.63-.454-.253-.252-.381-.575-.128-.322-.128-.754 0-.527.242-.934.241-.406.644-.681t.92-.414q.516-.139 1.065-.139.974 0 1.743.337v1.216q-.827-.542-1.904-.542-.337 0-.608.077-.271.077-.465.216t-.3.333q-.106.194-.106.428 0 .293.106.491t.311.352q.205.154.498.278.293.125.667.271.498.19.893.392.396.201.674.454t.428.582q.151.33.151.784 0 .557-.246.967-.245.41-.655.68-.41.272-.945.404-.535.132-1.121.132-1.157 0-2.007-.447zm6.365-1.29v1.29q.85.447 2.007.447.586 0 1.121-.132.534-.132.944-.403.411-.271.656-.681.245-.41.245-.967 0-.454-.15-.784t-.428-.582q-.279-.253-.674-.454-.396-.202-.894-.392-.373-.146-.666-.271-.293-.124-.498-.278-.205-.154-.312-.352-.106-.198-.106-.49 0-.235.106-.43.107-.193.301-.332.194-.14.465-.216.271-.077.608-.077 1.076 0 1.904.542v-1.216q-.769-.337-1.743-.337-.549 0-1.066.14-.516.138-.919.413-.403.275-.644.681-.242.407-.242.934 0 .432.128.754.128.323.381.575.253.253.63.454.377.202.875.4.359.139.67.267.311.128.542.29.231.16.366.37.136.208.136.508 0 1.055-1.582 1.055-1.179 0-2.161-.725zm-15.058-4.723q-.315-.242-.909-.242-.769 0-1.285.725-.516.725-.516 1.978v3.823h-1.201v-7.5h1.201v1.545h.029q.256-.79.784-1.234.527-.443 1.179-.443.469 0 .718.103v1.245zm-77.586 6.284h1.201v-7.5h-1.2v7.5zm22.47 0h-1.2v-7.5h1.2v7.5zm-17.636-4.11v1.048q0 .93.604 1.579.605.648 1.535.648 1.091 0 1.71-.835t.619-2.322q0-1.252-.579-1.963-.578-.71-1.567-.71-1.048 0-1.685.729-.637.728-.637 1.827zm8.818 1.048v-1.047q0-1.099.638-1.827.637-.73 1.684-.73.989 0 1.568.711.578.71.578 1.963 0 1.487-.619 2.322t-1.71.835q-.93 0-1.534-.648-.605-.649-.605-1.579zm24.94-.33v-1.105q0-.894-.605-1.531-.604-.637-1.505-.637-1.113 0-1.743.81-.63.808-.63 2.266 0 1.252.604 2.003.605.75 1.6.75 1.011 0 1.645-.717.633-.718.633-1.838zm22.617 0v-1.105q0-.908-.601-1.538-.6-.63-1.523-.63-1.099 0-1.729.805-.63.806-.63 2.227 0 1.296.604 2.047.605.75 1.623.75 1.003 0 1.63-.724.626-.725.626-1.831zm8.833-1.105v1.106q0 1.106-.627 1.83-.626.726-1.63.726-1.017 0-1.621-.75-.605-.752-.605-2.048 0-1.42.63-2.227.63-.805 1.729-.805.923 0 1.523.63.6.63.6 1.538zm13.143-1.59q.494.579.502 1.619h-4.051q.14-.981.733-1.59.593-.607 1.443-.607.879 0 1.373.578z" fill="#2F2432"/><path d="M185.482 26.777a13.803 13.803 0 001.088-5.39c0-7.648-6.2-13.848-13.847-13.848-7.648 0-13.848 6.2-13.848 13.847 0 1.912.388 3.734 1.089 5.39 2.102 4.97 12.759 18.758 12.759 18.758s10.657-13.787 12.76-18.757zM166.538 20.7a6.184 6.184 0 1112.37 0 6.184 6.184 0 01-12.37 0zm75.269 6.077a13.803 13.803 0 001.088-5.39c0-7.648-6.2-13.848-13.848-13.848-7.647 0-13.847 6.2-13.847 13.847 0 1.912.387 3.734 1.088 5.39 2.102 4.97 12.76 18.758 12.76 18.758s10.657-13.787 12.759-18.757zM222.863 20.7a6.184 6.184 0 1112.369 0 6.184 6.184 0 01-12.369 0z" fill="none" stroke="#DDDFE2" stroke-width="2.7"/><path d="M213.457 26.777a13.803 13.803 0 001.088-5.39c0-7.648-6.2-13.848-13.847-13.848-7.648 0-13.848 6.2-13.848 13.847 0 1.912.387 3.734 1.088 5.39 2.102 4.97 12.76 18.758 12.76 18.758s10.657-13.787 12.759-18.757zM194.513 20.7a6.184 6.184 0 1112.369 0 6.184 6.184 0 01-12.369 0z" fill="none" stroke="#6F95CC" stroke-width="2.7"/><path d="M378.978 86.996h-1.201v-1.274h-.03q-.834 1.45-2.578 1.45-1.413 0-2.26-1.007-.845-1.007-.845-2.743 0-1.86.937-2.981.938-1.12 2.498-1.12 1.545 0 2.249 1.215h.029v-4.644h1.201v11.104zm38.716 0h1.684l-3.75-3.882 3.479-3.618h-1.574l-3.15 3.435h-.029v-7.039h-1.201v11.104h1.201v-3.604h.029l3.311 3.604zm-87.598-9.624q.227.22.55.22.33 0 .56-.227.23-.227.23-.55 0-.337-.23-.56-.23-.223-.56-.223-.323 0-.55.223-.227.223-.227.56 0 .337.227.557zm-5.302 9.624l3.889-10.503h-1.326l-2.966 8.313q-.184.505-.242.945h-.03q-.073-.527-.212-.93L321 76.493h-1.37l3.809 10.503h1.355zm64.064-9.39h3.033v-1.113h-7.288v1.113h3.025v9.39h1.23v-9.39zm-49.167 5.94h-5.296q.03 1.253.674 1.934.645.681 1.773.681 1.267 0 2.329-.835v1.128q-.989.718-2.615.718-1.59 0-2.497-1.022-.909-1.022-.909-2.875 0-1.75.993-2.853.992-1.102 2.464-1.102 1.473 0 2.278.952.806.952.806 2.644v.63zm22.134 3.45h-1.202v-1.172h-.029q-.784 1.348-2.307 1.348-1.12 0-1.754-.593-.634-.594-.634-1.575 0-2.102 2.476-2.446l2.248-.315q0-1.912-1.545-1.912-1.355 0-2.446.923v-1.23q1.106-.704 2.549-.704 2.644 0 2.644 2.798v4.878zm7.287 0h1.201v-4.585q0-1.501-.651-2.296-.652-.795-1.883-.795-1.611 0-2.46 1.421h-.03v-1.245h-1.201v7.5h1.201v-4.277q0-1.033.59-1.71.59-.678 1.49-.678 1.743 0 1.743 2.388v4.277zm33.648 0h1.2v-4.878q0-2.798-2.643-2.798-1.443 0-2.549.703v1.23q1.091-.922 2.446-.922 1.546 0 1.546 1.912l-2.249.315q-2.475.344-2.475 2.446 0 .981.633 1.575.634.593 1.754.593 1.524 0 2.307-1.348h.03v1.172zm8.576-.344q-.864.52-2.05.52-1.604 0-2.589-1.044-.986-1.044-.986-2.706 0-1.853 1.062-2.978 1.062-1.124 2.835-1.124.989 0 1.743.366v1.23q-.835-.585-1.787-.585-1.15 0-1.886.824t-.736 2.164q0 1.319.692 2.08.692.762 1.857.762.981 0 1.845-.652v1.143zm-14.047-5.94q-.315-.242-.909-.242-.769 0-1.285.725-.516.725-.516 1.978v3.823h-1.202v-7.5h1.202v1.545h.029q.256-.79.784-1.234.527-.443 1.179-.443.469 0 .718.103v1.245zm-67.259 6.284h1.201v-7.5h-1.2v7.5zm18.677 0l2.249-7.5h-1.187l-1.523 5.654q-.11.388-.125.674h-.059q-.036-.403-.11-.674l-1.552-5.654h-1.1l-1.728 5.625q-.11.366-.132.688h-.059q-.029-.417-.102-.673l-1.553-5.64h-1.26l2.27 7.5h1.202l1.677-5.383q.132-.418.154-.681h.03q.029.388.116.695l1.546 5.369h1.245zm-10.247-4.468q-.007-1.04-.501-1.618-.495-.58-1.374-.58-.85 0-1.442.609-.594.608-.733 1.59h4.05zm39.317 1.077v-1.106q0-.908-.6-1.538-.601-.63-1.524-.63-1.099 0-1.729.806-.63.805-.63 2.226 0 1.297.605 2.047.604.751 1.622.751 1.003 0 1.63-.725.626-.725.626-1.831zm-17.154-.403l-1.809.249q-.835.117-1.26.414-.424.297-.424 1.05 0 .55.392.898t1.043.348q.894 0 1.476-.626t.582-1.586v-.747zm40.328.249l1.809-.249v.747q0 .96-.583 1.586-.582.626-1.475.626-.652 0-1.044-.348t-.392-.897q0-.754.425-1.051.425-.297 1.26-.414zm-27.701 24.545h-1.2v-1.274h-.03q-.835 1.45-2.578 1.45-1.414 0-2.26-1.007-.846-1.007-.846-2.743 0-1.86.938-2.981.937-1.12 2.497-1.12 1.546 0 2.249 1.215h.03v-4.644h1.2v11.104zm-22.108-1.296q1.344 1.472 3.578 1.472 2.285 0 3.648-1.494 1.362-1.494 1.362-4.065 0-2.366-1.33-3.83-1.329-1.466-3.504-1.466-2.358 0-3.728 1.509t-1.37 4.043q0 2.358 1.344 3.83zm.978-7.076q1.033-1.193 2.688-1.193 1.7 0 2.666 1.135.967 1.135.967 3.215 0 2.029-.996 3.157-.996 1.128-2.725 1.128-1.618 0-2.626-1.183-1.007-1.183-1.007-3.124 0-1.94 1.033-3.135zm24.295 4.922h5.295v-.63q0-1.691-.806-2.644-.805-.952-2.278-.952-1.472 0-2.464 1.103-.993 1.102-.993 2.852 0 1.853.909 2.875.908 1.022 2.497 1.022 1.626 0 2.615-.718v-1.128q-1.062.835-2.33.835-1.127 0-1.772-.681-.644-.681-.673-1.934zm11.872 1.89v1.289q.85.447 2.007.447.586 0 1.12-.132.535-.132.945-.403.41-.27.656-.681.245-.41.245-.967 0-.454-.15-.784t-.428-.582q-.279-.252-.674-.454-.396-.201-.894-.392-.373-.146-.666-.27-.293-.125-.498-.28-.205-.153-.312-.35-.106-.198-.106-.491 0-.235.106-.429.107-.194.3-.333.195-.14.466-.216.27-.077.608-.077 1.076 0 1.904.542v-1.216q-.769-.337-1.743-.337-.55 0-1.066.14-.516.139-.919.413-.403.275-.644.681-.242.407-.242.934 0 .432.128.755.128.322.38.575.254.252.63.454.378.201.876.399.359.139.67.267.311.128.542.29.23.16.366.37.136.208.136.508 0 1.055-1.582 1.055-1.18 0-2.16-.725zm-23.65-4.966q.593 0 .908.242v-1.245q-.249-.103-.717-.103-.652 0-1.18.443-.527.443-.783 1.234h-.03v-1.545h-1.2v7.5h1.2v-3.823q0-1.253.517-1.978.516-.725 1.285-.725zm22.8.242q-.314-.242-.908-.242-.769 0-1.285.725-.517.725-.517 1.978v3.823h-1.2v-7.5h1.2v1.545h.03q.256-.79.783-1.234.528-.443 1.18-.443.468 0 .717.103v1.245zm-15.388 2.893v-1.106q0-.908-.6-1.538t-1.524-.63q-1.098 0-1.728.806-.63.805-.63 2.226 0 1.297.604 2.047.604.751 1.622.751 1.004 0 1.63-.725.626-.725.626-1.831zm7.929-2.695q.494.578.501 1.618h-4.05q.14-.981.733-1.59.593-.607 1.442-.607.88 0 1.374.579z" fill="#2F2432"/><path d="M314.5 4.245v10.5q0 .258.013.516.012.257.038.514.025.256.063.511.037.255.088.508.05.253.113.503.062.25.137.496.075.247.162.49.087.242.185.48.099.238.209.471.11.233.232.46.121.228.254.45.132.22.275.434.144.215.297.422.154.207.317.406.164.2.337.39.173.191.355.373.182.183.373.356t.39.336q.2.164.407.317.207.154.421.297t.435.276q.222.132.449.254.227.121.46.232.233.11.471.208.238.099.481.186t.49.161q.246.075.496.138.25.063.503.113t.507.088q.255.038.512.063.256.025.514.038.257.013.515.013h33.002q.22 0 .442.01.22.011.44.033.22.022.438.054.219.032.436.075.216.044.43.097.215.054.426.118.212.064.42.139.208.074.412.159.204.084.404.179.2.094.394.198.195.104.384.218.19.113.374.236.183.123.36.254.178.132.349.272.17.14.334.289.164.148.32.304.156.157.305.32.148.164.288.335.14.17.272.348.132.177.254.36.123.185.237.374.113.19.217.384.104.195.199.395.094.2.179.404.084.204.159.412.074.208.138.42.065.21.118.425.054.214.097.43.043.218.076.436.032.219.054.438.021.22.032.44.011.222.011.443v.002q0 .22-.01.441-.012.22-.033.44-.022.22-.054.439-.033.218-.076.435t-.097.431q-.053.214-.118.426-.064.211-.138.42-.075.207-.159.411-.085.204-.179.404-.095.2-.199.395-.104.194-.217.384-.114.19-.237.373-.122.184-.254.361-.132.178-.272.348-.14.171-.288.335-.149.164-.305.32t-.32.304q-.163.149-.334.289-.17.14-.348.272-.178.131-.361.254-.184.123-.374.236-.19.114-.384.218-.195.104-.394.199-.2.094-.404.179-.204.084-.412.158-.208.075-.42.139-.211.064-.425.118-.215.054-.431.097-.217.043-.436.075-.218.033-.438.054-.22.022-.44.033-.221.01-.442.01h-18.002q-.184 0-.368.01-.184.009-.367.027-.183.018-.365.045t-.363.063q-.18.036-.36.08-.178.045-.354.098-.176.054-.35.116-.173.062-.343.132-.17.07-.336.15-.167.078-.329.165-.162.087-.32.181-.158.095-.311.197-.153.103-.301.212-.148.11-.29.227-.143.117-.279.24-.136.124-.267.254-.13.13-.253.267-.124.136-.24.278-.118.143-.227.29-.11.148-.212.301-.103.153-.197.311-.095.158-.182.32-.086.163-.165.33-.079.166-.15.336-.07.17-.132.343-.062.174-.115.35-.054.176-.098.354-.045.179-.08.36-.037.18-.064.362-.027.182-.045.366-.018.183-.027.367-.009.183-.009.368v.002q0 .184.009.368.01.183.027.367.018.183.045.365t.063.363q.036.18.08.359.045.178.099.354.053.177.115.35.062.173.133.343.07.17.149.337.079.166.165.329.087.162.182.32.094.158.197.31.102.154.212.302t.226.29q.117.142.24.279.124.136.254.266t.267.254q.136.124.279.24.142.117.29.227t.3.212q.154.102.312.197.158.094.32.181t.329.166q.166.078.336.149.17.07.344.132.173.062.35.116.175.053.354.098.178.045.359.08.18.036.363.063.182.027.365.045t.367.028q.184.009.368.009H398.5" fill="none" stroke="#DDDFE2" stroke-width="3" stroke-linecap="round" stroke-dasharray="3 5"/><path d="M386.063 32.222a15.337 15.337 0 001.21-5.989c0-8.497-6.89-15.386-15.387-15.386S356.5 17.736 356.5 26.233c0 2.125.43 4.149 1.21 5.99 2.335 5.522 14.176 20.84 14.176 20.84s11.841-15.318 14.177-20.84zm-21.048-6.751a6.871 6.871 0 1113.743 0 6.871 6.871 0 01-13.743 0z" fill="#FFF" fill-rule="evenodd" stroke="#6F95CC" stroke-width="3"/><path d="M526.807 74.947q-.351-.198-.798-.198-1.26 0-1.26 1.59v1.157h1.758v1.025h-1.758v6.475h-1.194v-6.475h-1.281v-1.025h1.281V76.28q0-1.179.682-1.864.68-.685 1.699-.685.55 0 .871.132v1.084zm-26.22 10.049h-1.201V73.892h1.2v11.104zm88.147 0h1.201V73.892h-1.201v11.104zm-85.65-9.624q.227.22.55.22.33 0 .56-.227.23-.227.23-.55 0-.337-.23-.56-.23-.223-.56-.223-.323 0-.55.223-.227.223-.227.56 0 .337.227.557zm74.451 0q.227.22.549.22.33 0 .561-.227.23-.227.23-.55 0-.337-.23-.56-.231-.223-.561-.223-.322 0-.549.223-.227.223-.227.56 0 .337.227.557zm-101.184 9.8q-2.227 0-3.582-1.472-1.34-1.473-1.34-3.831 0-2.541 1.37-4.043 1.376-1.509 3.728-1.509 2.168 0 3.5 1.465 1.334 1.465 1.334 3.83 0 2.572-1.363 4.066-.322.359-.688.615l2.951 2.117h-2.233l-1.978-1.48q-.776.242-1.7.242zm69.228-2.051v1.45q.205.14.546.253.34.113.721.19.381.077.748.118.366.04.615.04.747 0 1.42-.15.674-.15 1.191-.487.516-.337.82-.876.304-.538.304-1.314 0-.586-.223-1.04-.224-.454-.605-.828-.38-.374-.886-.681-.505-.308-1.07-.586-.548-.271-.97-.498-.42-.227-.714-.469-.293-.242-.443-.535-.15-.293-.15-.695 0-.433.198-.733t.512-.49q.315-.191.718-.275.403-.084.806-.084 1.457 0 2.388.644v-1.384q-.711-.374-2.263-.374-.682 0-1.337.169-.656.168-1.168.512-.513.345-.828.876-.315.53-.315 1.248 0 .586.201 1.022.202.436.553.78.352.344.828.63.476.286 1.025.564.52.264.97.502.451.238.78.498.33.26.517.575.187.315.187.74 0 .79-.56 1.212-.56.42-1.696.42-.33 0-.718-.065-.388-.066-.772-.187-.385-.12-.733-.296t-.597-.396zm-35.449 1.802q-.425.234-1.12.234-1.97 0-1.97-2.197v-4.44h-1.29v-1.025h1.29v-1.831l1.2-.388v2.219h1.89v1.025h-1.89v4.226q0 .755.257 1.077.256.322.85.322.454 0 .783-.249v1.026zm-33.69-9.493q-1.656 0-2.688 1.193-1.033 1.194-1.033 3.135 0 1.934 1.003 3.128 1.011 1.179 2.63 1.179 1.728 0 2.724-1.128.997-1.128.997-3.157 0-2.087-.967-3.215-.967-1.135-2.666-1.135zm19.482 9.565h1.201v-4.878q0-2.798-2.644-2.798-1.443 0-2.549.703v1.23q1.092-.922 2.447-.922 1.545 0 1.545 1.912l-2.248.315q-2.476.344-2.476 2.446 0 .981.634 1.575.633.593 1.754.593 1.523 0 2.307-1.348h.03v1.172zm32.355-.875q.992 1.05 2.655 1.05 1.706 0 2.72-1.08 1.015-1.08 1.015-2.874 0-1.831-.94-2.864-.942-1.033-2.62-1.033-1.757 0-2.79 1.062-1.033 1.062-1.033 2.952 0 1.736.993 2.787zm26.832-.209h-.029v4.534h-1.201v-10.95h1.201v1.318h.029q.886-1.494 2.593-1.494 1.45 0 2.263 1.007t.813 2.7q0 1.882-.915 3.013-.916 1.132-2.505 1.132-1.458 0-2.249-1.26zm8.32-2.366h5.296v-.63q0-1.692-.806-2.644-.805-.952-2.278-.952-1.472 0-2.464 1.102-.993 1.103-.993 2.853 0 1.853.909 2.875.908 1.022 2.497 1.022 1.626 0 2.615-.718v-1.128q-1.062.835-2.329.835-1.128 0-1.773-.681-.644-.681-.674-1.934zm12.225 3.106q-.865.52-2.051.52-1.604 0-2.589-1.044-.985-1.044-.985-2.706 0-1.853 1.062-2.978 1.062-1.124 2.834-1.124.989 0 1.743.366v1.23q-.835-.585-1.787-.585-1.15 0-1.886.824t-.736 2.164q0 1.319.692 2.08.692.762 1.857.762.981 0 1.846-.652v1.143zm10.817.344h-1.201v-1.172h-.029q-.784 1.348-2.307 1.348-1.121 0-1.754-.593-.634-.594-.634-1.575 0-2.102 2.476-2.446l2.248-.315q0-1.912-1.545-1.912-1.355 0-2.446.923v-1.23q1.106-.704 2.548-.704 2.644 0 2.644 2.798v4.878zm-45.974-6.284q-.315-.242-.908-.242-.769 0-1.285.725-.517.725-.517 1.978v3.823h-1.2v-7.5h1.2v1.545h.03q.256-.79.783-1.234.528-.443 1.18-.443.468 0 .717.103v1.245zm-51.167 6.284h-1.2v-1.187h-.03q-.747 1.363-2.315 1.363-2.68 0-2.68-3.194v-4.482h1.194v4.292q0 2.373 1.816 2.373.879 0 1.446-.648.568-.648.568-1.696v-4.321h1.201v7.5zm13.69 0h1.2v-7.5h-1.2v7.5zm11.235 1.201l3.45-8.701h-1.246l-2.131 5.786q-.11.381-.147.557h-.043q-.118-.462-.154-.572l-2.03-5.771h-1.332l2.93 7.485-.601 1.421q-.454 1.084-1.362 1.084-.323 0-.71-.132v1.077q.314.095.783.095 1.67 0 2.593-2.329zm63.215-1.201h1.201v-7.5h-1.201v7.5zm-48.281-5.878q.674-.787 1.83-.787 1.165 0 1.792.762.626.761.626 2.168 0 1.391-.626 2.146-.627.754-1.791.754-1.143 0-1.824-.769-.681-.77-.681-2.102 0-1.384.674-2.172zm25.891 1.77v1.046q0 .93.604 1.579.604.648 1.535.648 1.091 0 1.71-.835t.619-2.322q0-1.252-.579-1.963-.579-.71-1.567-.71-1.048 0-1.685.729-.637.728-.637 1.827zm11.913-1.978q.494.578.501 1.618h-4.05q.139-.981.733-1.59.593-.607 1.442-.607.879 0 1.374.579zm-72.88 2.541l1.81-.249v.747q0 .96-.583 1.586-.582.626-1.476.626-.652 0-1.044-.348t-.392-.897q0-.754.425-1.051.425-.297 1.26-.414zm91.157-.249l-1.809.249q-.835.117-1.26.414-.424.297-.424 1.05 0 .55.391.898.392.348 1.044.348.894 0 1.476-.626t.582-1.586v-.747zm-17.74 24.795h1.201v-4.622q0-3.054-2.534-3.054-1.597 0-2.461 1.421h-.029v-4.849h-1.201v11.104h1.201v-4.248q0-1.062.6-1.74.601-.677 1.48-.677 1.743 0 1.743 2.344v4.321zm-57.7-9.404q-.322 0-.55-.22-.227-.22-.227-.557 0-.337.227-.56.228-.223.55-.223.33 0 .56.223.23.223.23.56 0 .323-.23.55-.23.227-.56.227zm-48.42 9.404v-3.97h1.384q1.75 0 2.78-.952 1.028-.952 1.028-2.446 0-1.494-.926-2.315-.927-.82-2.611-.82h-2.886v10.503h1.23zm124.877-9.39h3.033v-1.113h-7.288v1.113h3.025v9.39h1.23v-9.39zm-79.797 9.551q.696 0 1.12-.234v-1.026q-.329.25-.783.25-.593 0-.85-.323-.256-.322-.256-1.077v-4.226h1.89v-1.025h-1.89v-2.22l-1.201.389v1.831h-1.29v1.025h1.29v4.439q0 2.197 1.97 2.197zm44.099 0q.696 0 1.121-.234v-1.026q-.33.25-.784.25-.593 0-.85-.323-.256-.322-.256-1.077v-4.226h1.89v-1.025h-1.89v-2.22l-1.201.389v1.831h-1.29v1.025h1.29v4.439q0 2.197 1.97 2.197zm10.313-.234q-.425.234-1.121.234-1.97 0-1.97-2.197v-4.44h-1.289v-1.025h1.289v-1.831l1.201-.388v2.219h1.89v1.025h-1.89v4.226q0 .755.256 1.077.257.322.85.322.454 0 .784-.249v1.026zm-99.493-5.01v-4.307h1.443q2.461 0 2.461 2.08 0 1.062-.67 1.645-.67.582-1.945.582h-1.289zm15.36 5.259q-1.663 0-2.656-1.051-.992-1.051-.992-2.787 0-1.89 1.033-2.952 1.032-1.062 2.79-1.062 1.677 0 2.618 1.033.942 1.033.942 2.864 0 1.794-1.015 2.874-1.014 1.08-2.72 1.08zm15.102-.176h1.201v-4.622q0-3.054-2.476-3.054-1.655 0-2.49 1.553-.212-.696-.783-1.124-.572-.429-1.34-.429-1.532 0-2.33 1.363h-.03v-1.187h-1.2v7.5h1.2v-4.277q0-1.062.514-1.725.512-.663 1.303-.663 1.707 0 1.707 2.212v4.453h1.2v-4.277q0-.982.54-1.685.538-.703 1.307-.703.908 0 1.292.557.385.556.385 1.801v4.307zm6.606.176q-1.662 0-2.655-1.051-.992-1.051-.992-2.787 0-1.89 1.032-2.952 1.033-1.062 2.791-1.062 1.677 0 2.618 1.033.942 1.033.942 2.864 0 1.794-1.015 2.874-1.014 1.08-2.72 1.08zm14.85-1.051q.993 1.05 2.655 1.05 1.707 0 2.721-1.08t1.014-2.874q0-1.831-.94-2.864-.942-1.033-2.619-1.033-1.758 0-2.79 1.062-1.033 1.062-1.033 2.952 0 1.736.992 2.787zm14.535.875h-1.201v-4.277q0-2.388-1.743-2.388-.901 0-1.49.677-.59.678-.59 1.71v4.278h-1.202v-7.5h1.202v1.245h.029q.85-1.42 2.46-1.42 1.231 0 1.883.794.652.795.652 2.296v4.585zm1.81-1.56v1.289q.849.447 2.006.447.586 0 1.12-.132.535-.132.945-.403.41-.27.656-.681.245-.41.245-.967 0-.454-.15-.784t-.428-.582q-.279-.252-.674-.454-.396-.201-.894-.392-.373-.146-.666-.27-.293-.125-.498-.28-.205-.153-.312-.35-.106-.198-.106-.491 0-.235.106-.429.107-.194.3-.333.195-.14.466-.216.27-.077.608-.077 1.076 0 1.904.542v-1.216q-.769-.337-1.743-.337-.55 0-1.066.14-.516.139-.919.413-.403.275-.645.681-.241.407-.241.934 0 .432.128.755.128.322.38.575.253.252.63.454.378.201.876.399.359.139.67.267.311.128.542.29.23.16.366.37.136.208.136.508 0 1.055-1.582 1.055-1.18 0-2.16-.725zm16.295 1.56h-1.2v-1.172h-.03q-.784 1.348-2.307 1.348-1.12 0-1.754-.593-.634-.594-.634-1.575 0-2.102 2.476-2.446l2.248-.315q0-1.912-1.545-1.912-1.355 0-2.446.923v-1.23q1.106-.704 2.549-.704 2.644 0 2.644 2.798v4.878zm31.055-3.45h-5.295q.029 1.253.674 1.934.644.681 1.772.681 1.267 0 2.329-.835v1.128q-.989.718-2.615.718-1.589 0-2.497-1.022-.908-1.022-.908-2.875 0-1.75.992-2.852.993-1.103 2.465-1.103t2.278.952q.805.953.805 2.644v.63zm16.919 3.626q-1.662 0-2.655-1.051-.992-1.051-.992-2.787 0-1.89 1.032-2.952 1.033-1.062 2.791-1.062 1.677 0 2.618 1.033.942 1.033.942 2.864 0 1.794-1.015 2.874-1.014 1.08-2.721 1.08zm6.856-1.26h.029q.791 1.26 2.248 1.26 1.59 0 2.505-1.132.916-1.131.916-3.014 0-1.692-.813-2.699t-2.263-1.007q-1.707 0-2.593 1.494h-.029v-1.318h-1.202v10.95h1.202v-4.534zM471.422 99.47q.593 0 .908.242v-1.245q-.25-.103-.718-.103-.652 0-1.18.443-.527.443-.783 1.234h-.03v-1.545h-1.2v7.5h1.2v-3.823q0-1.253.517-1.978.517-.725 1.286-.725zm38.994 6.526h-1.201v-7.5h1.2v7.5zm-33.56-6.665q-1.157 0-1.83.787-.675.788-.675 2.172 0 1.333.681 2.102.682.769 1.824.769 1.165 0 1.791-.754.626-.755.626-2.146 0-1.407-.626-2.168-.626-.762-1.79-.762zm21.71 0q-1.158 0-1.832.787-.674.788-.674 2.172 0 1.333.681 2.102.682.769 1.824.769 1.165 0 1.791-.754.626-.755.626-2.146 0-1.407-.626-2.168-.626-.762-1.79-.762zm15.673.787q.674-.787 1.831-.787 1.165 0 1.79.762.627.761.627 2.168 0 1.391-.626 2.146-.626.754-1.79.754-1.144 0-1.825-.769-.68-.77-.68-2.102 0-1.384.673-2.172zm61.553 1.41q-.008-1.04-.502-1.618-.494-.58-1.373-.58-.85 0-1.443.609-.593.608-.733 1.59h4.051zm18.237-2.197q-1.157 0-1.831.787-.674.788-.674 2.172 0 1.333.681 2.102.681.769 1.824.769 1.165 0 1.791-.754.626-.755.626-2.146 0-1.407-.626-2.168-.626-.762-1.791-.762zm6.768 3.603v-1.047q0-1.099.637-1.827.637-.73 1.684-.73.989 0 1.568.711.578.71.578 1.963 0 1.487-.618 2.322-.619.835-1.711.835-.93 0-1.534-.648t-.604-1.579zm-56.03-.732l-1.81.249q-.835.117-1.26.414-.424.297-.424 1.05 0 .55.392.898.391.348 1.043.348.894 0 1.476-.626t.582-1.586v-.747z" fill="#2F2432"/><path d="M558.746 19.039c-1.272-3.067-6.767-3.399-9.078-5.71-2.311-2.312-2.643-7.806-5.71-9.078-2.96-1.227-7.056 2.38-10.458 2.38s-7.5-3.607-10.458-2.38c-3.067 1.272-3.399 6.766-5.71 9.078-2.311 2.311-7.805 2.643-9.078 5.71-1.226 2.958 2.381 7.056 2.381 10.457 0 3.403-3.607 7.5-2.38 10.459 1.272 3.066 6.766 3.398 9.077 5.71 2.312 2.31 2.643 7.806 5.71 9.077 2.959 1.227 7.056-2.38 10.458-2.38s7.5 3.607 10.458 2.38c3.067-1.271 3.399-6.767 5.71-9.078 2.31-2.311 7.806-2.643 9.078-5.71 1.226-2.958-2.381-7.055-2.381-10.458 0-3.401 3.607-7.499 2.38-10.457z" fill="#FFF" stroke="#DDDFE2" stroke-width="3"/><path d="M528.5 26.245a3 3 0 100-6 3 3 0 000 6zm11 0a3 3 0 100-6 3 3 0 000 6z" fill="#6F95CC"/><path d="M526.5 34.245s3.077 4 8 4 8-4 8-4" fill="none" stroke="#6F95CC" stroke-width="3" stroke-linecap="round"/></svg>