<svg width="21" height="20" xmlns="http://www.w3.org/2000/svg" xmlns:xlink="http://www.w3.org/1999/xlink"><defs><path d="M20.644 5.788c.088 1.498-.28 3.758-2.527 6.094-3.821 3.948-6.855 7.135-6.88 7.16l-.737.774-.736-.774c-.026-.025-3.06-3.212-6.881-7.16C.636 9.546.268 7.286.356 5.788c.102-1.752.89-3.39 2.108-4.38A6.17 6.17 0 016.285.063c2.095 0 3.428.9 4.215 1.993C11.287.964 12.62.062 14.715.062a6.17 6.17 0 013.821 1.346c1.219.99 2.006 2.628 2.108 4.38z" id="a"/></defs><use fill="#546385" xlink:href="#a" fill-rule="evenodd"/></svg>