<svg width="18" height="16" xmlns="http://www.w3.org/2000/svg"><path d="M9.078 13.469a126.28 126.28 0 002.774-2.54c.599-.572 1.25-1.25 1.953-2.03.703-.782 1.191-1.472 1.465-2.07.273-.6.41-1.186.41-1.759 0-.833-.28-1.523-.84-2.07-.56-.547-1.257-.82-2.09-.82-.651 0-1.257.182-1.816.547-.56.364-.944.833-1.153 1.406H8.22c-.21-.573-.594-1.043-1.154-1.406A3.266 3.266 0 005.25 2.18c-.833 0-1.53.273-2.09.82-.56.547-.84 1.237-.84 2.07 0 .573.137 1.16.41 1.758.274.6.762 1.29 1.465 2.07a38.068 38.068 0 001.953 2.032c.6.573 1.524 1.419 2.774 2.539l.078.078.078-.078zM12.75.5c1.302 0 2.39.443 3.262 1.328.872.886 1.308 1.966 1.308 3.242 0 .756-.143 1.491-.43 2.207-.286.716-.813 1.517-1.581 2.403a33.755 33.755 0 01-2.09 2.226c-.625.6-1.628 1.524-3.008 2.774L9 15.773 7.79 14.72c-1.798-1.615-3.093-2.826-3.888-3.633a16.198 16.198 0 01-2.207-2.852C1.018 7.141.68 6.086.68 5.07c0-1.276.436-2.356 1.308-3.242C2.861.943 3.948.5 5.25.5 6.76.5 8.01 1.086 9 2.258 9.99 1.086 11.24.5 12.75.5z" fill="#C0BDBC" fill-rule="evenodd"/></svg>