<svg width="21" height="20" xmlns="http://www.w3.org/2000/svg" xmlns:xlink="http://www.w3.org/1999/xlink"><defs><path d="M20.644 5.788c.088 1.498-.28 3.758-2.527 6.094-3.821 3.948-6.855 7.135-6.88 7.16l-.737.774-.736-.774c-.026-.025-3.06-3.212-6.881-7.16C.636 9.546.268 7.286.356 5.788c.102-1.752.89-3.39 2.108-4.38A6.17 6.17 0 016.285.063c2.095 0 3.428.9 4.215 1.993C11.287.964 12.62.062 14.715.062a6.17 6.17 0 013.821 1.346c1.219.99 2.006 2.628 2.108 4.38zm-3.987 4.685c1.74-1.803 2.031-3.479 1.955-4.57-.076-1.397-.749-2.425-1.358-2.908-.686-.571-1.638-.901-2.54-.901-2.906 0-3.148 2.564-3.198 2.856-.064.33-.292.8-.978.8-.71 0-1.003-.432-1.054-.813-.038-.266-.292-2.843-3.199-2.843-.901 0-1.853.33-2.539.901-.61.483-1.282 1.51-1.358 2.907-.076 1.092.216 2.768 1.955 4.57 2.704 2.806 5.027 5.218 6.157 6.4 1.13-1.182 3.453-3.594 6.157-6.4z" id="a"/></defs><use fill="#4C454D" xlink:href="#a" fill-rule="evenodd"/></svg>