<svg width="20" height="19" xmlns="http://www.w3.org/2000/svg" xmlns:xlink="http://www.w3.org/1999/xlink"><defs><path d="M10 18.328l-1.453-1.312c-1.656-1.5-2.86-2.61-3.61-3.328a40.506 40.506 0 01-2.507-2.672C1.508 9.953.875 8.992.53 8.133a7.07 7.07 0 01-.515-2.649c0-1.53.523-2.828 1.57-3.89C2.633.53 3.937 0 5.5 0 7.313 0 8.812.703 10 2.11 11.188.702 12.687 0 14.5 0c1.563 0 2.867.531 3.914 1.594 1.047 1.062 1.57 2.36 1.57 3.89 0 1.22-.406 2.485-1.218 3.797-.813 1.313-1.696 2.453-2.649 3.422-.953.969-2.508 2.422-4.664 4.36L10 18.328z" id="a"/></defs><use fill="#DDDFE2" xlink:href="#a" fill-rule="evenodd"/></svg>