<svg width="18" height="24" xmlns="http://www.w3.org/2000/svg"><path d="M8.695 20.566c1.456 0 2.683-.499 3.682-1.498.999-.998 1.498-2.226 1.498-3.681 0-1.49-.203-2.946-.61-4.367-1.049 1.388-2.725 2.319-5.027 2.793-2.031.44-3.047 1.557-3.047 3.351 0 .948.339 1.752 1.016 2.412.677.66 1.507.99 2.488.99zM10.625.711a19.44 19.44 0 015.154 6.424 17.66 17.66 0 011.905 8.049c0 2.37-.847 4.4-2.54 6.093-1.692 1.693-3.74 2.54-6.144 2.54s-4.452-.847-6.145-2.54C1.163 19.585.316 17.553.316 15.184c0-3.657 1.168-6.873 3.504-9.649v.406c0 1.118.373 2.066 1.118 2.844.744.779 1.675 1.168 2.792 1.168 1.084 0 1.972-.38 2.666-1.142.694-.762 1.041-1.719 1.041-2.87 0-.677-.067-1.455-.203-2.336-.135-.88-.27-1.574-.406-2.082l-.203-.812z" fill="#FFF"/></svg>