<svg width="20" height="20" xmlns="http://www.w3.org/2000/svg" xmlns:xlink="http://www.w3.org/1999/xlink"><defs><path d="M9.882 0c5.446 0 9.883 4.437 9.883 9.882a9.823 9.823 0 01-2.9 6.984 9.823 9.823 0 01-6.983 2.899C4.437 19.765 0 15.328 0 9.882A9.823 9.823 0 012.9 2.9 9.801 9.801 0 019.881 0zm5.622 15.504a7.904 7.904 0 002.32-5.622 7.94 7.94 0 00-7.942-7.94 7.903 7.903 0 00-5.621 2.319 7.904 7.904 0 00-2.32 5.621 7.94 7.94 0 007.941 7.942c2.13 0 4.122-.82 5.622-2.32zM9 7.017V5h2.017v2.017H9zM9 15V8h2v7H9z" id="a"/></defs><use fill="#AAAEB1" xlink:href="#a" fill-rule="evenodd"/></svg>