<svg width="28" height="28" xmlns="http://www.w3.org/2000/svg"><g fill="none" fill-rule="evenodd"><path d="M14 0c7.71 0 14 6.29 14 14 0 7.752-6.29 14-14 14-7.752 0-14-6.248-14-14C0 6.29 6.248 0 14 0z" fill="#4B658A"/><path d="M17 6h-6a5 5 0 00-5 5v6a5 5 0 005 5h6a5 5 0 005-5v-6a5 5 0 00-5-5zm3.5 11c0 1.93-1.57 3.5-3.5 3.5h-6c-1.93 0-3.5-1.57-3.5-3.5v-6c0-1.93 1.57-3.5 3.5-3.5h6c1.93 0 3.5 1.57 3.5 3.5v6z" fill="#FFF" fill-rule="nonzero"/><path d="M14 10a4 4 0 100 8 4 4 0 000-8zm0 6.5a2.503 2.503 0 01-2.5-2.5c0-1.379 1.122-2.5 2.5-2.5s2.5 1.121 2.5 2.5c0 1.378-1.122 2.5-2.5 2.5z" fill="#FFF" fill-rule="nonzero"/><circle fill="#FFF" cx="18.3" cy="9.7" r="1"/></g></svg>