<svg width="28" height="28" xmlns="http://www.w3.org/2000/svg"><path d="M14 0c7.725 0 14 6.275 14 14s-6.275 14-14 14S0 21.725 0 14 6.275 0 14 0zm8.162 19.838V8.162a2.322 2.322 0 00-2.324-2.324H8.162a2.322 2.322 0 00-2.324 2.324v11.676a2.322 2.322 0 002.324 2.324h11.676a2.322 2.322 0 002.324-2.324zm-2.324-12.25c.314 0 .574.26.574.574v1.75a.58.58 0 01-.574.588h-1.75a.584.584 0 01-.588-.588v-1.75a.58.58 0 01.588-.574h1.75zM14 16.912A2.906 2.906 0 0111.088 14 2.906 2.906 0 0114 11.088 2.906 2.906 0 0116.912 14 2.906 2.906 0 0114 16.912zM18.662 14c0-.396-.04-.793-.137-1.162h1.887v7c0 .314-.26.574-.574.574H8.162a.578.578 0 01-.574-.574v-7h1.887A4.65 4.65 0 009.338 14 4.66 4.66 0 0014 18.662 4.66 4.66 0 0018.662 14z" fill="#fff" fill-rule="evenodd"/></svg>