<svg width="107" height="107" xmlns="http://www.w3.org/2000/svg"><g fill="none" fill-rule="evenodd"><path d="M90.281 55.59H16.72a.419.419 0 010-.836h73.562a.418.418 0 010 .836zm-64.02-29.694h.506c.204.904.852 1.355 1.934 1.355h4.397c2.969 0 4.896.433 5.778 1.297.883.867 1.33 2.744 1.33 5.636V46.15c0 .801-.455 1.438-1.36 1.916l-.404-.133v-9.412c0-2.554-.14-4.187-.415-4.897-.28-.712-.736-1.242-1.376-1.588-.64-.349-1.456-.524-2.449-.524h-6.333c-1.859 0-2.79-.813-2.79-2.438a4.73 4.73 0 011.182-3.178zm18.375-.177h.522c.127.477.329.815.6 1.008.272.194.84.381 1.705.563 1.289.268 1.935 1.269 1.935 3 0 .439-.037.787-.116 1.046-.823.27-1.588.403-2.286.403-.299 1.331-.443 2.813-.443 4.458 0 2.105.747 4.618 2.245 7.55l.6-.018c1.76-3.228 3.31-7.288 4.65-12.182-1.6-.594-2.403-1.535-2.403-2.826 0-1.108.329-2.11.99-3.002h.522c.155.726.516 1.155 1.086 1.299l1.221.274c1.3.297 1.956 1.183 1.956 2.67 0 .529-.06.987-.178 1.376-.578.181-1.305.27-2.163.27-.971 4.427-2.37 8.475-4.208 12.143h6.162c.586-1.962 2.229-4.83 4.916-8.598.684-.944 1.026-1.745 1.026-2.403 0-.671-.348-1.122-1.047-1.356l-.25-.074c-1.287-.442-1.936-1.2-1.936-2.286 0-1.227.376-2.334 1.125-3.312h.5c.09.622.422 1.034.989 1.24l1.086.37c1.222.425 1.837 1.31 1.837 2.652 0 1.163-.603 2.677-1.802 4.54a37.902 37.902 0 00-3.172 6.14 34.138 34.138 0 00-2.03 7.036H47.443a64.098 64.098 0 00-1.221-5.347c-.618-2.26-.931-4.098-.931-5.518 0-1.927.266-3.66.797-5.208-1.614-.477-2.423-1.357-2.423-2.635 0-1.214.324-2.303.97-3.273zm34.729 7.086c-.731-.862-1.766-1.298-3.123-1.298h-5.32c-1.833 0-2.751-.813-2.751-2.438 0-1.203.39-2.262 1.18-3.178h.5c.21.904.853 1.354 1.937 1.354h3.992c4.093 0 6.142 3.351 6.142 10.052 0 2.542-.214 4.563-.643 6.061-.427 1.498-1.251 2.595-2.476 3.292-1.228.701-2.846 1.05-4.864 1.05h-6.373l.91-3.951h7.342c3.07 0 4.605-1.932 4.605-5.792.017-2.57-.338-4.287-1.058-5.152zm27.302 28.339l-1.842-4.448c-.728-1.758-.728-4.632 0-6.39l1.842-4.45c.727-1.756.222-4.294-1.123-5.64l-3.403-3.406c-1.347-1.345-2.447-4-2.447-5.902v-4.816c-.001-1.902-1.437-4.052-3.194-4.78l-4.449-1.845c-1.755-.727-3.79-2.76-4.517-4.517L85.69 10.5c-.728-1.757-2.881-3.195-4.781-3.195h-4.817c-1.903 0-4.56-1.102-5.904-2.446l-3.405-3.405C65.44.11 62.902-.395 61.144.333l-4.448 1.843c-1.758.728-4.632.728-6.391 0L45.856.334c-1.757-.727-4.295-.222-5.64 1.122l-3.405 3.405c-1.346 1.345-4.002 2.445-5.903 2.445l-4.816.001c-1.902 0-4.053 1.438-4.78 3.195l-1.845 4.448c-.727 1.757-2.76 3.79-4.517 4.518l-4.45 1.844c-1.756.728-3.194 2.88-3.194 4.78l-.001 4.817c0 1.901-1.1 4.557-2.445 5.902l-3.405 3.406C.11 41.562-.395 44.1.333 45.857l1.843 4.448c.728 1.759.728 4.632 0 6.39l-1.843 4.45c-.727 1.757-.222 4.296 1.122 5.64l3.406 3.405c1.345 1.345 2.445 4.002 2.445 5.904v4.816c0 1.902 1.438 4.053 3.194 4.782l4.45 1.842c1.756.728 3.789 2.761 4.517 4.518l1.844 4.449c.728 1.755 2.88 3.193 4.78 3.193h4.817c1.901.001 4.557 1.103 5.902 2.448l3.406 3.403c1.345 1.346 3.883 1.85 5.64 1.123l4.449-1.842c1.76-.728 4.633-.728 6.391 0l4.448 1.842c1.756.727 4.296.222 5.64-1.123l3.405-3.403c1.346-1.347 4.002-2.447 5.904-2.448h4.817c1.901 0 4.053-1.436 4.781-3.193l1.843-4.45c.727-1.756 2.76-3.79 4.517-4.517L96.5 85.69c1.755-.728 3.193-2.881 3.194-4.782v-4.816c0-1.903 1.102-4.559 2.447-5.904l3.403-3.406c1.346-1.343 1.85-3.88 1.123-5.639z" fill="#0A0B09"/><path d="M35.912 78h-2.124l-1.728-5.472-.936 1.836V78h-2.088V65.4h2.088v5.67L33.5 65.4h2.196l-2.412 4.734L35.912 78zm.576-10.08c0-1.926 1.26-2.664 3.168-2.664h.144c1.908 0 3.168.756 3.168 2.664v7.56c0 1.908-1.26 2.664-3.168 2.664h-.144c-1.908 0-3.168-.756-3.168-2.664v-7.56zm2.088 7.236c0 .9.468 1.152 1.152 1.152.684 0 1.152-.252 1.152-1.152v-6.912c0-.9-.468-1.152-1.152-1.152-.684 0-1.152.252-1.152 1.152v6.912zM50.672 69.9H48.62v-1.764c0-.792-.45-1.08-1.062-1.08-.612 0-1.062.288-1.062 1.08V69c0 .648.216.936.81 1.278l1.476.828c1.206.684 1.926 1.242 1.926 2.592v1.818c0 1.944-1.206 2.628-3.114 2.628h-.036c-1.908 0-3.114-.666-3.114-2.628V73.32h2.052v1.908c0 .774.45 1.116 1.08 1.116.63 0 1.08-.342 1.08-1.116v-.99c0-.648-.198-.972-.828-1.314l-1.458-.828c-1.224-.702-1.926-1.278-1.926-2.592v-1.656c0-1.872 1.368-2.592 3.096-2.592h.036c1.728 0 3.096.72 3.096 2.592V69.9zm1.548-4.5h2.088v5.256h2.394V65.4h2.088V78h-2.088v-5.472h-2.394V78H52.22V65.4zM66.17 78h-5.58V65.4h5.526v1.836h-3.438v3.456h2.88v1.836h-2.88v3.636h3.492V78zm8.334 0H72.38l-1.602-5.022h-1.044V78h-2.088V65.4h3.258c1.908 0 3.168.756 3.168 2.664v2.25c0 1.206-.504 1.962-1.368 2.34l1.8 5.346zm-4.77-10.764v3.942h1.098c.684 0 1.152-.252 1.152-1.152v-1.638c0-.9-.468-1.152-1.152-1.152h-1.098z" fill="#FFF"/></g></svg>