<svg width="43" height="57" xmlns="http://www.w3.org/2000/svg"><g fill="#4B658A"><path d="M21.396 12.272c-4.942 0-8.965 4.023-8.965 8.964 0 4.942 4.023 8.965 8.965 8.965 4.941 0 8.964-4.02 8.964-8.965 0-4.944-4.023-8.964-8.964-8.964zm0 14.894a5.94 5.94 0 01-5.933-5.933 5.94 5.94 0 015.933-5.933 5.94 5.94 0 015.933 5.933 5.94 5.94 0 01-5.933 5.933z"/><path d="M21.393.018C9.694.018.175 9.538.175 21.24c0 5.266 1.982 9.265 5.405 14.391 3.565 5.354 14.149 19.587 14.594 20.193a1.513 1.513 0 002.431 0c.45-.603 11.03-14.84 14.594-20.19 3.423-5.126 5.406-9.125 5.406-14.39C42.61 9.536 33.092.017 21.393.017zm13.29 33.927c-2.816 4.229-10.334 14.43-13.29 18.426-2.956-3.993-10.474-14.197-13.29-18.426-3.66-5.482-4.897-8.689-4.897-12.709 0-10.028 8.158-18.19 18.187-18.19 10.028 0 18.186 8.159 18.186 18.19 0 4.02-1.237 7.227-4.896 12.709z"/></g></svg>