<svg width="72" height="72" xmlns="http://www.w3.org/2000/svg"><path d="M8.156 24.938H37.97c.621 0 1.125-.672 1.125-1.5 0-.829-.504-1.5-1.125-1.5H8.156c-.621 0-1.125.671-1.125 1.5 0 .828.504 1.5 1.125 1.5zm29.813 33H8.156c-.621 0-1.125.671-1.125 1.5 0 .828.504 1.5 1.125 1.5H37.97c.621 0 1.125-.672 1.125-1.5 0-.829-.504-1.5-1.125-1.5zm-29.813-3h25.37a21.831 21.831 0 01-1.676-3H8.156c-.621 0-1.125.671-1.125 1.5 0 .828.504 1.5 1.125 1.5zm0-6H30.29a26.42 26.42 0 01-.547-3H8.156c-.621 0-1.125.671-1.125 1.5 0 .828.504 1.5 1.125 1.5zm0-6h21.399c.04-1.008.135-2.011.285-3H8.156c-.621 0-1.125.671-1.125 1.5 0 .828.504 1.5 1.125 1.5zm0-6h21.78a23.602 23.602 0 011.255-3H8.156c-.621 0-1.125.671-1.125 1.5 0 .828.504 1.5 1.125 1.5zm26.101-6c1.008-1.105 2.918-3 2.712-3H8.156c-.621 0-1.125.671-1.125 1.5 0 .828.504 1.5 1.125 1.5h26.101z" fill="#6F95CC"/><path d="M70.692 53.488l1.288 6.747c.048.251.009.512-.111.738l-5.537 10.43a1.124 1.124 0 01-.994.597h-.176c-.416 0-.799-.23-.994-.598l-5.537-10.429a1.125 1.125 0 01-.111-.738l1.288-6.747a1.118 1.118 0 01-.183-.613V12.959h-1.67a.567.567 0 00-.58.552v11.833a1.125 1.125 0 01-2.25 0V13.511a2.82 2.82 0 012.83-2.802h1.92a5.626 5.626 0 0111 1.659v40.507c0 .218-.064.43-.183.613zm-8.817-41.12a3.375 3.375 0 016.75 0v2.876h-6.75v-2.876zM68.625 27v-9.506h-6.75V27h6.75zm-6.75 2.25h2.25v19.146a1.125 1.125 0 002.25 0V29.25h2.25v22.5h-6.75v-22.5zm4.5 32.327v4.945l3.32-6.254L68.5 54H62l-1.197 6.268 3.321 6.254v-4.945a1.786 1.786 0 01-.712-1.42 1.838 1.838 0 013.674 0 1.787 1.787 0 01-.712 1.42z" fill="#DDDFE2" fill-rule="evenodd"/><path d="M45.187 43.969a2.055 2.055 0 001.266-3.68l-4.389-5.106 1.062 6.714-.001.01a2.062 2.062 0 002.062 2.062z" fill="#DDDFE2"/><path d="M46.125 69.75V54.18a1.15 1.15 0 00-1.11-1.125 11.153 11.153 0 113.2-21.89A1.125 1.125 0 0048.824 29a13.389 13.389 0 00-2.699-.466V13.5a2.252 2.252 0 00-2.25-2.25h-8.438V8.437a2.252 2.252 0 00-2.25-2.25h-3.58a6.554 6.554 0 00-13.088 0h-3.581a2.252 2.252 0 00-2.25 2.25v2.813H2.25A2.252 2.252 0 000 13.5v56.25A2.252 2.252 0 002.25 72h41.625a2.252 2.252 0 002.25-2.25zM23.062 2.25a4.313 4.313 0 00-4.312 4.312v3.563h8.625V6.562a4.313 4.313 0 00-4.313-4.312zM12.938 8.437H16.5v2.813c0 .621.503 1.125 1.125 1.125H28.5c.622 0 1.125-.504 1.125-1.125V8.437h3.563l.001 7.876H12.937V8.437zm-2.25 5.063H2.25v56.25h41.625V55.24a13.4 13.4 0 010-26.673V13.5h-8.438v2.813a2.252 2.252 0 01-2.25 2.25h-20.25a2.252 2.252 0 01-2.25-2.25V13.5z" fill="#DDDFE2" fill-rule="evenodd"/><path d="M53.687 31.539a1.125 1.125 0 10-1.427 1.739c.792.65 1.49 1.404 2.077 2.243a1.125 1.125 0 001.844-1.29 13.476 13.476 0 00-2.494-2.692zm4.65 7.74a1.125 1.125 0 10-2.207.438c.143.72.215 1.454.214 2.189a1.125 1.125 0 002.25.001c0-.882-.086-1.763-.257-2.628z" fill="#DDDFE2"/></svg>