<svg width="73" height="73" xmlns="http://www.w3.org/2000/svg"><g transform="translate(-1 2)" fill="none" fill-rule="evenodd"><rect stroke="#E2E5E7" stroke-width="2" fill="#FFF" x="2.125" y="-.875" width="70.75" height="70.75" rx="3"/><g fill-rule="nonzero"><path d="M39.824 26.297H31.29l4.167-4.202-3.286-3.315-9.78 9.86 9.78 9.86 3.286-3.313-4.167-4.203h8.534c3.203 0 5.811 2.629 5.811 5.86 0 3.23-2.608 5.86-5.81 5.86h-9.298v4.687h9.297c5.768 0 10.46-4.731 10.46-10.547 0-5.816-4.692-10.547-10.46-10.547zM37.5 8.719c-14.099 0-25.568 11.565-25.568 25.781S23.402 60.281 37.5 60.281c14.099 0 25.568-11.565 25.568-25.781S51.598 8.719 37.5 8.719zm0 46.875c-11.535 0-20.92-9.463-20.92-21.094 0-11.63 9.385-21.094 20.92-21.094 11.536 0 20.92 9.463 20.92 21.094 0 11.63-9.384 21.094-20.92 21.094z" fill="#DDDFE2"/><path fill="#FFF" d="M59.907 3.62l2.538 2.539L8.704 59.9l-2.538-2.538zm5.076 5.077l2.538 2.538L13.78 64.976l-2.538-2.538z"/><path fill="#C4514D" d="M62.445 6.159l2.538 2.537L11.24 62.438 8.704 59.9z"/></g></g></svg>