<svg width="53" height="52" xmlns="http://www.w3.org/2000/svg"><g fill="none"><g transform="translate(0 5.701)" fill="#E2E5E7"><path d="M43.737 8.07H17.696c-.848 0-1.331.655-1.08 1.465l4.12 12.068c.203.65.921 1.178 1.603 1.178h17.074c.682 0 1.4-.527 1.6-1.178l3.59-12.353c.206-.652-.182-1.18-.866-1.18z"/><circle cx="20.051" cy="36.684" r="3.896"/><circle cx="36.535" cy="36.732" r="3.896"/><path d="M41.212 26.746H18.43L9.308.5H2.206a2.206 2.206 0 100 4.412H6.17l9.121 26.245h25.921a2.206 2.206 0 100-4.412z"/></g><path fill="#FFF" d="M47.376 0l1.605 1.604L2.058 48.527.453 46.923zm3.209 3.209l1.604 1.604L5.267 51.736 3.662 50.13z"/><path fill="#C4514D" d="M48.98 1.604l1.605 1.605L3.662 50.132l-1.604-1.605z"/></g></svg>