<svg width="18" height="22" xmlns="http://www.w3.org/2000/svg"><path d="M8.25 17.75v-5.625h5.625V14h-3.75v3.75H8.25zM.375.875H17.25v14.074l-6.14 6.176H.374v-9.75H2.25v7.875h8.074l5.051-5.074V2.75h-15V.875zm1.125 7.5V9.5H.375V4.625h2.168c1.16 0 1.57 1.219 1.57 1.875 0 1.125-.703 1.875-1.676 1.875H1.5zm0-2.625v1.5h.668c.34 0 .691-.281.691-.75 0-.422-.293-.75-.62-.75H1.5zm5.52-1.125c1.418 0 1.921 1.29 1.921 2.46 0 1.419-.691 2.415-2.18 2.415H4.876V4.625H7.02zm-.293 3.75c.82 0 .937-.867.937-1.29 0-.292-.082-1.335-1.031-1.335H6v2.625h.727zm6.398-2.625h-2.25v.75h1.875v1.125h-1.875V9.5H9.75V4.625h3.375V5.75z" fill="#C0BDBC" fill-rule="evenodd"/></svg>