<svg width="28" height="28" xmlns="http://www.w3.org/2000/svg"><path d="M14 0c7.752 0 14 6.248 14 14s-6.248 14-14 14a13.29 13.29 0 01-3.992-.588c.56-.834 1.135-1.914 1.435-2.98.164-.616.971-3.856.971-3.856.479.944 1.914 1.75 3.432 1.75 4.511 0 7.547-4.115 7.547-9.584 0-4.156-3.528-8.039-8.846-8.039-6.672 0-10.008 4.758-10.008 8.75 0 2.42.902 4.567 2.844 5.346.328.123.615 0 .724-.356.055-.232.22-.847.288-1.107.095-.356.027-.479-.233-.78-.547-.683-.902-1.517-.902-2.747 0-3.541 2.652-6.713 6.904-6.713 3.76 0 5.797 2.297 5.797 5.386 0 4.02-1.777 7.41-4.443 7.41-1.45 0-2.557-1.189-2.202-2.68.424-1.79 1.23-3.704 1.23-4.962 0-1.162-.614-2.105-1.872-2.105-1.49 0-2.694 1.558-2.694 3.623 0 1.34.452 2.214.452 2.214s-1.559 6.48-1.805 7.643c-.26 1.04-.3 2.242-.232 3.213C3.432 24.664 0 19.742 0 14 0 6.248 6.248 0 14 0z" fill="#546385" fill-rule="evenodd"/></svg>