<svg width="54" height="54" xmlns="http://www.w3.org/2000/svg"><path d="M52.246 16.543c-1.272-3.067-6.767-3.4-9.078-5.71-2.311-2.312-2.643-7.807-5.71-9.079C34.498.528 30.402 4.134 27 4.134S19.5.529 16.542 1.755c-3.067 1.272-3.399 6.767-5.71 9.078-2.311 2.312-7.805 2.644-9.078 5.71C.528 19.502 4.135 23.599 4.135 27c0 3.403-3.607 7.5-2.38 10.458 1.272 3.067 6.766 3.399 9.077 5.71 2.312 2.312 2.643 7.806 5.71 9.077 2.959 1.228 7.056-2.38 10.458-2.38s7.5 3.608 10.458 2.38c3.067-1.27 3.399-6.766 5.71-9.077 2.31-2.311 7.806-2.643 9.078-5.71C53.472 34.5 49.865 30.403 49.865 27c0-3.402 3.607-7.5 2.38-10.457z" fill="#FFF" stroke="#6F95CC" stroke-width="3"/><path d="M22 23.748a3 3 0 100-6 3 3 0 000 6zm11 0a3 3 0 100-6 3 3 0 000 6z" fill="#6F95CC"/><path d="M20 31.748s3.077 4 8 4 8-4 8-4" fill="none" stroke="#6F95CC" stroke-width="3" stroke-linecap="round"/></svg>