<svg width="30" height="30" xmlns="http://www.w3.org/2000/svg" xmlns:xlink="http://www.w3.org/1999/xlink"><defs><path d="M23.237 21.426l4.172 4.15c.507.504.51 1.326.005 1.834l-.098.097a1.322 1.322 0 01-1.719-.093l-4.185-4.15a1.29 1.29 0 01-.382-.915 1.29 1.29 0 011.294-1.298c.33 0 .661.125.913.375m-3.747-10.6a8.655 8.655 0 01-2.537 6.165c-3.384 3.393-8.903 3.405-12.302.026-3.4-3.386-3.413-8.91-.029-12.314a8.639 8.639 0 016.146-2.564h.021c2.317 0 4.495.9 6.138 2.535a8.653 8.653 0 012.563 6.151m9.594 13.422a3.378 3.378 0 00-.181-.182l-4.174-4.146a3.418 3.418 0 00-3.964-.623l-1.605-1.6a10.749 10.749 0 002.434-7.727 10.752 10.752 0 00-3.756-7.38C13.304-1.286 6.466-.75 2.593 3.787a10.754 10.754 0 00-2.559 7.877 10.75 10.75 0 003.756 7.38 10.762 10.762 0 0013.877.143l1.628 1.618a3.435 3.435 0 00.638 3.963l4.146 4.144A3.412 3.412 0 0026.583 30c.835 0 1.672-.303 2.33-.916a3.429 3.429 0 00.171-4.837" id="a"/></defs><g fill="none" fill-rule="evenodd"><mask id="b" fill="#fff"><use xlink:href="#a"/></mask><use fill="#000" xlink:href="#a"/><g mask="url(#b)" fill="#4B658A"><path d="M0 0h30v30H0z"/></g></g></svg>