<svg width="35" height="46" xmlns="http://www.w3.org/2000/svg"><g fill="#6F95CC"><path d="M18.112 29.312c0-3.84 3.12-6.96 6.96-6.96h2.064a25.655 25.655 0 001.872-9.552V8.624c0-1.488-1.152-2.736-2.592-2.832-3.456-.288-6.72-1.776-9.168-4.224l-.768-.72c-1.056-1.056-2.928-1.056-3.984 0l-.72.72C9.328 4.016 6.064 5.504 2.608 5.792 1.12 5.888.016 7.136.016 8.624V12.8c0 9.312 4.992 17.904 13.104 22.464.432.24.912.336 1.392.336.24 0 .48-.048.672-.096v-.768c0-1.92 1.248-3.552 2.976-4.176v-1.248h-.048zm-3.936-7.056c-.336.336-.816.576-1.296.576-.48 0-1.008-.24-1.344-.576l-3.552-3.84a1.812 1.812 0 01.096-2.544 1.812 1.812 0 012.544.096l2.256 2.448 5.472-5.904c.672-.72 1.776-.768 2.544-.096.72.672.768 1.824.096 2.544l-6.816 7.296z"/><path d="M33.232 33.152h-1.296v-3.84a4.179 4.179 0 00-4.176-4.176h-2.688a4.179 4.179 0 00-4.176 4.176v3.84H19.6a1.7 1.7 0 00-1.68 1.68V44a1.7 1.7 0 001.68 1.68h13.632a1.7 1.7 0 001.68-1.68v-9.216c0-.912-.768-1.632-1.68-1.632zm-6 6.384l.576 2.256c.048.144 0 .288-.096.432a.437.437 0 01-.384.192h-1.872a.437.437 0 01-.384-.192c-.096-.144-.144-.288-.096-.432l.576-2.256c-.528-.288-.816-.864-.816-1.44a1.7 1.7 0 011.68-1.68 1.7 1.7 0 011.68 1.68c0 .576-.336 1.104-.864 1.44zm1.728-6.384h-5.088v-3.84c0-.672.528-1.2 1.2-1.2h2.688c.672 0 1.2.528 1.2 1.2v3.84z"/></g></svg>