<svg width="37" height="39" xmlns="http://www.w3.org/2000/svg"><g fill="#6F95CC" fill-rule="evenodd"><path d="M19.732 37.48V2.948c0-.466.004-.937 0-1.404v-.062c0-.655-.567-1.28-1.232-1.25-.67.029-1.232.55-1.232 1.25v34.532c0 .467-.004.938 0 1.404v.063c0 .654.567 1.28 1.232 1.25.67-.03 1.232-.55 1.232-1.25z"/><path d="M23.67 2.423L21.633 4.49l-3.252 3.3-.752.763h1.742l-2.037-2.067-3.252-3.3-.752-.763c-.456-.462-1.293-.496-1.741 0-.452.5-.489 1.275 0 1.767l2.037 2.067 3.252 3.3.751.763c.473.48 1.27.48 1.742 0l2.036-2.067 3.253-3.3.751-.763c.456-.462.489-1.312 0-1.767-.493-.454-1.256-.491-1.741 0zm1.741 32.341a39406288.75 39406288.75 0 01-6.04-6.13 1.234 1.234 0 00-1.742 0l-2.036 2.067-3.253 3.3-.751.763c-.456.463-.489 1.313 0 1.767.493.458 1.256.496 1.741 0l2.037-2.067 3.252-3.3.752-.763h-1.742l2.037 2.067 3.252 3.3.752.763c.456.462 1.293.496 1.741 0 .452-.496.489-1.271 0-1.767zm9.075-7.364c-.275-.158-.546-.32-.821-.478-.743-.438-1.49-.871-2.234-1.309-1.1-.646-2.205-1.292-3.306-1.938l-4.032-2.362-4.419-2.588-4.46-2.613c-1.387-.812-2.77-1.625-4.159-2.438-1.17-.687-2.345-1.37-3.515-2.058-.842-.496-1.688-.988-2.53-1.484-.398-.233-.796-.475-1.199-.704-.016-.008-.032-.02-.053-.029-.558-.33-1.376-.15-1.684.45-.312.596-.156 1.363.444 1.709.275.158.546.32.821.479.743.437 1.49.87 2.234 1.308 1.1.646 2.205 1.292 3.306 1.938 1.342.787 2.69 1.575 4.032 2.363 1.474.862 2.944 1.725 4.419 2.587l4.46 2.613 4.159 2.438c1.17.687 2.345 1.37 3.515 2.058.842.496 1.688.988 2.53 1.484.398.233.796.475 1.199.704.016.008.033.021.053.03.559.329 1.376.15 1.684-.45.308-.597.152-1.36-.444-1.71z"/><path d="M6.534 6.42c.25.941.497 1.883.747 2.825.399 1.504.793 3.004 1.191 4.509.09.345.185.696.275 1.041l.863-1.537c-.928.254-1.856.504-2.785.758-1.482.404-2.96.804-4.443 1.209-.34.091-.685.187-1.026.279-.624.17-1.064.9-.863 1.537.206.65.85 1.055 1.516.876.928-.255 1.856-.505 2.784-.759 1.482-.404 2.96-.804 4.443-1.208l1.027-.28c.644-.175 1.03-.887.862-1.537-.25-.942-.497-1.884-.747-2.825-.399-1.505-.793-3.005-1.191-4.51-.09-.345-.185-.695-.275-1.041-.169-.633-.887-1.08-1.516-.875-.64.208-1.043.858-.862 1.538zm28.457 14.63c-.928.254-1.856.504-2.784.759-1.482.404-2.96.804-4.443 1.208l-1.027.28c-.644.174-1.03.887-.862 1.537l.747 2.825c.399 1.504.793 3.005 1.191 4.509.09.346.185.696.275 1.042.169.633.887 1.079 1.516.875.64-.209 1.039-.863.862-1.538l-.747-2.825c-.399-1.504-.793-3.005-1.191-4.509-.09-.346-.185-.696-.275-1.042l-.863 1.538c.928-.254 1.856-.504 2.785-.758 1.482-.405 2.96-.805 4.443-1.209l1.026-.28c.624-.17 1.064-.9.863-1.537-.206-.65-.846-1.054-1.516-.875zM33.242 9.399c-.275.158-.546.32-.821.48-.744.437-1.49.87-2.234 1.308-1.1.646-2.205 1.291-3.306 1.937l-4.032 2.363-4.419 2.588-4.46 2.613c-1.387.812-2.771 1.625-4.16 2.437-1.17.688-2.344 1.371-3.514 2.059-.842.496-1.688.987-2.53 1.483-.398.234-.8.463-1.199.705-.016.008-.033.02-.053.029-.559.325-.801 1.146-.444 1.708.362.571 1.088.8 1.684.45.275-.158.546-.32.821-.479.743-.437 1.49-.87 2.234-1.308 1.1-.646 2.205-1.292 3.306-1.938 1.343-.788 2.69-1.575 4.032-2.363 1.474-.862 2.945-1.725 4.419-2.588l4.46-2.612 4.159-2.438c1.17-.688 2.345-1.371 3.515-2.059.842-.495 1.688-.987 2.53-1.483.398-.233.8-.463 1.199-.704.016-.009.033-.021.053-.03.559-.324.8-1.145.444-1.708-.362-.575-1.089-.8-1.684-.45z"/><path d="M8.907 33.206c.25-.942.497-1.884.748-2.826.398-1.504.792-3.004 1.19-4.509l.276-1.041c.172-.65-.214-1.363-.863-1.538-.928-.254-1.856-.504-2.784-.758-1.482-.405-2.96-.805-4.443-1.209-.34-.091-.686-.187-1.026-.279-.62-.17-1.368.213-1.516.875-.148.658.193 1.359.863 1.538.928.254 1.856.504 2.784.758 1.482.404 2.96.804 4.443 1.209.34.091.686.187 1.027.279l-.863-1.538c-.25.942-.497 1.884-.747 2.825-.399 1.505-.793 3.005-1.191 4.51-.09.345-.185.695-.275 1.04-.169.63.21 1.389.862 1.539.649.145 1.339-.2 1.515-.875zm26.741-17.711c-.928-.254-1.856-.504-2.784-.758-1.482-.404-2.96-.804-4.443-1.208l-1.027-.28.863 1.538.747-2.825c.399-1.505.793-3.005 1.191-4.509.09-.346.185-.696.275-1.042.169-.629-.21-1.387-.862-1.537-.649-.15-1.339.195-1.515.875-.25.941-.497 1.883-.748 2.825-.398 1.504-.792 3.004-1.19 4.509l-.276 1.041c-.172.65.214 1.363.863 1.538.928.254 1.856.504 2.784.759 1.482.404 2.96.804 4.443 1.208l1.026.28c.62.17 1.368-.213 1.516-.876.143-.654-.197-1.354-.863-1.538z"/></g></svg>