<svg width="51" height="32" xmlns="http://www.w3.org/2000/svg" xmlns:xlink="http://www.w3.org/1999/xlink"><defs><path d="M2.706 8V5.063h2.387V3.479H2.706V2.027H5.72V.421H.847V8h1.859zm5.973 0V5.47h.165L10.472 8h2.134l-1.848-2.618c1.232-.308 1.815-1.353 1.815-2.431 0-1.265-.814-2.53-2.596-2.53H6.842V8h1.837zm1.21-4.114h-1.21V2.027h1.21c.605 0 .825.473.825.924 0 .451-.22.935-.825.935zM18.92 8V6.394h-3.179V5.052h2.706V3.479h-2.706V2.027h3.08V.421h-4.917V8h5.016zm6.391 0V6.394h-3.179V5.052h2.706V3.479h-2.706V2.027h3.08V.421h-4.917V8h5.016z" id="a"/></defs><g fill="none"><path d="M49.759 14.412L41.9 4.178a3 3 0 00-2.38-1.173H35V3a3 3 0 00-3-3H3a3 3 0 00-3 3v22.05a3 3 0 003 3h3A5.974 5.974 0 0011.666 32a6.08 6.08 0 005.666-3.95H34.66A5.974 5.974 0 0040.325 32 6.08 6.08 0 0046 28.05h2a3 3 0 003-3v-6.984a6 6 0 00-1.241-3.654zM11.5 28A2.51 2.51 0 019 25.5a2.542 2.542 0 012.5-2.5 2.5 2.5 0 010 5zm29-.014a2.502 2.502 0 01-2.5-2.49A2.535 2.535 0 0140.5 23a2.507 2.507 0 011.771.737c.47.47.731 1.108.729 1.772A2.535 2.535 0 0140.519 28l-.019-.014zM43.196 15H37a1 1 0 01-1-1V8a1 1 0 011-1h1.892a2 2 0 011.696.94l3.456 5.53a1 1 0 01-.848 1.53z" fill="#7D2254"/><g transform="translate(5 9)"><use fill="#000" xlink:href="#a"/><use fill="#FFF" xlink:href="#a"/></g></g></svg>