<svg width="24" height="23" xmlns="http://www.w3.org/2000/svg"><path d="M15.136 10.646l-1.841 1.841 7.84 7.84a1.26 1.26 0 01-1.782 1.782l-7.84-7.84-7.84 7.84a1.26 1.26 0 01-1.782-1.782L13.354 8.864c-.475-.95-.544-2.06-.208-3.326.337-1.267 1-2.396 1.99-3.386C16.364.925 17.73.222 19.234.044c1.505-.178 2.713.188 3.623 1.099.911.91 1.277 2.128 1.1 3.652-.179 1.525-.882 2.9-2.11 4.128-.99.99-2.118 1.644-3.385 1.96-1.267.317-2.376.238-3.326-.237zM5.914 12L1.286 7.286C.429 6.413 0 5.366 0 4.143 0 2.92.429 1.873 1.286 1L9 8.805 5.914 12z" fill="#FFF"/></svg>