<svg width="44" height="40" xmlns="http://www.w3.org/2000/svg"><g fill="none" fill-rule="evenodd"><path d="M15 39V25H2a1 1 0 00-1 1v12a1 1 0 001 1h13zm0-14h14v14H15zm-7 0h14V11H9a1 1 0 00-1 1v13zm14-14h14v14H22zm7 14v14h13a1 1 0 001-1V26a1 1 0 00-1-1H29z" stroke="#E2E5E7" stroke-width="2"/><g transform="translate(23)"><circle fill="#6F95CC" cx="10.5" cy="10.5" r="10.5"/><path d="M14.945 8.816l-6.04 6.045a.255.255 0 01-.151.059.255.255 0 01-.152-.059l-3.54-3.545a.21.21 0 010-.297l1.46-1.46a.219.219 0 01.298 0l1.934 1.943 4.433-4.443a.219.219 0 01.298 0l1.46 1.46a.21.21 0 010 .297z" fill="#FFF"/></g></g></svg>