<svg width="22" height="25" xmlns="http://www.w3.org/2000/svg"><path d="M5.203 19.945C6.807 21.55 8.74 22.352 11 22.352s4.184-.803 5.77-2.407c1.585-1.604 2.378-3.536 2.378-5.797 0-2.26-.793-4.183-2.378-5.77C15.184 6.794 13.26 6 11 6s-4.184.793-5.77 2.379c-1.585 1.586-2.378 3.509-2.378 5.77 0 2.26.783 4.192 2.351 5.796zm14-12.304c1.531 1.932 2.297 4.101 2.297 6.507 0 2.88-1.02 5.35-3.063 7.41-2.041 2.06-4.52 3.09-7.437 3.09-2.917 0-5.396-1.03-7.438-3.09C1.522 19.499.5 17.029.5 14.149s1.02-5.35 3.063-7.41c2.041-2.06 4.52-3.09 7.437-3.09 2.37 0 4.557.784 6.563 2.352l1.64-1.695c.583.474 1.13 1.02 1.64 1.64l-1.64 1.696zm-9.351 7.71v-7h2.296v7H9.852zM14.5.149V2.5h-7V.148h7z" fill="#FFF"/></svg>