<svg width="103" height="57" xmlns="http://www.w3.org/2000/svg"><path d="M99.563 29.478a15.337 15.337 0 001.21-5.989c0-8.497-6.89-15.386-15.387-15.386S70 14.992 70 23.489c0 2.124.43 4.148 1.21 5.989C73.544 35 85.385 50.319 85.385 50.319S97.227 35 99.563 29.478zm-21.05-6.752a6.872 6.872 0 1113.744 0 6.872 6.872 0 01-13.743 0z" fill="none" stroke="#6F95CC" stroke-width="3"/><path d="M1.5 1.5v10.501q0 .258.013.515.012.258.038.514.025.257.063.511.037.255.088.508.05.253.113.503.062.25.137.497.075.246.162.489.087.243.185.48.099.239.209.472.11.233.232.46.121.227.254.449.132.22.275.435.144.214.297.421.154.207.317.407.164.199.337.39.173.19.355.373.182.182.373.355t.39.337q.2.163.407.317.207.153.421.297.214.143.435.275.221.133.449.254.227.122.46.232.233.11.471.209.238.098.481.185t.49.162q.246.075.496.137.25.063.503.113t.507.088q.255.038.512.063.256.026.514.038.257.013.515.013h33.002q.22 0 .442.01.22.012.44.033.22.022.438.054.219.033.436.076.216.043.43.097.215.053.426.117.212.065.42.139.208.075.412.159.204.085.404.179.2.095.394.199.195.104.384.217.19.114.374.237.183.122.36.254.178.131.349.272.17.14.334.288.164.149.32.305.157.156.305.32.148.163.288.334.14.17.272.348.132.178.254.361.123.184.237.374.113.19.217.384.105.195.199.394.094.2.179.404.085.204.159.412t.139.42q.064.211.117.425.054.215.097.431.043.217.076.436.032.218.054.438.021.22.032.44.011.221.011.442v.002q0 .22-.01.442-.012.22-.033.44-.022.22-.054.438-.033.219-.076.436-.043.216-.097.43-.053.215-.117.426-.065.212-.139.42-.074.208-.159.412t-.179.404q-.095.2-.199.394-.104.195-.217.384-.114.19-.237.374-.122.183-.254.36-.132.178-.272.349-.14.17-.288.334-.148.164-.305.32-.156.156-.32.305-.163.148-.334.288-.17.14-.348.272-.178.132-.361.254-.184.123-.374.237-.19.113-.384.217-.195.104-.394.199-.2.094-.404.179-.204.084-.412.159-.208.074-.42.138-.211.065-.425.118-.215.054-.431.097-.217.043-.436.076-.218.032-.438.054-.22.021-.44.032-.221.011-.442.011H26.999q-.184 0-.368.009-.184.01-.367.027-.183.018-.365.045t-.363.063q-.18.036-.36.08-.178.045-.354.099-.176.053-.35.115-.173.062-.343.133-.17.07-.336.149-.167.079-.329.165-.162.087-.32.182-.158.094-.311.197-.153.102-.301.212t-.29.226q-.143.117-.279.24-.136.124-.267.254-.13.13-.253.267-.124.136-.24.279-.118.142-.227.29-.11.148-.212.3-.102.154-.197.312-.095.158-.181.32-.087.162-.166.329-.079.166-.15.336-.07.17-.132.344-.062.173-.115.35-.053.175-.098.354-.045.178-.08.359-.037.18-.064.363-.027.182-.045.365t-.027.367q-.009.184-.009.368v.002q0 .184.009.368.01.184.027.367.018.183.045.365t.063.363q.036.18.08.36.046.178.099.354.053.176.115.35.062.173.133.343.07.17.149.336.079.167.166.329.086.162.18.32.096.158.198.311.102.153.212.301t.226.29q.117.143.24.279.124.136.254.267.13.13.267.253.136.124.279.24.142.118.29.227.148.11.3.212.154.102.312.197.158.095.32.181.162.087.329.166.166.079.336.15.17.07.344.132.173.062.35.115.175.053.354.098.178.045.359.08.18.037.363.064.182.027.365.045t.367.027q.184.009.368.009H85.5" fill="none" stroke="#6F95CC" stroke-width="3" stroke-linecap="round" stroke-dasharray="3 5"/></svg>