<svg width="17" height="18" xmlns="http://www.w3.org/2000/svg" xmlns:xlink="http://www.w3.org/1999/xlink"><defs><path d="M8.115 9.688c-2.49 0-4.375-2.266-4.375-5.264C3.74 2.03 5.742 0 8.115 0s4.375 2.031 4.375 4.424c0 2.998-1.885 5.263-4.375 5.263zm0-8.174c-1.513 0-2.851 1.367-2.851 2.91 0 2.138 1.22 3.75 2.851 3.75s2.852-1.611 2.852-3.75c0-1.543-1.338-2.91-2.852-2.91zM1.562 17.5H0l.137-1.602c.342-3.203 3.154-4.96 7.978-4.96s7.637 1.757 7.979 4.95l.136 1.612h-1.562l-.137-1.465c-.302-2.92-3.642-3.564-6.416-3.564-2.773 0-6.113.644-6.416 3.574L1.562 17.5z" id="a"/></defs><g fill="none" fill-rule="evenodd"><mask id="b" fill="#fff"><use xlink:href="#a"/></mask><use fill="#546385" xlink:href="#a"/><g mask="url(#b)" fill="#546385"><path d="M-7-6h30v30H-7z"/></g></g></svg>