<svg width="107" height="107" xmlns="http://www.w3.org/2000/svg"><g fill="none" fill-rule="evenodd"><path d="M31.997 72.907c-.229.515-.604.731-.956.744-.555.02-1.052-.463-.833-1.076 1.724-4.686 4.81-8.865 7.983-12.67a82.02 82.02 0 012.977-3.372c2.62-2.812 5.451-5.428 8.404-7.888a105.537 105.537 0 017.835-5.916 101.975 101.975 0 018.257-5.134c1.953-1.08 3.967-2.049 5.92-3.127-3.604 1.989-7.027 4.37-10.357 6.78-5.036 3.649-9.834 7.66-14.271 12.02-4.456 4.376-8.6 9.184-12.036 14.41-1.096 1.668-2.11 3.404-2.923 5.23m49.657-52.234c-4.56 16.882-41.774-.178-46.908 41.418-3.618 4.848-3.827 5.382-5.8 10.019l-.002.006-.002.006a2.101 2.101 0 00.272 1.978c.43.587 1.132.921 1.876.893.922-.033 1.72-.609 2.135-1.54l.008-.017.007-.017c1.69-3.246 2.161-4.21 4.01-6.697 46.942 1.62 46.434-43.647 44.404-46.049" fill="#1B9B27"/><path d="M21.435 29.98c7.089 7.302-13.072 20.976 7.865 35.971-5.683-12.47-4.04-27.02-4.04-27.02s-.442 14.685 5.303 26.984c15.473-23-7.34-36.233-9.128-35.934" fill="#1B9B27"/><path d="M53.474 7.816c25.176 0 45.658 20.482 45.658 45.658 0 10.78-3.757 20.697-10.028 28.516-11.668-4.931-24.494-7.658-37.958-7.658-12.108 0-23.7 2.206-34.398 6.237a45.414 45.414 0 01-8.932-27.095c0-25.176 20.482-45.658 45.658-45.658m0 99.132c29.533 0 53.474-23.94 53.474-53.474C106.948 23.942 83.007 0 53.474 0 23.94 0 0 23.942 0 53.474c0 29.533 23.94 53.474 53.474 53.474" fill="#1B9B27"/><path fill="#FFF" d="M25.678 85.053h3.47l1.302 8.244h.042l1.322-8.244h3.347l-2.768 11.178h-3.967zM42 89.248c0-1.57-.206-2.418-1.136-2.418-1.095 0-1.281.91-1.281 2.418H42zm-2.417 1.942v.682c0 1.735.248 2.582 1.219 2.582.867 0 1.136-.64 1.219-2.045h3.099c-.062 2.768-1.57 4.111-4.339 4.111-4.215 0-4.545-2.954-4.545-6.28 0-3.14.91-5.476 4.545-5.476 4.153 0 4.442 2.624 4.442 6.426h-5.64zm11.756 2.335c.909 0 1.26-.662 1.26-3.182 0-2.046-.248-3.017-1.22-3.017-1.094 0-1.26 1.281-1.26 3.12 0 2.335.31 3.079 1.22 3.079zm1.384-8.472h3.099v10.785c0 2.521-1.116 4.194-4.649 4.194-3.243 0-4.194-1.425-4.194-3.099h3.1c.061.31.165.537.35.682.207.145.476.227.827.227 1.116 0 1.343-.722 1.343-2.85v-.683h-.041c-.455 1.281-1.509 1.653-2.645 1.653-2.417 0-3.14-2.396-3.14-5.475 0-2.644.351-5.723 3.264-5.723 1.508 0 2.252.786 2.644 1.798h.042v-1.509zm9.195 9.153c.702 0 1.342-.413 1.342-1.528 0-.93.021-1.509.021-1.964-1.053.558-1.508.579-1.818.827-.351.268-.516.62-.516 1.24 0 .888.35 1.425.97 1.425zm-3.885-5.723c.02-1.528.475-2.458 1.26-2.995.786-.538 1.736-.724 3.12-.724 2.748 0 3.967.95 3.967 3.306v5.744c0 .847 0 1.921.393 2.417H63.55c-.124-.393-.166-.847-.186-1.281h-.042c-.454.992-1.508 1.57-2.624 1.57-1.88 0-2.975-.992-2.975-3.409 0-1.302.538-2.397 1.364-2.85.827-.455 2.066-.662 2.996-.91 1.012-.269 1.198-.434 1.198-1.281 0-.682-.31-1.115-1.053-1.115-.93 0-1.2.557-1.22 1.528h-2.975zm10.807-3.43h3.223v1.323h.04c.476-.992 1.447-1.612 2.687-1.612 1.9 0 2.913.95 2.913 3.1v8.367h-3.347v-7.624c0-.806-.351-1.28-.971-1.28-.64 0-1.198.495-1.198 1.59v7.314H68.84V85.053z"/></g></svg>