<svg width="48" height="48" xmlns="http://www.w3.org/2000/svg"><g transform="translate(2 2)" fill="none"><rect x="-1" y="-1" width="46" height="46" rx="2" fill="#FFF" stroke="#DDDFE2" stroke-width="2"/><circle stroke="#DDDFE2" stroke-width="2" fill="#FFF" cx="22" cy="22" r="12"/><path d="M26.23 17.013c-.27.039-.52.167-.71.364l-2.328 2.34a3.036 3.036 0 00-1.115-.23A3.073 3.073 0 0019 22.554a3.073 3.073 0 003.077 3.068c1.7 0 3.077-1.374 3.077-3.068a3.04 3.04 0 00-.23-1.113l2.326-2.32c.392-.367.5-.945.266-1.427a1.232 1.232 0 00-1.285-.682z" fill="#4B658A"/></g></svg>