<svg width="73" height="76" xmlns="http://www.w3.org/2000/svg"><g fill="none" fill-rule="evenodd"><path d="M14.27 0a1.588 1.588 0 00-1.09.477L.585 13.049l-.099.092-.074.068a1.584 1.584 0 00-.05.063 1.58 1.58 0 00-.34 1.274v50.372c0 .875.71 1.583 1.586 1.583H40a17.34 17.34 0 003.198 4.41c6.806 6.79 17.89 6.783 24.697-.007 6.805-6.79 6.805-17.839 0-24.63v-.006a17.56 17.56 0 00-1.24-1.113V1.597A1.585 1.585 0 0065.07.02V.013H14.524a1.59 1.59 0 00-.254-.012zm.688 3.18H61.24l-9.52 9.497H5.44l9.519-9.498zm48.525 2.238v37.659a17.568 17.568 0 00-9.519-1.83V14.915l9.52-9.498zM3.195 15.844h47.596V41.84a17.342 17.342 0 00-7.592 4.428c-4.622 4.612-6.094 11.19-4.437 17.067H3.195V15.844zM6.37 44.339v3.166h19.038v-3.166H6.369zm0 6.332v3.166h12.69V50.67H6.369z" fill="#FFF"/><g transform="translate(38 41)"><circle fill="#FFF" cx="17" cy="17" r="17"/><g fill="#4B658A"><path d="M18.352 29.162V6.765c0-.303.003-.608 0-.91v-.041a.842.842 0 00-.852-.811c-.463.019-.852.356-.852.81v22.398c0 .303-.003.608 0 .91v.041c0 .424.392.83.852.811.463-.019.852-.357.852-.81z"/><path d="M21.077 6.424c-.469.446-.94.895-1.41 1.34l-2.25 2.141-.52.495h1.205l-1.409-1.34-2.25-2.141-.52-.495c-.315-.3-.895-.321-1.204 0-.313.325-.338.827 0 1.146l1.409 1.34 2.25 2.141.52.495c.326.31.878.31 1.204 0 .469-.446.94-.895 1.41-1.34l2.25-2.141.52-.495c.315-.3.337-.851 0-1.146-.342-.294-.87-.319-1.205 0zM22.281 27.4l-1.409-1.34-2.25-2.141-.52-.495a.895.895 0 00-1.204 0c-.469.446-.94.895-1.41 1.34l-2.25 2.141-.52.495c-.315.3-.337.851 0 1.146.342.297.87.322 1.205 0 .469-.446.94-.895 1.41-1.34l2.25-2.141.52-.495h-1.205l1.409 1.34 2.25 2.141.52.495c.315.3.895.322 1.204 0 .313-.322.338-.824 0-1.146zm6.279-4.776c-.19-.102-.378-.208-.569-.31-.514-.284-1.03-.565-1.545-.85l-2.287-1.256-2.79-1.532-3.056-1.679-3.086-1.694-2.878-1.581c-.81-.446-1.622-.89-2.431-1.336-.583-.321-1.168-.64-1.75-.962-.276-.151-.552-.308-.83-.456-.011-.006-.023-.014-.037-.02-.386-.213-.952-.097-1.165.293-.216.386-.108.883.307 1.108.19.102.378.208.568.31.515.284 1.032.565 1.546.85l2.287 1.256 2.79 1.532c1.02.56 2.036 1.12 3.056 1.679l3.086 1.694 2.877 1.581c.81.446 1.623.89 2.432 1.335.583.322 1.168.641 1.75.963.276.151.551.308.83.456.011.006.022.014.037.02.386.213.951.097 1.164-.293.214-.386.106-.88-.306-1.108z"/><path d="M9.222 9.016c.173.611.343 1.222.517 1.833l.824 2.924.19.676.596-.998-1.926.492-3.074.784c-.235.06-.474.122-.71.181-.432.11-.736.584-.596.997a.876.876 0 001.048.568l1.926-.492 3.074-.784.71-.18a.822.822 0 00.597-.998c-.174-.61-.344-1.222-.517-1.833-.276-.975-.549-1.948-.824-2.924-.063-.224-.128-.451-.19-.676-.117-.41-.614-.7-1.049-.567-.443.135-.721.557-.596.997zm19.688 9.489c-.643.165-1.285.327-1.927.492l-3.074.784c-.236.06-.474.122-.71.181a.822.822 0 00-.597.997c.174.611.344 1.222.517 1.833l.824 2.924.19.676c.117.41.614.7 1.049.567.443-.135.719-.559.596-.997-.173-.61-.343-1.221-.517-1.832l-.823-2.925c-.063-.224-.128-.45-.19-.675-.2.332-.399.665-.597.997l1.926-.492c1.025-.262 2.048-.521 3.074-.784l.71-.18c.432-.112.736-.585.596-.998a.874.874 0 00-1.048-.568zm-1.211-7.556c-.19.102-.378.208-.568.31-.515.284-1.032.565-1.546.85l-2.287 1.256-2.79 1.532c-1.02.56-2.036 1.12-3.056 1.679l-3.086 1.694-2.877 1.581c-.81.446-1.623.89-2.432 1.335-.583.322-1.168.641-1.75.963-.276.151-.554.3-.83.456-.011.006-.022.014-.037.02-.386.21-.554.743-.306 1.107.25.37.752.52 1.164.292.19-.102.378-.208.568-.31.515-.284 1.032-.565 1.546-.85l2.287-1.256 2.79-1.532 3.056-1.679 3.086-1.694 2.878-1.581c.81-.446 1.622-.89 2.431-1.336.583-.321 1.168-.64 1.75-.962.276-.151.554-.3.83-.456.011-.006.023-.014.037-.02.386-.21.554-.743.307-1.107a.89.89 0 00-1.165-.292z"/><path d="M10.864 26.39c.173-.612.343-1.222.517-1.833.275-.976.548-1.949.824-2.925.062-.224.127-.45.19-.675.12-.422-.148-.884-.597-.998l-1.926-.491c-1.025-.263-2.048-.522-3.074-.784-.236-.06-.474-.122-.71-.181-.429-.111-.946.138-1.048.567a.819.819 0 00.596.998l1.926.491c1.026.263 2.049.522 3.074.784l.71.181-.596-.997-.517 1.832c-.276.976-.548 1.95-.824 2.925-.062.224-.128.451-.19.675-.117.409.145.9.596.998.45.094.926-.13 1.049-.568zm18.5-11.487c-.642-.165-1.284-.327-1.927-.492l-3.073-.784-.71-.181.596.997.517-1.832c.276-.976.548-1.949.824-2.925.062-.224.128-.45.19-.675.117-.408-.145-.9-.596-.997-.45-.098-.926.127-1.049.567-.173.61-.343 1.222-.517 1.833l-.824 2.924-.19.676c-.12.421.148.883.597.997l1.926.492 3.074.783.71.182c.429.11.946-.138 1.048-.568a.826.826 0 00-.596-.997z"/></g></g></g></svg>