<svg width="74" height="76" xmlns="http://www.w3.org/2000/svg"><g fill="none" fill-rule="evenodd"><path d="M17.833 57.971c-6.38-7.104-11.464-13.347-14.063-21.19-1.495-4.508-2.083-9.163-1.61-13.832.192-1.903 1.344-3.843 2.478-5.483.997-1.44 2.537-2.531 3.911-3.69 2.292-1.932 4.553-1.83 6.637.31a231.16 231.16 0 016.099 6.504c1.992 2.21 1.984 4.52-.099 6.605-3.864 3.868-4.896 8.539-3.269 13.5 2.554 7.784 7.854 13.413 15.537 16.466 4.844 1.925 9.542 1.151 13.627-2.351 2.141-1.836 4.53-1.753 6.503.242a171.135 171.135 0 016.518 6.962c1.779 2.012 1.657 4.384-.25 6.282-1.372 1.364-2.674 2.935-4.325 3.847-1.797.991-3.966 1.868-5.967 1.857-9.571-.055-17.842-3.651-24.98-9.86-2.657-2.313-5.202-4.752-6.747-6.169z" stroke="#FFF" stroke-width="3.2"/><path d="M40.098 44.761a1.765 1.765 0 01-.648-2.31c.459-.899 1.82-3.4 2.924-5.37a20.55 20.55 0 01-.652-.5c-4.369-3.513-6.917-8.156-7.573-13.802-.603-5.193.627-10.004 3.656-14.299C40.363 4.853 43.902 2.238 48.04.915c4.004-1.28 8.358-1.216 12.26.18a22.76 22.76 0 014.07 1.91c4.913 2.956 8.025 7.593 9.248 13.782.783 3.962.362 7.88-1.252 11.642-2.714 6.33-7.529 10.396-14.311 12.08-3.878.963-7.809 2.024-11.61 3.05-1.564.423-3.182.86-4.775 1.284l-.048.02a1.673 1.673 0 01-1.524-.102z" fill="#FFF" fill-rule="nonzero"/><path d="M40.978 19.956c-.024 1.733 1.333 3.162 3.024 3.186h.044c1.667 0 3.042-1.39 3.066-3.098.023-1.733-1.334-3.163-3.025-3.187-1.712 0-3.086 1.39-3.11 3.099zm9.202 0c-.024 1.733 1.332 3.162 3.023 3.186h.045c1.667 0 3.042-1.39 3.065-3.098.024-1.733-1.333-3.163-3.024-3.187-1.712 0-3.087 1.39-3.11 3.099zm9.201 0c-.024 1.733 1.333 3.162 3.024 3.186h.044c1.667 0 3.043-1.39 3.066-3.098.023-1.733-1.333-3.163-3.024-3.187-1.712 0-3.087 1.39-3.11 3.099z" fill="#854A85" fill-rule="nonzero"/></g></svg>