<svg width="78" height="84" xmlns="http://www.w3.org/2000/svg"><g fill="none" fill-rule="evenodd"><g stroke="#FFF" stroke-width="3.2"><path d="M73.517 57.44L56.878 36.898a6.722 6.722 0 00-7.559-2.873c-2.931.91-4.915 3.664-4.87 6.758v3.548H33.55v-3.548c.046-3.094-1.938-5.848-4.87-6.758a6.722 6.722 0 00-7.558 2.873L4.482 57.45a15.974 15.974 0 00-2.337 10.262c.817 7.193 7.559 13.642 14.679 14.076 6.904.433 13.278-3.735 15.707-10.27a6.818 6.818 0 012.953-3.708 6.854 6.854 0 015.78-.547 6.938 6.938 0 014.152 4.095c2.296 6.38 8.357 10.583 15.084 10.457 7.84-.142 14.986-7.096 15.426-14.972a15.943 15.943 0 00-2.409-9.393v-.009z"/><path d="M17.8 74.86c-4.89 0-8.852-3.999-8.852-8.932 0-4.932 3.963-8.931 8.851-8.931 4.889 0 8.851 3.999 8.851 8.931 0 4.933-3.962 8.932-8.85 8.932h0zm42.4 0c-4.888 0-8.85-3.999-8.85-8.932 0-4.932 3.962-8.931 8.85-8.931 4.89 0 8.852 3.999 8.852 8.931 0 4.933-3.963 8.932-8.851 8.932h0z"/></g><g transform="translate(15)"><rect fill="#FFF" width="48" height="24.167" rx="12"/><path fill="#FFF" fill-rule="nonzero" d="M24.8 29l-4-6.444h8z"/><path d="M36.034 9.15a3.112 3.112 0 013.102 3.122 3.112 3.112 0 01-3.102 3.122 3.112 3.112 0 01-3.101-3.122 3.112 3.112 0 013.101-3.122zm-10.834 0a3.1 3.1 0 012.866 1.928 3.137 3.137 0 01-.673 3.402 3.087 3.087 0 01-3.38.677 3.122 3.122 0 01-1.915-2.885A3.112 3.112 0 0125.2 9.15zm-10.834 0a3.112 3.112 0 013.101 3.122 3.112 3.112 0 01-3.101 3.122 3.112 3.112 0 01-3.102-3.122 3.112 3.112 0 013.102-3.122z" fill="#86A13C" fill-rule="nonzero"/></g></g></svg>