<svg width="367" height="254" xmlns="http://www.w3.org/2000/svg"><g fill="none" fill-rule="evenodd"><g opacity=".8" fill-rule="nonzero"><path d="M293.297 180.944h-30v-22.333c0-4.846-3.107-8.94-7.406-10.482V140h-7.407v8.13c-4.303 1.54-7.406 5.635-7.406 10.481v22.333h-7.406v-22.333c0-4.846-3.107-8.94-7.406-10.482V140h-7.407v8.13c-4.303 1.54-7.406 5.635-7.406 10.481v22.333h-7.406v-22.333c0-4.846-3.107-8.94-7.406-10.482V140h-7.407v8.13c-4.303 1.54-7.406 5.635-7.406 10.481v22.333h-7.406v-22.333c0-4.846-3.107-8.94-7.406-10.482V140h-7.407v8.13c-4.303 1.54-7.406 5.635-7.406 10.481v22.333h-7.406v-26.056c0-2.054-1.66-3.721-3.703-3.721H37.406c-2.044 0-3.703 1.667-3.703 3.722v26.055h-30c-2.044 0-3.703 1.668-3.703 3.723v14.889c0 2.054 1.659 3.722 3.703 3.722h41.11V207h7.406v-3.722H244.78V207h7.406v-3.722h41.11c2.044 0 3.703-1.668 3.703-3.722v-14.89c0-2.054-1.659-3.722-3.703-3.722zm-44.813-22.333c0-2.05 1.663-3.722 3.703-3.722s3.704 1.671 3.704 3.722v22.333h-7.407v-22.333zm-29.625 0c0-2.05 1.663-3.722 3.703-3.722s3.704 1.671 3.704 3.722v22.333h-7.407v-22.333zm-29.625 0c0-2.05 1.663-3.722 3.703-3.722s3.704 1.671 3.704 3.722v22.333h-7.407v-22.333zm-29.625 0c0-2.05 1.663-3.722 3.703-3.722s3.704 1.671 3.704 3.722v22.333h-7.407v-22.333zm-66.656 22.333V173.5h18.516v7.444H92.953zm-25.922 0V173.5h18.516v7.444H67.03zm51.844-7.444h18.516v7.444h-18.516V173.5zm18.516-7.444h-18.516v-7.445h18.516v7.445zm-25.922 0H92.953v-7.445h18.516v7.445zm-25.922 0H67.03v-7.445h18.516v7.445zm-44.438-7.445h18.516v7.445H41.109v-7.445zm0 14.889h18.516v7.444H41.109V173.5zM290 195.833H7v-7.444h283v7.444z" fill="#E2E5E7"/><path d="M293.297 111.765h-33.703v-18.53a3.71 3.71 0 00-1.089-2.623l-2.614-2.617v-13.29A3.706 3.706 0 00252.188 71h-14.813a3.706 3.706 0 00-3.703 3.706v13.29l-2.618 2.616a3.7 3.7 0 00-1.085 2.623v18.53h-7.406v-18.53a3.71 3.71 0 00-1.09-2.623l-2.614-2.617v-13.29A3.706 3.706 0 00215.156 71h-14.812a3.706 3.706 0 00-3.703 3.706v13.29l-2.618 2.616a3.7 3.7 0 00-1.085 2.623v18.53h-7.407v-18.53a3.71 3.71 0 00-1.088-2.623l-2.615-2.617v-13.29A3.706 3.706 0 00178.125 71h-14.813a3.706 3.706 0 00-3.703 3.706v13.29l-2.618 2.616a3.7 3.7 0 00-1.085 2.623v18.53h-29.625V96.94c0-4.087-3.321-7.412-7.406-7.412V74.706h-7.406v14.823c-1.356 0-2.611.393-3.703 1.03-1.093-.637-2.348-1.03-3.704-1.03V74.706h-7.406v14.823c-1.355 0-2.61.393-3.703 1.03-1.092-.637-2.348-1.03-3.703-1.03V74.706h-7.406v14.823c-1.356 0-2.611.393-3.703 1.03-1.093-.637-2.348-1.03-3.704-1.03V74.706h-7.406v14.823c-4.084 0-7.406 3.325-7.406 7.412v14.824H3.703A3.706 3.706 0 000 115.47v14.823A3.706 3.706 0 003.703 134h289.594a3.706 3.706 0 003.703-3.706v-14.823a3.706 3.706 0 00-3.703-3.706zM237.375 94.77l2.614-2.617a3.703 3.703 0 001.09-2.624V78.412h7.405v11.117c0 .986.39 1.927 1.085 2.624l2.619 2.617v16.995h-14.813V94.77zm-37.031 0l2.614-2.617a3.703 3.703 0 001.089-2.624V78.412h7.406v11.117c0 .986.389 1.927 1.085 2.624l2.618 2.617v16.995h-14.812V94.77zm-37.031 0l2.614-2.617a3.703 3.703 0 001.089-2.624V78.412h7.406v11.117c0 .986.389 1.927 1.085 2.624l2.618 2.617v16.995h-14.813V94.77zm-44.438 2.171v14.824h-7.406V96.94h7.406zm-14.813 0v14.824h-7.406V96.94h7.406zm-14.812 0v14.824h-7.406V96.94h7.406zm-22.219 0h7.406v14.824h-7.406V96.94zm222.563 29.647H7v-7.412h282.594v7.412z" fill="#DDDFE2"/><path d="M293.297 40.765H255.89V3.705A3.706 3.706 0 00252.188 0H196.64a3.706 3.706 0 00-3.703 3.706v37.059h-25.922V14.824a3.706 3.706 0 00-3.703-3.706H52.218a3.706 3.706 0 00-3.703 3.706v25.94H3.703A3.706 3.706 0 000 44.472v14.823A3.706 3.706 0 003.703 63h289.594A3.706 3.706 0 00297 59.294V44.471a3.706 3.706 0 00-3.703-3.706zm-44.813 0h-11.109V7.412h11.11v33.353zm-18.515 0h-11.11V7.412h11.11v33.353zM200.344 7.412h11.11v33.353h-11.11V7.412zm-40.735 33.353h-14.812V18.529h14.812v22.236zm-22.218 0h-14.813V18.529h14.813v22.236zm-22.22 0H100.36V18.529h14.813v22.236zm-22.218 0H78.141V18.529h14.812v22.236zM55.922 18.529h14.812v22.236H55.922V18.529zM290 56.054H7V47.71h283v8.343z" fill="#E2E5E7"/></g><g transform="translate(227 64)" fill="#4B658A"><path d="M116.2 85v74h-3.8c-2.8 0-5 2.2-5 5v.4H130v-.4c0-2.8-2.2-5-5-5h-3.4V85h.2c2.6-.2 4.8-2.4 4.8-5.2 0-2.8-2.2-5.2-5-5.2V63.4c0-1.4-1.2-2.6-2.6-2.6-1.4 0-2.6 1.2-2.6 2.6V74l-2.4-.6c-2.4-.8-4.6-1.8-6.6-3.2-4-2.6-6.8-6.6-8.4-11.4-.4-1.2-.8-2.4-1-3.6 0 0-.8-4-1.2-4.8-1.2-4-4-7.8-7.4-10.2-3-2.2-6.6-3.6-10-4C76.2 38 72.6 39 68.6 39c-4 0-7.8-1-11-2.8-3.6.6-7.6 2-10.6 4.6-1.6 1.4-3.2 3-4.2 4.8-1.2 1.8-2 3.6-2.6 5.4-.6 2-2.4 9.2-2.4 9.2C35 72 32.6 83.8 30 95.6c-.6 2.8 1 5.4 3.8 6.2.4.2.8.2 1.4.2 2.4 0 4.4-1.6 5-4 3-11.6 10.6-39.4 10.6-39.4l-3.2 39.2c-.2 3 1.4 5.8 3.8 7.2-1.8 25.8-3.6 51.8-5.2 77.6-.2 3.6 2.4 6.6 5.8 7 3.6.4 7-2.2 7.4-5.8 2.8-23.8 5.4-47.6 8-71.6H70l7.8 71.6c.4 3.6 3.6 6.2 7 6 3.6-.2 6.4-3.4 6.2-7.2L85.8 105c2.6-1.4 4.2-4.2 4-7.2L86.2 59c.4 1.4 1 3 1.4 4.4C90.2 70 94.8 76.2 101 80c3 2 6.4 3.4 9.8 4.2 2 .2 3.6.6 5.4.8zm-44-32.4h9.2V56h-9.2v-3.4z" fill-rule="nonzero"/><circle cx="68.2" cy="16.8" r="16.8"/><path d="M135 182.4c-5-1.4-7-4-5-7.4 1.4-2.4 1-5.6.6-7.6H107c-.4 2-1.4 5-3.8 7.6-4 4.6.6 14.4 5.2 14.4h28.8c3 0 3.8-5.2-2.2-7zM3.4 185c.2 2.6 2.4 4.4 5 4.4h16.4c2.6 0 4.6-2 5-4.4l2.2-18.4H1.2L3.4 185z"/><path d="M32 159h-2.2v-1.8c0-7.2-6-13.2-13.2-13.2-7.2 0-13.2 6-13.2 13.2v1.8H1.2c-.4 0-.8.4-.8.8l.4 4.2H32l.4-4.2c.4-.4 0-.8-.4-.8zm-5.8 0H6.8v-1.8c0-5.4 4.4-9.6 9.6-9.6 5.2 0 9.6 4.4 9.6 9.6v1.8h.2z" fill-rule="nonzero"/></g></g></svg>