<svg width="308" height="197" xmlns="http://www.w3.org/2000/svg"><g opacity=".115"><path d="M296.156 78.8h-11.849V66.982c0-28.72-36.425-51.222-82.926-51.222h-12.249C187.296 6.779 179.332 0 169.791 0H138.2c-9.54 0-17.505 6.779-19.342 15.76h-12.244c-46.497 0-82.927 22.501-82.927 51.222V78.8H11.844C5.311 78.8 0 84.104 0 90.618c0 6.514 5.316 11.818 11.844 11.818h11.844v66.982c0 .034.017.046.017.08.009 7.342 2.877 14.238 8.075 19.429C36.998 194.125 43.944 197 51.332 197h205.336c15.24 0 27.64-12.373 27.64-27.578v-66.978h11.847c6.533 0 11.844-5.304 11.844-11.818 0-6.514-5.311-11.826-11.844-11.826zm-27.64 11.822c0-6.518-5.315-11.818-11.844-11.818-6.528 0-11.844 5.304-11.844 11.818 0 6.514-5.316 11.818-11.844 11.818-6.529 0-11.844-5.304-11.844-11.818V70.92h55.282v11.742c0 .034-.016.046-.016.08s.016.046.016.08v15.604c0 .034-.016.047-.016.08 0 .034.016.047.016.08v39.32c-4.873-3.66-7.897-9.447-7.897-15.76V90.622h-.009zM138.205 7.884h31.59c5.147 0 9.486 3.3 11.124 7.88h-53.838c1.638-4.58 5.977-7.88 11.124-7.88zm-31.59 15.76h94.77c39.063 0 71.217 17.345 74.68 39.4H31.934c3.463-22.06 35.617-39.4 74.68-39.4zM11.845 94.56a3.952 3.952 0 01-3.952-3.942 3.952 3.952 0 013.951-3.942h11.844v7.88H11.844v.004zm244.823 94.56H51.332a19.672 19.672 0 01-13.967-5.762c-3.724-3.72-5.766-8.666-5.766-13.936 0-.017-.009-.025-.009-.042V70.924h181.644v19.702c0 10.868 8.853 19.702 19.746 19.702 10.892 0 19.746-8.834 19.746-19.702a3.952 3.952 0 017.901 0v31.52c0 10.713 6.26 20.324 15.795 24.846v22.434c-.012 10.864-8.862 19.694-19.754 19.694zm39.488-94.56h-11.849v-7.88h11.849c2.177 0 3.95 1.77 3.95 3.942a3.949 3.949 0 01-3.95 3.938z"/><path d="M113.998 122c4.413 0 8.002-5.302 8.002-11.832 0-3.732-1.186-7.001-3-9.168l-12.735 6.278a17.176 17.176 0 00-.265 2.89c-.004 6.53 3.576 11.832 7.998 11.832zm79 0c4.421 0 8.002-5.302 8.002-11.832 0-1.001-.107-1.956-.265-2.89L188 101c-1.814 2.167-3 5.436-3 9.168-.004 6.53 3.585 11.832 7.998 11.832zm8.039 20c-5.603 0-8.566 2.99-10.725 5.17-1.94 1.962-2.894 2.828-5.121 2.828-2.227 0-3.182-.866-5.121-2.828-2.16-2.18-5.122-5.17-10.724-5.17-5.603 0-8.566 2.99-10.725 5.17-1.94 1.962-2.894 2.828-5.121 2.828-2.227 0-3.182-.866-5.121-2.828-2.16-2.18-5.122-5.17-10.725-5.17-5.602 0-8.565 2.99-10.724 5.17-1.94 1.962-2.894 2.828-5.121 2.828-2.227 0-3.182-.866-5.121-2.828-2.16-2.18-5.122-5.17-10.725-5.17-2.193 0-3.963 1.792-3.963 4.001 0 2.21 1.77 4.001 3.963 4.001 2.227 0 3.182.866 5.122 2.828 2.159 2.18 5.121 5.17 10.724 5.17s8.565-2.99 10.724-5.17c1.94-1.962 2.895-2.828 5.121-2.828 2.227 0 3.182.866 5.122 2.828 2.159 2.18 5.121 5.17 10.724 5.17s8.565-2.99 10.724-5.17c1.94-1.962 2.895-2.828 5.122-2.828 2.226 0 3.181.866 5.12 2.828 2.16 2.18 5.122 5.17 10.725 5.17s8.565-2.99 10.724-5.17c1.94-1.962 2.895-2.828 5.122-2.828 2.193 0 3.963-1.791 3.963-4 0-2.21-1.77-4.002-3.963-4.002z"/></g></svg>