<svg width="1440" height="11" xmlns="http://www.w3.org/2000/svg"><path d="M1433.5 10.577L1446 0l13 11h-51l13-11 12.5 10.577zm-51 0L1395 0l13 11h-51l13-11 12.5 10.577zm-51 0L1344 0l13 11h-51l13-11 12.5 10.577zm-51 0L1293 0l13 11h-51l13-11 12.5 10.577zm-51 0L1242 0l13 11h-51l13-11 12.5 10.577zm-51 0L1191 0l13 11h-51l13-11 12.5 10.577zm-51 0L1140 0l13 11h-51l13-11 12.5 10.577zm-51 0L1089 0l13 11h-51l13-11 12.5 10.577zm-51 0L1038 0l13 11h-51l13-11 12.5 10.577zm-51 0L987 0l13 11h-51l13-11 12.5 10.577zm-51 0L936 0l13 11h-51l13-11 12.5 10.577zm-51 0L885 0l13 11h-51l13-11 12.5 10.577zm-51 0L834 0l13 11h-51l13-11 12.5 10.577zm-51 0L783 0l13 11h-51l13-11 12.5 10.577zm-51 0L732 0l13 11h-51l13-11 12.5 10.577zm-51 0L681 0l13 11h-51l13-11 12.5 10.577zm-51 0L630 0l13 11h-51l13-11 12.5 10.577zm-51 0L579 0l13 11h-51l13-11 12.5 10.577zm-51 0L528 0l13 11h-51l13-11 12.5 10.577zm-51 0L477 0l13 11h-51l13-11 12.5 10.577zm-51 0L426 0l13 11h-51l13-11 12.5 10.577zm-51 0L375 0l13 11h-51l13-11 12.5 10.577zm-51 0L324 0l13 11h-51l13-11 12.5 10.577zm-51 0L273 0l13 11h-51l13-11 12.5 10.577zm-51 0L222 0l13 11h-51l13-11 12.5 10.577zm-51 0L171 0l13 11h-51l13-11 12.5 10.577zm-51 0L120 0l13 11H82L95 0l12.5 10.577zm-51 0L69 0l13 11H31L44 0l12.5 10.577zm-51 0L18 0l13 11h-51L-7 0 5.5 10.577z" fill="#F86921" fill-rule="evenodd"/></svg>