<svg width="230" height="30" xmlns="http://www.w3.org/2000/svg" xmlns:xlink="http://www.w3.org/1999/xlink"><defs><rect id="a" x="0" y="0" width="40" height="30" rx="2"/></defs><g fill="none" fill-rule="evenodd"><rect width="40" height="30" rx="2" fill="#4D4D4D" fill-rule="nonzero" transform="translate(150)"/><g transform="translate(150)"><mask id="b" fill="#fff"><use xlink:href="#a"/></mask><path d="M41 19.616C39.508 20.641 28.339 27.963 9 31.5h32v-28 16.116z" fill="#F47216" fill-rule="nonzero" mask="url(#b)"/></g><g fill-rule="nonzero"><path d="M166.658 13c.431 0 .792.086 1.232.293v1.093c-.417-.378-.778-.536-1.255-.536-.94 0-1.678.722-1.678 1.636 0 .965.716 1.644 1.724 1.644.454 0 .809-.15 1.209-.522v1.094c-.455.199-.824.278-1.255.278-1.525 0-2.71-1.086-2.71-2.487 0-1.385 1.217-2.493 2.733-2.493zm-4.732.03c.562 0 1.077.179 1.508.528l-.524.637c-.261-.271-.508-.386-.807-.386-.432 0-.746.228-.746.528 0 .258.176.394.777.6 1.139.387 1.476.73 1.476 1.487 0 .922-.73 1.564-1.77 1.564-.762 0-1.316-.279-1.777-.907l.647-.578c.23.414.615.635 1.093.635.446 0 .777-.286.777-.672 0-.2-.1-.371-.3-.493-.101-.057-.3-.143-.692-.271-.94-.314-1.263-.65-1.263-1.307 0-.78.693-1.365 1.6-1.365zm11.439.083h1.093l1.369 3.2 1.386-3.2h1.086L176.08 18h-.538l-2.178-4.887zM154 13.12h1.47c1.623 0 2.755.98 2.755 2.386 0 .701-.347 1.38-.932 1.83-.493.379-1.054.55-1.831.55H154V13.12zm4.685 0h1.001v4.765h-1V13.12zm20.066 0h2.839v.808h-1.838v1.057h1.77v.807h-1.77v1.286h1.838v.807h-2.839V13.12zm3.502 0h1.484c1.155 0 1.816.515 1.816 1.407 0 .73-.414 1.208-1.168 1.35L186 17.886h-1.231l-1.386-1.914h-.13v1.914h-1V13.12zm1 .751v1.443h.292c.64 0 .979-.258.979-.737 0-.463-.34-.706-.963-.706h-.308zM155 13.928v3.15h.269c.647 0 1.055-.115 1.37-.378.346-.286.554-.743.554-1.2 0-.457-.208-.9-.554-1.187-.33-.278-.723-.385-1.37-.385H155z" fill="#FFF"/><path d="M171 13a2.5 2.5 0 012.5 2.498v.002a2.5 2.5 0 11-5 0v-.002A2.5 2.5 0 01171 13z" fill="#F47216"/></g><g transform="translate(200)"><rect fill="#4B658A" width="30" height="30" rx="3"/><text font-family="SofiaPro-Bold, Sofia Pro" font-size="15" font-weight="bold" fill="#FFF"><tspan x="7" y="20">A+</tspan></text></g><g fill-rule="nonzero"><rect fill="#323232" width="40" height="30" rx="2"/><path d="M36.694 21.765v-.64h-.123l-.143.44-.143-.44h-.124v.64h.088v-.482l.134.416h.09l.134-.417v.483h.087zm-.784 0v-.53h.158v-.108h-.404v.108h.159v.53h.087z" fill="#0099DF"/><path fill="#6C6BBD" d="M24.69 23.141h-9.012V6.596h9.013z"/><path d="M16.255 14.868c0-3.357 1.538-6.346 3.934-8.273a10.121 10.121 0 00-6.366-2.25c-5.689 0-10.3 4.711-10.3 10.523 0 5.81 4.611 10.522 10.3 10.522a10.12 10.12 0 006.366-2.25 10.587 10.587 0 01-3.934-8.272" fill="#EB001B"/><path d="M36.846 14.868c0 5.81-4.611 10.522-10.3 10.522-2.403 0-4.614-.841-6.367-2.25a10.586 10.586 0 003.935-8.272c0-3.357-1.538-6.346-3.935-8.273a10.124 10.124 0 016.367-2.25c5.689 0 10.3 4.711 10.3 10.523" fill="#0099DF"/></g><g transform="translate(50)" fill-rule="nonzero"><rect fill="#2566C4" width="40" height="30" rx="2"/><path d="M9.19 20l-2.379-8.694A11.1 11.1 0 004 10.208L4.034 10H8.35c.58.022 1.05.211 1.213.845l.938 4.6.28 1.387 2.62-6.826h2.834l-4.213 9.99L9.19 20zm9.078 0h-2.315L17.4 10h2.317l-1.45 10zm4.178 0c-.985-.012-1.933-.246-2.446-.517l.308-2.169.283.154c.721.362 1.188.509 2.067.509.63 0 1.308-.297 1.313-.946.004-.424-.283-.727-1.137-1.202-.833-.463-1.937-1.24-1.924-2.632.013-1.883 1.54-3.197 3.71-3.197.852 0 1.533.21 1.968.407l-.297 2.1-.197-.112a3.468 3.468 0 00-1.643-.371c-.86 0-1.258.43-1.258.833-.005.454.465.753 1.233 1.201 1.266.691 1.851 1.53 1.843 2.632-.017 2.011-1.515 3.31-3.823 3.31zm11.122 0s-.24-1.15-.319-1.5l-3.357-.004c-.101.27-.551 1.504-.551 1.504h-2.753l3.893-9.17c.275-.652.745-.83 1.372-.83h2.026L36 20h-2.432zm-2.952-3.549h2.175l-.606-2.89-.178-.862c-.132.376-.363.982-.347.955l-1.044 2.797z" fill="#FFF"/></g><g transform="translate(100)" fill-rule="nonzero"><rect fill="#0A7EC2" width="40" height="30" rx="2"/><path d="M8.239 18.58L7.713 20H3l3.72-9h8.883l.897 1.988.838-1.988h11.976l1.025 1.236L31.438 11H37l-3.949 4.49L36.83 20h-5.383l-1.204-1.326L29.049 20H9.835l-.578-1.42H8.24zm1.021.13H8.236 9.26zm11.385-6.424h-2.34l-1.76 4.307-1.893-4.307h-2.34v6.235l-2.417-6.235H7.701l-2.585 6.428h1.582l.524-1.465h3.008l.601 1.465h2.907v-5.233l2.061 5.233h1.36l2.049-5.143v5.143h1.437v-6.428zm9.658 2.083l-1.671-2.083h-6.706v6.428h6.483l1.838-2.108 1.85 2.108h1.726l-2.64-3.253 2.718-3.175h-1.805l-1.793 2.083zm-3.531 3.06h-3.409v-1.415h3.409V14.73h-3.409v-1.16h3.409v-1.09l2.528 2.918-2.528 2.931v-.9zm-18.013-4.09l.98 2.61H7.701l1.058-2.61z" fill="#FFF"/></g></g></svg>