<svg width="185" height="61" xmlns="http://www.w3.org/2000/svg" xmlns:xlink="http://www.w3.org/1999/xlink"><defs><path id="a" d="M0 .545h59.58v59.683H0z"/></defs><g fill="none" fill-rule="evenodd"><path d="M69.458 22.11h-.018c-.036 3.835-.414 7.167-2.517 7.167-.664 0-.844-3.655-.844-7.545 0-4.429.233-9.182.233-9.182s.414-.378 1.025-.468c.377-.162.917-.27 1.69-.27 1.617 0 3.307.197 4.745.684 0 0 .377.036.377.774 0 .379-.072.846-.45.846-2.353 0-3.486.252-4.15.486.017.27.017.559.017.883 0 1.08-.09 2.502-.126 4.393 1.348.072 3.883-.036 4.493.198a.431.431 0 01.252.414c0 .144-.054.342-.161.576-.701.324-2.732 1.045-4.566 1.045" fill="#FFF"/><path d="M83.154 18.51c0-3.71-.881-4.448-1.6-4.448-1.114 0-2.463.469-2.463 8.697 0 1.26.252 4.267 2.157 4.267 1.097 0 1.906-2.358 1.906-8.516m-2.265-5.888c.934 0 5.86.234 5.86 5.204 0 5.095-1.259 7.688-2.445 8.984-1.06 1.189-2.678 1.674-4.35 1.674-1.977 0-4.44-.9-4.44-5.455 0-7.67 2.247-10.407 5.375-10.407m14.935 5.888c0-3.71-.88-4.448-1.6-4.448-1.114 0-2.462.469-2.462 8.697 0 1.26.251 4.267 2.157 4.267 1.096 0 1.905-2.358 1.905-8.516m-2.264-5.888c.934 0 5.86.234 5.86 5.204 0 5.095-1.26 7.688-2.446 8.984-1.06 1.189-2.677 1.674-4.35 1.674-1.977 0-4.44-.9-4.44-5.455 0-7.67 2.248-10.407 5.376-10.407m11.628 11.991c0 .937-.018 1.693-.108 2.323 3.217-.522 3.45-4.105 3.45-6.842 0-2.485-.538-5.708-3.342-5.708h-.288c.251 1.369.251 3.404.251 6.158 0 1.585.037 2.954.037 4.07m-1.403-12.172c3.182 0 8.214.864 8.214 6.518 0 8.426-4.457 9.632-7.009 9.632-.216 0-.431 0-.611-.017-.252.198-.576.288-.971.288-2.067 0-2.139-4.196-2.139-4.718v-.054c0-6.014.198-8.984.521-10.443a.922.922 0 01-.342-.702c0-.198.073-.342.073-.342l.719-.09c.197-.234.413-.27.647-.27.359 0 .646.071.898.198" fill="#FFF" fill-rule="nonzero"/><path d="M127.078 13.829c0 .18-.18.72-.665.72-.378 0-.557-.775-1.258-.775-.647 0-1.564.378-1.564 2.683 0 4.573 2.822 5.348 2.822 8.426 0 2.522-1.797 3.691-4.26 3.691-1.599 0-2.337-1.08-2.337-1.854 0-.432.234-.775.666-.775.827 0 .449 1.225 1.456 1.225.826 0 1.024-.522 1.024-1.44 0-1.603-2.516-4.375-2.516-7.167 0-5.293 3.433-6.103 4.763-6.103 1.528 0 1.87 1.189 1.87 1.369m5.696 7.327h-.162c.145 2.935.791 5.6 1.924 5.6 1.654 0 1.42-.792 2.337-.792.503 0 .72.324.72.702 0 .216-.073.468-.199.666-.324.504-1.06.846-2.589.846-5.356 0-6.021-4.087-6.021-7.562 0-1.53.45-5.815 1.995-7.112 0-.468.108-.576.45-.576 1.761 0 3.523.27 5.554.54.683.09.826.306.845.648v.018c0 .702-.737.919-.737.919s-1.08.36-3.811.432c-.306 1.044-.468 2.448-.485 3.889h.09c1.078 0 2.642.054 3.199.27.162.054.251.252.251.468 0 .216-.09.433-.27.504a8.635 8.635 0 01-3.09.54" fill="#FFF"/><path d="M144.08 20.328c.917 0 1.349-1.422 1.349-2.953 0-1.8-.594-3.745-1.654-3.745-.593 0-.863.144-1.132.289.197 1.331.269 3.438.269 6.086.09.143.252.323 1.168.323m3.936-3.132c0 1.548-.251 3.277-1.995 3.997.9 1.224 2.014 3.961 2.75 4.915.36.45.468.792.468 1.062 0 .612-.863.972-1.348.972-.503 0-1.187-.342-1.905-1.782-.935-1.819-1.564-3.835-1.834-4.826h-.216c-.413 0-.754-.018-1.042-.072-.054 3.475-.215 6.626-.215 6.626s-.54.433-1.277.433c-1.797 0-2.013-1.91-2.013-3.223 0-1.225.126-2.935.162-5.33.126-6.662.305-7.473 2.516-7.473.072 0 .144.055.198.127.432-.072.988-.127 1.654-.127 2.75 0 4.097 2.701 4.097 4.7" fill="#FFF" fill-rule="nonzero"/><path d="M151.035 13.018c.27 0 .63.127 1.223.468 1.078.648 1.437 8.12 2.174 11.38.468-1.513.792-2.971 3.308-10.623.198-.577.683-.739.988-.739.324 0 .521.216.521.576 0 .18-.035.324-.035.324s-.539 2.557-2.031 7.545c-1.385 4.663-2.193 5.978-2.876 5.978h-.054c-.036 0-.072.017-.108.017-.107 0-.305.072-.575.072-.72 0-1.833-.522-2.39-4.249-.558-3.619-.863-7.148-.863-9.057 0-.792.054-1.314.16-1.422.145-.143.307-.27.558-.27m11.377 16.222c-.287 0-.683-.107-1.168-.558-.503-.468-.593-3.097-.593-5.995 0-1.369.017-2.809.017-4.106 0-1.962-.18-2.988-.18-4.482 0-1.153.144-2.251 1.529-2.251.646 0 1.761.414 1.761 5.185 0 5.96-.899 12.082-.899 12.082s-.162.126-.467.126m3.378-9.003c0-3.475.594-7.562 5.411-7.562 2.48 0 2.624 1.909 2.624 2.377 0 .576-.737.738-1.079.738-.826 0-.287-1.693-1.832-1.693-.935 0-1.33 2.485-1.33 5.276 0 3.637.664 7.832 1.78 7.832 1.203 0 1.041-1.116 2.102-1.116.323 0 .503.18.503.45 0 .684-1.187 1.89-4.08 1.89-3.505 0-4.098-4.717-4.098-8.192m13.624.918h-.163c.144 2.935.79 5.6 1.924 5.6 1.653 0 1.42-.792 2.336-.792.504 0 .72.324.72.702 0 .216-.073.468-.199.666-.323.504-1.06.846-2.587.846-5.357 0-6.022-4.087-6.022-7.562 0-1.53.45-5.815 1.995-7.112 0-.468.108-.576.45-.576 1.76 0 3.522.27 5.553.54.683.09.826.306.846.648v.018c0 .702-.737.919-.737.919s-1.08.36-3.811.432c-.305 1.044-.468 2.448-.485 3.889h.09c1.078 0 2.642.054 3.198.27.162.054.252.252.252.468 0 .216-.09.433-.27.504a8.637 8.637 0 01-3.09.54" fill="#FFF"/><path d="M70.015 44.939c0 .936-.017 1.692-.108 2.323 3.218-.522 3.451-4.106 3.451-6.842 0-2.485-.538-5.708-3.343-5.708h-.287c.251 1.368.251 3.403.251 6.158 0 1.584.036 2.952.036 4.069m-1.402-12.171c3.182 0 8.214.864 8.214 6.517 0 8.427-4.457 9.633-7.01 9.633-.216 0-.43 0-.61-.018-.252.198-.576.288-.972.288-2.066 0-2.138-4.195-2.138-4.718v-.054c0-6.013.197-8.984.521-10.442a.921.921 0 01-.341-.702c0-.199.071-.343.071-.343l.72-.09c.197-.234.413-.27.646-.27.36 0 .647.072.9.199" fill="#FFF" fill-rule="nonzero"/><path d="M80.727 49.566c-.288 0-.683-.108-1.169-.558-.503-.468-.593-3.097-.593-5.996 0-1.368.018-2.808.018-4.105 0-1.962-.18-2.989-.18-4.483 0-1.153.144-2.25 1.528-2.25.647 0 1.762.413 1.762 5.184 0 5.96-.9 12.082-.9 12.082s-.161.126-.466.126" fill="#FFF"/><path d="M88.922 40.653c.917 0 1.348-1.422 1.348-2.952 0-1.801-.593-3.745-1.653-3.745-.594 0-.863.143-1.132.288.197 1.332.27 3.439.27 6.086.089.144.25.323 1.167.323m3.937-3.132c0 1.549-.251 3.277-1.995 3.997.899 1.224 2.013 3.961 2.75 4.916.36.45.467.791.467 1.061 0 .613-.863.972-1.348.972-.503 0-1.186-.342-1.905-1.782-.935-1.818-1.564-3.835-1.834-4.826h-.215c-.414 0-.756-.017-1.043-.071-.054 3.475-.216 6.625-.216 6.625s-.539.433-1.276.433c-1.797 0-2.013-1.908-2.013-3.223 0-1.224.126-2.935.162-5.33.125-6.662.306-7.472 2.517-7.472.071 0 .143.054.197.126a10.18 10.18 0 011.654-.126c2.75 0 4.098 2.701 4.098 4.7" fill="#FFF" fill-rule="nonzero"/><path d="M98.933 41.482h-.161c.143 2.934.79 5.6 1.923 5.6 1.653 0 1.42-.793 2.336-.793.504 0 .72.325.72.702 0 .216-.073.468-.199.667-.323.504-1.06.846-2.588.846-5.357 0-6.021-4.088-6.021-7.563 0-1.53.45-5.815 1.995-7.112 0-.468.108-.575.45-.575 1.76 0 3.522.27 5.553.539.683.09.827.306.845.648v.019c0 .702-.737.918-.737.918s-1.078.36-3.81.432c-.306 1.044-.467 2.449-.486 3.889h.09c1.079 0 2.642.054 3.2.27.161.054.251.253.251.468 0 .216-.09.433-.27.504a8.658 8.658 0 01-3.091.54m6.487-.917c0-3.476.594-7.563 5.411-7.563 2.48 0 2.624 1.91 2.624 2.377 0 .576-.737.738-1.078.738-.827 0-.288-1.692-1.833-1.692-.936 0-1.33 2.485-1.33 5.275 0 3.638.664 7.833 1.779 7.833 1.204 0 1.042-1.117 2.103-1.117.323 0 .503.18.503.45 0 .685-1.186 1.89-4.08 1.89-3.505 0-4.098-4.716-4.098-8.191m8.572-5.24c1.24-.648 6.327-2.827 10.767-2.827 2.283 0 2.39 1.08 2.39 1.494v.019c0 .414-.755.666-2.318.666h-.018c-.593 0-1.959.234-3.523.521.827 1.441.916 8.571 1.42 11.056a6.8 6.8 0 01.144 1.333c0 1.044-.45 1.602-1.384 1.602-.63 0-1.618-.468-1.905-4.195a66.14 66.14 0 01-.162-4.898c0-2.016.072-3.673.108-4.573-1.906.343-3.757.666-4.548.666h-.036c-.485 0-.935-.216-.935-.774v-.09zm14.594 12.114c0 .715-1.046 1.58-1.645 1.58-.664 0-1.196-.781-1.196-1.065 0-.282.598-1.297 1.728-1.297.182 0 .365.033.564.1.399.166.549.416.549.682m9.749-5.473c0 .732-.814 2.213-.814 2.213-.947 1.83-2.69 4.092-5.282 4.092-2.408 0-2.408-2.213-2.408-2.729s.183-5.274 2.492-5.274c1.81 0 2.159.799 2.159 1.082 0 .1-.117.2-.216.2a.443.443 0 01-.167-.05c-.215-.1-.315-.283-.88-.283-.548 0-1.445 2.113-1.445 4.06 0 1.164.532 1.513 1.047 1.513 1.345 0 3.122-2.212 4.168-3.693 0 0 .98-1.464 1.213-1.464.1 0 .133.233.133.333" fill="#FFF"/><path d="M139.963 40.85c.216.815.715 1.547 1.33 2.08-.067-1.265-.383-2.396-.665-2.396-.449 0-.616.2-.665.316m1.18 4.093c-.698-.317-1.18-.75-1.512-1.248-.05.665-.066 1.198-.066 1.58 0 1.048.165 1.231.266 1.231.763 0 1.128-.749 1.312-1.563m1.91-1.864c0 .266-.017.516-.034.749.2.05.398.066.598.066.864 0 1.628-.45 1.993-1.497 0 0 .117-.4.366-.4.016 0 .049.017.066.017.1.033.133.117.133.25 0 .283-.166.682-.166.682.016.017-.947 2.363-3.205 2.363h-.017c-.649 2.428-2.293 2.961-2.808 2.961-.597 0-2.69-.566-2.69-3.41 0-2.846 1.047-4.41 1.047-4.41s-.167-.05-.167-.332c0-.566 1.429-.583 2.093-.583 0 0 2.79.034 2.79 3.544" fill="#FFF" fill-rule="nonzero"/><path d="M146.208 40.018c1.162 0 1.296 1.381 1.296 1.996 0 .184-.017.3-.017.3s.797-1.464 1.744-1.464c1.345 0 1.577.848 1.577 2.296.1-.167 1.313-2.895 3.356-2.895.63 0 .797.832.797 1.88 0 1.098-.183 2.446-.183 3.328 0 .582.083.964.332.964.93 0 2.027-2.245 2.84-3.743 0 0 .532-1.031.864-1.031.166 0 .183.2.183.299 0 .482-.399 1.381-.399 1.381s-1.976 4.791-3.886 4.791c-1.76 0-2.259-1.048-2.259-2.462 0-1.048.266-2.296.499-3.494 0 0-.98-.1-2.675 4.193 0 0-.199.632-.897.632h-.016c-.133 0-.848-.067-.848-1.248 0-.35.067-.815.233-1.397 0 0 .449-1.414.449-2.113 0-.233-.05-.382-.183-.382-.2 0-1.313 1.862-1.461 5.306 0 0 .016.749-1.047 1.082 0 0-.166.05-.382.05-.465 0-1.213-.217-1.213-1.547 0-.1 0-.217.017-.333.25-4.958-.033-6.389 1.279-6.389" fill="#FFF"/><path d="M58.572 59.386h.023v-.028c-.009.009-.015.02-.023.028" fill="#DADAD9"/><path d="M12.31 29.429l.003.102V58.36h43.735c.796 0 1.444-.65 1.444-1.447V13.244l-44.7 15.05c-.529.322-.483 1.127-.483 1.135"/><g transform="translate(0 .227)"><mask id="b" fill="#fff"><use xlink:href="#a"/></mask><path d="M56.044 58.132H12.31V29.305c0-.034-.001-.069-.004-.103-.001-.008-.047-.814.482-1.135l44.7-15.05v43.668c0 .798-.647 1.447-1.444 1.447zM2.092 56.685V29.464c.031-.454.682-7.945 9.618-10.866 8.736-2.856 39.148-13.147 45.53-15.32.157.232.249.51.249.81v6.745l-.038-.014L12.034 26.11a1.02 1.02 0 00-.14.059c-1.445.736-1.734 2.303-1.677 3.159v28.803h-6.68a1.447 1.447 0 01-1.445-1.447zm28.822-46.75L5.54 2.64h46.818c-4.955 1.69-13.33 4.544-21.443 7.294zm-18.838 6.337l-1.014.333c-4.712 1.54-7.415 4.218-8.97 6.726V13.4l9.984 2.87zm3.517-1.17l-13.5-3.88V4.088c0-.086.01-.168.025-.25l25.314 7.277a3592.65 3592.65 0 01-11.839 3.988zM56.044.546H3.537A3.543 3.543 0 000 4.088v52.597a3.543 3.543 0 003.537 3.543h52.507a3.544 3.544 0 003.537-3.543V4.088A3.544 3.544 0 0056.044.545z" fill="#FFF" fill-rule="nonzero" mask="url(#b)"/></g><path d="M57.492 4.315v6.744l-.038-.014-45.417 15.292a1.061 1.061 0 00-.14.06c-1.444.735-1.733 2.304-1.676 3.159v28.803H3.54c-.797 0-1.445-.65-1.445-1.447V29.691c.03-.454.68-7.946 9.618-10.867 8.735-2.855 39.148-13.147 45.53-15.319.156.231.248.51.248.81M15.597 15.33c3.28-1.097 7.433-2.498 11.839-3.989L2.12 4.065a1.488 1.488 0 00-.025.25v7.134l13.5 3.88zm-4.532 1.502l1.014-.333-9.984-2.87v9.928c1.555-2.507 4.26-5.185 8.97-6.725m19.853-6.67c8.112-2.75 16.487-5.604 21.442-7.294H5.542l25.376 7.294z"/><path d="M20.307 34.258a1.932 1.932 0 000 3.862 1.932 1.932 0 000-3.862m0 5.659a3.728 3.728 0 010-7.455 3.728 3.728 0 010 7.455" fill="#FFF" fill-rule="nonzero"/><path d="M20.307 34.258a1.932 1.932 0 000 3.862 1.932 1.932 0 000-3.862"/><path d="M20.307 48.512a1.932 1.932 0 000 3.862 1.932 1.932 0 000-3.862m0 5.66a3.728 3.728 0 010-7.456 3.728 3.728 0 010 7.455" fill="#FFF" fill-rule="nonzero"/><path d="M20.307 48.512a1.932 1.932 0 000 3.862 1.932 1.932 0 000-3.862"/></g></svg>