<svg width="40" height="30" xmlns="http://www.w3.org/2000/svg"><g fill="none"><rect fill="#0A7EC2" width="40" height="30" rx="2"/><path d="M8.239 18.58L7.713 20H3l3.72-9h8.883l.897 1.988.838-1.988h11.976l1.025 1.236L31.438 11H37l-3.949 4.49L36.83 20h-5.383l-1.204-1.326L29.049 20H9.835l-.578-1.42H8.24zm1.021.13H8.236 9.26zm11.385-6.424h-2.34l-1.76 4.307-1.893-4.307h-2.34v6.235l-2.417-6.235H7.701l-2.585 6.428h1.582l.524-1.465h3.008l.601 1.465h2.907v-5.233l2.061 5.233h1.36l2.049-5.143v5.143h1.437v-6.428zm9.658 2.083l-1.671-2.083h-6.706v6.428h6.483l1.838-2.108 1.85 2.108h1.726l-2.64-3.253 2.718-3.175h-1.805l-1.793 2.083zm-3.531 3.06h-3.409v-1.415h3.409V14.73h-3.409v-1.16h3.409v-1.09l2.528 2.918-2.528 2.931v-.9zm-18.013-4.09l.98 2.61H7.701l1.058-2.61z" fill="#FFF"/></g></svg>