<svg width="40" height="30" xmlns="http://www.w3.org/2000/svg"><g fill="none"><rect fill="#323232" width="40" height="30" rx="2"/><path d="M14.029 18.436l-.003.003-.122-.08c-.35.556-.893 1.007-1.581 1.3-1.308.557-2.52.414-3.389-.335l-.08.119c-.001-.002-.001-.002-.003-.002L7.367 21.62a6.39 6.39 0 001.18.634c1.64.669 3.316.638 4.968-.068 1.196-.508 2.133-1.283 2.774-2.266l-2.26-1.484zM9.396 13.06c-1.38.581-2.093 1.853-1.946 3.344l5.85-2.47c-1.007-1.162-2.315-1.546-3.904-.874zm-3.883 6.638a7.393 7.393 0 01-.444-.838c-.675-1.539-.707-3.13-.137-4.658.626-1.675 1.823-2.958 3.37-3.611 1.945-.822 4.095-.66 5.958.426 1.184.666 2.024 1.696 2.66 3.151.082.186.153.385.223.555l-11.63 4.974v.001zM21.208 7.381v12.116l1.92.763-1.091 2.498-2.118-.866a2.396 2.396 0 01-1.044-.86c-.235-.357-.41-.844-.41-1.503V7.381h2.743z" fill="#FFF"/><path d="M26.179 16.41a3.4 3.4 0 001.19 2.583l-1.965 2.158a6.263 6.263 0 01-2.172-4.744 6.262 6.262 0 012.178-4.737l1.969 2.155a3.4 3.4 0 00-1.2 2.585z" fill="#00A4DF"/><path d="M33.107 17.11l2.89.579a6.217 6.217 0 01-.626 1.702 6.465 6.465 0 01-5.697 3.352 6.557 6.557 0 01-2.047-.328l.94-2.744a3.6 3.6 0 001.11.178c1.69.001 3.101-1.175 3.43-2.74z" fill="#EE4123"/><path d="M29.686 10.083c3.12.002 5.72 2.182 6.314 5.072l-2.89.574c-.327-1.597-1.76-2.748-3.427-2.752a3.6 3.6 0 00-1.11.176l-.932-2.747a6.551 6.551 0 012.045-.323z" fill="#FFCA05"/></g></svg>