<svg width="49" height="31" xmlns="http://www.w3.org/2000/svg"><g fill="none" fill-rule="evenodd"><path d="M45.545 0H3.455C1.55 0 0 1.527 0 3.403v24.194C0 29.473 1.55 31 3.455 31h42.09C47.45 31 49 29.473 49 27.597V3.403C49 1.527 47.45 0 45.545 0z" fill="#F0F2F4"/><path d="M20.954 24.731l-18 .007v-.043c0-.023.03-.176.064-.338a76.522 76.522 0 00.241-1.154c.085-.404.169-.808.251-1.212l.12-.58a155.412 155.412 0 00.252-1.212l.11-.526c.03-.135.068-.319.085-.407.016-.089.07-.35.118-.58.041-.193.081-.386.12-.58.017-.088.071-.348.12-.578.05-.23.103-.491.12-.58.017-.088.071-.349.12-.58a56.837 56.837 0 00.215-1.04l.156-.74a150.886 150.886 0 00.326-1.577 266.032 266.032 0 01.347-1.663l.122-.59.12-.569c.034-.16.093-.44.13-.622.038-.183.101-.463.14-.623.04-.159.096-.352.125-.429.028-.077.108-.243.176-.37l.124-.23.113-.145a3.83 3.83 0 01.246-.28 3.82 3.82 0 01.525-.437 4.132 4.132 0 011.177-.533c.12-.036.344-.09.5-.12.155-.03.4-.07.544-.09l.263-.035 18.011-.006 18.011-.007v.043c0 .023-.029.175-.064.338-.044.205-.088.411-.13.617a179.316 179.316 0 01-.242 1.148 393.19 393.19 0 01-.25 1.202l-.12.579a104.7 104.7 0 00-.238 1.148l-.131.622c-.036.165-.09.421-.12.569l-.121.59-.131.622a86.43 86.43 0 00-.117.558 473.64 473.64 0 01-.613 2.95 251.338 251.338 0 00-.248 1.191 326.16 326.16 0 00-.244 1.17 729.769 729.769 0 00-.368 1.77c-.043.207-.087.414-.132.62l-.065.298-.078.206a4.217 4.217 0 01-.144.335 3.555 3.555 0 01-.33.511 4.787 4.787 0 01-.251.266l-.184.182-.177.123a3.855 3.855 0 01-.233.154c-.03.017-.148.076-.26.131a4.902 4.902 0 01-.353.157 5.67 5.67 0 01-.913.246c-.117.024-.352.06-.523.08l-.31.037-18 .006h-.002zm-6.404-4.586h.469l.013-.034a.338.338 0 00.013-.097c0-.035.016-.162.035-.283l.098-.616.117-.73c.028-.172.055-.346.08-.52a.745.745 0 01.039-.187c.007 0 .037.045.067.101l.055.102.12.12.121.12.149.058.148.059.178.022.177.023.225-.014.224-.013.244-.062.244-.063.13-.058c.072-.033.2-.103.283-.157l.153-.098.142-.14c.078-.077.189-.2.245-.274.057-.074.103-.14.103-.146a2.392 2.392 0 00.216-.406c.051-.118.131-.33.178-.472l.084-.258.044-.223a6.18 6.18 0 00.068-.45l.025-.228-.014-.193-.015-.193-.045-.194-.045-.193-.074-.144-.074-.145-.142-.148-.142-.149-.168-.085-.168-.086-.185-.044-.186-.043-.185-.014-.185-.013-.206.023-.207.024-.168.042-.168.042-.147.067c-.08.037-.197.099-.26.138-.062.04-.127.085-.143.101a.67.67 0 01-.087.066l-.057.037.04-.188c.022-.104.04-.2.04-.216l.001-.026h-.798l-.07.434-.136.82a205.889 205.889 0 01-.37 2.136l-.118.633a694.332 694.332 0 00-.254 1.352 85.762 85.762 0 01-.207 1.035l-.012.048h.468zm2.017-2.48l-.182.01-.119-.02-.119-.021-.12-.054-.121-.055-.084-.08-.085-.078-.049-.108a1.492 1.492 0 01-.076-.223l-.028-.115.011-.185.012-.185.056-.29c.042-.22.083-.443.123-.665l.124-.672.057-.297.125-.103a2.03 2.03 0 01.242-.167l.116-.066.153-.046.152-.047.197-.01.196-.012.16.033.159.034.113.05.112.052.095.094.094.093.051.1c.028.054.068.16.088.236l.036.138-.011.408-.011.408-.056.24c-.03.133-.09.336-.13.451l-.074.21-.091.17c-.05.093-.127.22-.172.28a1.206 1.206 0 01-.313.298l-.08.059-.184.062-.185.062-.182.01zm4.524.59l.24.002.239-.021a8.28 8.28 0 00.985-.146l.267-.058.013-.097c.007-.053.037-.211.066-.352l.054-.255-.012-.011-.012-.012-.081.039a3.74 3.74 0 01-.31.113l-.229.074-.24.046-.24.045-.38.001h-.382l-.13-.04a2.048 2.048 0 01-.236-.092l-.104-.05-.086-.077-.086-.077-.067-.116-.067-.115-.042-.145-.042-.145v-.268l-.001-.269.037-.24.038-.238.328-.016.327-.015 1.212.008 1.212.008.037-.153c.02-.084.05-.258.068-.386l.032-.234v-.196l.001-.196-.034-.147-.035-.146-.057-.097a1.355 1.355 0 00-.123-.172.963.963 0 00-.143-.13 2.162 2.162 0 00-.187-.11l-.109-.058-.19-.045-.19-.045-.235-.022-.235-.022-.217.014-.218.014-.262.05-.261.049-.164.064a2.145 2.145 0 00-.544.3 1.935 1.935 0 00-.571.701 5.023 5.023 0 00-.123.259c-.025.059-.071.18-.102.268a4.8 4.8 0 00-.193.807l-.035.217v.639l.034.14a1.726 1.726 0 00.177.472 1.209 1.209 0 00.345.363c.06.044.166.106.236.137l.129.058.178.042c.098.024.247.051.33.062.082.01.258.02.39.021zm.41-3.023c-.603 0-1.096-.005-1.096-.01s.025-.08.057-.166c.031-.087.086-.215.122-.285l.066-.129.144-.141.144-.141.142-.067a1.65 1.65 0 01.229-.089 2.46 2.46 0 01.305-.036l.218-.013.167.02.167.022.122.055.121.055.067.07c.037.04.08.097.097.128l.03.057.02.126.02.125-.022.21-.023.209H21.5zm6.518 3.022l.24.003.272-.032a7.36 7.36 0 00.443-.064c.113-.023.226-.049.337-.079.092-.026.175-.053.185-.061a1.02 1.02 0 00.057-.217c.023-.11.05-.26.062-.33a.578.578 0 00.014-.137c-.005-.005-.02.001-.036.013a1.914 1.914 0 01-.237.098l-.21.077-.299.057-.299.057-.254-.008-.254-.009-.144-.05-.144-.049-.112-.095-.111-.097-.074-.132-.074-.133-.035-.177-.036-.178v-.46l.044-.28.043-.278.045-.15c.025-.083.053-.18.062-.215.01-.036.05-.137.09-.225a3.6 3.6 0 01.155-.304l.084-.143.104-.106.103-.106.11-.067.11-.067.14-.043c.078-.023.215-.054.305-.067l.163-.026.24.012.24.012.283.056.283.056.115.042c.063.023.118.042.121.042.004 0 .019-.08.034-.177.015-.097.042-.257.06-.356a.874.874 0 00.023-.188 1.23 1.23 0 00-.189-.03c-.099-.01-.367-.03-.597-.043l-.417-.024-.294.022-.294.023-.218.045-.218.045-.14.055a2.037 2.037 0 00-.424.231 2.98 2.98 0 00-.228.205l-.167.162-.093.134c-.051.074-.14.228-.197.343l-.104.208-.08.225a5.99 5.99 0 00-.135.45l-.056.226-.02.204-.021.204v.536l.02.156.021.156.066.16.065.161.075.116.076.116.12.117.12.116.126.066.127.066.166.045c.092.025.224.054.295.064.07.01.235.02.367.021zm3.583-.007l.294-.009.185-.046.186-.047.12-.056a2.26 2.26 0 00.24-.135 1.828 1.828 0 00.42-.4.567.567 0 01.093-.107c.003.003-.008.102-.025.22a3.197 3.197 0 00-.031.349v.134h.8l.011-.306.013-.306.057-.397a31.428 31.428 0 01.23-1.384l.121-.654.059-.311.002-.27.002-.268-.062-.124-.062-.124-.083-.08-.084-.079-.137-.068-.138-.069-.204-.045-.205-.044-.282-.021-.282-.022-.363.023c-.2.012-.48.036-.624.053l-.262.031h-.178l-.178.001-.026.124a9.653 9.653 0 01-.088.358c-.034.13-.059.238-.055.242.004.004.099-.018.212-.047a7.41 7.41 0 01.531-.11l.327-.054.294-.012.294-.012.19.033.19.032.126.062.126.061.07.104.072.104-.001.164-.001.164-.038.18-.038.18-.783.002-.784.003-.257.07a2.996 2.996 0 00-.347.112.538.538 0 01-.11.043c-.012 0-.096.046-.187.102l-.167.101-.13.13c-.073.07-.165.176-.205.235a2 2 0 00-.146.274l-.073.167-.033.187-.033.188v.393l.031.164.032.163.059.107c.033.059.092.145.132.191l.074.085.13.078.13.078.15.041c.081.023.206.05.277.062l.128.02.294-.009zm.273-.6l-.175.008-.115-.029a1.237 1.237 0 01-.214-.078l-.099-.05-.054-.063a1.017 1.017 0 01-.1-.152l-.047-.088-.009-.206-.01-.207.038-.125c.02-.069.068-.188.106-.265l.069-.14.132-.13.132-.129.14-.066.14-.067.175-.04.174-.041h1.09l.034.014.034.014-.029.168a4.221 4.221 0 01-.204.738 2.07 2.07 0 00-.065.176c0 .007-.035.072-.08.145l-.079.131-.13.128a.887.887 0 01-.149.127.415.415 0 00-.097.054l-.08.054-.177.055-.177.055-.174.008zm7.09.607l.208.003.196-.032c.108-.017.245-.045.305-.061.06-.017.168-.06.24-.097l.13-.066.113-.097.112-.098.118-.155a1.79 1.79 0 00.131-.188l.013-.032-.01.107a3.485 3.485 0 01-.031.215 3.98 3.98 0 00-.033.252l-.015.145h.855v-.29l.065-.547c.036-.301.089-.702.118-.89.028-.19.073-.46.099-.601l.1-.57a81.018 81.018 0 01.249-1.35 3413.363 3413.363 0 00.242-1.278c.039-.197.079-.393.12-.59a5.74 5.74 0 00.052-.263v-.016h-.932l-.014.134a15.02 15.02 0 01-.08.542 134.856 134.856 0 01-.206 1.252l-.012.071-.037-.015a3.442 3.442 0 00-.244-.067l-.206-.05-.284-.023-.283-.021-.24.022-.24.022-.217.054-.218.054-.207.1-.207.099-.152.111-.153.111-.132.14a3.151 3.151 0 00-.232.28l-.101.143-.118.242a6.09 6.09 0 00-.177.393 4.832 4.832 0 00-.124.407l-.067.257-.032.333-.033.334.024.268.025.268.03.097c.015.053.05.148.074.21l.046.114.084.112.084.111.096.078.096.077.13.064a1.809 1.809 0 00.541.155c.074.01.228.019.342.02zm.372-.609l-.164.009-.111-.02a1.227 1.227 0 01-.217-.064l-.107-.045-.089-.072-.09-.072-.065-.125-.067-.125-.03-.14-.03-.14.002-.278.003-.28.035-.246.035-.247.055-.171c.03-.095.054-.184.055-.198 0-.015.03-.092.065-.172a5.86 5.86 0 01.134-.274c.038-.071.108-.181.156-.245a1.457 1.457 0 01.392-.372l.098-.06.17-.058.172-.058h.72l.206.056c.114.031.235.068.269.08l.061.024-.012.059-.057.316a77.435 77.435 0 01-.23 1.234 8.319 8.319 0 01-.174.723 1.776 1.776 0 01-.092.236 1.242 1.242 0 01-.27.385c-.04.037-.126.102-.192.145l-.12.079-.173.054-.173.054-.165.008zm-32.062.505h.53l.037-.23.09-.543.12-.708a206.862 206.862 0 01.232-1.329c.03-.159.058-.294.065-.3l.012-.012h2.847l.016.015.015.016-.024.124-.09.467a817.243 817.243 0 00-.252 1.341c-.03.148-.087.457-.13.687-.042.23-.076.43-.076.445v.027h1.063l.023-.134c.013-.074.034-.207.047-.295.012-.089.042-.277.067-.419l.108-.622c.035-.2.094-.544.13-.762l.121-.708c.038-.215.077-.43.118-.644a177.934 177.934 0 00.374-2.006c.037-.2.084-.435.104-.52l.037-.156h-1.076l-.015.102a15.17 15.17 0 01-.058.349l-.095.536a64.259 64.259 0 00-.22 1.301l-.036.239-.79.015-.79.016-.662-.015a31.137 31.137 0 01-.666-.02 1.92 1.92 0 01.028-.185c.023-.129.048-.257.074-.385.033-.165.066-.33.097-.494.03-.16.065-.357.077-.44.011-.082.036-.22.054-.306.019-.085.053-.265.077-.4s.05-.26.057-.279l.014-.034H7.86l-.034.188c-.019.103-.044.25-.056.327l-.088.547-.12.74-.12.74a44.579 44.579 0 01-.252 1.406l-.12.623c-.04.204-.08.407-.122.611-.03.142-.062.306-.072.365-.01.059-.045.23-.075.378a4.343 4.343 0 00-.057.306v.035h.53zm5.86 0h.468l.013-.034a.394.394 0 00.014-.109c0-.041.03-.255.065-.476.082-.502.167-1.004.253-1.506.037-.211.076-.422.117-.633l.118-.611c.03-.16.09-.463.133-.674.043-.21.083-.392.09-.402l.011-.02-.474.006-.474.006-.04.28c-.02.153-.068.457-.105.675l-.122.74c-.037.226-.077.451-.119.676a1346.55 1346.55 0 01-.24 1.245 82.13 82.13 0 01-.108.536 7.495 7.495 0 01-.056.253l-.013.048h.469zm10.96 0h.464l.014-.194c.008-.107.034-.322.059-.478.024-.156.075-.467.111-.69.047-.278.097-.555.152-.83.047-.232.1-.463.118-.513a.583.583 0 00.032-.12c0-.016.035-.104.078-.195.043-.092.122-.232.177-.312l.1-.145.132-.121.133-.121.164-.077.164-.077h.25l.25.002.124.036c.068.02.129.037.136.037.007 0 .013-.023.013-.051 0-.028.025-.17.055-.314.03-.145.054-.27.054-.277a.583.583 0 00-.158-.06 2.037 2.037 0 00-.267-.061l-.109-.014-.141.025a1.85 1.85 0 00-.258.066 1.473 1.473 0 00-.233.117c-.065.04-.166.12-.224.176a2.53 2.53 0 00-.219.253l-.143.193-.031.043.019-.086c.01-.047.04-.201.064-.343.025-.142.051-.274.057-.295l.012-.038h-.83v.052c0 .029-.025.2-.055.381l-.11.673-.12.73c-.038.225-.078.45-.12.675a149.33 149.33 0 01-.38 1.934v.019h.465zm11.04 0h.476v-.287l.055-.356a85.397 85.397 0 01.195-1.203c.016-.1.059-.317.095-.482.036-.166.08-.344.1-.397a.666.666 0 00.034-.124c0-.015.04-.112.09-.214l.09-.187.119-.156.118-.154.13-.096c.07-.053.185-.123.254-.156l.125-.06.273.002.272.002.107.034.107.034.019-.011.018-.011v-.069a2.9 2.9 0 01.052-.311l.051-.243-.057-.022a3.463 3.463 0 00-.166-.056l-.11-.034h-.195l-.196.001-.16.056-.16.055-.12.071-.12.072-.156.16-.156.161-.084.125a.598.598 0 01-.09.118 3.534 3.534 0 01.056-.318c.034-.17.063-.333.063-.36l.001-.047h-.806v.013a86.248 86.248 0 01-.405 2.454 200.105 200.105 0 01-.248 1.277l-.106.52-.04.199h.476zm-21.079-5.236h.132l.106-.035.105-.035.093-.093.093-.093.049-.124.049-.124.002-.183.001-.182-.043-.071-.044-.071-.076-.047-.075-.046h-.328l-.112.05-.111.048-.065.069-.064.068-.051.118-.051.118-.01.184-.01.184.048.091.047.092.092.04.09.041h.133z" fill="#B3131B" fill-rule="nonzero"/></g></svg>