<svg width="40" height="30" xmlns="http://www.w3.org/2000/svg"><g fill="none" fill-rule="evenodd"><rect fill="#F0F2F4" fill-rule="nonzero" width="40" height="30" rx="2"/><path d="M21.648 11.938l-2.002 4.312h-.204V11h-2.845v8.885h2.415c.634 0 1.21-.367 1.475-.939l2.003-4.311h.203v5.25h2.845V11h-2.414c-.634 0-1.21.366-1.476.938m-10.672.23L9.79 16.25h-.203l-1.185-4.082A1.625 1.625 0 006.841 11H4v8.884h2.845v-5.25h.203l1.625 5.25h2.033l1.625-5.25h.203v5.25h2.844V11h-2.84c-.724 0-1.36.476-1.562 1.168" fill="#30AE55"/><path d="M26.757 15.197v4.688h2.839v-2.827h3.053c1.326 0 2.452-.686 2.871-1.86h-8.763z" fill="#00ABEC"/><path d="M32.65 11h-6.3a4.462 4.462 0 004.395 3.635h4.891A3.039 3.039 0 0032.65 11" fill="#30AE55"/></g></svg>