<svg xmlns="http://www.w3.org/2000/svg" viewBox="0 0 182 9.95"><g data-name="Layer 2"><path fill="#fff" d="M0 9.93l7.92-6.1 7.45 6.12 9.08-6.22 9.05 6.2 7.92-6.1 7.45 6.12 9.08-6.22L67 9.93l7.92-6.1 7.45 6.12 9.05-6.2 8.56 6.2 7.94-6.12 7.45 6.12 9.08-6.22 9.05 6.2 7.92-6.1 7.45 6.12 9.08-6.22 9.05 6.2 7.92-6.1 7.08 6.1v-4L174.98 0l-8.08 6.22L157.95.1l-8.92 6.1-7.55-6.2-8.08 6.22L124.45.1l-8.92 6.1-7.55-6.2-8.06 6.21L91.47.08 82.53 6.2 74.98 0 66.9 6.22 57.95.1l-8.92 6.1L41.48 0 33.4 6.22 24.45.1l-8.92 6.1L7.98 0 0 5.93v4z" data-name="Layer 1"/></g></svg>