<svg width="364" height="232" xmlns="http://www.w3.org/2000/svg"><g fill="none" fill-rule="evenodd"><g opacity=".115" fill="#000" fill-rule="nonzero"><path d="M352.156 78.8h-11.849V66.982c0-28.72-36.425-51.222-82.926-51.222h-12.249C243.296 6.779 235.332 0 225.791 0H194.2c-9.54 0-17.505 6.779-19.342 15.76h-12.244c-46.497 0-82.927 22.501-82.927 51.222V78.8H67.844C61.311 78.8 56 84.104 56 90.618c0 6.514 5.316 11.818 11.844 11.818h11.844v66.982c0 .034.017.046.017.08.009 7.342 2.877 14.238 8.075 19.429 5.218 5.198 12.164 8.073 19.552 8.073h205.336c15.24 0 27.64-12.373 27.64-27.578v-66.978h11.847c6.533 0 11.844-5.304 11.844-11.818 0-6.514-5.311-11.826-11.844-11.826zm-27.64 11.822c0-6.518-5.315-11.818-11.844-11.818-6.528 0-11.844 5.304-11.844 11.818 0 6.514-5.316 11.818-11.844 11.818-6.529 0-11.844-5.304-11.844-11.818V70.92h55.282v11.742c0 .034-.016.046-.016.08s.016.046.016.08v15.604c0 .034-.016.047-.016.08 0 .034.016.047.016.08v39.32c-4.873-3.66-7.897-9.447-7.897-15.76V90.622h-.009zM194.205 7.884h31.59c5.147 0 9.486 3.3 11.124 7.88h-53.838c1.638-4.58 5.977-7.88 11.124-7.88zm-31.59 15.76h94.77c39.063 0 71.217 17.345 74.68 39.4H87.934c3.463-22.06 35.617-39.4 74.68-39.4zM67.845 94.56a3.952 3.952 0 01-3.952-3.942 3.952 3.952 0 013.951-3.942h11.844v7.88H67.844v.004zm244.823 94.56H107.332a19.672 19.672 0 01-13.967-5.762c-3.724-3.72-5.766-8.666-5.766-13.936 0-.017-.009-.025-.009-.042V70.924h181.644v19.702c0 10.868 8.853 19.702 19.746 19.702 10.892 0 19.746-8.834 19.746-19.702a3.952 3.952 0 017.901 0v31.52c0 10.713 6.26 20.324 15.795 24.846v22.434c-.012 10.864-8.862 19.694-19.754 19.694zm39.488-94.56h-11.849v-7.88h11.849c2.177 0 3.95 1.77 3.95 3.942a3.949 3.949 0 01-3.95 3.938z"/><path d="M169.998 122c4.413 0 8.002-5.302 8.002-11.832 0-3.732-1.186-7.001-3-9.168l-12.735 6.278a17.176 17.176 0 00-.265 2.89c-.004 6.53 3.576 11.832 7.998 11.832zm79 0c4.421 0 8.002-5.302 8.002-11.832 0-1.001-.107-1.956-.265-2.89L244 101c-1.814 2.167-3 5.436-3 9.168-.004 6.53 3.585 11.832 7.998 11.832zm8.039 20c-5.603 0-8.566 2.99-10.725 5.17-1.94 1.962-2.894 2.828-5.121 2.828-2.227 0-3.182-.866-5.121-2.828-2.16-2.18-5.122-5.17-10.724-5.17-5.603 0-8.566 2.99-10.725 5.17-1.94 1.962-2.894 2.828-5.121 2.828-2.227 0-3.182-.866-5.121-2.828-2.16-2.18-5.122-5.17-10.725-5.17-5.602 0-8.565 2.99-10.724 5.17-1.94 1.962-2.894 2.828-5.121 2.828-2.227 0-3.182-.866-5.121-2.828-2.16-2.18-5.122-5.17-10.725-5.17-2.193 0-3.963 1.792-3.963 4.001 0 2.21 1.77 4.001 3.963 4.001 2.227 0 3.182.866 5.122 2.828 2.159 2.18 5.121 5.17 10.724 5.17s8.565-2.99 10.724-5.17c1.94-1.962 2.895-2.828 5.121-2.828 2.227 0 3.182.866 5.122 2.828 2.159 2.18 5.121 5.17 10.724 5.17s8.565-2.99 10.724-5.17c1.94-1.962 2.895-2.828 5.122-2.828 2.226 0 3.181.866 5.12 2.828 2.16 2.18 5.122 5.17 10.725 5.17s8.565-2.99 10.724-5.17c1.94-1.962 2.895-2.828 5.122-2.828 2.193 0 3.963-1.791 3.963-4 0-2.21-1.77-4.002-3.963-4.002z"/></g><path d="M173.467 149.574L89.854 70.04c-4.47-3.85-9.205-7.093-14.474-9.119-5.624-2.145-11.573-2.7-17.987-.98-6.414 1.718-11.289 5.173-15.187 9.87-3.45 4.36-5.93 9.537-7.875 15.107L1.521 196.184c-1.966 10.302.827 20.725 8.475 28.021 6.778 6.455 16.412 9.137 25.432 6.72l126.38-33.863c9.12-2.444 16.022-9.557 18.665-18.536 3.002-10.042.195-21.32-7.006-28.952z" fill="#4B658A"/><path d="M53.55 187.813l-14.466 3.876c-1.252.335-2.344.292-3.277-.129-.932-.42-1.554-1.21-1.865-2.37l-.876-3.268c-.298-1.113-.34-2.195-.124-3.247l5.853-31.011c.353-1.834 1.411-2.987 3.173-3.46 1.159-.31 2.268-.16 3.326.451 1.058.611 1.742 1.496 2.053 2.655.174.65.196 1.29.067 1.92l-5.484 29.05 9.458-2.535-1.677-6.26c-.31-1.158-.16-2.267.45-3.325.611-1.058 1.497-1.743 2.656-2.053 1.159-.31 2.267-.16 3.326.45 1.058.611 1.742 1.496 2.053 2.655l1.677 6.26 1.043-.28c1.113-.298 2.169-.159 3.168.418 1 .577 1.648 1.422 1.947 2.535.298 1.113.158 2.169-.419 3.168-.577 1-1.422 1.648-2.534 1.947l-1.043.279 1.602 5.981c.31 1.16.16 2.268-.45 3.326-.611 1.058-1.496 1.743-2.655 2.053-1.16.31-2.268.16-3.326-.45-1.059-.611-1.743-1.496-2.054-2.655l-1.602-5.981zm39.018-38.184l5.926 22.116c1.044 3.894.561 7.564-1.448 11.01-2.009 3.445-4.937 5.683-8.785 6.714-3.848 1.031-7.49.566-10.922-1.397-3.433-1.962-5.677-4.914-6.733-8.855l-5.926-22.116c-1.056-3.94-.588-7.619 1.404-11.035 1.991-3.416 4.911-5.64 8.76-6.67 3.894-1.044 7.561-.573 11 1.413 3.44 1.985 5.68 4.925 6.724 8.82zm-2.6 25.07l-6.261-23.367c-.41-1.53-1.262-2.668-2.555-3.415-1.293-.747-2.682-.921-4.165-.524-1.484.398-2.6 1.243-3.346 2.537-.747 1.293-.915 2.705-.505 4.235l6.261 23.367c.41 1.53 1.262 2.669 2.555 3.416 1.294.746 2.705.915 4.235.505 1.484-.398 2.588-1.24 3.311-2.527.724-1.288.88-2.696.47-4.226zm34.619-5.92l-14.466 3.875c-1.252.336-2.344.293-3.277-.128-.933-.42-1.554-1.21-1.865-2.37l-.876-3.269c-.298-1.112-.34-2.195-.124-3.246l5.853-31.012c.353-1.834 1.411-2.987 3.173-3.459 1.159-.31 2.268-.16 3.326.45 1.058.612 1.742 1.497 2.053 2.656.174.649.196 1.289.067 1.92l-5.484 29.05 9.458-2.535-1.677-6.26c-.31-1.159-.16-2.267.45-3.325.611-1.059 1.496-1.743 2.656-2.053 1.159-.311 2.267-.16 3.326.45 1.058.611 1.742 1.496 2.053 2.655l1.677 6.26 1.043-.28c1.113-.298 2.169-.159 3.168.418 1 .577 1.648 1.422 1.947 2.535.298 1.112.158 2.169-.419 3.168-.577 1-1.422 1.648-2.534 1.946l-1.044.28 1.603 5.98c.31 1.16.16 2.269-.45 3.327-.611 1.058-1.496 1.742-2.656 2.053-1.159.31-2.267.16-3.325-.45-1.059-.612-1.743-1.497-2.054-2.656l-1.602-5.98z" fill="#FFF"/></g></svg>