<svg xmlns="http://www.w3.org/2000/svg" xmlns:xlink="http://www.w3.org/1999/xlink" width="317" height="95"><defs><filter id="c" width="144.4%" height="144.4%" x="-16.7%" y="-11.1%" filterUnits="objectBoundingBox"><feOffset dx="2" dy="4" in="SourceAlpha" result="shadowOffsetOuter1"/><feGaussianBlur in="shadowOffsetOuter1" result="shadowBlurOuter1" stdDeviation="2"/><feComposite in="shadowBlurOuter1" in2="SourceAlpha" operator="out" result="shadowBlurOuter1"/><feColorMatrix in="shadowBlurOuter1" values="0 0 0 0 0 0 0 0 0 0 0 0 0 0 0 0 0 0 0.3 0"/></filter><filter id="f" width="144.4%" height="144.4%" x="-16.7%" y="-11.1%" filterUnits="objectBoundingBox"><feOffset dx="2" dy="4" in="SourceAlpha" result="shadowOffsetOuter1"/><feGaussianBlur in="shadowOffsetOuter1" result="shadowBlurOuter1" stdDeviation="2"/><feComposite in="shadowBlurOuter1" in2="SourceAlpha" operator="out" result="shadowBlurOuter1"/><feColorMatrix in="shadowBlurOuter1" values="0 0 0 0 0 0 0 0 0 0 0 0 0 0 0 0 0 0 0.3 0"/></filter><circle id="d" cx="129" cy="50" r="18"/><circle id="g" cx="126" cy="33" r="18"/><rect id="a" width="151" height="95" rx="4"/><rect id="e" width="151" height="95" rx="4"/><path id="h" d="M117.042 35.23a.291.291 0 01.3-.3h.64c.174 0 .274.1.3.3a.804.804 0 00.24.475c.134.13.32.195.56.195a.76.76 0 00.555-.21.71.71 0 00.215-.53v-1.33a.51.51 0 00-.14-.36.459.459 0 00-.35-.15h-.64a.283.283 0 01-.215-.09.308.308 0 01-.085-.22v-.39c0-.167.064-.333.19-.5l.73-.97h-1.65a.291.291 0 01-.3-.3v-.55a.291.291 0 01.3-.3h2.97c.087 0 .159.03.215.09.057.06.085.133.085.22v.39a.825.825 0 01-.19.5l-.75 1.01c.327.12.592.32.795.6.204.28.305.617.305 1.01v1.33c0 .54-.198 1-.595 1.38a2.01 2.01 0 01-1.445.57c-.56 0-1.04-.187-1.44-.56-.4-.373-.6-.81-.6-1.31zm7.05-1.6a.74.74 0 00.55-.225.739.739 0 00.22-.535v-1.09a.706.706 0 00-.22-.525.755.755 0 00-.55-.215.723.723 0 00-.75.74v1.09c0 .207.07.385.214.535a.71.71 0 00.535.225zm-.68 1.82a.67.67 0 00.224.35c.117.1.275.15.475.15.22 0 .4-.072.54-.215.14-.143.21-.342.21-.595v-.69c-.227.207-.54.31-.94.31-.507 0-.94-.187-1.3-.56a1.875 1.875 0 01-.54-1.35v-1.02c0-.54.195-.997.585-1.37.39-.373.878-.56 1.465-.56.573 0 1.047.185 1.42.555.373.37.56.825.56 1.365v3.35c0 .533-.188.988-.565 1.365-.377.377-.848.565-1.415.565-.553 0-1.013-.167-1.38-.5-.367-.333-.55-.717-.55-1.15 0-.087.027-.158.08-.215a.275.275 0 01.21-.085h.6c.153 0 .26.1.32.3zm7.518-3.74v.4c0 .5-.157.91-.47 1.23.38.36.57.81.57 1.35v.49c0 .533-.197.987-.59 1.36-.393.373-.877.56-1.45.56s-1.055-.187-1.445-.56a1.824 1.824 0 01-.585-1.37v-.48c0-.533.193-.983.58-1.35a1.789 1.789 0 01-.48-1.24v-.39c0-.5.187-.927.56-1.28.373-.353.83-.53 1.37-.53.547 0 1.007.177 1.38.53.373.353.56.78.56 1.28zm-1.16 3.5v-.51c0-.2-.077-.373-.23-.52a.756.756 0 00-.54-.22.773.773 0 00-.545.22.69.69 0 00-.235.52v.51c0 .207.078.38.235.52a.82.82 0 00.565.21.74.74 0 00.53-.21.69.69 0 00.22-.52zm-.08-3.05v-.42a.658.658 0 00-.205-.49.683.683 0 00-.495-.2.666.666 0 00-.49.2.666.666 0 00-.2.49v.42c0 .18.065.333.195.46a.68.68 0 00.495.19c.2 0 .367-.062.5-.185a.607.607 0 00.2-.465zm6.129-.45v.4c0 .5-.157.91-.47 1.23.38.36.57.81.57 1.35v.49c0 .533-.197.987-.59 1.36-.393.373-.877.56-1.45.56s-1.055-.187-1.445-.56a1.824 1.824 0 01-.585-1.37v-.48c0-.533.193-.983.58-1.35a1.789 1.789 0 01-.48-1.24v-.39c0-.5.187-.927.56-1.28.373-.353.83-.53 1.37-.53.547 0 1.007.177 1.38.53.373.353.56.78.56 1.28zm-1.16 3.5v-.51c0-.2-.077-.373-.23-.52a.756.756 0 00-.54-.22.773.773 0 00-.545.22.69.69 0 00-.235.52v.51c0 .207.078.38.235.52a.82.82 0 00.565.21.74.74 0 00.53-.21.69.69 0 00.22-.52zm-.08-3.05v-.42a.658.658 0 00-.205-.49.683.683 0 00-.495-.2.666.666 0 00-.49.2.666.666 0 00-.2.49v.42c0 .18.065.333.195.46a.68.68 0 00.495.19c.2 0 .367-.062.5-.185a.607.607 0 00.2-.465z"/></defs><g fill="none" fill-rule="evenodd"><mask id="b" fill="#fff"><use xlink:href="#a"/></mask><use fill="#F0F2F4" fill-rule="nonzero" xlink:href="#a"/><path fill="#000" fill-rule="nonzero" mask="url(#b)" d="M-6 12h162v19H-6z"/><path fill="#FFF" fill-rule="nonzero" d="M9 39h133v21H9z"/><g fill-rule="nonzero"><use fill="#000" filter="url(#c)" xlink:href="#d"/><circle cx="129" cy="50" r="15.5" fill="#FFF" fill-rule="evenodd" stroke="#FFBF3D" stroke-linejoin="square" stroke-width="5"/></g><path fill="#000" d="M123.653 50.139c.693.242 1.078.913.913 1.76-.253 1.32-1.463 2.2-2.926 2.2-1.012 0-1.793-.561-2.035-1.496l.88-.451c.198.649.682 1.045 1.298 1.045.902 0 1.661-.506 1.804-1.265.154-.814-.363-1.353-1.254-1.353h-.748l.154-.825h.682c.759 0 1.342-.451 1.474-1.1.121-.616-.264-1.023-.957-1.023-.495 0-1.056.264-1.419.682l-.55-.55c.484-.627 1.353-1.045 2.167-1.045 1.254 0 1.947.759 1.716 1.914a2.054 2.054 0 01-1.199 1.507zm5.643-3.421c1.771 0 2.398 1.463 2.002 3.476-.33 1.694-1.441 3.916-3.718 3.916-.825 0-1.661-.286-1.925-1.452l.935-.352c.165.66.66.902 1.199.902 1.1 0 2.167-1.221 2.387-2.618-.44.528-1.155.88-1.892.88-1.474 0-2.244-1.133-2.002-2.387.242-1.221 1.441-2.365 3.014-2.365zm-.803 3.839c.891 0 1.749-.572 1.936-1.386.176-.869-.385-1.507-1.265-1.529-.924 0-1.738.627-1.892 1.463-.154.803.363 1.43 1.221 1.452zm8.052-.726c.759.319 1.144 1.1.968 2.024-.264 1.342-1.573 2.255-3.135 2.255-1.573 0-2.519-.913-2.255-2.244a2.747 2.747 0 011.771-2.035c-.396-.275-.594-.726-.473-1.331.198-1.012 1.177-1.782 2.409-1.782 1.221 0 1.903.77 1.705 1.782-.121.605-.506 1.056-.99 1.331zm-.891-2.222c-.594 0-1.144.44-1.243.979-.099.528.275.935.869.935s1.133-.396 1.232-.935c.099-.539-.264-.979-.858-.979zm-1.089 5.599c.99 0 1.793-.616 1.947-1.419.165-.858-.495-1.463-1.397-1.463-.924 0-1.804.616-1.969 1.452-.154.814.462 1.43 1.419 1.43z"/><g transform="translate(166)"><use fill="#F0F2F4" fill-rule="nonzero" xlink:href="#e"/><path fill="#4C454D" d="M14.776 52.496l2.172-4.512c.12-.256.292-.384.516-.384h.804c.216 0 .324.084.324.252a.47.47 0 01-.036.156l-2.352 4.956H17.8v-1.596a.35.35 0 01.36-.36h.744a.35.35 0 01.36.36v1.596h.276a.35.35 0 01.36.36v.672a.35.35 0 01-.36.36h-.276v1.284a.35.35 0 01-.36.36h-.744a.35.35 0 01-.36-.36v-1.284h-2.856a.34.34 0 01-.258-.108.37.37 0 01-.102-.264v-.84c0-.16.064-.376.192-.648zm7.008 1.38a.35.35 0 01.36-.36h.768c.208 0 .328.12.36.36a.965.965 0 00.288.57c.16.156.384.234.672.234a.913.913 0 00.666-.252.852.852 0 00.258-.636v-1.596a.61.61 0 00-.168-.432.55.55 0 00-.42-.18H23.8a.34.34 0 01-.258-.108.37.37 0 01-.102-.264v-.468c0-.2.076-.4.228-.6l.876-1.164h-1.98a.35.35 0 01-.36-.36v-.66a.35.35 0 01.36-.36h3.564a.34.34 0 01.258.108.37.37 0 01.102.264v.468c0 .2-.076.4-.228.6l-.9 1.212c.392.144.71.384.954.72.244.336.366.74.366 1.212v1.596c0 .648-.238 1.2-.714 1.656-.476.456-1.054.684-1.734.684a2.444 2.444 0 01-1.728-.672c-.48-.448-.72-.972-.72-1.572zm9.84-2.232a.885.885 0 00-.66.27.887.887 0 00-.264.642v1.308c0 .248.088.458.264.63a.906.906 0 00.66.258c.264 0 .48-.086.648-.258a.868.868 0 00.252-.63v-1.308a.897.897 0 00-.258-.642.852.852 0 00-.642-.27zm.816-2.184a.805.805 0 00-.27-.42c-.14-.12-.33-.18-.57-.18a.866.866 0 00-.648.258c-.168.172-.252.41-.252.714v.828c.272-.248.648-.372 1.128-.372a2.09 2.09 0 011.56.672c.432.448.648.988.648 1.62v1.224c0 .648-.234 1.196-.702 1.644-.468.448-1.054.672-1.758.672-.688 0-1.256-.222-1.704-.666a2.216 2.216 0 01-.672-1.638v-4.02c0-.64.226-1.186.678-1.638.452-.452 1.018-.678 1.698-.678.664 0 1.216.2 1.656.6.44.4.66.86.66 1.38 0 .104-.032.19-.096.258a.33.33 0 01-.252.102h-.72c-.184 0-.312-.12-.384-.36zm6.384 2.184a.885.885 0 00-.66.27.887.887 0 00-.264.642v1.308c0 .248.088.458.264.63a.906.906 0 00.66.258c.264 0 .48-.086.648-.258a.868.868 0 00.252-.63v-1.308a.897.897 0 00-.258-.642.852.852 0 00-.642-.27zm.816-2.184a.805.805 0 00-.27-.42c-.14-.12-.33-.18-.57-.18a.866.866 0 00-.648.258c-.168.172-.252.41-.252.714v.828c.272-.248.648-.372 1.128-.372a2.09 2.09 0 011.56.672c.432.448.648.988.648 1.62v1.224c0 .648-.234 1.196-.702 1.644-.468.448-1.054.672-1.758.672-.688 0-1.256-.222-1.704-.666a2.216 2.216 0 01-.672-1.638v-4.02c0-.64.226-1.186.678-1.638.452-.452 1.018-.678 1.698-.678.664 0 1.216.2 1.656.6.44.4.66.86.66 1.38 0 .104-.032.19-.096.258a.33.33 0 01-.252.102h-.72c-.184 0-.312-.12-.384-.36zm13.044-.612l-1.26.192a.25.25 0 01-.21-.078.288.288 0 01-.09-.21v-.672c0-.16.1-.256.3-.288l1.212-.192h1.176c.088 0 .168.028.24.084a.25.25 0 01.108.204v6.744h1.464c.08 0 .15.028.21.084.06.056.09.124.09.204v.792c0 .08-.03.148-.09.204a.298.298 0 01-.21.084H51.16a.298.298 0 01-.21-.084.269.269 0 01-.09-.204v-.792c0-.08.03-.148.09-.204a.298.298 0 01.21-.084h1.524v-5.784zm5.1 5.028a.35.35 0 01.36-.36h.768c.208 0 .328.12.36.36a.965.965 0 00.288.57c.16.156.384.234.672.234a.913.913 0 00.666-.252.852.852 0 00.258-.636v-1.596a.61.61 0 00-.168-.432.55.55 0 00-.42-.18H59.8a.34.34 0 01-.258-.108.37.37 0 01-.102-.264v-.468c0-.2.076-.4.228-.6l.876-1.164h-1.98a.35.35 0 01-.36-.36v-.66a.35.35 0 01.36-.36h3.564a.34.34 0 01.258.108.37.37 0 01.102.264v.468c0 .2-.076.4-.228.6l-.9 1.212c.392.144.71.384.954.72.244.336.366.74.366 1.212v1.596c0 .648-.238 1.2-.714 1.656-.476.456-1.054.684-1.734.684a2.444 2.444 0 01-1.728-.672c-.48-.448-.72-.972-.72-1.572zm7.392-1.38l2.172-4.512c.12-.256.292-.384.516-.384h.804c.216 0 .324.084.324.252a.47.47 0 01-.036.156l-2.352 4.956H68.2v-1.596a.35.35 0 01.36-.36h.744a.35.35 0 01.36.36v1.596h.276a.35.35 0 01.36.36v.672a.35.35 0 01-.36.36h-.276v1.284a.35.35 0 01-.36.36h-.744a.35.35 0 01-.36-.36v-1.284h-2.856a.34.34 0 01-.258-.108.37.37 0 01-.102-.264v-.84c0-.16.064-.376.192-.648zM76.888 56h-4.104a.46.46 0 01-.3-.108.33.33 0 01-.132-.264v-.72c0-.416.084-.814.252-1.194.168-.38.376-.702.624-.966s.52-.532.816-.804c.296-.272.568-.514.816-.726.248-.212.456-.452.624-.72.168-.268.252-.534.252-.798 0-.24-.084-.44-.252-.6a.87.87 0 00-.624-.24c-.464 0-.768.296-.912.888-.056.24-.184.36-.384.36h-.72a.33.33 0 01-.252-.102.362.362 0 01-.096-.258c0-.208.044-.436.132-.684.088-.248.22-.494.396-.738.176-.244.424-.446.744-.606.32-.16.684-.24 1.092-.24.672 0 1.236.22 1.692.66.456.44.684.992.684 1.656 0 .424-.114.834-.342 1.23a4.302 4.302 0 01-.828 1.038c-.324.296-.65.58-.978.852-.328.272-.61.554-.846.846-.236.292-.362.578-.378.858h3.024a.35.35 0 01.36.36v.66a.35.35 0 01-.36.36zm5.088-4.044c.264 0 .484-.09.66-.27a.887.887 0 00.264-.642v-1.308a.847.847 0 00-.264-.63.906.906 0 00-.66-.258.866.866 0 00-.648.258.868.868 0 00-.252.63v1.308c0 .248.086.462.258.642.172.18.386.27.642.27zm-.816 2.184c.04.16.13.3.27.42s.33.18.57.18c.264 0 .48-.086.648-.258.168-.172.252-.41.252-.714v-.828c-.272.248-.648.372-1.128.372a2.09 2.09 0 01-1.56-.672 2.25 2.25 0 01-.648-1.62v-1.224c0-.648.234-1.196.702-1.644.468-.448 1.054-.672 1.758-.672.688 0 1.256.222 1.704.666.448.444.672.99.672 1.638v4.02c0 .64-.226 1.186-.678 1.638-.452.452-1.018.678-1.698.678-.664 0-1.216-.2-1.656-.6-.44-.4-.66-.86-.66-1.38 0-.104.032-.19.096-.258a.33.33 0 01.252-.102h.72c.184 0 .312.12.384.36zm8.46 1.5a.35.35 0 01-.36.36h-.78a.35.35 0 01-.36-.36c0-.696.12-1.478.36-2.346.24-.868.514-1.72.822-2.556.308-.836.498-1.422.57-1.758h-2.616a.35.35 0 01-.36-.36v-.66a.35.35 0 01.36-.36h3.756c.12 0 .214.034.282.102a.365.365 0 01.102.27v.708c0 .368-.148.966-.444 1.794a64.063 64.063 0 00-.888 2.682c-.296.96-.444 1.788-.444 2.484zm8.868.36h-4.104a.46.46 0 01-.3-.108.33.33 0 01-.132-.264v-.72c0-.416.084-.814.252-1.194.168-.38.376-.702.624-.966s.52-.532.816-.804c.296-.272.568-.514.816-.726.248-.212.456-.452.624-.72.168-.268.252-.534.252-.798 0-.24-.084-.44-.252-.6a.87.87 0 00-.624-.24c-.464 0-.768.296-.912.888-.056.24-.184.36-.384.36h-.72a.33.33 0 01-.252-.102.362.362 0 01-.096-.258c0-.208.044-.436.132-.684.088-.248.22-.494.396-.738.176-.244.424-.446.744-.606.32-.16.684-.24 1.092-.24.672 0 1.236.22 1.692.66.456.44.684.992.684 1.656 0 .424-.114.834-.342 1.23a4.302 4.302 0 01-.828 1.038c-.324.296-.65.58-.978.852-.328.272-.61.554-.846.846-.236.292-.362.578-.378.858h3.024a.35.35 0 01.36.36v.66a.35.35 0 01-.36.36zm9.696-2.124a.35.35 0 01.36-.36h.768c.208 0 .328.12.36.36a.965.965 0 00.288.57c.16.156.384.234.672.234a.913.913 0 00.666-.252.852.852 0 00.258-.636v-1.596a.61.61 0 00-.168-.432.55.55 0 00-.42-.18h-.768a.34.34 0 01-.258-.108.37.37 0 01-.102-.264v-.468c0-.2.076-.4.228-.6l.876-1.164h-1.98a.35.35 0 01-.36-.36v-.66a.35.35 0 01.36-.36h3.564a.34.34 0 01.258.108.37.37 0 01.102.264v.468c0 .2-.076.4-.228.6l-.9 1.212c.392.144.71.384.954.72.244.336.366.74.366 1.212v1.596c0 .648-.238 1.2-.714 1.656-.476.456-1.054.684-1.734.684a2.444 2.444 0 01-1.728-.672c-.48-.448-.72-.972-.72-1.572zm10.236 1.764a.35.35 0 01-.36.36h-.78a.35.35 0 01-.36-.36c0-.696.12-1.478.36-2.346.24-.868.514-1.72.822-2.556.308-.836.498-1.422.57-1.758h-2.616a.35.35 0 01-.36-.36v-.66a.35.35 0 01.36-.36h3.756c.12 0 .214.034.282.102a.365.365 0 01.102.27v.708c0 .368-.148.966-.444 1.794a64.063 64.063 0 00-.888 2.682c-.296.96-.444 1.788-.444 2.484zm4.356-3.144l2.172-4.512c.12-.256.292-.384.516-.384h.804c.216 0 .324.084.324.252a.47.47 0 01-.036.156l-2.352 4.956h1.596v-1.596a.35.35 0 01.36-.36h.744a.35.35 0 01.36.36v1.596h.276a.35.35 0 01.36.36v.672a.35.35 0 01-.36.36h-.276v1.284a.35.35 0 01-.36.36h-.744a.35.35 0 01-.36-.36v-1.284h-2.856a.34.34 0 01-.258-.108.37.37 0 01-.102-.264v-.84c0-.16.064-.376.192-.648zm7.2 0l2.172-4.512c.12-.256.292-.384.516-.384h.804c.216 0 .324.084.324.252a.47.47 0 01-.036.156l-2.352 4.956H133v-1.596a.35.35 0 01.36-.36h.744a.35.35 0 01.36.36v1.596h.276a.35.35 0 01.36.36v.672a.35.35 0 01-.36.36h-.276v1.284a.35.35 0 01-.36.36h-.744a.35.35 0 01-.36-.36v-1.284h-2.856a.34.34 0 01-.258-.108.37.37 0 01-.102-.264v-.84c0-.16.064-.376.192-.648zM18.5 73.419v2.862c0 .504-.177.931-.531 1.282a1.75 1.75 0 01-1.278.527c-.498 0-.922-.174-1.273-.522a1.741 1.741 0 01-.527-1.287v-2.862c0-.51.175-.939.527-1.287a1.742 1.742 0 011.273-.522c.504 0 .931.175 1.283.526.35.352.526.779.526 1.283zm-1.125 2.943v-3.024a.672.672 0 00-.198-.495.66.66 0 00-.486-.198.66.66 0 00-.486.198.672.672 0 00-.198.495v3.024c0 .198.066.363.198.495a.672.672 0 00.495.198.646.646 0 00.482-.198.68.68 0 00.193-.495zm4.338-3.726l-.945.144a.187.187 0 01-.158-.058.216.216 0 01-.067-.158v-.504c0-.12.075-.192.225-.216l.909-.144h.882c.066 0 .126.021.18.063a.188.188 0 01.081.153v5.058h1.098c.06 0 .113.021.158.063a.202.202 0 01.067.153v.594c0 .06-.023.111-.067.153a.224.224 0 01-.158.063H20.57a.224.224 0 01-.157-.063.202.202 0 01-.068-.153v-.594c0-.06.023-.111.068-.153a.224.224 0 01.157-.063h1.143v-4.338zm7.758-.765l-2.889 7.479c-.066.18-.186.27-.36.27h-.531c-.126 0-.189-.06-.189-.18 0-.024.006-.06.018-.108l2.88-7.47c.072-.174.183-.261.333-.261h.576c.126 0 .189.054.189.162a.24.24 0 01-.027.108zM34.466 78h-3.078a.346.346 0 01-.225-.081.247.247 0 01-.099-.198v-.54c0-.312.063-.61.189-.895.126-.285.282-.527.468-.725.186-.198.39-.399.612-.603.222-.204.426-.385.612-.544a2.35 2.35 0 00.468-.54c.126-.201.189-.401.189-.599 0-.18-.063-.33-.189-.45a.652.652 0 00-.468-.18c-.348 0-.576.222-.684.666-.042.18-.138.27-.288.27h-.54a.248.248 0 01-.189-.077.271.271 0 01-.072-.193c0-.156.033-.327.099-.513s.165-.37.297-.553c.132-.184.318-.335.558-.455.24-.12.513-.18.819-.18.504 0 .927.165 1.269.495.342.33.513.744.513 1.242 0 .318-.085.626-.256.922a3.227 3.227 0 01-.621.779c-.244.222-.488.435-.734.639a4.525 4.525 0 00-.635.635c-.177.218-.271.433-.283.643h2.268a.262.262 0 01.27.27v.495a.262.262 0 01-.27.27zm5.4 0h-3.078a.346.346 0 01-.225-.081.247.247 0 01-.099-.198v-.54c0-.312.063-.61.189-.895.126-.285.282-.527.468-.725.186-.198.39-.399.612-.603.222-.204.426-.385.612-.544a2.35 2.35 0 00.468-.54c.126-.201.189-.401.189-.599 0-.18-.063-.33-.189-.45a.652.652 0 00-.468-.18c-.348 0-.576.222-.684.666-.042.18-.138.27-.288.27h-.54a.248.248 0 01-.189-.077.271.271 0 01-.072-.193c0-.156.033-.327.099-.513s.165-.37.297-.553c.132-.184.318-.335.558-.455.24-.12.513-.18.819-.18.504 0 .927.165 1.269.495.342.33.513.744.513 1.242 0 .318-.086.626-.257.922a3.227 3.227 0 01-.62.779c-.243.222-.488.435-.734.639a4.525 4.525 0 00-.634.635c-.177.218-.272.433-.284.643h2.268a.262.262 0 01.27.27v.495a.262.262 0 01-.27.27zm35.268-3.402h1.359a.262.262 0 01.27.27v1.458c0 .486-.178.902-.535 1.247a1.813 1.813 0 01-1.31.517 1.81 1.81 0 01-1.305-.522 1.679 1.679 0 01-.54-1.251v-2.943c0-.48.181-.894.545-1.242a1.803 1.803 0 011.291-.522c.372 0 .702.094.99.284.288.188.496.401.626.638.128.237.193.461.193.671a.271.271 0 01-.072.194.248.248 0 01-.189.076h-.54c-.162 0-.258-.09-.288-.27a.733.733 0 00-.22-.383.663.663 0 00-.491-.184.74.74 0 00-.518.203.632.632 0 00-.22.481v3.051c0 .186.073.348.22.486.147.138.32.207.518.207a.829.829 0 00.526-.198.61.61 0 00.248-.495l.009-.756h-.567a.217.217 0 01-.153-.058.205.205 0 01-.063-.158v-.585c0-.06.021-.111.063-.153a.208.208 0 01.153-.063zm5.778-.216v-1.206a.4.4 0 00-.13-.297.432.432 0 00-.311-.126h-.81v2.052h.81c.12 0 .224-.042.31-.126a.4.4 0 00.131-.297zm.396 1.251l.855 2.052c.024.06.036.102.036.126 0 .126-.081.189-.243.189h-.54c-.21 0-.348-.087-.414-.261l-.756-1.881h-.585v1.872a.262.262 0 01-.27.27h-.531a.262.262 0 01-.27-.27v-5.76a.262.262 0 01.27-.27h1.629c.426 0 .786.147 1.08.441.294.294.441.654.441 1.08v1.125c0 .258-.063.502-.189.733a1.493 1.493 0 01-.513.554zM87.221 78H84.35a.262.262 0 01-.27-.27v-5.76a.262.262 0 01.27-.27h2.808a.262.262 0 01.27.27v.513a.262.262 0 01-.27.27h-2.007v1.44h1.809a.262.262 0 01.27.27v.504a.262.262 0 01-.27.27h-1.809v1.71h2.07a.262.262 0 01.27.27v.513a.262.262 0 01-.27.27zm4.113-3.402h1.359a.262.262 0 01.27.27v1.458c0 .486-.178.902-.535 1.247a1.813 1.813 0 01-1.31.517 1.81 1.81 0 01-1.305-.522 1.679 1.679 0 01-.54-1.251v-2.943c0-.48.181-.894.544-1.242a1.803 1.803 0 011.292-.522c.372 0 .702.094.99.284.288.188.496.401.626.638.129.237.193.461.193.671a.271.271 0 01-.072.194.248.248 0 01-.189.076h-.54c-.162 0-.258-.09-.288-.27a.733.733 0 00-.22-.383.663.663 0 00-.491-.184.74.74 0 00-.517.203.632.632 0 00-.221.481v3.051a.65.65 0 00.22.486c.148.138.32.207.518.207a.829.829 0 00.526-.198.61.61 0 00.248-.495l.009-.756h-.567a.217.217 0 01-.153-.058.205.205 0 01-.063-.158v-.585c0-.06.021-.111.063-.153a.208.208 0 01.153-.063zm12.186-2.628v4.374c0 .48-.177.89-.531 1.229a1.77 1.77 0 01-1.269.508c-.504 0-.928-.168-1.273-.504a1.655 1.655 0 01-.518-1.233v-.216a.262.262 0 01.27-.27h.522a.262.262 0 01.27.27v.225c0 .198.072.368.216.509a.708.708 0 00.513.211c.204 0 .374-.07.508-.211a.72.72 0 00.203-.518v-3.6h-1.971a.208.208 0 01-.153-.063.208.208 0 01-.063-.153v-.612c0-.06.021-.111.063-.153a.208.208 0 01.153-.063h2.79a.262.262 0 01.27.27zm5.643 1.404v2.952c0 .486-.178.902-.535 1.247-.358.345-.8.517-1.328.517s-.972-.174-1.332-.522a1.679 1.679 0 01-.54-1.251v-2.943c0-.486.18-.901.54-1.246.36-.346.804-.518 1.332-.518s.97.172 1.328.517c.356.346.535.761.535 1.247zm-1.071 3.006v-3.06a.63.63 0 00-.234-.486.814.814 0 00-.558-.207.814.814 0 00-.558.207.63.63 0 00-.234.486v3.051c0 .186.078.35.234.49a.804.804 0 00.558.212.814.814 0 00.558-.207.63.63 0 00.234-.486zm6.426-4.41v5.76a.262.262 0 01-.27.27h-.531a.262.262 0 01-.27-.27v-2.493h-1.494v2.493a.262.262 0 01-.27.27h-.531a.262.262 0 01-.27-.27v-5.76a.262.262 0 01.27-.27h.531a.262.262 0 01.27.27v2.196h1.494V71.97a.262.262 0 01.27-.27h.531a.262.262 0 01.27.27zm1.755 5.76v-5.76c0-.078.027-.142.081-.194a.278.278 0 01.198-.076h.531c.204 0 .342.09.414.27l1.062 2.745.351 1.134h.054l-.063-1.17V71.97a.262.262 0 01.27-.27h.486a.262.262 0 01.27.27v5.76a.255.255 0 01-.081.194.278.278 0 01-.198.076h-.531c-.204 0-.342-.09-.414-.27l-1.053-2.709-.36-1.161h-.054l.063 1.17v2.7a.262.262 0 01-.27.27h-.486a.262.262 0 01-.27-.27zm7.236-5.094a.673.673 0 00-.481.194.609.609 0 00-.203.454c0 .186.087.355.261.508a3.2 3.2 0 00.63.424c.246.129.494.274.743.436.248.162.46.385.634.67.174.285.261.62.261 1.004 0 .48-.18.894-.54 1.242a1.81 1.81 0 01-1.305.522 1.81 1.81 0 01-1.305-.522 1.689 1.689 0 01-.54-1.26.262.262 0 01.27-.27h.522a.262.262 0 01.27.27c0 .24.08.426.239.558.159.132.34.198.544.198.21 0 .384-.069.522-.207a.646.646 0 00.207-.468.845.845 0 00-.257-.612 2.404 2.404 0 00-.625-.45 12.933 12.933 0 01-.738-.41 1.93 1.93 0 01-.625-.612c-.171-.26-.257-.574-.257-.94 0-.498.172-.915.517-1.251a1.733 1.733 0 011.256-.504c.54 0 .963.177 1.269.531.306.354.459.708.459 1.062a.271.271 0 01-.072.194.248.248 0 01-.189.076h-.54c-.15 0-.246-.09-.288-.27a.905.905 0 00-.22-.387.546.546 0 00-.419-.18zm7.254.738v2.952c0 .486-.179.902-.536 1.247-.357.345-.799.517-1.327.517-.528 0-.972-.174-1.332-.522a1.679 1.679 0 01-.54-1.251v-2.943c0-.486.18-.901.54-1.246.36-.346.804-.518 1.332-.518s.97.172 1.327.517c.357.346.536.761.536 1.247zm-1.071 3.006v-3.06a.63.63 0 00-.234-.486.814.814 0 00-.558-.207.814.814 0 00-.558.207.63.63 0 00-.234.486v3.051c0 .186.078.35.234.49a.804.804 0 00.558.212.814.814 0 00.558-.207.63.63 0 00.234-.486zm2.781 1.35v-5.76c0-.078.027-.142.081-.194a.278.278 0 01.198-.076h.531c.204 0 .342.09.414.27l1.062 2.745.351 1.134h.054l-.063-1.17V71.97a.262.262 0 01.27-.27h.486a.262.262 0 01.27.27v5.76a.255.255 0 01-.081.194.278.278 0 01-.198.076h-.531c-.204 0-.342-.09-.414-.27l-1.053-2.709-.36-1.161h-.054l.063 1.17v2.7a.262.262 0 01-.27.27h-.486a.262.262 0 01-.27-.27z"/><path fill="#FFF" d="M80.967 22.975V13h11.556l1.24 1.477L95.044 13h41.948v9.975s-1.097-.01-2.366 0h-23.227L110 21.403v1.572h-4.581v-2.684s-.626.375-1.979.375h-1.559v2.31h-6.936l-1.238-1.51-1.257 1.51H80.967zm-67.933.018l4.588-9.975h4.435l1.456 3.11v-3.11h5.513l.866 2.248.84-2.248h24.75v1.13s1.3-1.13 3.439-1.13l8.03.026 1.43 3.07v-3.096h4.614l1.27 1.763v-1.763h4.656v9.975h-4.656l-1.217-1.77v1.77h-6.779l-.682-1.573h-1.822l-.67 1.573h-4.598c-1.84 0-3.016-1.107-3.016-1.107v1.107h-6.93l-1.377-1.573v1.573H21.4l-.681-1.573h-1.817l-.676 1.573h-5.192z"/><path fill="#4C454D" fill-rule="nonzero" d="M18.53 14.247l-3.46 7.47h2.253l.638-1.496h3.71l.635 1.495h2.302l-3.456-7.469H18.53zm1.28 1.739l1.13 2.613h-2.265l1.135-2.613z"/><path fill="#4C454D" d="M24.846 21.715v-7.469l3.2.011 1.862 4.816 1.816-4.827h3.175v7.469h-2.011v-5.503l-2.131 5.503h-1.763l-2.137-5.503v5.503zm11.429 0v-7.469h6.561v1.671h-4.529v1.277h4.423v1.573h-4.423v1.327h4.529v1.621z"/><path fill="#4C454D" fill-rule="nonzero" d="M44 14.247v7.47h2.01v-2.654h.847l2.41 2.653h2.458l-2.646-2.751c1.086-.085 2.206-.95 2.206-2.294 0-1.572-1.328-2.424-2.811-2.424H44zm2.01 1.671h2.299c.551 0 .952.4.952.786 0 .497-.52.787-.923.787H46.01v-1.573z"/><path fill="#4C454D" d="M54.159 21.715h-2.053v-7.469h2.053zm4.867 0h-.443c-2.144 0-3.445-1.569-3.445-3.704 0-2.187 1.287-3.765 3.994-3.765h2.223v1.77H59.05c-1.1 0-1.876.796-1.876 2.014 0 1.446.888 2.054 2.169 2.054h.529l-.847 1.631z"/><path fill="#4C454D" fill-rule="nonzero" d="M63.402 14.247l-3.46 7.47h2.252l.639-1.496h3.71l.635 1.495h2.302l-3.456-7.469h-2.622zm1.28 1.739l1.13 2.613h-2.265l1.134-2.613z"/><path fill="#4C454D" d="M69.714 21.715v-7.469h2.557l3.264 4.693v-4.693h2.01v7.469h-2.473L71.725 16.9v4.815zm12.693-.036V14.21h6.561v1.671h-4.529v1.278h4.423v1.572h-4.423v1.327h4.529v1.621zm32.097 0V14.21h6.561v1.671h-4.529v1.278h4.402v1.572h-4.402v1.327h4.529v1.621zm-25.3 0l3.195-3.688-3.271-3.781h2.533l1.948 2.337 1.955-2.337h2.434l-3.228 3.735 3.2 3.734h-2.532l-1.892-2.3-1.845 2.3z"/><path fill="#4C454D" fill-rule="nonzero" d="M98.181 14.21v7.47h2.064v-2.36h2.116c1.791 0 3.149-.882 3.149-2.598 0-1.421-1.065-2.512-2.887-2.512H98.18zm2.064 1.69h2.229c.578 0 .992.329.992.86 0 .498-.412.86-.999.86h-2.222V15.9zm6.167-1.69v7.47h2.01v-2.654h.847l2.41 2.653h2.457l-2.645-2.752c1.086-.085 2.206-.95 2.206-2.294 0-1.571-1.329-2.423-2.811-2.423h-4.474zm2.01 1.67h2.298c.552 0 .953.401.953.787 0 .496-.52.786-.923.786h-2.328v-1.572z"/><path fill="#4C454D" d="M122.03 21.68v-1.622h4.024c.595 0 .853-.3.853-.627 0-.314-.257-.631-.853-.631h-1.819c-1.58 0-2.46-.895-2.46-2.237 0-1.198.805-2.353 3.154-2.353h3.916l-.847 1.68h-3.386c-.648 0-.847.316-.847.617 0 .31.246.652.74.652h1.906c1.762 0 2.526.928 2.526 2.143 0 1.307-.852 2.377-2.622 2.377h-4.285zm7.338 0v-1.622h4.024c.595 0 .853-.3.853-.627 0-.314-.257-.631-.853-.631h-1.818c-1.58 0-2.461-.895-2.461-2.237 0-1.198.806-2.353 3.155-2.353h3.915l-.847 1.68h-3.386c-.647 0-.846.316-.846.617 0 .31.246.652.74.652h1.905c1.762 0 2.527.928 2.527 2.143 0 1.307-.852 2.377-2.623 2.377h-4.285z"/><g fill-rule="nonzero"><use fill="#000" filter="url(#f)" xlink:href="#g"/><circle cx="126" cy="33" r="16" fill="#FFF" fill-opacity=".4" fill-rule="evenodd" stroke="#FFBF3D" stroke-linejoin="square" stroke-width="4"/></g><use fill="#FFF" xlink:href="#h"/><use fill="#4C454D" xlink:href="#h"/></g></g></svg>