<svg width="297" height="207" xmlns="http://www.w3.org/2000/svg"><g fill="none"><g opacity=".8"><path d="M293.297 180.944h-30v-22.333c0-4.846-3.107-8.94-7.406-10.482V140h-7.407v8.13c-4.303 1.54-7.406 5.635-7.406 10.481v22.333h-7.406v-22.333c0-4.846-3.107-8.94-7.406-10.482V140h-7.407v8.13c-4.303 1.54-7.406 5.635-7.406 10.481v22.333h-7.406v-22.333c0-4.846-3.107-8.94-7.406-10.482V140h-7.407v8.13c-4.303 1.54-7.406 5.635-7.406 10.481v22.333h-7.406v-22.333c0-4.846-3.107-8.94-7.406-10.482V140h-7.407v8.13c-4.303 1.54-7.406 5.635-7.406 10.481v22.333h-7.406v-26.056c0-2.054-1.66-3.721-3.703-3.721H37.406c-2.044 0-3.703 1.667-3.703 3.722v26.055h-30c-2.044 0-3.703 1.668-3.703 3.723v14.889c0 2.054 1.659 3.722 3.703 3.722h41.11V207h7.406v-3.722H244.78V207h7.406v-3.722h41.11c2.044 0 3.703-1.668 3.703-3.722v-14.89c0-2.054-1.659-3.722-3.703-3.722zm-44.813-22.333c0-2.05 1.663-3.722 3.703-3.722s3.704 1.671 3.704 3.722v22.333h-7.407v-22.333zm-29.625 0c0-2.05 1.663-3.722 3.703-3.722s3.704 1.671 3.704 3.722v22.333h-7.407v-22.333zm-29.625 0c0-2.05 1.663-3.722 3.703-3.722s3.704 1.671 3.704 3.722v22.333h-7.407v-22.333zm-29.625 0c0-2.05 1.663-3.722 3.703-3.722s3.704 1.671 3.704 3.722v22.333h-7.407v-22.333zm-66.656 22.333V173.5h18.516v7.444H92.953zm-25.922 0V173.5h18.516v7.444H67.03zm51.844-7.444h18.516v7.444h-18.516V173.5zm18.516-7.444h-18.516v-7.445h18.516v7.445zm-25.922 0H92.953v-7.445h18.516v7.445zm-25.922 0H67.03v-7.445h18.516v7.445zm-44.438-7.445h18.516v7.445H41.109v-7.445zm0 14.889h18.516v7.444H41.109V173.5zM290 195.833H7v-7.444h283v7.444z" fill="#E2E5E7"/><path d="M293.297 111.765h-33.703v-18.53a3.71 3.71 0 00-1.089-2.623l-2.614-2.617v-13.29A3.706 3.706 0 00252.188 71h-14.813a3.706 3.706 0 00-3.703 3.706v13.29l-2.618 2.616a3.7 3.7 0 00-1.085 2.623v18.53h-7.406v-18.53a3.71 3.71 0 00-1.09-2.623l-2.614-2.617v-13.29A3.706 3.706 0 00215.156 71h-14.812a3.706 3.706 0 00-3.703 3.706v13.29l-2.618 2.616a3.7 3.7 0 00-1.085 2.623v18.53h-7.407v-18.53a3.71 3.71 0 00-1.088-2.623l-2.615-2.617v-13.29A3.706 3.706 0 00178.125 71h-14.813a3.706 3.706 0 00-3.703 3.706v13.29l-2.618 2.616a3.7 3.7 0 00-1.085 2.623v18.53h-29.625V96.94c0-4.087-3.321-7.412-7.406-7.412V74.706h-7.406v14.823c-1.356 0-2.611.393-3.703 1.03-1.093-.637-2.348-1.03-3.704-1.03V74.706h-7.406v14.823c-1.355 0-2.61.393-3.703 1.03-1.092-.637-2.348-1.03-3.703-1.03V74.706h-7.406v14.823c-1.356 0-2.611.393-3.703 1.03-1.093-.637-2.348-1.03-3.704-1.03V74.706h-7.406v14.823c-4.084 0-7.406 3.325-7.406 7.412v14.824H3.703A3.706 3.706 0 000 115.47v14.823A3.706 3.706 0 003.703 134h289.594a3.706 3.706 0 003.703-3.706v-14.823a3.706 3.706 0 00-3.703-3.706zM237.375 94.77l2.614-2.617a3.703 3.703 0 001.09-2.624V78.412h7.405v11.117c0 .986.39 1.927 1.085 2.624l2.619 2.617v16.995h-14.813V94.77zm-37.031 0l2.614-2.617a3.703 3.703 0 001.089-2.624V78.412h7.406v11.117c0 .986.389 1.927 1.085 2.624l2.618 2.617v16.995h-14.812V94.77zm-37.031 0l2.614-2.617a3.703 3.703 0 001.089-2.624V78.412h7.406v11.117c0 .986.389 1.927 1.085 2.624l2.618 2.617v16.995h-14.813V94.77zm-44.438 2.171v14.824h-7.406V96.94h7.406zm-14.813 0v14.824h-7.406V96.94h7.406zm-14.812 0v14.824h-7.406V96.94h7.406zm-22.219 0h7.406v14.824h-7.406V96.94zm222.563 29.647H7v-7.412h282.594v7.412z" fill="#DDDFE2"/><path d="M293.297 40.765H255.89V3.705A3.706 3.706 0 00252.188 0H196.64a3.706 3.706 0 00-3.703 3.706v37.059h-25.922V14.824a3.706 3.706 0 00-3.703-3.706H52.218a3.706 3.706 0 00-3.703 3.706v25.94H3.703A3.706 3.706 0 000 44.472v14.823A3.706 3.706 0 003.703 63h289.594A3.706 3.706 0 00297 59.294V44.471a3.706 3.706 0 00-3.703-3.706zm-44.813 0h-11.109V7.412h11.11v33.353zm-18.515 0h-11.11V7.412h11.11v33.353zM200.344 7.412h11.11v33.353h-11.11V7.412zm-40.735 33.353h-14.812V18.529h14.812v22.236zm-22.218 0h-14.813V18.529h14.813v22.236zm-22.22 0H100.36V18.529h14.813v22.236zm-22.218 0H78.141V18.529h14.812v22.236zM55.922 18.529h14.812v22.236H55.922V18.529zM290 56.054H7V47.71h283v8.343z" fill="#E2E5E7"/></g><g transform="translate(108 54)"><circle fill="#FFF" cx="43" cy="44" r="39"/><path d="M54.941 56.7c-.416.4-1.092.4-1.508 0l-21.12-20.308a.998.998 0 010-1.45l2.746-2.642c.416-.4 1.092-.4 1.508 0l21.12 20.308a.998.998 0 010 1.45L54.942 56.7z" fill="#4B658A"/><path d="M32.312 54.059a.998.998 0 010-1.45L53.432 32.3a1.1 1.1 0 011.51 0l2.746 2.641a.998.998 0 010 1.45L36.568 56.7a1.1 1.1 0 01-1.51 0l-2.746-2.641z" fill="#4B658A"/><path d="M45.154.005a44.499 44.499 0 00-32.12 75.96A44.499 44.499 0 0089 44.5 44.499 44.499 0 0045.154.005zm-.099 6.665A37.832 37.832 0 0182.337 44.5 37.835 37.835 0 1145.055 6.67z" fill="#4B658A"/><path fill="#4B658A" d="M68.019 75.59l7.071-7.071 38.891 38.89-7.071 7.072z"/><rect fill="#4B658A" transform="rotate(-45 110.5 109.5)" x="99" y="83" width="23" height="53" rx="3"/></g></g></svg>