<svg width="70" height="61" xmlns="http://www.w3.org/2000/svg"><g fill="none" fill-rule="evenodd"><path d="M64.918 40.3c2.043 3.783 1.937 8.487-.303 12.115-2.057 3.362-5.648 5.44-9.566 5.44H14.89c-3.895 0-7.514-2.087-9.566-5.442-2.195-3.596-2.297-7.972-.426-11.835l.064-.133L23.606 9.996l.08-.124c1.286-1.885 2.649-3.394 4.281-4.605C30.068 3.782 32.397 3 34.986 3c2.6 0 4.94.79 7.017 2.289 1.611 1.17 2.981 2.676 4.283 4.583l.08.124 18.47 30.164.082.14z" stroke="#FFF" stroke-width="6"/><g fill="#FFF" fill-rule="nonzero"><path d="M42.614 43.855a.754.754 0 01-1.036 0l-14.5-13.915a.683.683 0 010-.994l1.886-1.81a.754.754 0 011.036 0l14.5 13.916a.683.683 0 010 .994l-1.886 1.81z"/><path d="M27.414 42.308a.75.75 0 010-1.034l13.942-14.472a.686.686 0 01.996 0l1.813 1.882a.75.75 0 010 1.034L30.222 44.19a.686.686 0 01-.995 0l-1.813-1.882z"/></g></g></svg>