<svg width="37" height="37" xmlns="http://www.w3.org/2000/svg"><path d="M18.5 37C8.299 37 0 28.701 0 18.5S8.299 0 18.5 0c5.639 0 10.9 2.524 14.433 6.926a1.32 1.32 0 01-.096 1.761L16.791 24.72a1.32 1.32 0 01-1.868 0l-6.607-6.607a1.32 1.32 0 010-1.869 1.32 1.32 0 011.868 0l5.673 5.673L30.1 7.687a15.786 15.786 0 00-11.6-5.044C9.756 2.643 2.643 9.756 2.643 18.5S9.756 34.357 18.5 34.357 34.357 27.244 34.357 18.5c0-1.665-.256-3.304-.761-4.87a1.321 1.321 0 112.515-.81c.589 1.827.889 3.738.889 5.68C37 28.701 28.701 37 18.5 37z" fill="#FFF"/></svg>