<svg width="100" height="100" xmlns="http://www.w3.org/2000/svg"><path d="M50 100C22.429 100 0 77.571 0 50S22.429 0 50 0c15.24 0 29.457 6.821 39.007 18.718a3.567 3.567 0 01-.257 4.76L45.382 66.812a3.567 3.567 0 01-5.05 0L22.475 48.954a3.567 3.567 0 010-5.05 3.567 3.567 0 015.05 0l15.332 15.332L81.35 20.775C73.25 12.075 61.99 7.143 50 7.143 26.368 7.143 7.143 26.368 7.143 50c0 23.632 19.225 42.857 42.857 42.857 23.632 0 42.857-19.225 42.857-42.857 0-4.5-.693-8.929-2.057-13.16a3.57 3.57 0 012.3-4.497 3.566 3.566 0 014.496 2.303A49.943 49.943 0 01100 50c0 27.571-22.429 50-50 50z" fill="#FFF"/></svg>