<svg width="26" height="24" xmlns="http://www.w3.org/2000/svg"><g fill="none" fill-rule="evenodd"><path d="M10.552 22.483a5.574 5.574 0 014.896 0 1.31 1.31 0 001.734-.563 5.574 5.574 0 013.96-2.877 1.311 1.311 0 001.072-1.475 5.574 5.574 0 011.513-4.656 1.311 1.311 0 000-1.824 5.574 5.574 0 01-1.513-4.656 1.311 1.311 0 00-1.072-1.475 5.574 5.574 0 01-3.96-2.877 1.311 1.311 0 00-1.734-.563 5.574 5.574 0 01-4.896 0 1.311 1.311 0 00-1.734.563 5.574 5.574 0 01-3.96 2.877 1.311 1.311 0 00-1.072 1.475 5.574 5.574 0 01-1.513 4.656 1.311 1.311 0 000 1.824 5.574 5.574 0 011.513 4.656c-.099.7.375 1.352 1.072 1.475a5.574 5.574 0 013.96 2.877 1.311 1.311 0 001.734.563z" stroke="#E4D454" stroke-width="2" fill="#E4D454"/><circle stroke="#4B658A" stroke-width="1.5" cx="10" cy="9" r="1.75"/><circle stroke="#4B658A" stroke-width="1.5" cx="16" cy="16" r="1.75"/><path d="M9.5 16.5l7-8" stroke="#4B658A" stroke-width="1.5" stroke-linecap="square"/></g></svg>