<svg width="60" height="28" xmlns="http://www.w3.org/2000/svg" xmlns:xlink="http://www.w3.org/1999/xlink"><defs><path d="M50.996 20.067c0 .595-.488 1.078-1.09 1.078h-2.73c-.597-1.848-2.32-3.197-4.372-3.197-2.047 0-3.766 1.341-4.368 3.181h-11.85a4.603 4.603 0 00-4.433-3.39 4.601 4.601 0 00-4.437 3.406h-3.167c-.6 0-1.088-.483-1.088-1.078v-3.93h25.065a.6.6 0 00.6-.6V4.705h6.188c.59 0 1.142.34 1.402.867 3.134 6.327 4.263 9.134 4.28 9.613v4.882zm-8.192 5.86c-1.882 0-3.413-1.52-3.413-3.39 0-1.868 1.53-3.39 3.413-3.39 1.88 0 3.413 1.522 3.413 3.39 0 1.87-1.532 3.39-3.413 3.39zm-20.651-.207c-1.882 0-3.413-1.521-3.413-3.39 0-1.87 1.53-3.391 3.413-3.391 1.882 0 3.413 1.521 3.413 3.39 0 1.87-1.531 3.39-3.413 3.39zM13.46 2.317c0-.608.497-1.103 1.109-1.103L36.83 1.2h.002a1.104 1.104 0 011.109 1.1v1.806c0 .006.004.011.004.019-.005.03-.018.059-.018.09v10.723H13.46V2.316zM47.79 5.04c2.923 5.9 4.404 9.314 4.404 10.145v4.882a2.285 2.285 0 01-2.288 2.277h-2.511c.003.066.02.127.02.194 0 2.53-2.07 4.59-4.612 4.59-2.543 0-4.613-2.06-4.613-4.59 0-.073.018-.139.022-.209H26.766c0 2.531-2.07 4.59-4.613 4.59-2.538 0-4.601-2.05-4.61-4.575h-2.994a2.285 2.285 0 01-2.288-2.277V2.317A2.308 2.308 0 0114.57.015L36.83.001h.002c.618 0 1.198.238 1.635.675a2.28 2.28 0 01.674 1.624v1.206h6.173a2.78 2.78 0 012.478 1.534zM9.988 7.817a.6.6 0 110 1.2H5.18a.6.6 0 110-1.2h4.808zm0 3.557a.6.6 0 110 1.2H.6a.599.599 0 110-1.2h9.387zm0 3.556a.6.6 0 010 1.2H.6a.599.599 0 110-1.2h9.387zm12.166 8.148a.753.753 0 01-.756-.749c0-.412.339-.748.756-.748s.756.336.756.748a.753.753 0 01-.756.75m0-2.697a1.953 1.953 0 00-1.955 1.947c0 1.074.877 1.948 1.955 1.948a1.954 1.954 0 001.955-1.948 1.953 1.953 0 00-1.955-1.947m20.65 2.904a.753.753 0 01-.756-.749c0-.412.34-.748.756-.748.417 0 .756.336.756.748a.753.753 0 01-.756.75m0-2.697c1.078 0 1.955.873 1.955 1.947a1.954 1.954 0 01-1.955 1.948 1.954 1.954 0 01-1.955-1.948c0-1.074.877-1.947 1.955-1.947zM9.987 18.486a.6.6 0 110 1.2H5.18a.6.6 0 110-1.2h4.808zm32.66-6.159V7.942h2.638c.09 0 .17.051.206.131l1.985 4.254h-4.829zm2.638-5.584h-3.238a.6.6 0 00-.599.6v5.584a.6.6 0 00.6.6h6.37a.598.598 0 00.544-.854L46.58 7.567a1.431 1.431 0 00-1.295-.824z" id="a"/></defs><g transform="translate(4 1)" fill="none" fill-rule="evenodd"><mask id="b" fill="#fff"><use xlink:href="#a"/></mask><use fill="#FFF" xlink:href="#a"/><g mask="url(#b)" fill="#4B658A"><path d="M-4-1h60v28H-4z"/></g></g></svg>