<svg width="18" height="18" xmlns="http://www.w3.org/2000/svg"><path d="M17.154 3.365c.381.39.586.899.586 1.446a2.04 2.04 0 01-.586 1.435L15.27 8.121l-5.08-5.088 1.875-1.875c.381-.38.899-.595 1.436-.595.547 0 1.055.214 1.435.595l2.217 2.207zm-1.103 1.768a.434.434 0 00.127-.322.457.457 0 00-.127-.332l-2.217-2.217a.465.465 0 00-.332-.137.465.465 0 00-.332.137l-.772.771 2.872 2.881.78-.781zm-8.74 8.74l5.976-5.977L14.391 9l-6.24 6.24-7.667 2.578 2.588-7.656 6.23-6.24 1.104 1.103-5.976 5.977-1.084 3.223.742.732 3.223-1.084zm-1.7-1.172a.755.755 0 01-.234-.547c0-.205.078-.4.234-.556l5.684-5.684 1.103 1.104L6.715 12.7a.776.776 0 01-.557.235.755.755 0 01-.547-.235z" fill="#C0BDBC" fill-rule="evenodd"/></svg>