<svg width="120" height="36" xmlns="http://www.w3.org/2000/svg"><defs><linearGradient x1="90.769%" y1="4.84%" x2="-38.331%" y2="71.968%" id="a"><stop stop-color="#00A0FF" offset="0%"/><stop stop-color="#00A1FF" offset=".7%"/><stop stop-color="#00BEFF" offset="26%"/><stop stop-color="#00D2FF" offset="51.2%"/><stop stop-color="#00DFFF" offset="76%"/><stop stop-color="#00E3FF" offset="100%"/></linearGradient><linearGradient x1="107.724%" y1="49.424%" x2="-130.67%" y2="49.424%" id="b"><stop stop-color="#FFE000" offset="0%"/><stop stop-color="#FFBD00" offset="40.9%"/><stop stop-color="orange" offset="77.5%"/><stop stop-color="#FF9C00" offset="100%"/></linearGradient><linearGradient x1="86.389%" y1="17.814%" x2="-49.886%" y2="194.39%" id="c"><stop stop-color="#FF3A44" offset="0%"/><stop stop-color="#C31162" offset="100%"/></linearGradient><linearGradient x1="-18.581%" y1="-54.528%" x2="42.275%" y2="24.692%" id="d"><stop stop-color="#32A071" offset="0%"/><stop stop-color="#2DA771" offset="6.9%"/><stop stop-color="#15CF74" offset="47.6%"/><stop stop-color="#06E775" offset="80.1%"/><stop stop-color="#00F076" offset="100%"/></linearGradient></defs><g fill="none"><path d="M115.556 35.556H4.444A4.401 4.401 0 010 31.11V4.444A4.401 4.401 0 014.444 0h111.112A4.401 4.401 0 01120 4.444v26.667a4.401 4.401 0 01-4.444 4.445z" fill="#FFF"/><path d="M115.556.711c2.044 0 3.733 1.689 3.733 3.733v26.667c0 2.045-1.689 3.733-3.733 3.733H4.444c-2.044 0-3.733-1.688-3.733-3.733V4.444C.711 2.4 2.4.711 4.444.711h111.112zm0-.711H4.444C1.956 0 0 2.044 0 4.444v26.667a4.401 4.401 0 004.444 4.445h111.112A4.401 4.401 0 00120 31.11V4.444c0-2.4-1.956-4.444-4.444-4.444z" fill="#FFF"/><path d="M42.133 9.067c0 .71-.177 1.333-.622 1.777-.533.534-1.155.8-1.955.8s-1.423-.266-1.956-.8c-.533-.533-.8-1.155-.8-1.955s.267-1.422.8-1.956c.533-.533 1.156-.8 1.956-.8.355 0 .71.09 1.066.267.356.178.622.356.8.622l-.444.445c-.356-.445-.8-.623-1.422-.623-.534 0-1.067.178-1.423.623-.444.355-.622.889-.622 1.51 0 .623.178 1.156.622 1.512.445.355.89.622 1.423.622.622 0 1.066-.178 1.51-.622.267-.267.445-.622.445-1.067h-1.955v-.71h2.577v.355zm4.09-2.223h-2.4v1.69h2.221v.622h-2.222v1.688h2.4v.712h-3.11V6.222h3.11v.622zm2.933 4.712h-.712V6.844h-1.51v-.622h3.733v.622h-1.511v4.712zm4.088 0V6.222h.712v5.334h-.712zm3.734 0h-.711V6.844h-1.511v-.622H58.4v.622h-1.511v4.712h.089zm8.444-.712c-.533.534-1.155.8-1.955.8s-1.423-.266-1.956-.8c-.533-.533-.8-1.155-.8-1.955s.267-1.422.8-1.956c.533-.533 1.156-.8 1.956-.8s1.422.267 1.955.8c.534.534.8 1.156.8 1.956s-.266 1.422-.8 1.955zm-3.378-.444c.356.356.89.622 1.423.622s1.066-.178 1.422-.622c.355-.356.622-.889.622-1.511 0-.622-.178-1.156-.622-1.511-.356-.356-.889-.622-1.422-.622-.534 0-1.067.177-1.423.622a2.144 2.144 0 00-.622 1.51c0 .623.178 1.156.622 1.512zm5.156 1.156V6.222h.8l2.578 4.178V6.222h.71v5.334h-.71L67.822 7.2v4.356H67.2z" stroke="#A6A6A6" stroke-width=".2" fill="#A6A6A6"/><path d="M60.533 19.378c-2.133 0-3.822 1.6-3.822 3.822a3.794 3.794 0 003.822 3.822c2.134 0 3.823-1.6 3.823-3.822 0-2.311-1.69-3.822-3.823-3.822zm0 6.044c-1.155 0-2.133-.978-2.133-2.31 0-1.334.978-2.312 2.133-2.312 1.156 0 2.134.889 2.134 2.311 0 1.333-.978 2.311-2.134 2.311zm-8.266-6.044c-2.134 0-3.823 1.6-3.823 3.822a3.794 3.794 0 003.823 3.822c2.133 0 3.822-1.6 3.822-3.822 0-2.311-1.689-3.822-3.822-3.822zm0 6.044c-1.156 0-2.134-.978-2.134-2.31 0-1.334.978-2.312 2.134-2.312 1.155 0 2.133.889 2.133 2.311 0 1.333-.978 2.311-2.133 2.311zM42.4 20.533v1.6h3.822c-.089.89-.444 1.6-.889 2.045-.533.533-1.422 1.155-2.933 1.155-2.4 0-4.178-1.866-4.178-4.266S40.09 16.8 42.4 16.8c1.244 0 2.222.533 2.933 1.156L46.49 16.8c-.978-.889-2.222-1.6-4-1.6-3.2 0-5.956 2.667-5.956 5.867s2.756 5.866 5.956 5.866c1.778 0 3.022-.533 4.089-1.689C47.644 24.178 48 22.667 48 21.511c0-.355 0-.711-.089-.978H42.4zm40.356 1.245c-.356-.89-1.245-2.4-3.2-2.4C77.6 19.378 76 20.888 76 23.2c0 2.133 1.6 3.822 3.733 3.822 1.69 0 2.756-1.066 3.111-1.689l-1.244-.889c-.444.623-.978 1.067-1.867 1.067s-1.422-.355-1.866-1.155l5.066-2.134-.177-.444zM77.6 23.022c0-1.422 1.156-2.222 1.956-2.222.622 0 1.244.356 1.422.8L77.6 23.022zm-4.178 3.645h1.69V15.556h-1.69v11.11zm-2.666-6.49c-.445-.444-1.156-.888-2.045-.888-1.867 0-3.644 1.689-3.644 3.822s1.689 3.733 3.644 3.733c.889 0 1.6-.444 1.956-.888h.089v.533c0 1.422-.8 2.222-2.045 2.222-.978 0-1.689-.711-1.867-1.333L65.422 28c.445.978 1.511 2.222 3.378 2.222 1.956 0 3.556-1.155 3.556-3.91v-6.756h-1.6v.622zM68.8 25.423c-1.156 0-2.133-.978-2.133-2.31 0-1.334.977-2.312 2.133-2.312 1.156 0 2.044.978 2.044 2.311s-.888 2.311-2.044 2.311zm21.689-9.866h-4v11.11h1.689V22.49h2.31c1.868 0 3.645-1.333 3.645-3.467 0-2.133-1.777-3.466-3.644-3.466zm.089 5.333h-2.4v-3.822h2.4c1.244 0 1.955 1.066 1.955 1.866-.089.978-.8 1.956-1.955 1.956zm10.222-1.6c-1.244 0-2.489.533-2.933 1.689l1.51.622c.356-.622.89-.8 1.512-.8.889 0 1.689.533 1.778 1.422v.09c-.267-.179-.978-.445-1.69-.445-1.6 0-3.2.889-3.2 2.489 0 1.51 1.334 2.488 2.756 2.488 1.156 0 1.69-.533 2.134-1.066h.089v.889h1.6V22.4c-.178-1.956-1.69-3.111-3.556-3.111zm-.178 6.133c-.533 0-1.333-.266-1.333-.978 0-.888.978-1.155 1.778-1.155.71 0 1.066.178 1.51.355-.177 1.067-1.066 1.778-1.955 1.778zm9.334-5.866l-1.867 4.8H108l-1.956-4.8h-1.777l2.933 6.755-1.689 3.733h1.689l4.533-10.488h-1.777zm-14.934 7.11h1.69v-11.11h-1.69v11.11z" fill="#A6A6A6"/><path d="M.356.444C.089.711 0 1.156 0 1.69v19.644c0 .534.178.978.444 1.245l.09.089 11.022-11.023v-.177L.356.444z" fill="url(#a)" transform="translate(8.889 6.222)"/><path d="M15.111 15.378l-3.644-3.645v-.266l3.644-3.645.089.09 4.356 2.488c1.244.711 1.244 1.867 0 2.578l-4.445 2.4z" fill="url(#b)" transform="translate(8.889 6.222)"/><path d="M15.2 15.289l-3.733-3.733L.356 22.666c.444.445 1.066.445 1.866.09L15.2 15.289" fill="url(#c)" transform="translate(8.889 6.222)"/><path d="M15.2 7.822L2.222.444C1.422 0 .8.09.356.534l11.11 11.022L15.2 7.822z" fill="url(#d)" transform="translate(8.889 6.222)"/><path d="M24 21.422l-12.889 7.29c-.711.444-1.333.355-1.778 0l-.089.088.09.089c.444.355 1.066.444 1.777 0L24 21.422z" fill="#000" opacity=".2"/><path d="M9.244 28.711c-.266-.267-.355-.711-.355-1.244v.089c0 .533.178.977.444 1.244v-.089h-.089zm19.2-9.778L24 21.423l.089.088 4.355-2.489c.623-.355.89-.8.89-1.244 0 .444-.356.8-.89 1.155z" fill="#000" opacity=".12"/><path d="M11.111 6.756l17.333 9.866c.534.356.89.711.89 1.156 0-.445-.267-.89-.89-1.245L11.111 6.667C9.867 5.956 8.89 6.489 8.89 7.91V8c0-1.333.978-1.956 2.222-1.244z" fill="#FFF" opacity=".25"/></g></svg>