<svg width="107" height="107" xmlns="http://www.w3.org/2000/svg"><g fill="none" fill-rule="evenodd"><path d="M107 53.5c0 3.435-4.413 6.392-5.055 9.64-.662 3.345 2.271 7.761.995 10.84-1.299 3.13-6.509 4.174-8.372 6.957-1.878 2.805-.86 8.015-3.238 10.393-2.378 2.379-7.588 1.36-10.393 3.238-2.783 1.863-3.826 7.073-6.958 8.372-3.078 1.276-7.494-1.657-10.84-.995-3.247.642-6.204 5.055-9.639 5.055-3.435 0-6.392-4.413-9.64-5.055-3.345-.662-7.761 2.271-10.84.995-3.13-1.299-4.174-6.509-6.957-8.372-2.805-1.878-8.015-.86-10.393-3.238-2.379-2.378-1.36-7.588-3.238-10.393-1.864-2.783-7.073-3.826-8.372-6.958-1.276-3.078 1.657-7.494.995-10.84C4.413 59.892 0 56.935 0 53.5c0-3.435 4.413-6.392 5.055-9.64.662-3.345-2.271-7.761-.995-10.84 1.299-3.13 6.509-4.174 8.372-6.957 1.878-2.805.86-8.015 3.238-10.393s7.588-1.36 10.393-3.238c2.783-1.864 3.826-7.073 6.958-8.372 3.078-1.276 7.494 1.657 10.84.995C47.108 4.413 50.065 0 53.5 0c3.435 0 6.392 4.413 9.64 5.055 3.345.662 7.761-2.271 10.84-.995 3.13 1.299 4.174 6.509 6.957 8.372 2.805 1.878 8.015.86 10.393 3.238 2.379 2.378 1.36 7.588 3.238 10.393 1.863 2.783 7.073 3.826 8.372 6.958 1.276 3.078-1.657 7.494-.995 10.84.642 3.247 5.055 6.204 5.055 9.639" fill="#1F583A"/><path d="M54.035 10.62c-23.939 0-43.415 19.476-43.415 43.415 0 23.94 19.476 43.415 43.415 43.415 23.94 0 43.415-19.476 43.415-43.415S77.974 10.62 54.035 10.62zm0 88.89C28.96 99.51 8.56 79.11 8.56 54.035 8.56 28.96 28.96 8.56 54.035 8.56c25.075 0 45.475 20.4 45.475 45.475 0 25.075-20.4 45.475-45.475 45.475z" fill="#FFFFFE"/><path d="M70.574 46.933c-3.959.451-6.135 7.124-6.31 7.683.091-.25.629-1.325 3.391-2.758 3.163-1.65 9.482 1.877 9.482 1.877-2.912 2.577-8.27 2.812-12.644 2.339-4.377-.475-4.137-9.845-4.377-17.106-.248-7.266-1.705-6.562-1.705-6.562s.244-3.29-2.912 11.714C52.333 59.116 35.31 62.864 35.31 62.864c9.488 1.413 16.294-3.042 18.72-7.727 2.436-4.69 4.13-14.535 4.13-14.535 0 14.069 1.222 17.58 4.873 19.22 3.648 1.649 10.702-.697 15.81-2.575 3.25-1.193 7.052-.7 7.052-.7l2.915-4.451s-4.139.227-7.049-.937c-2.918-1.175-7.05-4.691-11.187-4.226M39.099 56.27c.995-2.328-.745-14.926-.745-18.193 0-3.255 1.236-5.123 1.236-5.123-1.728-.936-2.962-5.134-2.962-5.134-.503 1.167-2.232 3.73-2.232 3.73s4.953 23.094 1.729 25.879c-3.215 2.796-9.658 3.272-13.37.946-3.72-2.336.242-9.803.242-9.803-2.231 2.564-3.963 5.598-3.713 8.857.246 3.272 2.723 6.527 8.669 6.764 5.941.235 10.15-5.592 11.146-7.922" fill="#FFFFFE"/><path d="M46.027 44.58c2.676 1.9 4.14 7.85 4.14 7.85C51.626 39.114 39.7 35.31 39.7 35.31s-.247.71 0 4.272c.24 3.578 3.642 3.096 6.327 4.998m-9.726 27.11v3.29h3.381v-3.29h2.048v8.56h-2.048v-3.582h-3.38v3.582H34.24v-8.56h2.061m11.746 4.915l-.584-1.816c-.167-.508-.334-1.143-.473-1.652h-.028c-.14.509-.279 1.156-.432 1.652l-.557 1.816h2.074zm-2.38 1.448l-.668 2.197H42.8l2.867-8.56h2.784l2.909 8.56h-2.283l-.724-2.197h-2.686zm6.763-6.363h1.944v6.934h3.406v1.626h-5.35v-8.56m11.667 4.915l-.584-1.816c-.167-.508-.335-1.143-.473-1.652h-.028c-.14.509-.279 1.156-.432 1.652l-.557 1.816h2.074zm-2.38 1.448l-.668 2.197H58.85l2.867-8.56h2.784l2.909 8.56h-2.283l-.723-2.197h-2.687zm6.763-6.363h1.944v6.934h3.406v1.626h-5.35v-8.56" fill="#FFFFFE"/></g></svg>