<svg width="14" height="14" xmlns="http://www.w3.org/2000/svg" xmlns:xlink="http://www.w3.org/1999/xlink"><defs><path d="M6.918 0c3.811 0 6.917 3.106 6.917 6.918a6.876 6.876 0 01-2.03 4.888 6.876 6.876 0 01-4.887 2.03C3.106 13.835 0 10.728 0 6.917c0-1.844.724-3.583 2.03-4.889A6.86 6.86 0 016.917 0zm3.935 10.853a5.533 5.533 0 001.623-3.935 5.558 5.558 0 00-5.558-5.56 5.533 5.533 0 00-3.936 1.624A5.533 5.533 0 001.36 6.918a5.558 5.558 0 005.559 5.558 5.518 5.518 0 003.935-1.623zM6.3 4.912V3.5h1.412v1.412H6.3zm0 5.588V5.6h1.4v4.9H6.3z" id="a"/></defs><use fill="#FFF" xlink:href="#a" fill-rule="evenodd"/></svg>