<svg width="97" height="46" xmlns="http://www.w3.org/2000/svg"><path d="M31.063 22.875a15.337 15.337 0 001.21-5.989c0-8.497-6.89-15.386-15.387-15.386S1.5 8.389 1.5 16.886c0 2.124.43 4.148 1.21 5.99 2.335 5.521 14.176 20.84 14.176 20.84s11.841-15.319 14.177-20.84zm-21.05-6.752a6.872 6.872 0 1113.744 0 6.872 6.872 0 01-13.743 0zm52.132 6.752a15.337 15.337 0 001.21-5.989c0-8.497-6.89-15.386-15.387-15.386S32.582 8.389 32.582 16.886c0 2.124.43 4.148 1.21 5.99 2.335 5.521 14.176 20.84 14.176 20.84s11.841-15.319 14.177-20.84zm-21.05-6.752a6.872 6.872 0 1113.744 0 6.872 6.872 0 01-13.743 0zm52.55 6.752a15.337 15.337 0 001.21-5.989c0-8.497-6.89-15.386-15.387-15.386S64.082 8.389 64.082 16.886c0 2.124.43 4.148 1.21 5.99 2.335 5.521 14.176 20.84 14.176 20.84s11.841-15.319 14.177-20.84zm-21.05-6.752a6.872 6.872 0 1113.744 0 6.872 6.872 0 01-13.743 0z" fill="none" stroke="#6F95CC" stroke-width="3"/></svg>