<svg width="19" height="27" xmlns="http://www.w3.org/2000/svg" xmlns:xlink="http://www.w3.org/1999/xlink"><defs><path d="M9.5 5.684c1.665 0 3.012 1.377 3.012 3.08 0 1.701-1.347 3.078-3.012 3.078s-3.012-1.377-3.012-3.079c0-1.702 1.347-3.079 3.012-3.079zM9.5 0C14.742 0 19 4.367 19 9.74c0 4.293-2.172 7.55-4.388 10.525-1.187 1.584-4.2 5.536-4.2 5.536L9.5 27l-.912-1.199s-3.013-3.952-4.2-5.536C2.172 17.289 0 14.033 0 9.74 0 4.367 4.258 0 9.5 0zm3.302 18.873c2.505-3.345 3.953-5.906 3.953-9.162 0-4.1-3.258-7.446-7.255-7.446S2.245 5.61 2.245 9.71c0 3.256 1.448 5.817 3.953 9.162A634.045 634.045 0 009.5 23.255c1-1.317 2.534-3.345 3.302-4.382z" id="a"/></defs><use fill="#C0BDBC" xlink:href="#a" fill-rule="evenodd"/></svg>