<svg width="20" height="22" xmlns="http://www.w3.org/2000/svg"><path d="M9.984 13.25A1.829 1.829 0 0111 16.602v1.523H8.969v-1.523a1.829 1.829 0 011.016-3.352zm6.704-4.05a2.643 2.643 0 012.437 2.628v7.313c0 1.46-1.18 2.64-2.64 2.64h-13a2.638 2.638 0 01-2.641-2.64v-7.313A2.643 2.643 0 013.28 9.2V7.36C3.281 3.664 6.29.655 9.984.655c3.695 0 6.704 3.009 6.704 6.703V9.2zm.406 9.94v-7.312c0-.33-.28-.61-.61-.61H6.937v-2.03h7.72V7.359a4.676 4.676 0 00-4.673-4.671 4.676 4.676 0 00-4.671 4.671v3.86H3.484a.618.618 0 00-.609.61v7.312c0 .33.28.609.61.609h13c.33 0 .609-.28.609-.61z" fill="#4C454D" fill-rule="evenodd"/></svg>