<svg width="81" height="58" xmlns:xlink="http://www.w3.org/1999/xlink" xmlns="http://www.w3.org/2000/svg"><defs><clipPath id="b"><use xlink:href="#a"/></clipPath><path d="M29.009.087a1.91 1.91 0 00-.466-.085 1.299 1.299 0 00-.552.085L.848 11.026A1.402 1.402 0 000 12.306v29.397c.003.538.353 1.058.848 1.26l27.143 10.939c.322.13.696.13 1.018 0l27.143-10.938c.495-.203.845-.723.848-1.261V12.307a1.403 1.403 0 00-.848-1.281L29.009.087zM28.5 2.843L5.026 12.307l8.61 3.46 22.159-9.976L28.5 2.843zm-9.564 15.061l22.88-9.7 10.158 4.103L28.5 21.75l-9.564-3.846zM2.714 40.763V14.315l9.5 3.824v10.575l5.429 2.05V20.34l9.5 3.824V50.59L2.714 40.763zm51.572-26.448l-24.429 9.849V50.59l24.429-9.827V14.315z" transform="translate(0 .752)" id="a"/></defs><path d="M22.9 14.942v26.923l25.536 11.539L77.9 43.788V14.942L50.4 3.404l-27.5 9.615v1.923z" fill="#FFF"/><path d="M51.91 2.491a1.91 1.91 0 00-.467-.085 1.299 1.299 0 00-.552.085L23.75 13.43a1.402 1.402 0 00-.848 1.281v29.396a1.4 1.4 0 00.848 1.261l27.14 10.937c.323.131.696.131 1.018 0l27.143-10.938a1.4 1.4 0 00.848-1.26V14.71a1.403 1.403 0 00-.848-1.28L51.91 2.49zm-.51 2.756L27.926 14.71l8.61 3.462 22.159-9.977L51.4 5.247zm-9.563 15.06l22.88-9.698 10.158 4.101L51.4 24.153l-9.563-3.845zm-16.222 22.86V16.718l9.5 3.824v10.574l5.428 2.051V22.744l9.5 3.823v26.427l-24.428-9.828zm51.571-26.448l-24.429 9.848v26.427l24.429-9.828V16.72z" fill-rule="evenodd"/><g clip-path="url(#b)" transform="translate(22.9 1.652)"><path d="M-13-4.248h86v64h-86v-64z" fill="#DDDFE2"/></g><path d="M2.4 16.9h13q.074 0 .147.007.074.007.146.022.072.014.142.036.071.02.139.05.068.027.133.062t.126.076q.061.04.118.087.057.047.11.099.051.052.098.109.047.057.088.118.04.061.075.126.035.065.063.133.028.068.05.139.021.07.036.143.014.072.021.145.007.073.007.147v.002q0 .074-.007.147t-.021.145q-.015.073-.036.143-.022.07-.05.139-.028.068-.063.133-.034.065-.075.126-.041.061-.088.118-.047.057-.099.109-.052.052-.109.099-.057.046-.118.087-.061.041-.126.076-.065.035-.133.063-.068.028-.139.05-.07.02-.142.035-.072.015-.146.022-.073.007-.147.007h-13q-.073 0-.147-.007-.073-.007-.145-.022-.072-.014-.143-.036-.07-.02-.138-.05-.068-.027-.133-.062t-.126-.076q-.062-.04-.119-.087-.056-.047-.109-.1-.052-.051-.098-.108-.047-.057-.088-.118-.04-.061-.076-.126-.034-.065-.063-.133-.028-.068-.05-.139-.02-.07-.035-.143-.014-.072-.021-.145Q.9 18.475.9 18.4v-.002q0-.074.008-.147.007-.073.021-.145.015-.073.036-.143.021-.07.05-.139.028-.068.062-.133.035-.065.076-.126.04-.061.088-.118.046-.057.098-.109.053-.052.11-.099.056-.046.118-.087.06-.041.126-.076.065-.035.133-.063.068-.028.138-.05.07-.02.143-.035.072-.015.145-.022.074-.007.147-.007zm3 11h10q.074 0 .147.007.074.007.146.022.072.014.142.036.071.02.139.05.068.027.133.062t.126.076q.061.04.118.087.057.047.11.099.051.052.098.109.047.057.088.118.04.061.075.126.035.065.063.133.028.068.05.139.021.07.036.143.014.072.021.145.007.073.007.147v.002q0 .074-.007.147t-.021.145q-.015.073-.036.143-.022.07-.05.139-.028.068-.063.133-.034.065-.075.126-.041.061-.088.118-.047.057-.099.109-.052.052-.109.099-.057.046-.118.087-.061.041-.126.076-.065.035-.133.063-.068.028-.139.05-.07.02-.142.035-.072.015-.146.022-.073.007-.147.007h-10q-.073 0-.147-.007-.073-.007-.145-.022-.072-.014-.143-.036-.07-.02-.138-.05-.068-.027-.133-.062t-.126-.076q-.062-.04-.119-.087-.056-.047-.109-.1-.052-.051-.098-.108-.047-.057-.088-.118-.04-.061-.076-.126-.034-.065-.063-.133-.028-.068-.05-.139-.02-.07-.035-.143-.014-.072-.021-.145-.008-.073-.008-.147v-.002q0-.074.008-.147.007-.073.021-.145.015-.073.036-.143.021-.07.05-.139.028-.068.062-.133.035-.065.076-.126.04-.061.088-.118.046-.057.098-.109.053-.052.11-.099.056-.046.118-.087.06-.041.126-.076.065-.035.133-.063.068-.028.138-.05.07-.02.143-.035.072-.015.145-.022.074-.007.147-.007zm3 11h7q.074 0 .147.007.074.007.146.022.072.014.143.036.07.02.138.05.068.027.133.062t.126.076q.061.04.118.087.057.047.11.099.051.052.098.109.047.057.088.118.04.061.075.126.035.065.063.133.028.068.05.139.021.07.036.143.014.072.021.145.007.073.007.147v.002q0 .074-.007.147t-.021.145q-.015.073-.036.143-.022.07-.05.139-.028.068-.063.133-.034.065-.075.126-.041.061-.088.118-.047.057-.099.109-.052.052-.109.099-.057.046-.118.087-.061.041-.126.076-.065.035-.133.063-.068.028-.138.05-.07.02-.143.035-.072.015-.146.022-.073.007-.147.007h-7q-.073 0-.147-.007-.073-.007-.145-.022-.072-.014-.143-.036-.07-.02-.138-.05-.068-.027-.133-.062t-.126-.076q-.062-.04-.119-.087-.056-.047-.109-.1-.052-.051-.098-.108-.047-.057-.088-.118-.04-.061-.076-.126-.034-.065-.063-.133-.028-.068-.05-.139-.02-.07-.035-.143-.014-.072-.021-.145-.008-.073-.008-.147v-.002q0-.074.008-.147.007-.073.021-.145.015-.073.036-.143.021-.07.05-.139.028-.068.062-.133.035-.065.076-.126.04-.061.088-.118.046-.057.098-.109.053-.052.11-.099.056-.046.118-.087.06-.041.126-.076.065-.035.133-.063.068-.028.138-.05.07-.02.143-.035.072-.015.145-.022.074-.007.147-.007z" fill="#6F95CC"/></svg>