<svg width="68" height="61" xmlns="http://www.w3.org/2000/svg"><path d="M49.506 42.859H17.732c-.615 0-1.113.537-1.113 1.2 0 .663.501 1.2 1.113 1.2h31.774c.615 0 1.113-.537 1.113-1.2 0-.663-.498-1.2-1.113-1.2zm-32.886-27.8c0 .663.5 1.2 1.112 1.2h31.774c.615 0 1.113-.537 1.113-1.2 0-.663-.5-1.2-1.113-1.2H17.732c-.615.003-1.113.54-1.113 1.2z" fill="#6F95CC"/><path d="M30.738 32.94c-.014.833.205 1.49.658 1.972a3.053 3.053 0 001.682.916v-4.575a4.294 4.294 0 00-.7-.197 17.904 17.904 0 01-1.598-.515 5.19 5.19 0 01-1.412-.788 3.627 3.627 0 01-.996-1.226c-.247-.49-.37-1.097-.37-1.828 0-.745.143-1.4.427-1.972a4.37 4.37 0 011.128-1.434 5.214 5.214 0 011.62-.897 7.36 7.36 0 011.904-.383v-1.687h1.29v1.687a7.937 7.937 0 011.851.428 4.98 4.98 0 011.522.875q.654.56 1.071 1.392c.276.554.436 1.212.481 1.971h-3.108c-.016-.585-.196-1.08-.548-1.49-.349-.408-.773-.613-1.268-.613v3.872c.177.045.354.088.537.133.183.045.374.095.58.154 1.08.29 1.912.653 2.497 1.083.582.43 1.012.88 1.29 1.347.276.467.442.934.493 1.4q.076.701.076 1.25c0 .32-.082.725-.242 1.215-.16.489-.447.967-.864 1.434-.416.467-.976.883-1.676 1.249-.7.363-1.597.582-2.691.655v1.862H33.08v-1.862c-1.634-.118-2.911-.619-3.831-1.51-.92-.889-1.451-2.197-1.598-3.918h3.086zm.377-6.548c0 .481.152.855.458 1.117.304.264.81.475 1.51.636v-3.57c-.25 0-.489.037-.722.11a1.87 1.87 0 00-.636.338 1.647 1.647 0 00-.447.568 1.83 1.83 0 00-.163.801zm3.26 5.235c.86.233 1.47.492 1.828.776.357.284.537.711.537 1.282 0 .349-.073.653-.22.909a2.13 2.13 0 01-.56.644c-.224.174-.48.31-.764.405-.284.095-.56.157-.822.185v-4.201z" fill="#6F95CC" fill-rule="evenodd"/><path d="M25.937.045h35.755a5.655 5.655 0 015.648 5.65 5.622 5.622 0 01-3.969 5.392 1.114 1.114 0 01-1.403-.742 1.124 1.124 0 01.74-1.407 3.383 3.383 0 002.387-3.246 3.402 3.402 0 00-3.397-3.397h-.6v53.41c0 .65-.382 1.127-.61 1.355l-3.116 2.905c-.917.647-2.002.656-2.686-.028l-1.803-1.654-1.833 1.688c-.31.312-.793.509-1.288.509a1.87 1.87 0 01-1.325-.543l-1.8-1.654-1.837 1.688c-.613.619-1.92.658-2.61-.034l-1.803-1.654-1.833 1.688c-.625.627-1.93.652-2.613-.034l-1.8-1.654-1.837 1.688c-.616.619-1.92.658-2.61-.034l-1.802-1.654-1.834 1.688c-.627.627-1.932.652-2.613-.034l-1.8-1.654-1.837 1.688c-.618.622-1.926.655-2.61-.034l-1.802-1.654-1.834 1.688c-.627.627-1.932.652-2.613-.034l-3.057-2.849c-.355-.216-.644-.762-.644-1.384V2.295h-1.44A3.4 3.4 0 002.41 5.693c0 1.499.96 2.8 2.388 3.248a1.123 1.123 0 11-.672 2.143A5.62 5.62 0 01.157 5.693 5.657 5.657 0 015.807.045h20.13zm30.096 58.084l2.886-2.686-.084-53.148H9.495v53.238l2.773 2.568 2.36-2.172a1.122 1.122 0 011.521 0l2.366 2.172 2.362-2.172a1.122 1.122 0 011.522 0l2.362 2.172 2.363-2.172a1.122 1.122 0 011.521 0l2.366 2.172 2.362-2.172a1.122 1.122 0 011.522 0l2.362 2.172 2.363-2.172a1.122 1.122 0 011.521 0l2.366 2.172 2.362-2.172a1.122 1.122 0 011.522 0l2.362 2.172 2.363-2.172a1.122 1.122 0 011.521 0l2.396 2.2z" fill="#DDDFE2" fill-rule="evenodd"/></svg>