<svg width="107" height="107" xmlns="http://www.w3.org/2000/svg" xmlns:xlink="http://www.w3.org/1999/xlink"><defs><path id="a" d="M0 0h107v106.873H0z"/></defs><g fill="none" fill-rule="evenodd"><g transform="translate(0 .126)"><mask id="b" fill="#fff"><use xlink:href="#a"/></mask><path d="M50.532 2.965c1.632.842 4.303.842 5.935 0L61.395.423c1.633-.842 3.941-.384 5.126 1.018l3.575 4.232c1.185 1.402 3.654 2.422 5.486 2.269l5.523-.466c1.83-.154 3.785 1.15 4.345 2.9l1.683 5.276c.557 1.748 2.449 3.635 4.197 4.192l5.283 1.683c1.751.556 3.055 2.51 2.903 4.338l-.469 5.519c-.153 1.828.869 4.294 2.275 5.478l4.235 3.572c1.406 1.184 1.863 3.487 1.02 5.118l-2.544 4.92c-.847 1.63-.845 4.3 0 5.929l2.544 4.921c.843 1.631.386 3.935-1.02 5.12l-4.235 3.57c-1.406 1.185-2.425 3.65-2.275 5.48l.469 5.518c.156 1.827-1.152 3.779-2.903 4.337L91.33 87.03c-1.751.557-3.64 2.445-4.197 4.191l-1.683 5.277c-.56 1.748-2.515 3.052-4.345 2.9l-5.523-.467c-1.829-.158-4.3.865-5.486 2.27l-3.575 4.23c-1.185 1.404-3.493 1.86-5.126 1.02l-4.928-2.542c-1.632-.844-4.302-.844-5.935 0l-4.927 2.541c-1.632.843-3.938.385-5.123-1.02l-3.577-4.23c-1.185-1.404-3.654-2.424-5.485-2.27l-5.525.467c-1.831.155-3.785-1.15-4.344-2.899l-1.684-5.277c-.558-1.749-2.447-3.635-4.197-4.191l-5.284-1.683c-1.75-.558-3.057-2.511-2.902-4.337l.467-5.518c.154-1.827-.868-4.295-2.273-5.48l-4.236-3.57c-1.404-1.185-1.863-3.489-1.02-5.12l2.545-4.92c.844-1.63.844-4.298 0-5.929l-2.544-4.92c-.844-1.631-.385-3.933 1.019-5.118l4.236-3.572c1.405-1.184 2.426-3.65 2.273-5.479l-.467-5.518c-.155-1.829 1.152-3.78 2.903-4.339l5.283-1.682c1.75-.557 3.64-2.444 4.197-4.192l1.684-5.277c.558-1.749 2.513-3.053 4.344-2.9l5.525.466c1.83.155 4.3-.866 5.485-2.269l3.577-4.231C41.667.04 43.972-.418 45.605.424l4.927 2.54z" fill="#50AF00" mask="url(#b)"/></g><path d="M53.5 11.816c-23.047 0-41.797 18.727-41.797 41.747S30.453 95.31 53.5 95.31c23.047 0 41.797-18.727 41.797-41.747S76.547 11.816 53.5 11.816m0 85.164c-23.969 0-43.469-19.477-43.469-43.417s19.5-43.417 43.469-43.417 43.469 19.477 43.469 43.417S77.469 96.98 53.5 96.98" fill="#FFF"/><path d="M27.068 31.373h4.291l4.832 9.198 1.82 4.088h.113a682.61 682.61 0 00-.327-3.293 34.123 34.123 0 01-.185-3.463v-6.53h3.98v18.51h-4.293l-4.831-9.226-1.82-4.032h-.113c.095 1.022.203 2.12.327 3.294.123 1.173.185 2.309.185 3.406v6.558h-3.98v-18.51zM53.5 46.618c1.27 0 2.274-.544 3.012-1.633.74-1.087 1.109-2.569 1.109-4.442 0-1.855-.369-3.303-1.109-4.343-.738-1.042-1.742-1.562-3.012-1.562s-2.274.52-3.013 1.562c-.739 1.04-1.108 2.488-1.108 4.343 0 1.873.37 3.355 1.108 4.442.74 1.089 1.743 1.633 3.013 1.633m0 3.605c-1.25 0-2.392-.222-3.425-.667a7.444 7.444 0 01-2.657-1.916c-.74-.833-1.313-1.846-1.72-3.038-.408-1.192-.61-2.545-.61-4.059 0-1.514.202-2.863.61-4.046.407-1.182.98-2.176 1.72-2.98a7.374 7.374 0 012.657-1.845c1.033-.427 2.174-.64 3.425-.64 1.25 0 2.392.213 3.425.64a7.294 7.294 0 012.657 1.859c.74.814 1.312 1.812 1.72 2.995.407 1.183.611 2.522.611 4.017 0 1.514-.204 2.867-.61 4.06-.409 1.191-.982 2.204-1.721 3.037a7.442 7.442 0 01-2.657 1.916c-1.033.445-2.174.667-3.425.667m11.909-18.85h4.29l4.833 9.198 1.82 4.088h.113c-.096-.984-.204-2.081-.328-3.293a34.418 34.418 0 01-.184-3.463v-6.53h3.979v18.51H75.64l-4.833-9.226-1.819-4.032h-.112a252.5 252.5 0 00.326 3.294 32.82 32.82 0 01.185 3.406v6.558h-3.98v-18.51zM25.192 66.612c0-1.533.242-2.9.725-4.103.483-1.2 1.137-2.218 1.961-3.05a8.307 8.307 0 012.9-1.903 9.584 9.584 0 013.538-.653c1.307 0 2.439.246 3.396.738.957.492 1.738 1.05 2.345 1.675L37.755 61.9a5.735 5.735 0 00-1.435-1.022c-.503-.245-1.152-.368-1.947-.368-.721 0-1.379.136-1.976.411a4.462 4.462 0 00-1.549 1.178c-.436.51-.772 1.136-1.009 1.873-.237.74-.355 1.572-.355 2.499 0 1.912.43 3.392 1.293 4.443.862 1.05 2.165 1.575 3.908 1.575.379 0 .748-.047 1.109-.142.36-.095.653-.236.88-.426v-3.18h-3.069v-3.405h6.765v8.515c-.664.625-1.535 1.155-2.615 1.59-1.08.436-2.274.654-3.581.654a9.945 9.945 0 01-3.51-.611 8.096 8.096 0 01-2.857-1.803c-.815-.794-1.454-1.783-1.918-2.966-.465-1.183-.697-2.55-.697-4.102m19.014-9.369h4.434l3.098 8.317 1.109 3.237h.112l1.109-3.237 3.014-8.317h4.405v18.509h-3.894v-6.785c0-.454.018-.956.057-1.504.038-.55.085-1.103.142-1.661.057-.558.113-1.108.17-1.646.057-.54.115-1.037.172-1.491h-.115l-1.535 4.286-2.842 7.182h-1.677l-2.842-7.182-1.478-4.286h-.114a79.023 79.023 0 01.327 3.137c.048.558.09 1.112.128 1.66.038.55.057 1.05.057 1.505v6.785h-3.837v-18.51zm29.19 15.244c1.268 0 2.273-.544 3.012-1.632.74-1.088 1.109-2.57 1.109-4.443 0-1.854-.37-3.303-1.109-4.343-.74-1.041-1.744-1.561-3.012-1.561-1.27 0-2.275.52-3.014 1.561-.738 1.04-1.107 2.489-1.107 4.343 0 1.873.369 3.355 1.107 4.443.74 1.088 1.744 1.632 3.014 1.632m0 3.606c-1.25 0-2.394-.223-3.425-.667a7.446 7.446 0 01-2.659-1.917c-.738-.833-1.31-1.846-1.719-3.038-.408-1.192-.61-2.544-.61-4.059 0-1.514.202-2.862.61-4.045.408-1.183.981-2.177 1.72-2.98a7.375 7.375 0 012.658-1.846c1.031-.426 2.174-.64 3.425-.64 1.25 0 2.392.214 3.424.64a7.299 7.299 0 012.658 1.86c.74.813 1.31 1.812 1.719 2.994.408 1.183.61 2.522.61 4.017 0 1.515-.202 2.867-.61 4.06-.408 1.191-.98 2.204-1.72 3.037a7.443 7.443 0 01-2.657 1.917c-1.032.444-2.173.667-3.424.667" fill="#FFF"/></g></svg>