<svg width="20" height="20" xmlns="http://www.w3.org/2000/svg" xmlns:xlink="http://www.w3.org/1999/xlink"><defs><path d="M16.406 24.422c-.375.375-.843.562-1.406.562s-1.04-.195-1.43-.586a1.891 1.891 0 01-.586-1.382h3.985c0 .562-.188 1.03-.563 1.406zM21 14.016v4.968L23.016 21v.984H6.984V21L9 18.984v-4.968c0-1.563.398-2.922 1.195-4.079.797-1.156 1.899-1.906 3.305-2.25v-.703c0-.406.14-.757.422-1.054.281-.297.64-.446 1.078-.446.438 0 .797.149 1.078.446.281.297.422.648.422 1.054v.704c1.406.343 2.508 1.093 3.305 2.25.797 1.156 1.195 2.515 1.195 4.078zm1.969-.516c-.157-2.688-1.328-4.828-3.516-6.422l1.406-1.406c2.594 2 3.97 4.61 4.125 7.828H22.97zM10.594 7.078C8.375 8.641 7.188 10.781 7.03 13.5H5.016c.156-3.219 1.53-5.828 4.125-7.828l1.453 1.406z" id="a"/></defs><use fill="#546385" xlink:href="#a" transform="translate(-5 -5)" fill-rule="evenodd"/></svg>