<svg width="96" height="100" xmlns="http://www.w3.org/2000/svg"><g fill="none" fill-rule="evenodd"><path d="M18.766.001a2.088 2.088 0 00-1.434.627L.772 17.169l-.131.122a2.085 2.085 0 00-.098.09 2.084 2.084 0 00-.048.057 2.083 2.083 0 00-.017.025 2.08 2.08 0 00-.448 1.676v66.28c0 1.15.934 2.083 2.086 2.083h50.489a22.814 22.814 0 004.205 5.801c8.95 8.936 23.527 8.926 32.477-.008 8.95-8.936 8.95-23.472 0-32.408v-.008a23.096 23.096 0 00-1.63-1.465V2.101A2.085 2.085 0 0085.571.026V.018h-66.47A2.09 2.09 0 0018.765 0zm.905 4.182h60.863L68.016 16.681H7.153L19.67 4.183zM83.485 7.13v49.55a23.092 23.092 0 00-12.519-2.407V19.626L83.485 7.13zM4.202 20.847h62.592v34.206a22.803 22.803 0 00-9.984 5.825c-6.079 6.07-8.014 14.725-5.835 22.457H4.202V20.847zm68.85 37.468a18.751 18.751 0 0113.285 5.509 18.7 18.7 0 010 26.525c-7.356 7.343-19.221 7.353-26.577.008a18.72 18.72 0 010-26.541 18.747 18.747 0 0113.293-5.5zm-64.677.025v4.166h25.037V58.34H8.375zm0 8.332v4.166h16.691v-4.166H8.376z" fill="#DDDFE2"/><circle stroke="#546385" stroke-width="4" fill="#FFF" fill-rule="nonzero" cx="73" cy="77" r="21"/><path d="M84.936 69a2.065 2.065 0 00-1.305.448l-14.938 11.5-4.993-6.161a2.064 2.064 0 00-2.94-.287 2.152 2.152 0 00-.282 2.994l6.265 7.73a2.064 2.064 0 002.872.348l16.537-12.736a2.147 2.147 0 00.747-2.363A2.093 2.093 0 0084.936 69z" fill="#546385" fill-rule="nonzero"/></g></svg>