<svg width="107" height="107" xmlns="http://www.w3.org/2000/svg"><g fill="none" fill-rule="evenodd"><path fill="#FEFEFE" d="M0 106.424h106.424V0H0z"/><g fill="#D99A70"><path d="M67.02 90.034l2.24 2.827-2.106.777-.134-3.604zm-.056-5.813l-.16.058-3.361 1.242-.158.058.347 9.36-1.748.645 1.086 2.94.785-.29.086 2.296 3.52-1.3-.086-2.296 4.034-1.488 1.427 1.8 3.52-1.3-9.292-11.725zm-9.892 12.337l-.001.001-.013.07h-.001l-.016.07-.015.067h-.001a2.89 2.89 0 01-.098.316l-.023.058-.025.058v.001a2.369 2.369 0 01-.105.213l-.028.049-.001.001-.03.049-.031.047a1.585 1.585 0 01-1.098.688v-.001l-.056.008-.058.007-.058.005-.06.004-.06.002-.058.001v-.002h-.913v.002h-.058l-.06-.003-.06-.004-.057-.005-.058-.007-.056-.008a1.583 1.583 0 01-1.098-.687l-.03-.047h-.002l-.029-.049v-.001l-.03-.049a2.369 2.369 0 01-.105-.213l-.024-.059-.023-.058a3.112 3.112 0 01-.099-.316l-.015-.066v-.001l-.016-.07-.015-.07c-.235-1.327-.148-2.766-.076-4.09l.005-.083.008-.08.007-.08.01-.078v-.001l.01-.075v-.001l.01-.074.001-.002.011-.072.014-.073.015-.07v-.001l.016-.069.015-.066v-.001c.03-.112.06-.217.098-.316h.001l.023-.059.024-.057v-.001a2.52 2.52 0 01.105-.214l.03-.048.03-.05.031-.046a1.583 1.583 0 011.097-.689l.001.001.056-.008.058-.008v.001l.057-.005.06-.005h.06l.058-.002v.002h.913v-.002l.058.001.06.001.06.005.058.005.058.007.056.008c.466.075.834.304 1.097.687l.001.001.031.046.03.05.03.048c.037.068.071.139.104.214l.025.058.022.058.001.001c.038.099.07.204.098.316l.017.066-.001.001.01.044h3.07l-.005-.051.001-.001-.01-.088v-.001l-.01-.089-.01-.088c-.107-.885-.326-1.747-.771-2.544a3.687 3.687 0 00-.896-1.094l-.066-.052-.067-.048-.067-.047-.068-.045-.07-.042v-.001l-.07-.04-.07-.04-.072-.034-.07-.036-.073-.03-.073-.032c-1.08-.435-4.668-.435-5.748 0l-.074.031-.072.031h.001l-.072.036-.072.035-.07.038-.07.04v.002l-.069.042-.067.045-.069.047h.001l-.067.048-.066.052c-.329.264-.628.617-.897 1.094-.445.797-.664 1.66-.771 2.544l-.01.088-.01.089h.001l-.01.089-.008.09-.007.088-.008.09-.006.088v.001l-.006.09-.006.09-.004.088-.004.09v.001l-.005.09h.001c-.047 1.326-.071 2.697.038 4.02l.007.09.008.088.01.09.009.089.01.088c.107.885.326 1.748.771 2.545.269.475.568.828.897 1.093l.066.052.067.048.068.047.067.045.07.043.07.04.07.04.07.034.073.035.071.032.074.03c1.08.436 4.668.436 5.748 0l.073-.03.072-.031v-.001l.071-.035.072-.035.07-.039.07-.04.07-.043.068-.045.067-.047.067-.048.066-.052c.328-.265.628-.618.896-1.093 1.042-1.867.88-4.244.88-6.252H54.68v2.595h2.486a8.962 8.962 0 01-.094.697zm33.717-26.25c-.611-.209-1.213-.45-1.79-.677l-.074-.031-.072-.031v-.001l-.07-.031-.07-.032h-.001l-.066-.033-.066-.033h-.002l-.062-.034h-.001l-.062-.034-.06-.035-.06-.036-.057-.034v-.001a2.985 2.985 0 01-.262-.185v-.001l-.047-.039-.045-.04a1.946 1.946 0 01-.166-.16l-.035-.04-.001-.002-.036-.042-.034-.042a1.49 1.49 0 01-.302-1.199l.01-.053.012-.054.01-.054.016-.055.017-.054.016-.052h.002l.034-.101.005-.014.236-.705-.001-.001.018-.052.02-.053.022-.052.022-.05v-.001l.023-.048v-.001l.025-.048v-.001a1.49 1.49 0 01.964-.773l.053-.014.053-.012h.001l.054-.01c.073-.013.149-.024.229-.03l.06-.003h.001l.06-.003c.103-.003.21.001.32.01h.002l.065.006.001.001.043.005.927-2.759-.049-.011h-.001l-.084-.02-.085-.018-.084-.02c-.848-.177-1.709-.245-2.576-.092-.52.093-.936.253-1.277.466l-.069.044-.064.044-.064.047-.061.047-.06.05-.06.049-.056.052-.054.052-.055.054-.05.055-.05.056c-.727.835-1.81 4.059-1.735 5.164l.007.075.007.075.01.075.01.075.016.075.017.074.018.076.021.075.022.075.025.074.028.076c.144.378.379.756.737 1.144.6.646 1.327 1.11 2.11 1.48l.078.036.079.037.079.036.08.034.08.034.08.035.08.033.08.033.082.032.08.032.08.032h.002l.081.031c.58.217 1.17.433 1.766.633.596.2 1.196.385 1.789.56v.001l.084.024.085.024.083.024.085.022.083.023h.001l.084.022.084.02.085.021.084.02v.001l.085.019.084.019h.001l.084.02c.847.176 1.708.246 2.576.092.518-.093.935-.253 1.276-.467l.068-.043.066-.044.063-.047.062-.047.06-.05.058-.049.057-.051.055-.054.053-.053.052-.056.05-.056c.727-.835 1.809-4.058 1.734-5.162l-.008-.076-.005-.075h-.001l-.01-.075-.012-.075-.014-.075-.017-.075-.019-.076-.02-.074-.022-.076-.026-.074-.027-.076a3.535 3.535 0 00-.737-1.143c-.599-.646-1.326-1.11-2.11-1.48l-.078-.036-.078-.036-.08-.037-.047-.02-.926 2.757.038.024.056.034v.001c.096.06.183.121.263.185v.001l.046.039.046.04c.06.052.115.106.166.16l.036.041.036.042v.001l.033.041v.001c.275.356.375.758.303 1.198v.001l-.01.053-.01.054h-.001l-.013.053-.014.056-.017.054-.016.052h-.001l-.238.705-.004.014-.033.101-.017.053-.02.052-.022.053-.023.05v.002l-.024.047-.024.05h.001c-.21.395-.531.654-.965.772l-.052.014-.054.013h-.002l-.052.01a2.15 2.15 0 01-.23.028l-.06.005-.06.002h-.001c-.104.004-.209 0-.32-.01h-.001l-.066-.005-.001-.001-.068-.008-.07-.008-.07-.01-.07-.012h-.002l-.071-.014h-.001l-.073-.013h-.001l-.074-.017h-.001l-.075-.017-.076-.02-.078-.019c-.597-.167-1.222-.339-1.837-.54zM42.849 88.1l-2.09-.668-.775 2.424 2.087.669c2.727.967 3.556-1.625.778-2.425zm1.536 12.654l-3.02-.969c.842-2.637-.049.145.797-2.493.611-1.813.166-2.93-1.203-3.3l-2.087-.67-1.647 5.137-3.021-.97 3.7-11.54.631-1.97c1.496.48 2.99.958 4.485 1.439 1.943.621 3.721 1.069 4.446 2.72.739 1.691.082 3.737-1.5 4.68-.27.16-.543.274-.823.347.162.29.293.623.387 1.012.446 1.879-.225 3.705-.786 5.457l-.36 1.12zM30.84 79.207a3.276 3.276 0 00-1.52-.295c-.434.022-.89.133-1.382.364a5.436 5.436 0 00-1.178.757c-.685.57-1.244 1.294-1.749 2.012-.28.399-.547.807-.809 1.207a48.58 48.58 0 00-.986 1.59l-.044.075-.044.075-.043.075-.042.077c-.53.947-.946 1.994-.975 3.13-.013.543.07 1.004.224 1.41.205.514.463.883.88 1.269a14.746 14.746 0 003.95 2.58c.522.223.964.313 1.517.291.433-.022.89-.133 1.381-.363 1.027-.483 1.818-1.287 2.472-2.153l.053-.07.052-.07h-.001l.051-.07.052-.07a50.128 50.128 0 001.836-2.77c.454-.753.89-1.556 1.137-2.412a5.47 5.47 0 00.217-1.384 3.648 3.648 0 00-.223-1.41 3.264 3.264 0 00-.883-1.273 14.774 14.774 0 00-3.943-2.572zm-3.963 5.79c.356-.538.741-1.055 1.11-1.553.296-.387.652-.761 1.114-.976l.051-.023h.002l.052-.021.052-.02h.001c.206-.074.414-.107.625-.1.778.029 2.11.898 2.45 1.599.092.189.145.393.16.611v.001l.003.055.001.001.001.056v.058c-.011.51-.21.986-.444 1.413-.307.537-.625 1.1-.974 1.642-.356.538-.742 1.055-1.11 1.552l-.048.063-.001.001-.049.061-.049.06-.05.059-.048.055h-.001l-.05.054-.001.002-.048.052-.05.05h-.001l-.05.05h-.001l-.05.046v.001l-.05.044v.001c-.543.474-1.249.74-2.072.358l-.055-.026-.055-.028-.055-.03a9.79 9.79 0 01-.96-.626l-.05-.04-.047-.038h-.001l-.046-.039c-.682-.6-.722-1.353-.507-2.041v-.001l.02-.063.002-.001.022-.065.024-.066.027-.065v-.001l.027-.066.001-.002.03-.066.03-.067h.001l.033-.07.036-.07.035-.069.039-.07c.308-.537.625-1.1.974-1.642zm64.37-1.87l-11.52-8.457 2.235-3.045 11.52 8.458-2.234 3.045zm-21.455-.018l2.489-2.022 8.634 3.659-5.228-6.429 2.488-2.022 9.044 11.124-2.487 2.023-8.633-3.659 5.227 6.428-2.487 2.023-9.047-11.125zM53.212 3.351v.035c13.788 0 26.252 5.568 35.255 14.571 9.002 9.003 14.57 21.467 14.57 35.255h.035-.034c0 13.788-5.57 26.251-14.571 35.254C79.464 97.47 67 103.037 53.212 103.037v.036-.036c-13.79 0-26.253-5.568-35.255-14.57a49.245 49.245 0 01-2.132-2.272c.482-2.556 1.3-4.66 2.431-6.439 1.637-2.578 3.982-4.553 6.947-6.306a47.036 47.036 0 011.682-.95 33.148 33.148 0 003.252 3.786c5.927 5.926 14.086 9.592 23.074 9.592v-.033h.001v.033c8.986 0 17.147-3.665 23.074-9.592 5.927-5.927 9.591-14.085 9.591-23.073l-.032-.001h.033c0-.973-.043-1.935-.128-2.885-.259-2.944-.487-3.86-1.142-6.123a31.71 31.71 0 00-.402-1.292c.34-.28.682-.58 1.02-.9 2.815-2.653 5.652-6.816 5.035-11.53l-.627-4.811-3.428 3.428-.002.002v.01c-.982.992-3.1 1.679-5.16 2.347-.924.298-1.84.596-2.706.932h.001a24.01 24.01 0 001.035-1.933c.916-1.915 1.65-4.167 1.617-6.416-.03-1.932-.26-3.952-1.098-6.032-.845-2.097-2.275-4.195-4.68-6.223l-2.706-2.28-1.108 3.355c-.455 1.38-.949 2.549-1.414 3.655-1.095 2.603-2.068 4.915-2.027 7.566a32.396 32.396 0 00-14.747-3.537v.034-.034c-8.988 0-17.148 3.667-23.074 9.593-5.927 5.926-9.593 14.086-9.593 23.074h.034-.034a32.398 32.398 0 002.458 12.405c-7.17 3.844-11.087 8.21-13.192 12.129-4.09-7.236-6.425-15.607-6.425-24.533H3.35v-.001h.034c0-13.79 5.569-26.252 14.573-35.255C26.96 8.954 39.422 3.386 53.21 3.386V3.35h.001z"/><path d="M10.04 88.65S5.744 71.332 37.694 62.47C52.156 57.79 67.27 50.641 74.3 33.57c-.506 5.934-5.06 12.11-8.979 16.08-2.022 2.05-4.41 4.093-7.223 6.112a145.338 145.338 0 01-3.852 2.375c-9.628 5.711-20.675 7.59-30.259 13.258-6.56 3.876-10.444 8.85-10.995 18.464L10.04 88.65zm77.858-57.859c-2.515 2.542-8.38 3.037-11.121 5.072-2.661 1.975-4.39 4.85-5.039 7.858 3.64-3.35 7.76-6.285 12.86-8.396-5.703 3.398-9.234 6.436-11.46 8.736 1.908.008 5.307-.224 7.853-1.767 2.666-1.619 7.59-6.267 6.906-11.503h.001z"/><path d="M60.752 23.477c-.232 5.75-1.601 10.372.085 14.302 1.031 2.404 2.732 4.372 5.194 5.678-.194-3.48-.994-8.897-3.893-16.66 2.94 5.35 4.444 10.733 5.244 16.139.75-1.788 2.105-5.824 1.194-9.928-.957-4.316-4.41-5.09-7.824-9.531zM81.834 50.08c-3.568 1.481-9.62-.478-13.204.402-3.291.81-6.09 2.772-7.994 5.292 4.763-1.636 9.815-2.692 15.423-2.663-6.98.979-11.726 2.494-14.906 3.834 1.762.79 5.55 2.22 8.986 1.708 3.337-.497 10.187-3.07 11.695-8.573zM53.237 31.524c-.086 4.621-3.884 9.241-4.2 13.163-.345 4.266.872 7.125 3.055 9.531 1.13-3.23 2.605-8.945 2.555-18.567.997 6.63.422 12.652-.885 18.405 1.445-1.688 4.202-5.33 4.662-9.01.45-3.59 1.237-7.827-5.187-13.522zm-14.483 3.544c.733 4.986-2.32 10.598-1.947 14.872.387 4.436 1.998 7.253 4.45 9.433.832-3.525 1.752-9.65.728-19.545 1.794 7.09 1.716 13.734.828 20.205.89-1.44 3.846-6.597 3.633-11.287-.18-3.94-.129-8.63-7.692-13.678zm-10.397 5.926c-1.713 5.191-4.336 8.96-3.854 13.222.433 3.836 1.97 7.429 4.537 9.88.785-3.61 1.547-9.587.582-18.911 1.646 6.5 1.716 12.626 1.033 18.59 1.224-1.992 3.58-6.365 3.519-10.458-.06-3.944-.922-8.197-5.817-12.323zm45.997-28.337c-1.942 5.417-4.632 9.418-4.2 13.672.266 2.602 1.3 4.989 3.257 6.972.857-3.38 1.715-8.787 1.272-17.06 1.203 5.983 1.028 11.57.174 16.967 1.25-1.482 3.75-4.928 4.11-9.116.378-4.404-2.684-6.176-4.613-11.435zM71.33 70.09c-4.543-.698-9.485-6.43-13.675-7.748-3.813-1.202-7.832-.95-11.306.407 5.556.893 11.07 2.51 16.514 5.662-7.99-3.19-13.481-4.041-16.904-4.264 1.246 1.834 4.272 5.79 8.183 7.436 3.7 1.556 12.253 3.17 17.188-1.492v-.001zM56.21 80.612C52.14 78.9 48.796 72.03 45.191 69.77a15.181 15.181 0 00-10.252-2.153c4.374 2.232 8.543 5.055 12.347 8.979-5.798-4.464-10.319-6.806-13.529-8.112.593 1.777 2.59 7.064 6.163 9.818 3.097 2.39 10.694 5.914 16.29 2.311z"/></g></g></svg>