<svg width="73" height="73" xmlns="http://www.w3.org/2000/svg"><g transform="translate(2 2)" fill="none" fill-rule="evenodd"><rect stroke="#E2E5E7" stroke-width="2" fill="#FFF" x="-.875" y="-.875" width="70.75" height="70.75" rx="3"/><g fill-rule="nonzero"><path d="M34.5 8.719C20.401 8.719 8.932 20.284 8.932 34.5S20.402 60.281 34.5 60.281c14.099 0 25.568-11.565 25.568-25.781S48.598 8.719 34.5 8.719zm0 46.875c-11.535 0-20.92-9.463-20.92-21.094 0-11.63 9.385-21.094 20.92-21.094 11.536 0 20.92 9.463 20.92 21.094 0 11.63-9.384 21.094-20.92 21.094z" fill="#DDDFE2"/><path d="M43.95 44.813a2.506 2.506 0 002.12-1.198c.218-.361.335-.759.35-1.193a2.48 2.48 0 00-.268-1.228l-9.438-19.046a2.456 2.456 0 00-3.525-1.022c-.4.25-.709.591-.926 1.022l-9.45 19.046a2.593 2.593 0 00-.239 1.228c.02.434.138.832.355 1.192a2.506 2.506 0 002.121 1.199h18.9zm-7.959-9.024H33.01v-8.518h2.982v8.518zM34.5 42.31a1.913 1.913 0 01-1.41-.587 1.945 1.945 0 01-.583-1.421c0-.556.195-1.03.583-1.422a1.913 1.913 0 011.41-.587 1.91 1.91 0 011.41.587c.388.392.583.866.583 1.422 0 .556-.195 1.03-.583 1.421a1.913 1.913 0 01-1.41.588z" fill="#C4514D"/></g></g></svg>