<svg width="44" height="44" xmlns="http://www.w3.org/2000/svg"><path d="M43.63 30.291L13.708.371a1.265 1.265 0 00-1.79 0L.372 11.92a1.265 1.265 0 000 1.789l29.92 29.92a1.265 1.265 0 001.79 0L43.628 32.08a1.265 1.265 0 000-1.789zM31.185 40.953l-5.06-5.06 4.857-4.856-1.789-1.789-4.857 4.856-2.4-2.398 2.096-2.096-1.789-1.79-2.096 2.097-2.395-2.405 4.858-4.858-1.79-1.789-4.853 4.865-2.53-2.53 1.988-1.988-1.79-1.789-1.987 1.988-2.268-2.268 4.857-4.858-1.789-1.789-4.857 4.858-4.538-4.54 9.759-9.758 28.133 28.13-9.76 9.767z" fill="#DDDFE2"/></svg>