<svg width="22" height="24" xmlns="http://www.w3.org/2000/svg"><path d="M18 16.758c.948 0 1.75.337 2.406 1.012.657.674.985 1.467.985 2.378a3.32 3.32 0 01-1.012 2.434c-.675.675-1.468 1.012-2.379 1.012s-1.704-.337-2.379-1.012a3.318 3.318 0 01-1.012-2.434c0-.364.019-.62.055-.765L6.406 14.57c-.692.62-1.495.93-2.406.93-.948 0-1.768-.346-2.46-1.04C.845 13.769.5 12.949.5 12s.346-1.768 1.04-2.46C2.231 8.845 3.051 8.5 4 8.5c.911 0 1.714.31 2.406.93l8.203-4.758a4.595 4.595 0 01-.109-.82c0-.948.346-1.769 1.04-2.461C16.231.698 17.051.35 18 .35s1.768.347 2.46 1.04c.694.692 1.04 1.513 1.04 2.46 0 .948-.346 1.769-1.04 2.462-.692.692-1.512 1.039-2.46 1.039-.875 0-1.677-.329-2.406-.985L7.39 11.18c.073.364.109.638.109.82 0 .182-.036.456-.11.82l8.313 4.813A3.35 3.35 0 0118 16.758z" fill="#C0BDBC" fill-rule="evenodd"/></svg>