<svg width="53" height="63" xmlns="http://www.w3.org/2000/svg"><g fill="none" fill-rule="evenodd"><path d="M52.48 16.105c0-.785-.223-1.553-.644-2.215l-5.974-9.386a2.74 2.74 0 00-2.32-1.28H36.74A3.224 3.224 0 0033.517 0H3.556A3.556 3.556 0 000 3.556v21.333c0 1.433 1.215 2.88 2.648 2.88h3.673a5.974 5.974 0 005.666 3.943 6.08 6.08 0 005.666-3.942h18.793a5.974 5.974 0 005.666 3.942 6.08 6.08 0 005.675-3.942h2.107a2.594 2.594 0 002.586-2.594v-9.071zM11.743 27.932a2.27 2.27 0 01-2.262-2.261 2.3 2.3 0 012.262-2.262 2.261 2.261 0 110 4.523zm30.352 0a2.283 2.283 0 01-2.278-2.274 2.313 2.313 0 012.278-2.279 2.283 2.283 0 012.278 2.292 2.313 2.313 0 01-2.261 2.274l-.017-.013zm4.988-13.188h-8.026a.5.5 0 01-.5-.5V7.632a.5.5 0 01.5-.499h3.814a.504.504 0 01.427.23l4.211 6.618a.5.5 0 01-.426.764z" fill="#7D2254" fill-rule="nonzero"/><text font-family="SofiaProBlack, Sofia Pro" font-size="10" font-weight="700" fill="#FFF" transform="translate(-6 -1)"><tspan x="13" y="17">FREE</tspan></text></g></svg>