<svg width="44" height="44" xmlns="http://www.w3.org/2000/svg"><g fill="none" fill-rule="evenodd"><rect stroke="#E2E5E7" stroke-width="2" x="1" y="1" width="25" height="42" rx="6"/><path fill="#DDDFE2" fill-rule="nonzero" d="M1 18h25v2H1z"/><g transform="translate(12 6)"><circle fill="#6F95CC" cx="16" cy="16" r="16"/><g fill="#FFF"><path d="M16.848 27.61V5.313c0-.302.003-.606 0-.907v-.04A.838.838 0 0016 3.557c-.461.02-.848.355-.848.807v22.299c0 .302-.003.606 0 .907v.04c0 .423.39.826.848.808.461-.02.848-.356.848-.808z"/><path d="M19.56 4.974l-1.402 1.334-2.24 2.131-.518.493h1.2l-1.403-1.335-2.24-2.131-.518-.492c-.314-.3-.89-.32-1.199 0-.311.322-.337.823 0 1.14l1.403 1.335 2.24 2.131.517.492a.89.89 0 001.2 0l1.402-1.334 2.24-2.131.518-.493c.314-.298.337-.847 0-1.14-.34-.294-.865-.318-1.2 0zm1.2 20.882l-1.403-1.335-2.24-2.13-.517-.493a.89.89 0 00-1.2 0l-1.402 1.335-2.24 2.13-.518.493c-.314.299-.337.848 0 1.14.34.297.865.321 1.2 0l1.402-1.334 2.24-2.13.518-.493h-1.2l1.403 1.334 2.24 2.131.518.493c.314.299.89.32 1.199 0 .311-.32.337-.82 0-1.141zm6.25-4.754c-.189-.103-.376-.208-.565-.31-.512-.282-1.027-.562-1.539-.845l-2.277-1.25c-.924-.51-1.852-1.018-2.777-1.527L16.81 15.5l-3.072-1.688c-.956-.524-1.909-1.049-2.865-1.574-.806-.444-1.615-.885-2.42-1.329-.58-.32-1.163-.637-1.743-.958-.274-.15-.549-.306-.826-.454-.011-.006-.022-.014-.037-.02-.384-.212-.947-.096-1.16.291-.214.385-.107.88.306 1.104.19.102.376.207.566.309.512.282 1.027.562 1.539.845l2.276 1.251 2.778 1.526 3.043 1.67 3.071 1.688 2.866 1.574c.806.444 1.614.885 2.42 1.329.58.32 1.163.638 1.743.958.274.15.548.307.826.454.01.006.022.014.036.02.385.212.948.096 1.16-.291.212-.385.105-.877-.305-1.103z"/><path d="M7.758 7.554c.173.608.343 1.216.515 1.824l.82 2.912c.063.223.128.449.19.672l.594-.993-1.918.49-3.06.78-.707.18c-.43.11-.733.582-.594.993a.872.872 0 001.044.566c.639-.165 1.278-.326 1.917-.49l3.06-.78c.235-.06.473-.122.707-.18a.819.819 0 00.594-.994l-.514-1.824c-.275-.971-.546-1.94-.82-2.911l-.19-.673c-.116-.409-.61-.697-1.044-.565-.44.135-.718.554-.594.993zM27.358 17c-.639.165-1.278.327-1.917.49-1.021.262-2.04.52-3.06.78l-.707.181a.819.819 0 00-.594.993l.514 1.824c.275.972.546 1.94.82 2.912.063.223.128.449.19.672.116.41.61.697 1.044.565.44-.134.715-.557.594-.992-.173-.609-.343-1.217-.515-1.825l-.82-2.911-.19-.673-.594.993c.64-.164 1.279-.325 1.918-.49l3.06-.78.707-.18c.43-.11.733-.581.594-.993a.87.87 0 00-1.044-.565zm-1.204-7.522c-.19.102-.377.207-.566.31-.512.282-1.027.562-1.539.844l-2.276 1.251-2.778 1.526-3.043 1.67-3.072 1.688c-.956.525-1.909 1.05-2.865 1.574-.806.444-1.615.885-2.42 1.33-.58.32-1.163.637-1.743.957-.274.15-.551.299-.826.455-.011.005-.022.013-.037.019-.384.21-.551.74-.305 1.103a.889.889 0 001.16.29c.19-.102.376-.207.565-.31.512-.282 1.027-.561 1.539-.844l2.277-1.251c.924-.509 1.852-1.017 2.777-1.526l3.043-1.67 3.072-1.688c.956-.524 1.909-1.05 2.865-1.574.806-.444 1.615-.885 2.42-1.329.58-.32 1.163-.638 1.743-.958.274-.15.552-.299.826-.455.011-.005.023-.013.037-.018.384-.21.551-.74.305-1.104a.886.886 0 00-1.16-.29z"/><path d="M9.393 24.85c.173-.608.342-1.217.515-1.825l.82-2.91c.062-.224.127-.45.19-.674a.814.814 0 00-.594-.992c-.64-.165-1.279-.326-1.918-.49l-3.06-.78c-.235-.06-.472-.122-.707-.18-.427-.111-.942.136-1.044.564a.815.815 0 00.594.993l1.918.49 3.06.78.707.18-.594-.992c-.173.608-.342 1.216-.515 1.824l-.82 2.911c-.062.224-.127.45-.19.673-.115.406.145.896.594.993.447.094.923-.13 1.044-.565zM27.81 13.414c-.638-.164-1.277-.325-1.917-.49l-3.06-.78-.707-.18.594.993c.173-.608.342-1.216.515-1.824l.82-2.912c.062-.223.127-.45.19-.672.115-.407-.145-.896-.594-.993-.447-.097-.923.126-1.044.565-.173.608-.342 1.216-.515 1.824l-.82 2.911c-.062.224-.127.45-.19.673-.118.42.147.88.594.993.64.164 1.279.325 1.918.49l3.06.78.707.18c.427.11.942-.137 1.044-.565a.822.822 0 00-.594-.993z"/></g></g><path fill="#E2E5E7" fill-rule="nonzero" d="M5 9h2v5H5zm0 14h2v5H5z"/></g></svg>