<svg width="38" height="42" xmlns="http://www.w3.org/2000/svg"><g fill="none" fill-rule="evenodd"><rect stroke="#E2E5E7" stroke-width="2" x="1" y="1" width="31" height="40" rx="2"/><path d="M34.625 22.75l-9.272 9.272a.324.324 0 01-.124.08l-4.71 1.88c-.062.018-.106.018-.141.018a.438.438 0 01-.273-.105c-.105-.106-.123-.273-.087-.414l1.88-4.71a.324.324 0 01.08-.124l9.272-9.272 3.375 3.375zm3.041-4.65c.44.466.44 1.17 0 1.609l-1.916 1.916-3.375-3.375 1.916-1.916c.44-.44 1.143-.44 1.608 0l1.767 1.767z" fill="#00A7DE"/><circle fill="#E2E5E7" cx="8" cy="9" r="2"/><path fill="#E2E5E7" d="M12 8h14v2H12z"/><circle fill="#E2E5E7" cx="8" cy="17" r="2"/><path fill="#E2E5E7" d="M12 16h14v2H12z"/><circle fill="#E2E5E7" cx="8" cy="24" r="2"/><path fill="#E2E5E7" d="M12 23h14v2H12z"/></g></svg>