<svg width="26" height="26" xmlns="http://www.w3.org/2000/svg"><path d="M25.383 9.946c.184.487.146.975-.105 1.41-.827 1.518-2.526 3.374-5.102 5.586.662 2.767 1.059 4.998 1.19 6.703.046.647-.223 1.185-.786 1.56a1.73 1.73 0 01-.912.274c-.237 0-.484-.056-.803-.194a18.983 18.983 0 00-1.343-.682C15.463 23.58 13.958 22.78 13 22.196c-.959.584-2.465 1.385-4.532 2.41-.62.295-1.067.522-1.357.692-.581.302-1.18.265-1.707-.102-.548-.366-.817-.904-.77-1.554.13-1.702.527-3.933 1.189-6.7-2.576-2.212-4.275-4.067-5.096-5.575A1.598 1.598 0 01.61 9.959c.163-.49.488-.84.92-.998.984-.44 3.262-.715 6.912-.855C9.782 4.26 10.882 1.91 11.82.973 12.174.663 12.572.5 13 .5c.45 0 .852.17 1.174.493.933.915 2.041 3.265 3.383 7.113 3.65.14 5.927.416 6.902.85.446.189.762.527.925.99z" fill="#FFF" stroke="#546385" fill-rule="evenodd"/></svg>