<svg width="150" height="25" xmlns="http://www.w3.org/2000/svg"><path d="M23.925 9.625c.125.325.1.7-.075 1-.775 1.425-2.75 3.55-5.225 5.65.675 2.75 1.125 5.2 1.25 6.925.025.45-.175.85-.55 1.1-.2.125-.425.2-.65.2-.2 0-.375-.05-.55-.125-.425-.25-.9-.475-1.375-.7-1.3-.65-2.875-1.375-4.75-2.55-1.875 1.175-3.45 1.9-4.75 2.55-.475.225-.95.45-1.375.7-.375.2-.85.175-1.2-.075a1.211 1.211 0 01-.55-1.1c.125-1.725.575-4.175 1.25-6.925C2.9 14.175.925 12.05.15 10.625a1.17 1.17 0 01-.075-1c.1-.3.325-.575.65-.7C1.925 8.4 5.075 8.2 7.8 8.1c.85-2.475 2.225-6.125 3.35-7.25.25-.225.55-.35.85-.35.3 0 .6.125.825.35 1.15 1.125 2.525 4.775 3.375 7.25 2.725.1 5.875.3 7.075.825.3.125.55.4.65.7zm31.5 0c.125.325.1.7-.075 1-.775 1.425-2.75 3.55-5.225 5.65.675 2.75 1.125 5.2 1.25 6.925.025.45-.175.85-.55 1.1-.2.125-.425.2-.65.2-.2 0-.375-.05-.55-.125-.425-.25-.9-.475-1.375-.7-1.3-.65-2.875-1.375-4.75-2.55-1.875 1.175-3.45 1.9-4.75 2.55-.475.225-.95.45-1.375.7-.375.2-.85.175-1.2-.075a1.211 1.211 0 01-.55-1.1c.125-1.725.575-4.175 1.25-6.925-2.475-2.1-4.45-4.225-5.225-5.65a1.17 1.17 0 01-.075-1c.1-.3.325-.575.65-.7 1.2-.525 4.35-.725 7.075-.825.85-2.475 2.225-6.125 3.35-7.25.25-.225.55-.35.85-.35.3 0 .6.125.825.35 1.15 1.125 2.525 4.775 3.375 7.25 2.725.1 5.875.3 7.075.825.3.125.55.4.65.7zm31.5 0c.125.325.1.7-.075 1-.775 1.425-2.75 3.55-5.225 5.65.675 2.75 1.125 5.2 1.25 6.925.025.45-.175.85-.55 1.1-.2.125-.425.2-.65.2-.2 0-.375-.05-.55-.125-.425-.25-.9-.475-1.375-.7-1.3-.65-2.875-1.375-4.75-2.55-1.875 1.175-3.45 1.9-4.75 2.55-.475.225-.95.45-1.375.7-.375.2-.85.175-1.2-.075a1.211 1.211 0 01-.55-1.1c.125-1.725.575-4.175 1.25-6.925-2.475-2.1-4.45-4.225-5.225-5.65a1.17 1.17 0 01-.075-1c.1-.3.325-.575.65-.7 1.2-.525 4.35-.725 7.075-.825.85-2.475 2.225-6.125 3.35-7.25.25-.225.55-.35.85-.35.3 0 .6.125.825.35 1.15 1.125 2.525 4.775 3.375 7.25 2.725.1 5.875.3 7.075.825.3.125.55.4.65.7zm31.5 0c.125.325.1.7-.075 1-.775 1.425-2.75 3.55-5.225 5.65.675 2.75 1.125 5.2 1.25 6.925.025.45-.175.85-.55 1.1-.2.125-.425.2-.65.2-.2 0-.375-.05-.55-.125-.425-.25-.9-.475-1.375-.7-1.3-.65-2.875-1.375-4.75-2.55-1.875 1.175-3.45 1.9-4.75 2.55-.475.225-.95.45-1.375.7-.375.2-.85.175-1.2-.075a1.211 1.211 0 01-.55-1.1c.125-1.725.575-4.175 1.25-6.925-2.475-2.1-4.45-4.225-5.225-5.65a1.17 1.17 0 01-.075-1c.1-.3.325-.575.65-.7 1.2-.525 4.35-.725 7.075-.825.85-2.475 2.225-6.125 3.35-7.25.25-.225.55-.35.85-.35.3 0 .6.125.825.35 1.15 1.125 2.525 4.775 3.375 7.25 2.725.1 5.875.3 7.075.825.3.125.55.4.65.7zm31.5 0c.125.325.1.7-.075 1-.775 1.425-2.75 3.55-5.225 5.65.675 2.75 1.125 5.2 1.25 6.925.025.45-.175.85-.55 1.1-.2.125-.425.2-.65.2-.2 0-.375-.05-.55-.125-.425-.25-.9-.475-1.375-.7-1.3-.65-2.875-1.375-4.75-2.55-1.875 1.175-3.45 1.9-4.75 2.55-.475.225-.95.45-1.375.7-.375.2-.85.175-1.2-.075a1.211 1.211 0 01-.55-1.1c.125-1.725.575-4.175 1.25-6.925-2.475-2.1-4.45-4.225-5.225-5.65a1.17 1.17 0 01-.075-1c.1-.3.325-.575.65-.7 1.2-.525 4.35-.725 7.075-.825.85-2.475 2.225-6.125 3.35-7.25.25-.225.55-.35.85-.35.3 0 .6.125.825.35 1.15 1.125 2.525 4.775 3.375 7.25 2.725.1 5.875.3 7.075.825.3.125.55.4.65.7z" fill="#DDDFE2" fill-rule="evenodd"/></svg>