<svg width="16" height="16" xmlns="http://www.w3.org/2000/svg"><path d="M15.95 6.083a.78.78 0 01-.05.667c-.517.95-1.833 2.367-3.483 3.767.45 1.833.75 3.466.833 4.616a.807.807 0 01-.367.734.826.826 0 01-.433.133.908.908 0 01-.367-.083c-.283-.167-.6-.317-.916-.467-.867-.433-1.917-.917-3.167-1.7-1.25.783-2.3 1.267-3.167 1.7-.316.15-.633.3-.916.467a.77.77 0 01-.8-.05.807.807 0 01-.367-.734c.083-1.15.383-2.783.833-4.616C1.933 9.117.617 7.7.1 6.75a.78.78 0 01-.05-.667.75.75 0 01.433-.466c.8-.35 2.9-.484 4.717-.55C5.767 3.417 6.683.983 7.433.233A.854.854 0 018 0c.2 0 .4.083.55.233.767.75 1.683 3.184 2.25 4.834 1.817.066 3.917.2 4.717.55.2.083.366.266.433.466z" fill="#FFBF3D" fill-rule="evenodd"/></svg>