<svg width="46" height="53" xmlns="http://www.w3.org/2000/svg"><path d="M10.578 42.883c3.438 3.437 7.578 5.156 12.422 5.156s8.965-1.719 12.363-5.156c3.399-3.438 5.098-7.578 5.098-12.422s-1.7-8.965-5.098-12.363C31.965 14.699 27.843 13 23 13c-4.844 0-8.965 1.7-12.363 5.098-3.399 3.398-5.098 7.52-5.098 12.363 0 4.844 1.68 8.984 5.04 12.422zm30-26.367c3.281 4.14 4.922 8.789 4.922 13.945 0 6.172-2.187 11.465-6.563 15.879-4.375 4.414-9.687 6.62-15.937 6.62s-11.562-2.206-15.938-6.62C2.688 41.926.5 36.633.5 30.46c0-6.171 2.187-11.464 6.563-15.878C11.438 10.168 16.75 7.961 23 7.961c5.078 0 9.766 1.68 14.063 5.039l3.515-3.633a24.914 24.914 0 013.516 3.516l-3.516 3.633zM20.54 33.039v-15h4.922v15H20.54zM30.5.461V5.5h-15V.46h15z" fill="#FEC156"/></svg>