<svg width="28" height="28" xmlns="http://www.w3.org/2000/svg"><path d="M14 0c7.752 0 14 6.248 14 14s-6.248 14-14 14S0 21.752 0 14 6.248 0 14 0zm8.518 10.924c.779-.547 1.435-1.272 1.982-2.051-.71.3-1.49.52-2.297.629.834-.492 1.422-1.272 1.71-2.215-.78.465-1.587.78-2.49.97A3.951 3.951 0 0018.54 7c-2.201 0-3.951 1.777-3.951 3.992 0 .287.027.615.096.903a11.294 11.294 0 01-8.23-4.184 4.268 4.268 0 00-.52 2.01c0 1.394.683 2.597 1.75 3.308a3.584 3.584 0 01-1.791-.492v.041c0 1.942 1.367 3.527 3.185 3.924a3.732 3.732 0 01-1.039.123c-.26 0-.52-.027-.752-.068.492 1.586 1.983 2.666 3.705 2.693-1.367 1.066-3.049 1.818-4.935 1.818-.315 0-.643-.04-.93-.068 1.75 1.135 3.855 1.75 6.084 1.75 7.328 0 11.307-6.057 11.307-11.307v-.52z" fill="#546385" fill-rule="evenodd"/></svg>