<svg width="40" height="40" xmlns="http://www.w3.org/2000/svg"><path d="M20 0c11.074 0 20 8.926 20 20s-8.926 20-20 20S0 31.074 0 20 8.926 0 20 0zm12.168 15.605c1.113-.78 2.05-1.816 2.832-2.93a12.92 12.92 0 01-3.281.9c1.191-.704 2.031-1.817 2.441-3.165a11.424 11.424 0 01-3.555 1.387A5.645 5.645 0 0026.485 10c-3.145 0-5.645 2.54-5.645 5.703 0 .41.039.879.137 1.29a16.135 16.135 0 01-11.758-5.977 6.098 6.098 0 00-.742 2.87c0 1.993.976 3.712 2.5 4.727a5.12 5.12 0 01-2.559-.703v.059c0 2.773 1.953 5.039 4.55 5.605-.468.137-.976.176-1.484.176-.37 0-.742-.04-1.074-.098.703 2.266 2.832 3.809 5.293 3.848-1.953 1.523-4.355 2.598-7.05 2.598-.45 0-.919-.059-1.329-.098 2.5 1.621 5.508 2.5 8.692 2.5 10.468 0 16.152-8.652 16.152-16.152v-.743z" fill="#FFF" fill-rule="evenodd"/></svg>