<svg width="134" height="107" xmlns="http://www.w3.org/2000/svg" xmlns:xlink="http://www.w3.org/1999/xlink"><defs><path id="a" d="M0 .046h133.97V106.93H0z"/></defs><g fill="none" fill-rule="evenodd"><g transform="translate(0 .024)"><mask id="b" fill="#fff"><use xlink:href="#a"/></mask><path d="M87.192 101.136a54.207 54.207 0 01-30.077 5.494 54.37 54.37 0 01-27.419-10.917l-17.246 8.665-.834-1.626 4.923-15.704-15.705-5.34L0 80.081l11.628-5.842-4.813-9.395 2.925-1.47a52.6 52.6 0 01-.463-16.847 53.234 53.234 0 014.879-16.207 53.208 53.208 0 019.84-13.999 53.82 53.82 0 0114.367-10.48A54.233 54.233 0 0155.39.548 54.258 54.258 0 0172.607.95a54.488 54.488 0 0116.09 5.672 53.57 53.57 0 0113.456 10.318l2.925-1.47 4.814 9.395 11.629-5.843.833 1.627-4.923 15.705 15.706 5.339.833 1.627-17.246 8.665a53.132 53.132 0 01-7.294 28.359c-5.223 8.917-12.913 16.106-22.238 20.792" fill="#4C8667" mask="url(#b)"/></g><path fill="#FEFEFE" d="M121.364 19.522l-11.427 5.742L.48 80.26l.607 1.183 15.896 5.404L12 102.744l.607 1.183 11.427-5.742L133.49 43.188l-.606-1.183-15.897-5.404 4.983-15.896z"/><path fill="#4C8667" d="M121.97 20.705l-13.817 6.943L1.087 81.444l15.896 5.404L12 102.744 25.817 95.8l107.067-53.796-15.897-5.404z"/><path fill="#FEFEFE" d="M20.634 91.055l5.904 1.581 89.364-44.902 2.358-5.732z"/><path d="M110.575 29.496c13.394 26.141 2.853 58.085-23.545 71.348-26.398 13.264-58.656 2.825-72.05-23.315C1.586 51.389 12.127 19.445 38.525 6.18c26.398-13.264 58.656-2.825 72.05 23.315" fill="#4C8667"/><path d="M85.817 98.478a50.983 50.983 0 01-19.483 5.348 51.228 51.228 0 01-19.373-2.385 50.901 50.901 0 01-17.056-9.404 50.188 50.188 0 01-12.535-15.71c-3.11-6.07-4.928-12.562-5.4-19.293a49.801 49.801 0 012.408-19.184 50.124 50.124 0 019.496-16.89c4.395-5.156 9.733-9.332 15.864-12.413A50.98 50.98 0 0159.222 3.2a51.221 51.221 0 0119.372 2.385 50.892 50.892 0 0117.056 9.403 50.18 50.18 0 0112.535 15.71c3.111 6.07 4.928 12.562 5.4 19.293a49.802 49.802 0 01-2.408 19.184 50.127 50.127 0 01-9.495 16.89c-4.396 5.156-9.733 9.332-15.865 12.413" fill="#FEFEFE"/><path d="M83.392 93.744a45.61 45.61 0 01-17.43 4.787 45.836 45.836 0 01-17.336-2.135 45.545 45.545 0 01-15.263-8.414A44.898 44.898 0 0122.15 73.927c-2.785-5.435-4.411-11.242-4.834-17.261a44.563 44.563 0 012.156-17.167 44.858 44.858 0 018.497-15.115c3.93-4.61 8.706-8.346 14.194-11.103a45.616 45.616 0 0117.43-4.787A45.846 45.846 0 0176.93 10.63a45.55 45.55 0 0115.264 8.414 44.9 44.9 0 0111.212 14.055c2.785 5.434 4.411 11.241 4.834 17.26a44.567 44.567 0 01-2.156 17.167 44.853 44.853 0 01-8.497 15.115c-3.93 4.61-8.706 8.346-14.194 11.103" fill="#4C8667"/><path d="M96.13 90.32s-59.927 4.63-61.237-57.35c0 0 2.09 57.768 61.824 53.564l-.586 3.786z" fill="#FEFEFE"/><path d="M69.694 87.816s-12.342 12.849-22.146 1.08c0 0 6.35-8.221 22.146-1.08m2.391-4.733s-15.471-8.93-6.167-21.09c0 0 9.542 4.223 6.167 21.09" fill="#FEFEFE"/><path d="M59.853 77.658s-12.412-8.528-3.772-18.143c0 0 7.743 4.178 3.772 18.143m-9.505-9.672s-9.526-7.85-1.77-15.095c0 0 6.025 3.965 1.77 15.095m-7.175-9.272s-6.25-7.587.94-12.087c0 0 4.107 4.015-.94 12.087m-3.506-9.597s-4.104-7.219 2.546-9.943c0 0 2.838 3.935-2.546 9.943m-3.133-7.954s-2.78-7.32 3.822-8.913c0 0 2.076 4.075-3.822 8.913m19.992 39.733s-12.598 8.702-18.799-2.854c0 0 6.76-5.831 18.799 2.854m-10.348-9.045S34.326 76.94 31.166 66.39c0 0 6.555-3.688 15.012 5.462m-6.156-10.13s-9.759 3.033-11.364-5.535c0 0 5.471-2.365 11.364 5.535m-3.357-9.754s-9.319 1.705-9.825-6.353c0 0 5.3-1.568 9.825 6.353m-1.905-8.797s-9.477.076-8.561-7.946c0 0 5.494-.632 8.56 7.946m-.937-10.494s-7.983.127-7.266-6.638c0 0 4.624-.57 7.266 6.638m1.068.073s-2.863-6.336 2.897-8.102c0 0 2.063 3.498-2.896 8.102m59.478 56.122s-27.256-17.07-7.717-44.123c0 0-17.838 25.491 9.197 42.683l-1.48 1.44z" fill="#FEFEFE"/><path d="M83.82 79.388s-9.472 1.597-9.868-6.579c0 0 5.395-1.514 9.867 6.58m2.563-1.274s-3.753-8.759 4.19-11.026c0 0 2.731 4.85-4.19 11.026" fill="#FEFEFE"/><path d="M82.885 71.893s-2.569-7.613 4.263-8.997c0 0 1.973 4.258-4.263 8.997m-.948-7.18s-1.548-6.404 4.135-7.05c0 0 1.304 3.62-4.135 7.05m-.077-6.267s-.224-5.248 4.325-4.895c0 0 .463 3.031-4.324 4.895m1.606-5.239s.577-4.408 4.318-3.464c0 0-.056 2.594-4.318 3.464m1.233-4.415s1.18-4.03 4.534-2.615c0 0-.43 2.412-4.534 2.615m-4.295 23.434s-8.237-.267-7.154-7.205c0 0 4.797-.357 7.154 7.205m-1.514-7.178s-6.743-1.583-4.68-7.123c0 0 4.014.5 4.68 7.123m.64-6.311s-5.178-1.8-3.089-5.993c0 0 3.119.723 3.09 5.993m1.72-5.26s-4.558-2.231-2.162-5.855c0 0 2.786 1.012 2.162 5.855m2.034-4.387s-4.097-2.98-1.102-6.137c0 0 2.567 1.476 1.102 6.137m3.001-4.808s-3.472-2.484-.97-5.163c0 0 2.172 1.226.97 5.163m.436.372s.824-3.634 3.872-2.561c0 0-.248 2.16-3.872 2.56m7.507 43.64s-4.765-19.908 16.422-23.635c0 0-19.701 3.766-15.092 23.632l-1.33.003z" fill="#FEFEFE"/><path d="M93.687 79.27s-5.06-3.47-1.545-7.39c0 0 3.157 1.699 1.545 7.39m1.75.553s2.242-5.676 6.906-3.192c0 0-.942 3.433-6.906 3.192" fill="#FEFEFE"/><path d="M96.65 75.422s2.266-4.627 6.022-2.23c0 0-1.023 2.824-6.023 2.23m2.814-3.71s2.187-3.62 5.082-1.395c0 0-1.04 2.236-5.082 1.395m2.799-2.904s2.27-2.504 4.195-.325c0 0-1.16 1.594-4.195.325m3.105-1.688s2.258-1.763 3.545.329c0 0-1.199 1.163-3.545-.33m2.562-1.475s2.364-1.322 3.26.813c0 0-1.288.914-3.26-.813m-12.567 8.83s-3.652-3.775-.018-6.473c0 0 2.359 1.964.018 6.473m2.554-3.959s-2.373-3.716 1.077-5.338c0 0 1.612 2.009-1.077 5.338m3.147-2.607s-1.557-3.122 1.296-4.116c0 0 1.101 1.715-1.296 4.116m3.167-1.647s-1.078-3.043 1.658-3.64c0 0 .819 1.699-1.658 3.64m2.916-1.107s-.528-3.183 2.272-3.3c0 0 .508 1.814-2.272 3.3m3.55-.872s-.467-2.678 1.89-2.795c0 0 .441 1.525-1.89 2.795M20.634 91.055L7.294 65.023l97.627-49.053 13.34 26.032z" fill="#FEFEFE"/><path fill="#4C8667" d="M19.897 89.938L7.77 66.272l97.888-49.185 12.126 23.666z"/><path d="M23.524 79.895l-8.844-8.857 2.647-1.33 3.592 3.82c1.007 1.072 1.96 2.113 2.888 3.304l.048-.024a51.66 51.66 0 01-.947-4.22l-.953-5.206 2.567-1.29 1.823 12.386-2.821 1.417zM35.147 68.43l-3.93 1.976 1.286 2.51 4.39-2.205 1.005 1.962-6.815 3.424-5.42-10.578 6.593-3.313 1.005 1.962-4.168 2.094 1.126 2.198 3.93-1.975zm13.073-1.555c-.617.625-1.85 1.679-3.26 2.388-1.95.98-3.61 1.201-5.075.754-1.449-.417-2.695-1.527-3.476-3.089-1.785-3.523-.231-6.83 3.271-8.59 1.38-.693 2.578-.96 3.23-.971l.473 2.17c-.715.043-1.548.205-2.721.794-2.013 1.012-2.955 2.906-1.781 5.197 1.117 2.182 3.156 2.776 5.137 1.78.554-.278.966-.564 1.108-.754l-1.134-2.212-1.648.828-.957-1.868 3.978-1.999 2.855 5.572zm6.198-8.127l-3.93 1.975 1.286 2.51 4.39-2.205 1.006 1.961-6.815 3.425-5.42-10.578 6.593-3.313 1.005 1.962-4.168 2.094 1.126 2.197 3.93-1.974zm2.148-6.231l-2.868 1.442-1.03-2.009 8.21-4.125 1.03 2.009-2.917 1.465 4.39 8.569-2.424 1.218zm12.765-1.302l-1.816-1.91c-.511-.532-1.104-1.221-1.584-1.77l-.032.017c.164.707.415 1.587.554 2.287l.517 2.563 2.361-1.187zm-1.793 3.15l.63 3.098-2.504 1.258-2.155-12.218 3.17-1.592 8.732 8.913-2.6 1.306-2.215-2.301-3.058 1.537zm8.677-8.345l.95-.478c1.205-.605 1.613-1.56 1.138-2.486-.498-.973-1.413-1.125-2.53-.583-.587.294-.896.509-1.054.628l1.496 2.919zm-4.726-3.35c.713-.515 1.821-1.19 3.105-1.835 1.585-.797 2.815-1.119 3.881-.905.891.184 1.618.747 2.117 1.72.691 1.35.199 2.76-.551 3.552l.024.047c.897-.076 1.671.424 2.44 1.261.943 1.026 1.984 2.24 2.399 2.544l-2.472 1.242c-.328-.21-1.023-.946-2.008-2.09-.96-1.174-1.605-1.304-2.596-.826l-.729.366 2.131 4.159-2.393 1.202-5.348-10.436zm11.751-6.08l5.42 10.577-2.425 1.218-5.42-10.577zM93.642 39l-1.816-1.91c-.511-.532-1.104-1.221-1.584-1.77l-.032.016c.164.708.415 1.588.555 2.287l.516 2.563L93.64 39zm-1.793 3.15l.63 3.098-2.504 1.258-2.155-12.218 3.17-1.593 8.732 8.914-2.6 1.306-2.215-2.301-3.058 1.537zm9.299-1.258l-5.42-10.578 2.82-1.417 4.206 2.761a34.696 34.696 0 013.601 2.75l.048-.024c-.875-1.317-1.654-2.722-2.466-4.307l-1.584-3.091 2.218-1.115 5.42 10.577-2.535 1.275-4.373-2.934c-1.213-.812-2.61-1.826-3.769-2.804l-.039.04c.78 1.365 1.575 2.84 2.46 4.566l1.632 3.186-2.219 1.115z" fill="#FEFEFE"/></g></svg>