<svg width="110" height="107" xmlns="http://www.w3.org/2000/svg"><g fill="none" fill-rule="evenodd"><path d="M52.33 81.681c.321.032.645.064.968.09a58.553 58.553 0 01-.167-3.227c-.284 1.04-.535 2.09-.802 3.137zM48.686 84c1.019-2.493 1.953-5.022 2.747-7.596a28.35 28.35 0 003.452.328l.042.032a83.992 83.992 0 001.641 7.946c-1.067.055-2.134.01-3.199-.053-.024-.486-.04-.972-.087-1.456-.359-.011-.715-.05-1.07-.08-.101.467-.2.935-.309 1.4A30.445 30.445 0 0148.687 84zm6.968-7.247c1.783-.048 3.57-.212 5.313-.607.105.527.21 1.055.318 1.582-.503.108-1.008.207-1.516.287.304 2.1.594 4.203.912 6.3-1.036.18-2.083.285-3.13.353-.133-2.12-.238-4.241-.365-6.362-.51.028-1.021.025-1.53.058-.003-.537 0-1.074-.002-1.611zm-14.182 4.765c1.036-2.43 2.079-4.858 3.12-7.285.634.301 1.28.581 1.935.835.035 1.254.133 2.509.298 3.754.364-1.087.64-2.204.974-3.302.665.204 1.331.4 2.009.557-.545 2.603-1.084 5.207-1.643 7.807-.899-.204-1.782-.47-2.663-.736-.217-1.284-.287-2.587-.422-3.88a106.645 106.645 0 01-1.138 3.324 35.27 35.27 0 01-2.47-1.074zm23.02-6.423a27.283 27.283 0 002.294-1.01c.578 1.3 1.152 2.602 1.73 3.904.26.617.566 1.216.773 1.857.236.65-.094 1.351-.531 1.832-.777.83-1.88 1.269-2.967 1.516-.82.146-1.767.215-2.482-.294-.464-.314-.541-.91-.678-1.41-.409-1.815-.795-3.636-1.184-5.455a25.723 25.723 0 002.365-.696c.478 1.481.926 2.973 1.39 4.458.19.558.317 1.139.554 1.68.14.379.687.17.792-.13-.015-.242-.092-.47-.168-.696a1511.64 1511.64 0 00-1.888-5.556zm5.976-1.602c.288.5.56 1.015.905 1.478.17-.154.36-.293.486-.487.045-.234-.102-.436-.21-.627-.133-.201-.245-.43-.442-.574-.263-.136-.508.118-.74.21zm.526-1.961c.549-.364 1.319-.522 1.895-.128.515.354.92.883 1.14 1.467.204.562-.256 1.044-.612 1.416.501-.266 1.182-.547 1.69-.154.703.761 1.286 1.624 1.933 2.434a34.43 34.43 0 01-2.406 1.938c-.524-.781-1.01-1.587-1.533-2.368-.139-.179-.291-.455-.56-.395-.209.062-.388.187-.558.321.634.988 1.206 2.015 1.83 3.01-.888.637-1.833 1.19-2.789 1.72-1.138-2.378-2.297-4.746-3.433-7.125 1.18-.639 2.276-1.413 3.403-2.136zm-32.107-1.097a25.12 25.12 0 002.032 1.617c-1.107 1.77-2.209 3.542-3.328 5.304a24.86 24.86 0 001.573 1.06c-.256.469-.507.94-.778 1.402a32.542 32.542 0 01-4.251-3.175c1.585-2.07 3.166-4.14 4.752-6.208zm-9.08 1.618c1.893-1.742 3.808-3.464 5.71-5.196a29.675 29.675 0 001.774 2.059c-1.382 1.529-2.765 3.055-4.143 4.585.427.497.916.931 1.394 1.377-.33.416-.66.834-.998 1.243a35.253 35.253 0 01-3.738-4.068zm46.465-3.045c.562.875 1.18 1.714 1.768 2.573.253-.256.476-.54.71-.814a45.836 45.836 0 01-2.478-1.76zm-2.738.149c.927-.899 1.741-1.906 2.518-2.935a62.005 62.005 0 007.03 3.296 35.2 35.2 0 01-2.13 2.939c-.374-.27-.754-.53-1.123-.804-.256.308-.517.612-.776.918.28.382.58.749.843 1.143-.79.875-1.604 1.727-2.484 2.51-1.173-2.419-2.494-4.764-3.878-7.067zm5.085-7.163c1.759 1 3.49 2.05 5.266 3.015.307-.666.624-1.327.92-1.997.454.235.917.447 1.374.675a39.756 39.756 0 01-2.788 5.352c-2.074-1.489-4.124-3.01-6.19-4.508.509-.825.988-1.668 1.418-2.537zM28.944 65.76c.198.324.381.655.571.984a45.986 45.986 0 012.289-2.144c-.954.384-1.919.746-2.86 1.16zm-4.101-2.241c2.52-.47 5-1.127 7.448-1.88a28.838 28.838 0 002.037 3.569 77.26 77.26 0 00-4.851 6.4c-.752-.963-1.42-1.988-2.066-3.023.342-.322.68-.646 1.025-.963a19.489 19.489 0 01-.627-1.102c-.422.177-.838.37-1.256.555a34.394 34.394 0 01-1.71-3.556zm37.493-13.522h2.62c.572 1.892 1.132 3.788 1.707 5.678.02-1.893-.005-3.787.014-5.681.87.006 1.743 0 2.615.003l.001 12.907c-.912.005-1.826-.004-2.737.005-.554-1.883-1.025-3.79-1.59-5.67-.02 1.888-.004 3.776-.008 5.664-.874.004-1.749.002-2.622.001 0-4.302-.002-8.604 0-12.907zm-4.36-.001c1.05.002 2.1 0 3.15 0v12.908c-1.05.002-2.1.001-3.15.001 0-4.303-.002-8.606 0-12.91zm-5.022 8.268l1.026.004c-.15-1.763-.343-3.524-.439-5.291a109.1 109.1 0 00-.587 5.287zm-1.824-8.256c1.511-.026 3.023-.003 4.536-.011l1.786 12.907c-1.067.005-2.134-.005-3.2.005-.084-.771-.116-1.547-.18-2.318-.368-.007-.737-.006-1.106-.005-.064.772-.116 1.546-.177 2.32-1.08 0-2.161 0-3.242-.002.513-4.3 1.07-8.595 1.583-12.896zm-5.857 2.22c-.003.95-.006 1.9 0 2.85.244-.046.517-.037.724-.192.201-.319.168-.716.183-1.076-.015-.437.058-.908-.145-1.313-.167-.247-.499-.24-.762-.268zm-3.153-2.231c1.438.017 2.877-.046 4.312.054.48.046.987.076 1.415.323.558.313.938.888 1.08 1.506.207.86.207 1.758.124 2.635-.053.413-.12.867-.416 1.185-.293.311-.734.389-1.13.48.79.175 1.502.81 1.552 1.654.09 1.689.026 3.381.044 5.071-.972.002-1.944-.004-2.916.003-.018-1.521.002-3.043-.01-4.565-.019-.31-.014-.63-.118-.924-.123-.311-.503-.287-.775-.33-.027 1.938-.003 3.877-.012 5.816h-3.15V49.996zm28.394 1.396c.324-.887 1.227-1.415 2.116-1.586.954-.161 1.97-.138 2.879.22.579.24 1.17.611 1.402 1.224.304.849.237 1.766.246 2.652-.975.004-1.95.002-2.923 0-.025-.552.05-1.113-.049-1.66-.085-.436-.763-.39-.87.01-.166.538-.157 1.173.11 1.677.415.541 1.069.817 1.599 1.226.722.539 1.517 1.064 1.959 1.874.467.97.435 2.078.422 3.128-.04.7-.12 1.48-.645 2-.65.662-1.589.96-2.497 1.013-1.132.07-2.369-.206-3.175-1.054-.505-.523-.621-1.275-.686-1.969a22.537 22.537 0 01-.05-1.882c.977.011 1.955-.024 2.932.019-.002.758-.054 1.524.06 2.278.052.504.835.521.983.064.183-.503.114-1.063.052-1.583-.036-.392-.297-.701-.601-.926-.818-.67-1.722-1.23-2.52-1.924-.723-.645-.976-1.653-.995-2.589-.008-.741.005-1.504.251-2.212zm-36.616.367c.378-1.078 1.437-1.843 2.553-1.995.77-.097 1.576-.07 2.312.195.82.306 1.575.918 1.875 1.762.318.98.273 2.022.272 3.039-1.043-.003-2.087.008-3.13-.006-.001-.824.019-1.656-.078-2.475-.02-.368-.57-.476-.755-.177-.12.242-.108.523-.12.787-.049 1.346-.016 2.694-.025 4.041.01 1.146-.033 2.292.049 3.436.004.281.168.658.512.589.338-.022.448-.4.471-.68.06-.768.053-1.54.05-2.31l-.629-.004c.003-.665-.008-1.33.006-1.994 1.217.013 2.435-.007 3.652.01-.007 2.309 0 4.618-.004 6.926-.658.003-1.317 0-1.976.003l-.278-.89c-.266.44-.631.853-1.133 1.023-1.167.419-2.53-.136-3.224-1.127-.511-.712-.609-1.612-.62-2.463-.006-1.646.003-3.291-.005-4.937.007-.92-.01-1.858.225-2.753zm37.335-21.353l5.219.001c-.002.865 0 1.73-.001 2.596-.69.003-1.379-.005-2.068.004.002.805 0 1.61.002 2.415.645.001 1.29.002 1.936 0 .004.825.01 1.65-.003 2.475-.646-.006-1.29-.002-1.933-.002-.002.94-.001 1.88-.001 2.822.756.002 1.512 0 2.268 0l.001 2.597c-1.806.003-3.613 0-5.42 0V30.408zm-5.772 0h3.15c.002 3.437 0 6.874 0 10.31.63.003 1.26 0 1.891.002.001.865-.001 1.73.001 2.596-1.68.003-3.361 0-5.042 0V30.408zm-16.688.002c1.051-.004 2.102 0 3.151-.002.002 1.529 0 3.058.002 4.587.295.005.59.004.885-.008-.01-1.526 0-3.052-.005-4.578 1.051-.003 2.1 0 3.151 0l.001 12.908c-1.05-.001-2.101.002-3.152-.002 0-1.807.004-3.613-.002-5.419-.295-.003-.59-.002-.884.01.014 1.801-.003 3.603.008 5.405-1.051.012-2.103.004-3.155.005.001-4.303.002-8.605 0-12.906zm-12.968 0c1.018-.003 2.035-.002 3.053-.002.18 2.592.375 5.182.56 7.772.014.279.031.56.09.833.119-2.878.497-5.74.826-8.6 1.081-.01 2.161-.002 3.242-.005.236 2.991.425 5.986.689 8.976.135-3.004.452-5.996.838-8.976l3.048.001c-.434 4.206-.91 8.408-1.35 12.613-.036.095.028.343-.155.295-1.252-.003-2.503.008-3.755-.006-.427-2.196-.71-4.438-.95-6.668-.31 2.221-.576 4.449-.862 6.674-1.295-.006-2.59.012-3.884-.01-.45-4.3-.935-8.598-1.39-12.898zm24.776 1.962c-.337.136-.31.552-.335.852-.007 2.389-.002 4.778-.002 7.168.018.289-.004.604.142.866.167.146.462.174.608-.016.153-.218.13-.499.155-.75.056-1.41.013-2.823.027-4.234-.021-1.15.05-2.302-.053-3.448.007-.281-.25-.563-.542-.438zm-.682-2.182c.915-.14 1.888-.057 2.723.363.888.448 1.482 1.383 1.603 2.36.092.808.067 1.623.103 2.434-.016 1.787.042 3.577-.092 5.36-.093 1.12-.824 2.181-1.883 2.59a4.649 4.649 0 01-3.216.03c-1.067-.376-1.835-1.408-1.96-2.522-.129-1.277-.072-2.561-.085-3.842.012-1.28-.037-2.563.064-3.842.051-.74.349-1.468.87-2 .488-.521 1.176-.82 1.873-.93zm20.453-7.931c.894.638 1.732 1.351 2.584 2.044-.595.746-1.244 1.447-1.858 2.177.227.2.453.401.683.6.621-.714 1.273-1.4 1.897-2.113a34.53 34.53 0 012.407 2.376c-1.936 1.826-3.88 3.642-5.808 5.475-.65-.642-1.277-1.308-1.961-1.913.74-.842 1.508-1.659 2.25-2.5-.218-.184-.43-.372-.645-.557-.738.838-1.452 1.697-2.196 2.53a34.557 34.557 0 00-2.087-1.671c1.574-2.152 3.16-4.296 4.734-6.448zm-51.028 1.086a39.13 39.13 0 013.484-2.52c1.446 2.236 2.886 4.478 4.34 6.709-.638.448-1.294.871-1.911 1.35-1.04-1.374-2.064-2.76-3.115-4.125.76 1.577 1.562 3.134 2.398 4.673-.437.35-.865.713-1.292 1.078a92.928 92.928 0 00-3.438-2.616c-.203-.146-.397-.309-.624-.417 1.11 1.23 2.241 2.443 3.36 3.666a42.396 42.396 0 00-1.713 1.706c-1.934-1.834-3.884-3.65-5.823-5.477.971-1.065 2.028-2.05 3.103-3.009 1.019.714 2.002 1.477 2.983 2.24a160.491 160.491 0 01-1.752-3.258zm43.69-3.619c.239-.486.457-.983.716-1.459a41.815 41.815 0 016.063 3.583c-.307.446-.625.884-.936 1.327a44.16 44.16 0 00-1.536-1.041c-1.138 1.786-2.299 3.558-3.422 5.353-.77-.42-1.502-.91-2.28-1.318 1.001-1.87 2.007-3.739 3.02-5.604-.523-.315-1.085-.558-1.625-.84zm-34.371 3.62c.28-.138.562-.28.843-.422-.62-.892-1.217-1.798-1.817-2.702a44.1 44.1 0 00.974 3.125zm-3.959-3.67a42.633 42.633 0 014.087-2.054 93.601 93.601 0 014.586 6.765c-.825.311-1.623.685-2.434 1.03-.232-.417-.49-.818-.737-1.224-.29.14-.576.28-.859.434.173.448.361.891.527 1.343-.79.422-1.578.854-2.329 1.345-1.067-2.498-1.992-5.057-2.84-7.638zm32.655 4.548c.959-2.487 1.842-5.003 2.807-7.487.983.398 1.983.76 2.93 1.242-1.131 2.409-2.22 4.838-3.348 7.249-.785-.362-1.592-.67-2.389-1.004zm-23.01-7.125c.487 1.672.959 3.35 1.453 5.02.242-.078.478-.182.656-.368a3.847 3.847 0 00-.145-.964c-.285-1.07-.556-2.143-.846-3.212-.075-.203-.102-.485-.336-.569-.263-.062-.527.037-.782.093zm.39-1.528c.755-.17 1.538-.326 2.312-.2.517.09 1.037.424 1.173.958.286.986.408 2.01.612 3.014.125.763.322 1.52.332 2.295 0 .472-.33.87-.73 1.083-.586.32-1.254.44-1.889.626a33.71 33.71 0 00-2.808.904c-.936-2.498-1.857-5-2.79-7.5 1.241-.457 2.5-.874 3.788-1.18zm12.7-1.395c1.02.06 2.042.115 3.054.259.015 1.745-.06 3.488-.074 5.233.418-1.715.927-3.412 1.583-5.05 1.056.194 2.117.37 3.16.626-.188 1.783-.445 3.559-.663 5.339l-.15.071c.063.026.148.054.176-.035a35.714 35.714 0 012.144-4.998c.99.282 1.979.575 2.947.93a119.831 119.831 0 00-3.768 7.173 31.162 31.162 0 00-3.061-.814c-.056-1.371-.002-2.743.016-4.115-.179.291-.27.622-.397.935-.362.955-.73 1.91-1.047 2.88-1.042-.142-2.083-.298-3.132-.377-.18-2.693-.425-5.383-.789-8.057zm-8.334.455a43.344 43.344 0 015.21-.474c-.016.541.043 1.08.02 1.621-.663.01-1.325.049-1.987.105.047.49.078.98.122 1.47.597-.025 1.192-.087 1.79-.082.014.512.023 1.024.057 1.537-.577.005-1.154.04-1.728.094.056.575.093 1.152.145 1.727a25.68 25.68 0 011.942-.095c-.033.533.027 1.064.022 1.597a40.638 40.638 0 00-4.37.399c-.4-2.635-.82-5.265-1.223-7.9zm2.737-2.302c-7.207.539-14.271 2.918-20.316 6.883-4.767 3.117-8.902 7.204-12.041 11.96a40.302 40.302 0 00-4.92 10.421c-2.358 7.676-2.325 16.064.095 23.72 1.931 6.16 5.39 11.817 9.927 16.402a42.596 42.596 0 0015.81 10.104c8.453 3.066 17.86 3.405 26.52.999a42.718 42.718 0 0016.915-9.183c4.971-4.4 8.886-10.002 11.227-16.223 2.995-7.9 3.376-16.758 1.091-24.89-1.457-5.228-4.003-10.143-7.395-14.377-4.01-5.022-9.196-9.09-15.008-11.825-6.788-3.213-14.422-4.572-21.905-3.99zm.612-1.805c7.302-.447 14.715.876 21.382 3.899a44.202 44.202 0 0115.009 11.09c4.03 4.582 7.078 10.031 8.813 15.886a41.922 41.922 0 01-.09 24.104c-1.908 6.263-5.321 12.046-9.823 16.792-4.664 4.932-10.488 8.75-16.856 11.09-7.19 2.657-15.06 3.41-22.632 2.245a44.755 44.755 0 01-14.872-5.067A43.996 43.996 0 0119.8 78.923c-3.916-5.078-6.673-11.053-7.934-17.344-1.575-7.783-.884-16.014 2.008-23.413 1.961-5.05 4.916-9.705 8.617-13.658 6.233-6.69 14.598-11.332 23.553-13.145a45.29 45.29 0 016.391-.84zm-.002-2.02c-7.655.43-15.199 2.77-21.735 6.786a45.91 45.91 0 00-12.678 11.504 44.262 44.262 0 00-6.924 13.49A43.81 43.81 0 009.126 52.99a43.818 43.818 0 005.023 20.705c2.924 5.579 7.05 10.516 11.986 14.424a46.348 46.348 0 0015.146 7.971c10.925 3.385 23.084 2.634 33.482-2.148 6.617-3.022 12.511-7.625 17.012-13.345 4.062-5.144 6.98-11.195 8.423-17.593 1.845-8.131 1.32-16.789-1.529-24.628a44.57 44.57 0 00-8.36-14.14 46.119 46.119 0 00-14.93-11.293c-7.11-3.391-15.087-4.906-22.947-4.441zM54.133.104c1.027-.263 2.12-.007 3.018.526 1.282.753 2.302 1.863 3.273 2.973 1.407 1.611 2.67 3.365 4.278 4.79.344.266.657.632 1.108.71 1.013.215 2.008.507 3.01.773 1.428-.1 2.797-.577 4.142-1.043 1.992-.702 3.942-1.564 6.021-1.984 1.207-.232 2.556-.288 3.642.378 1.086.672 1.672 1.883 2.052 3.058.683 2.183.865 4.477 1.32 6.71.218 1.043.458 2.1.937 3.06.8.773 1.615 1.54 2.389 2.34.828.444 1.766.642 2.676.852 2.214.465 4.48.645 6.678 1.184 1.096.28 2.207.643 3.109 1.351a3.393 3.393 0 011.25 2.002c.213 1.07.011 2.167-.267 3.205-.514 1.842-1.312 3.584-1.967 5.375-.43 1.177-.83 2.381-.955 3.634-.045.272.068.533.142.79.168.568.324 1.141.467 1.716.073.277.102.584.296.812.851 1.133 1.951 2.044 3.047 2.93 1.447 1.165 2.966 2.254 4.28 3.577.764.787 1.486 1.677 1.793 2.75.244.833.128 1.744-.25 2.52-.533 1.109-1.414 2.001-2.314 2.82-1.55 1.388-3.272 2.571-4.83 3.95-.755.687-1.518 1.404-2.027 2.298-.206.752-.426 1.503-.627 2.256.01 1.668.62 3.255 1.193 4.8.728 1.937 1.617 3.835 1.997 5.882.18 1.033.192 2.169-.343 3.106-.54.953-1.53 1.536-2.526 1.915-1.97.731-4.079.938-6.14 1.277-1.738.29-3.529.56-5.104 1.395-.461.22-.774.635-1.148.966-.594.513-.882 1.272-1.158 1.985-.759 2.204-.934 4.545-1.387 6.82-.274 1.364-.598 2.759-1.345 3.952-.465.742-1.166 1.357-2.014 1.61-1.115.338-2.306.172-3.42-.087-2.816-.692-5.418-2.058-8.248-2.71-1.217-.266-2.544-.397-3.716.117-1.173.52-2.11 1.432-2.976 2.356-1.41 1.525-2.635 3.213-4.076 4.71-.92.941-1.942 1.86-3.21 2.291-.985.347-2.093.221-3.015-.25-1.317-.663-2.355-1.746-3.328-2.83-1.218-1.374-2.322-2.847-3.588-4.179-.731-.758-1.52-1.487-2.463-1.972-1.074-.571-2.345-.553-3.513-.337-3.14.605-5.979 2.21-9.098 2.886-1.168.24-2.448.341-3.55-.196-1.058-.517-1.714-1.574-2.122-2.639-1.107-2.998-1.06-6.27-2.037-9.302-.336-1.008-.818-2.023-1.662-2.704-.916-.732-2.06-1.096-3.18-1.377-2.419-.582-4.916-.738-7.33-1.33-1.244-.321-2.533-.747-3.463-1.674-.683-.672-.994-1.643-.978-2.587.014-1.454.494-2.848.984-4.2.727-1.985 1.637-3.912 2.115-5.98.261-1.175.36-2.47-.195-3.579-.585-1.168-1.557-2.077-2.526-2.926-1.593-1.373-3.334-2.566-4.874-4.001-.949-.904-1.887-1.923-2.255-3.213-.288-.977-.056-2.038.46-2.896.711-1.2 1.762-2.144 2.816-3.038 1.607-1.35 3.349-2.542 4.848-4.018.866-.871 1.707-1.896 1.885-3.152.194-1.45-.23-2.887-.684-4.249-.619-1.802-1.416-3.539-2.002-5.353-.385-1.233-.72-2.541-.5-3.838.144-.876.667-1.661 1.383-2.178 1.006-.735 2.228-1.087 3.427-1.363 2.328-.52 4.721-.687 7.038-1.264.933-.244 1.876-.543 2.681-1.089.384-.35.75-.724 1.115-1.094.504-.68.792-1.495 1.035-2.298.579-2.035.772-4.152 1.184-6.223.24-1.192.528-2.394 1.098-3.477.403-.767 1.003-1.464 1.801-1.832.935-.437 2.006-.418 3.003-.257 3.342.593 6.336 2.379 9.673 2.992.488.058 1.001.206 1.48.023.787-.244 1.593-.424 2.386-.64 1.066-.644 1.918-1.58 2.744-2.497 1.387-1.574 2.63-3.28 4.152-4.73.855-.8 1.828-1.55 2.985-1.837z" fill="#746658"/><path d="M58.147 89.912l.17.005c.249.019.496.05.745.079 1.135.351 2.223.905 3.075 1.735.436.432.828.955.91 1.576-1.128.343-2.335-.045-3.332-.58-.943-.561-1.844-1.41-2.029-2.525l-.272-.06c.243-.08.483-.173.733-.23zm-4.2.031c.26-.026.518-.057.779-.082.154.025.307.052.461.091.21.078.416.165.633.226a11.377 11.377 0 00-.484-.033c-.15.98-.888 1.755-1.69 2.295a5.494 5.494 0 01-2.596.866c-.37.006-.764-.008-1.095-.188.205-.982 1.015-1.69 1.82-2.223.662-.442 1.408-.733 2.171-.952zm13.686-1.962c.248-.028.5-.045.75-.063 1.03.1 2.054.333 2.972.816.707.372 1.454.847 1.748 1.62-.879.497-1.956.416-2.913.229-1.263-.316-2.564-1.02-3.115-2.241.021-.076.044-.15.067-.224.163-.047.327-.092.491-.137zm-23.008-.35c.226.02.451.038.678.066l.644.206-.055.183c-.108.455-.46.803-.803 1.105-.958.781-2.21 1.196-3.452 1.174-.597.008-1.207-.097-1.727-.397.288-.79 1.071-1.252 1.793-1.612.91-.448 1.916-.644 2.922-.726zm18.598-1.72c.496-.67 1.142-1.359 2.018-1.48.357.725.3 1.58.034 2.324-.246.679-.647 1.315-1.215 1.775-.092.084-.225.156-.221.299-.269.091-.524.215-.78.335l-.546.12-.162-.154c-.235-1.136.23-2.292.872-3.22zM47.77 84.224c.857.13 1.484.813 1.977 1.465.667.955 1.156 2.147.912 3.32a5.76 5.76 0 00-.328.114c-.151-.058-.303-.105-.455-.153a5.331 5.331 0 00-.835-.355l.156-.052c-.982-.753-1.636-1.931-1.676-3.164a2.5 2.5 0 01.25-1.175zm28.476-.027c.242-.078.487-.152.727-.237.984-.032 1.985-.07 2.944.2.822.219 1.706.53 2.214 1.25-.6.55-1.439.719-2.227.801a5.655 5.655 0 01-3.24-.722c-.341-.213-.68-.469-.875-.825l-.095-.155a12.4 12.4 0 01.552-.312zm-44.958.169c.877-.637 1.992-.867 3.06-.938.565-.05 1.128.046 1.692.039.217.08.437.152.658.227.193.101.382.21.569.325.027.08.055.16.085.242l-.14.017c-.91 1.068-2.416 1.436-3.78 1.395-.871-.06-1.812-.23-2.485-.82-.068-.219.213-.35.341-.487zm40.046-1.139c.304-.802.774-1.642 1.603-2.006.657.71.767 1.76.61 2.674-.11.716-.49 1.348-.895 1.937-.189.15-.372.305-.56.453-.16.067-.317.135-.48.188-.135 0-.268.003-.402.008l.148-.13c-.5-.97-.345-2.124-.024-3.124zm-31.921-.134c-.05-.79.077-1.693.682-2.264.874.447 1.369 1.366 1.65 2.259.275.967.366 2.054-.108 2.978l-.285.052-.484-.244c-.173-.14-.34-.286-.509-.427-.49-.701-.897-1.49-.946-2.354zm44.728-4.669c1.252-.465 2.624-.625 3.945-.398.54.102 1.1.27 1.504.66-.467.678-1.26 1.031-2.028 1.272a5.697 5.697 0 01-3.144-.01c-.423-.144-.87-.313-1.167-.659l-.138-.142c.149-.14.3-.277.452-.412.188-.11.382-.208.576-.31zm-60.718-.533c.57-.511 1.374-.628 2.113-.682 1.125-.082 2.241.157 3.297.523.184.102.37.201.553.309.15.132.296.266.444.403-.009.057-.03.17-.038.226-.725.601-1.703.793-2.628.798a5.489 5.489 0 01-2.97-.831 2.722 2.722 0 01-.771-.746zm55.124 1.02c.072-.861.283-1.852 1.047-2.38 1.017.756 1.408 2.118 1.256 3.327-.034.422-.238.804-.317 1.216-.16.17-.292.362-.432.548-.174.136-.35.27-.526.403l-.136-.14c-.766-.774-.912-1.94-.892-2.974zm-45.248-2.837c.205-.164.385.136.511.266.624.882.751 2.025.607 3.07-.084.71-.348 1.406-.822 1.954l-.265.047a17.997 17.997 0 00-.474-.404c-.11-.152-.213-.309-.319-.464-.324-.726-.49-1.531-.371-2.322.12-.809.465-1.635 1.133-2.147zm51.38-5.466c.673.165 1.161.726 1.538 1.271.582.874.8 1.962.595 2.988-.05.156-.1.313-.153.47-.125.179-.266.347-.402.519a9.958 9.958 0 00-.241-.006c-.965-.73-1.503-1.885-1.706-3.043-.099-.74-.113-1.576.368-2.2zm7.474-.27c.916-.189 1.977-.35 2.82.152-.298.781-.985 1.335-1.705 1.728-1.044.553-2.282.78-3.452.563-.28-.07-.572-.138-.81-.301l-.158-.13c.087-.143.177-.283.266-.424.187-.192.38-.375.569-.566.782-.427 1.581-.852 2.47-1.022zm-64.96.328c.302-.313.653-.612 1.082-.734.4.326.452.904.48 1.385.02 1.443-.595 2.929-1.75 3.842-.084-.004-.167-.008-.25-.01a88.482 88.482 0 01-.4-.516c-.052-.16-.099-.32-.145-.478-.282-1.232.122-2.566.983-3.49zm-9.143-1.128c.918-.435 1.983-.263 2.93-.02.855.207 1.635.621 2.37 1.087.155.14.31.28.456.43.129.168.238.35.349.53l-.152.13c-.408.267-.923.323-1.401.352-1.403.033-2.828-.472-3.848-1.43-.315-.3-.588-.657-.704-1.079zm69.832-5.619c.05-.337.424-.149.634-.086 1.471.565 2.568 1.994 2.701 3.547-.017.22-.034.44-.06.662-.08.164-.16.329-.238.496l-.177-.06c-.975-.32-1.67-1.147-2.214-1.968-.451-.771-.861-1.685-.646-2.59zm-66.077 2.654c.11-1.716 1.487-3.333 3.224-3.626.299.573.144 1.246-.062 1.824a5.549 5.549 0 01-1.907 2.507c-.24.161-.497.316-.786.372l-.19.048c-.094-.21-.186-.419-.277-.627-.004-.167-.002-.332-.002-.498zm74.21-5.201c.574-.18 1.202-.285 1.794-.124-.043 1.01-.771 1.844-1.546 2.437-1 .719-2.299 1.175-3.54.908l-.125.112c-.04-.097-.08-.195-.117-.291.03-.118.06-.236.094-.352.184-.332.375-.666.47-1.035-.01.078-.028.235-.036.313a6.915 6.915 0 013.006-1.968zm-80.798-1.127c.924-.176 1.85.152 2.662.566.787.403 1.511.941 2.071 1.624l.044-.191c.079.271.214.522.367.76.052.146.101.294.152.443a5.49 5.49 0 00-.111.273c-1.437.277-2.932-.317-3.988-1.268-.615-.58-1.208-1.328-1.197-2.207zm73.916-3.964c1.36-.046 2.647.69 3.503 1.695.291.316.424.734.681 1.072.047.335.106.673.084 1.014l-.051.237a12.395 12.395 0 01-.192-.018c-.55-.018-1.06-.256-1.528-.521-.905-.545-1.723-1.275-2.226-2.204-.211-.385-.397-.833-.271-1.275zm-66.626-.6c.451-.148.935-.228 1.41-.155.023.303-.01.614-.136.895-.508 1.154-1.506 2.037-2.62 2.615-.415.22-.874.337-1.336.408-.078-.1-.162-.195-.245-.29.005-.119.007-.236.008-.352.029-.196.073-.388.117-.581.501-1.2 1.56-2.131 2.802-2.54zm73.645-3.467c.517-.319 1.11-.597 1.736-.532.221.976-.23 1.97-.824 2.734-.788.918-1.939 1.686-3.198 1.644l-.212-.072c-.004-.053-.01-.159-.015-.211a5.42 5.42 0 01.176-.942c.54-1.049 1.318-1.993 2.337-2.621zm-81.026-1.532c.924-.026 1.73.53 2.406 1.092a6.483 6.483 0 011.618 2.116l.064-.34c-.003.33.06.657.13.98.007.208.01.416.013.626l-.218.006c-1.222.018-2.32-.732-3.1-1.605-.646-.793-1.144-1.841-.913-2.875zm73.36-1.941c1.27-.166 2.58.259 3.58 1.025.316.228.55.541.845.792.12.24.235.484.335.735l.03.378a3.889 3.889 0 00-.123.252c-.038-.027-.116-.078-.155-.104-.909.067-1.796-.236-2.6-.624-.76-.362-1.46-.867-1.977-1.53a1.776 1.776 0 01-.344-.709c.013-.2.268-.17.41-.215zm-68.288.89c.853-1.032 2.177-1.638 3.516-1.706.414-.025.83.036 1.224.162-.025.261-.12.512-.28.722-.639.871-1.61 1.438-2.614 1.817a4.962 4.962 0 01-2.2.323c-.039-.128-.082-.254-.12-.38l.087-.262c.116-.27.24-.536.324-.815l.063.14zm73.936-6.793c.285-.239.63-.39.982-.505.44.54.402 1.292.327 1.942-.22 1.298-1.081 2.514-2.297 3.083-.202.124-.652.075-.515.419-.08-.104-.166-.2-.246-.302a3.419 3.419 0 01-.213-.56c0-.183.005-.363.01-.545.219-1.347.874-2.655 1.952-3.532zM17.755 44.07c-.286-.845-.377-1.837.084-2.639.639.108 1.148.554 1.565 1.016.773.852 1.21 1.937 1.444 3.044-.013.236-.025.474-.043.711-.051.137-.1.275-.164.407-.08.087-.162.173-.24.264.046-.28-.289-.262-.465-.36-1.036-.461-1.788-1.411-2.18-2.443zm67.138-2.196c.822-.539 1.884-.564 2.83-.417.85.12 1.63.505 2.335.972.154.164.311.326.459.497.082.16.163.322.244.486l-.132.173c-1.209.402-2.525.157-3.703-.23-.78-.312-1.63-.709-2.033-1.48zm-61.936-.25c1.258-.852 2.886-1.214 4.373-.798.25.097.583.15.74.377-.076.358-.417.591-.699.798-1.071.71-2.383.999-3.66 1.01-.444-.022-.913-.054-1.31-.265l-.16-.132.253-.5c.151-.166.31-.326.463-.49zm65.927-6.753c.234-.386.572-.698.964-.926.482.37.697.97.809 1.542a4.078 4.078 0 01-.825 3.31c-.267.31-.576.614-.972.752l-.201.073a78.665 78.665 0 00-.324-.519c-.066-.19-.121-.383-.177-.575-.178-1.251.053-2.573.726-3.657zm-66.261-1.04c.116-.257.304-.472.494-.677.764.353 1.187 1.141 1.463 1.89.327.864.383 1.803.287 2.713-.055.183-.111.366-.175.545l-.312.526-.228-.049c-.456-.182-.81-.552-1.094-.938-.819-1.15-1.036-2.722-.435-4.01z" fill="#DFB887"/><path d="M62.473 90.342l.542-.124c.234.013.468.034.702.047a7.195 7.195 0 012.97 1.181c.614.441 1.227.996 1.428 1.762-1.144.448-2.449.186-3.525-.337-.955-.48-1.918-1.248-2.166-2.35l.049-.18zm-13.165-.262c.202-.017.404-.042.607-.058.151.049.302.097.452.156.08.062.16.129.243.193-.35 1.254-1.504 2.067-2.657 2.497-.972.336-2.095.478-3.061.05.17-.652.662-1.145 1.175-1.541.945-.705 2.082-1.136 3.24-1.297zm22.683-2.8c.232-.043.466-.071.7-.107 1.378-.034 2.796.253 3.985.981.385.262.817.56.96 1.031-1.019.624-2.283.64-3.415.385-1.11-.26-2.226-.855-2.8-1.89l.093-.208c.162-.054.32-.124.477-.192zm-36.321.898c.84-.824 2.017-1.172 3.146-1.344.46-.056.927-.114 1.389-.033.251.032.505.041.758.06l.481.248c.045.071.09.146.14.217-.62 1.07-1.816 1.642-2.984 1.846-1.068.184-2.258.123-3.184-.497-.071-.192.149-.358.254-.497zm23.177-.46c.568-.656 1.315-1.239 2.194-1.343.212.524.174 1.112.034 1.649-.307 1.155-1.131 2.141-2.167 2.703-.202.086-.402.178-.605.26l-.17-.004c-.175-.031-.35-.069-.524-.098-.107-1.187.506-2.292 1.238-3.168zm-6.904-1.436c.608.024 1.137.386 1.6.755a5.91 5.91 0 011.703 2.521c.094.355.22.744.12 1.109-.053.12-.116.236-.173.356a5.225 5.225 0 00-.459-.092c-.232-.08-.456-.182-.68-.278-1.04-.628-1.876-1.65-2.15-2.857a2.775 2.775 0 01.04-1.514zm15.092.028c.392-.985 1.021-2.013 2.07-2.363.468.692.513 1.589.35 2.39-.198.862-.648 1.673-1.303 2.263-.197.138-.39.282-.592.411-.163.046-.325.092-.487.14l-.17-.107c-.37-.871-.178-1.875.132-2.734zM43.5 85.713c-.083-.709-.02-1.492.416-2.08 1.133.444 1.783 1.6 2.155 2.709.218.769.391 1.66.024 2.41-.03.057-.058.116-.084.179-.215-.072-.428-.141-.64-.21-.171-.134-.336-.275-.506-.408-.74-.664-1.218-1.614-1.365-2.6zm37.112-3.416c1.092-.31 2.258-.322 3.367-.107.7.152 1.423.399 1.927.94-.371.49-.956.75-1.518.94-1.23.356-2.594.318-3.772-.209-.402-.187-.802-.422-1.067-.79a8.146 8.146 0 00-.122-.141c.175-.137.35-.273.523-.412.22-.075.443-.14.662-.22zm-52.123-.656c1.26-.329 2.628-.33 3.873.068.21.07.426.124.64.182.16.134.316.272.471.412.028.07.058.14.089.213-.26.116-.432.366-.682.502-.995.595-2.201.74-3.332.581-.896-.121-1.793-.466-2.434-1.13.292-.482.873-.662 1.375-.828zm46.383 1.157c.102-1.082.446-2.274 1.394-2.902.527.414.78 1.084.911 1.727.158.991-.006 2.068-.577 2.904-.164.203-.315.418-.481.62-.186.102-.368.21-.548.32a6.58 6.58 0 01-.131-.161c-.55-.694-.613-1.652-.568-2.508zm-38.41 1.32c-.95-1.367-.992-3.49.239-4.698.92.532 1.256 1.66 1.405 2.657.096.933.062 1.998-.537 2.765l-.184.124a8.563 8.563 0 00-.566-.332c-.123-.17-.239-.345-.357-.516zm50.545-8.292c.763-.458 1.644-.676 2.516-.807.948-.094 2.003-.112 2.827.45-.37.733-1.084 1.22-1.815 1.532-1.114.454-2.383.596-3.542.235-.258-.096-.549-.172-.735-.39a11.44 11.44 0 01-.191-.215c.136-.176.276-.348.4-.531.183-.084.365-.171.54-.274zm-4.83-1.392c.709.363 1.175 1.074 1.456 1.805.31.873.363 1.867.034 2.742-.094.196-.18.394-.275.59-.151.137-.301.277-.449.42-.041-.027-.125-.08-.166-.108-.742-.59-1.064-1.568-1.227-2.477-.141-1.01-.122-2.195.626-2.972zm-61.525.19c.482-.42 1.158-.457 1.763-.495a7.466 7.466 0 013.642.963c.16.098.325.189.486.29.13.175.263.351.396.526l-.093.165c-.74.566-1.74.629-2.634.559-1.373-.163-2.82-.761-3.56-2.009zm8.693 3.724c-.576-1.602-.039-3.647 1.445-4.549.636.552.752 1.482.73 2.282-.044 1.15-.387 2.39-1.276 3.167a9.767 9.767 0 00-.249.025 23.83 23.83 0 00-.441-.411c-.075-.17-.14-.343-.209-.514zm56.868-10.104c.06-.151.114-.484.34-.365 1.593.606 2.627 2.376 2.516 4.075-.055.22-.105.443-.163.663-.089.144-.177.288-.264.433-.049-.018-.147-.054-.195-.07-.743-.313-1.241-1.018-1.64-1.696-.484-.916-.856-2-.594-3.04zm-61.15-.175c.425-.448.947-.84 1.561-.963.478.905.22 1.992-.156 2.886-.4.896-.993 1.794-1.9 2.217-.07.015-.142.026-.213.04-.11-.185-.218-.37-.346-.54-.02-.42-.047-.839-.055-1.258a4.18 4.18 0 011.109-2.382zm69.083-1.525c.757-.21 1.59-.341 2.343-.049-.271 1.17-1.27 2.014-2.306 2.496-1.017.456-2.24.696-3.296.242a10.27 10.27 0 01-.187-.075c.077-.17.157-.339.237-.507.139-.191.292-.373.442-.555a7.22 7.22 0 012.767-1.552zm-77.578-1.04c.775-.278 1.622-.09 2.384.146.987.338 1.921.872 2.675 1.604.13.137.267.267.395.406.09.213.182.426.275.64a2.033 2.033 0 00-.217.09c-.714.33-1.545.222-2.285.043-1.268-.358-2.495-1.149-3.098-2.369-.059-.177-.198-.379-.13-.56zm72.026-5.012c1.78.106 3.321 1.6 3.735 3.322 0 .257.012.514.017.773-.034.118-.064.24-.094.36a60.86 60.86 0 01-.22.065c-1.094-.259-1.966-1.082-2.633-1.962-.522-.729-1.011-1.63-.805-2.558zm-67.917 2.482c.375-1.735 1.956-3.199 3.73-3.278.201.813-.18 1.627-.617 2.291-.682.992-1.635 1.885-2.827 2.166a5.07 5.07 0 00-.226-.193c-.05-.153-.1-.304-.151-.454.028-.178.061-.354.091-.532zm75.3-5.724c.603-.3 1.284-.56 1.965-.423.055 1.19-.67 2.262-1.56 2.973-.851.678-1.963 1.168-3.061.98-.052-.01-.154-.026-.206-.035l.052-.242c.069-.31.17-.61.286-.904a6.574 6.574 0 012.525-2.35zm-80.9-1.462c.98-.086 1.901.4 2.68.953.7.534 1.344 1.175 1.784 1.95.091.176.187.348.276.525 0 .12-.003.238-.008.36l-.08.327c-1.377.126-2.71-.577-3.625-1.58-.63-.675-1.104-1.584-1.027-2.535zm73.589-2.966c1.801-.257 3.659.811 4.528 2.401.083.298.164.597.209.904l.015.216-.198.07c-.891.028-1.737-.382-2.482-.841-.69-.465-1.348-1.023-1.783-1.746-.173-.305-.309-.647-.29-1.004zm-66.452-.56c.678-.255 1.424-.381 2.14-.223-.048 1.029-.867 1.777-1.614 2.37-.858.618-1.88 1.15-2.96 1.097l-.192-.013a44.948 44.948 0 00-.012-.64c.082-.177.173-.349.254-.525.482-.976 1.398-1.671 2.384-2.065zm72.741-4.4c.47-.395 1.024-.733 1.645-.786.234.605.214 1.285.03 1.9-.368 1.224-1.257 2.288-2.417 2.81-.295.125-.609.23-.932.224a7.307 7.307 0 01-.238-.075l-.03-.387c.015-.238.045-.473.072-.71.299-1.154.984-2.195 1.87-2.976zm-78.537.261c-.207-.652-.303-1.417.025-2.044 1.172.236 2.067 1.157 2.704 2.13.347.526.614 1.105.777 1.717.039.204.08.408.115.616l-.087.268c-.063.114-.132.224-.194.338-1.572-.245-2.843-1.532-3.34-3.025zm70.125-2.72c.897-.405 1.937-.347 2.863-.072.79.244 1.555.646 2.115 1.273.138.16.285.313.424.474.059.195.12.39.212.573-.147.067-.292.135-.441.193-1.042.187-2.115-.13-3.07-.546-.846-.413-1.78-.941-2.103-1.895zm-65.137.408c1.13-1.186 2.898-1.713 4.484-1.359.179.07.433.078.542.25-.205.724-.885 1.176-1.502 1.526-1.181.626-2.579 1.032-3.906.71l-.16-.172c.063-.135.112-.276.162-.415.114-.19.248-.365.38-.54zm69.82-6.722c.345-.484.782-.97 1.375-1.118.715 1.027.647 2.415.18 3.532-.39.882-1.072 1.729-2.014 2.016-.076-.004-.152-.012-.224-.018-.08-.167-.161-.332-.243-.496-.025-.199-.04-.398-.057-.596a5.794 5.794 0 01.984-3.32zm-8.811-.42c.884-.71 2.097-.832 3.182-.689.499.096 1.088.121 1.434.553l.09-.128c.163.104.333.205.496.314.172.126.347.25.515.383.108.175.215.351.322.53a2.234 2.234 0 00-.185.11c-.856.511-1.921.45-2.876.354-1.082-.183-2.297-.477-2.978-1.427zm-55.69-1.291c1.291-.285 2.768-.207 3.854.632-.371.634-1.1.932-1.768 1.135-1.108.315-2.304.403-3.427.11-.23-.075-.483-.13-.665-.303l-.14-.131.31-.537c.177-.12.36-.229.538-.347.37-.324.85-.402 1.298-.56zm-6.34 3.575c-.608-1.18-.77-2.733.019-3.87.61.172 1.049.684 1.401 1.19a5.92 5.92 0 01.958 3.315c-.018.196-.034.392-.057.588l-.252.51c-.071 0-.142 0-.213-.002-.828-.27-1.443-.981-1.855-1.731zm63.273-7.1c.918-.015 1.795.417 2.494.995.795.645 1.437 1.573 1.514 2.627-.035.05-.104.155-.138.206-.09.162-.171.332-.262.494l-.12.187a5.71 5.71 0 01-.204-.21l-.08.16c-.49-.177-.822-.592-1.254-.864-.832-.698-1.6-1.558-1.908-2.63-.106-.312-.078-.644-.042-.964zm-57.965 1.64c.698-1.28 2.034-2.203 3.478-2.338l.2.113c.11.838-.307 1.632-.791 2.28a6.722 6.722 0 01-1.583 1.471c-.31.283-.76.662-1.189.465a4.142 4.142 0 01-.282-.418c-.348-.488-.054-1.097.167-1.573z" fill="#C1965F"/><path d="M53.7 91.614c.058-.12.12-.235.173-.356.014.035.04.106.055.141.713.196 1.452.088 2.174.077.174.03.348.067.523.097-.248.058-.485.153-.725.236a3.091 3.091 0 01-1.574.036c-.214-.063-.418-.151-.625-.23zm3.695-.296c1.131-.161 2.263-.322 3.384-.543.04.04.12.12.16.158l-.049.18c-1.108.249-2.236.403-3.361.546-.246-.03-.49-.061-.736-.08.202-.083.4-.175.602-.261zm-8.169-.665c1.111.191 2.22.437 3.341.591.223.096.446.197.677.277-.258.026-.513.058-.77.084-1.112-.195-2.242-.342-3.33-.643-.083-.064-.162-.131-.242-.193.106-.042.214-.08.324-.116zm13.023-.186c1.037-.254 2.063-.564 3.095-.832l.169.107a8.54 8.54 0 00-.066.228 57.886 57.886 0 01-3.27.886c-.234-.013-.467-.034-.699-.046.253-.123.505-.249.77-.343zM35.993 85.56l.183-.124a41.143 41.143 0 002.873 1.582c.168.143.332.292.503.436-.252-.019-.505-.028-.755-.06a.227.227 0 00-.15-.17 33.264 33.264 0 01-2.57-1.417 18.28 18.28 0 01-.084-.247zm-3.889-2.662c.066-.012.197-.035.262-.048.892.635 1.752 1.331 2.71 1.862.117.171.232.346.355.516-.218-.076-.435-.15-.649-.232a32.416 32.416 0 01-2.535-1.784l-.055-.1a8.865 8.865 0 01-.088-.214zm46.64-.344c.82-.662 1.61-1.36 2.384-2.076l.165.108.136.146c-.651.568-1.271 1.174-1.952 1.708-.18.136-.342.294-.502.452-.218.08-.44.146-.658.221.138-.19.27-.385.427-.559zm-50.098-2.685c.082-.009.164-.018.247-.025a42.25 42.25 0 002.428 2.168c.104.158.206.318.315.474-.213-.058-.428-.112-.637-.182-.091-.18-.261-.294-.41-.418-.69-.56-1.329-1.181-1.981-1.786l.038-.23zM84.16 77.22c.078.001.158.003.238.007.061.07.124.143.19.214-.169-.006-.246.16-.345.268a33.804 33.804 0 01-1.936 2.139c-.19.105-.383.206-.569.318.094-.196.18-.394.274-.59.768-.734 1.454-1.55 2.148-2.356zm-58.554-.716c.082.002.164.007.247.01A52.212 52.212 0 0028 78.945c.068.17.133.343.207.513-.18-.11-.364-.212-.546-.316-.738-.803-1.489-1.599-2.146-2.472l.092-.165zm61.159-2.928l.194.072c.04.032.117.098.156.132-.507.748-.982 1.52-1.536 2.233-.1.124-.193.256-.246.409a5.67 5.67 0 01-.537.274c.052-.16.102-.32.151-.479a35.693 35.693 0 001.818-2.64zm-63.728-.73c.07-.013.141-.024.211-.04a36.733 36.733 0 001.82 2.684c.046.162.092.325.144.488-.16-.1-.324-.192-.484-.29a49.133 49.133 0 01-1.841-2.71c.038-.032.112-.098.15-.132zm65.793-3.15c.044.014.13.045.175.06.046.02.139.057.186.076-.415.962-.903 1.89-1.408 2.805-.186.195-.377.382-.562.578.058-.22.107-.443.162-.663a40.935 40.935 0 001.447-2.857zm-67.84-.797l.188-.05c.43.977.907 1.934 1.43 2.863.006-.223.013-.442.03-.662.008.418.034.837.055 1.256-.144-.154-.298-.297-.451-.44-.331-.594-.636-1.204-.943-1.812-.185-.352-.3-.739-.525-1.066.07-.033.142-.064.216-.09zm69.34-3.287l.218-.065c.037.098.076.198.116.297a37.673 37.673 0 01-.984 2.851c-.149.182-.301.364-.44.555.026-.226.043-.45.06-.675.394-.969.704-1.97 1.03-2.963zM19.44 64.56c.076.062.152.126.225.194.355.995.645 2.018 1.051 2.997 0 .169-.002.338.002.508-.128-.138-.263-.269-.393-.405-.357-.994-.752-1.99-.995-3.016a5.71 5.71 0 01.11-.278zm71.779-3.231l.189.018.204.034a28.192 28.192 0 01-.505 2.75c-.095.377-.283.717-.465 1.056-.005-.258-.016-.516-.017-.773a27.6 27.6 0 00.594-3.085zm-72.702-1.151c.082.096.165.193.242.296.071.12.074.265.098.4.118.91.32 1.807.524 2.701-.03.177-.063.354-.091.532a3.037 3.037 0 01-.364-.775 27.61 27.61 0 01-.477-2.456c-.012-.123-.048-.251-.012-.371l.08-.327zm72.995-3.163l.197-.069.209.073c-.041 1.062-.034 2.127-.174 3.182a6.023 6.023 0 00-.285.903c.022-.348-.037-.692-.083-1.034a41.51 41.51 0 00.136-3.055zm-73.43-.912l.215-.006.192.012c.023 1.04.055 2.08.152 3.116a7.944 7.944 0 00-.116.593c-.089-.177-.184-.35-.274-.524-.118-1.06-.12-2.127-.169-3.191zm73.254-3.564c.077.027.157.051.237.076.153 1.045.259 2.099.295 3.154a5.697 5.697 0 00-.174.961 7.333 7.333 0 00-.208-.903 52.81 52.81 0 00-.272-3.03 4.05 4.05 0 01.122-.258zm-72.87-.786c.062-.114.13-.224.193-.338.038.128.081.257.12.387.063.272-.052.553-.069.829-.074.765-.16 1.53-.172 2.3-.08.177-.17.349-.253.526-.07-.329-.132-.662-.129-.999.075-.901.09-1.828.31-2.705zm71.988-3.496c.08.103.165.201.243.307.278.946.5 1.91.68 2.88-.026.236-.056.471-.071.71a10.414 10.414 0 00-.332-.75c-.21-1-.42-2-.73-2.972l-.228.018c.148-.058.292-.126.438-.193zm-71.124-.615c.076-.093.158-.18.236-.27l.16.173c-.067.503-.26.989-.37 1.488-.116.422-.166.86-.29 1.282-.083.285-.206.557-.32.832-.035-.208-.076-.411-.115-.616.192-.973.396-1.946.699-2.89zm69.52-3.533c.072.006.147.014.223.018.446.978.84 1.982 1.181 3.001-.005.186-.01.37-.01.556-.138-.16-.285-.313-.422-.473-.067-.496-.306-.941-.471-1.407-.187-.516-.414-1.015-.631-1.518.033-.044.097-.134.13-.177zm-67.915-.817l.212.003.158.134c-.46.97-.829 1.981-1.2 2.988-.131.176-.264.35-.377.54.018-.242.03-.485.043-.726a25.547 25.547 0 011.164-2.94zm65.838-3.051l.2-.075c.546.938 1.095 1.876 1.579 2.85.017.2.032.398.057.597-.146-.175-.301-.34-.453-.508-.485-.939-.968-1.885-1.567-2.753.059-.04.12-.077.184-.111zm-63.738-.861l.226.05.138.131a32.149 32.149 0 00-1.544 2.724c-.153.167-.309.33-.458.5.023-.197.04-.393.057-.59.48-.965 1.03-1.89 1.58-2.815zm62.557-.596c.09-.162.17-.33.26-.493-.033.34.297.55.426.832.055.197.11.393.175.588-.167-.133-.341-.257-.512-.383-.121-.18-.23-.366-.35-.544zm-61.85-.447c.138-.231.301-.444.46-.66.086.143.177.284.28.417-.224.038-.277.283-.379.453-.176.118-.359.226-.534.346.063-.183.118-.37.173-.556z" fill="#D9A060"/><path d="M45.2 89.235a2.57 2.57 0 01.083-.185c.97.363 1.965.643 2.956.938.285.093.555.23.82.375-.2.016-.4.042-.6.06-1.12-.271-2.212-.652-3.313-.994l.054-.194zm21.89-.342c.995-.328 1.958-.76 2.928-1.157.132-.005.263-.007.395-.008-.023.053-.07.16-.092.214l-.035.08c-1 .45-2.014.865-3.045 1.229-.246.019-.493.037-.737.067.2-.133.39-.282.585-.425zm-26.405-1.54l.28-.055c1.032.43 2.042.938 3.102 1.3.168.136.33.282.5.42-.223-.03-.445-.05-.666-.07-.937-.35-1.857-.75-2.767-1.173-.105-.063-.241-.09-.312-.198-.049-.074-.093-.15-.137-.224zm30.75-.301a39.056 39.056 0 002.86-1.562c.031.042.096.125.128.166l.094.163a58.246 58.246 0 01-2.941 1.6c-.23.037-.463.067-.691.11.185-.156.365-.32.55-.477zm4.685-2.73a40.498 40.498 0 001.983-1.435l.133.148.12.146c-.867.67-1.76 1.302-2.676 1.895-.236.09-.477.168-.714.25.164-.21.313-.431.475-.64.26-.04.463-.224.68-.365z" fill="#DAA060"/></g></svg>