<svg width="21" height="21" xmlns="http://www.w3.org/2000/svg"><path d="M11 8.648H8.648V11H7.5V8.648H5.148V7.5H7.5V5.148h1.148V7.5H11v1.148zM4.383 11.82c1.02 1.021 2.26 1.532 3.719 1.532 1.458 0 2.697-.51 3.718-1.532 1.021-1.02 1.532-2.26 1.532-3.718 0-1.459-.51-2.698-1.532-3.72-1.02-1.02-2.26-1.53-3.718-1.53-1.459 0-2.698.51-3.72 1.53-1.02 1.022-1.53 2.261-1.53 3.72 0 1.458.51 2.697 1.53 3.718zm10.719 1.532l5.796 5.796-1.75 1.75-5.796-5.796v-.93l-.329-.328c-1.385 1.203-3.026 1.804-4.921 1.804-2.115 0-3.91-.729-5.387-2.187C1.238 12.003.5 10.216.5 8.1c0-2.114.738-3.91 2.215-5.386C4.19 1.238 5.987.5 8.102.5c2.114 0 3.9.738 5.359 2.215 1.458 1.476 2.187 3.272 2.187 5.387 0 1.895-.601 3.536-1.804 4.921l.328.329h.93z" fill="#C0BDBC" fill-rule="evenodd"/></svg>