<svg width="24" height="24" xmlns="http://www.w3.org/2000/svg"><path d="M21.313 23.313l2-2-6.625-6.625h-1.063l-.375-.376c1.375-1.583 2.063-3.458 2.063-5.624 0-2.417-.834-4.47-2.5-6.157C13.146.844 11.104 0 8.686 0 6.271 0 4.22.844 2.532 2.531.844 4.22 0 6.271 0 8.687c0 2.417.844 4.459 2.531 6.126 1.688 1.666 3.74 2.5 6.156 2.5 2.167 0 4.042-.688 5.626-2.063l.374.375v1.063l6.626 6.625zM8.688 14.688c-1.667 0-3.084-.584-4.25-1.75-1.167-1.167-1.75-2.584-1.75-4.25 0-1.667.583-3.084 1.75-4.25 1.166-1.167 2.583-1.75 4.25-1.75 1.666 0 3.083.583 4.25 1.75 1.166 1.166 1.75 2.583 1.75 4.25 0 1.666-.584 3.083-1.75 4.25-1.167 1.166-2.584 1.75-4.25 1.75zM9.312 12V9.312H12V8H9.312V5.312H8V8H5.312v1.313H8V12h1.313z" fill="#6F95CC"/></svg>