<svg width="40" height="30" xmlns="http://www.w3.org/2000/svg"><g fill="none" fill-rule="evenodd"><rect fill="#F0F2F4" fill-rule="nonzero" width="40" height="30" rx="2"/><path d="M22.646 25C28.059 25.026 33 20.542 33 15.087 33 9.12 28.06 4.998 22.646 5h-4.659C12.51 4.998 8 9.123 8 15.087c0 5.456 4.509 9.94 9.987 9.913h4.659z" fill="#0079BE"/><path d="M17.895 6.053c-4.89.001-8.852 4.005-8.853 8.948 0 4.94 3.963 8.945 8.853 8.946 4.891-.001 8.854-4.005 8.855-8.946 0-4.943-3.964-8.947-8.855-8.948zM12.283 15a5.679 5.679 0 013.603-5.293v10.584A5.676 5.676 0 0112.283 15zm7.62 5.293V9.708A5.676 5.676 0 0123.51 15a5.678 5.678 0 01-3.605 5.293z" fill="#FFF" fill-rule="nonzero"/></g></svg>