<svg width="40" height="30" xmlns="http://www.w3.org/2000/svg" xmlns:xlink="http://www.w3.org/1999/xlink"><defs><rect id="a" x="0" y="0" width="40" height="30" rx="2"/></defs><g fill="none" fill-rule="evenodd"><mask id="b" fill="#fff"><use xlink:href="#a"/></mask><use fill="#4D4D4D" fill-rule="nonzero" xlink:href="#a"/><path d="M41 19.616C39.508 20.641 28.339 27.963 9 31.5h32v-28 16.116z" fill="#F47216" fill-rule="nonzero" mask="url(#b)"/><g fill-rule="nonzero"><path d="M16.658 13c.431 0 .792.086 1.232.293v1.093c-.417-.378-.778-.536-1.255-.536-.94 0-1.678.722-1.678 1.636 0 .965.716 1.644 1.724 1.644.454 0 .809-.15 1.209-.522v1.094c-.455.199-.824.278-1.255.278-1.525 0-2.71-1.086-2.71-2.487 0-1.385 1.217-2.493 2.733-2.493zm-4.732.03c.562 0 1.077.179 1.508.528l-.524.637c-.261-.271-.508-.386-.807-.386-.432 0-.746.228-.746.528 0 .258.176.394.777.6 1.139.387 1.476.73 1.476 1.487 0 .922-.73 1.564-1.77 1.564-.762 0-1.316-.279-1.777-.907l.647-.578c.23.414.615.635 1.093.635.446 0 .777-.286.777-.672 0-.2-.1-.371-.3-.493-.101-.057-.3-.143-.692-.271-.94-.314-1.263-.65-1.263-1.307 0-.78.693-1.365 1.6-1.365zm11.439.083h1.093l1.369 3.2 1.386-3.2H28.3L26.08 18h-.538l-2.178-4.887zM4 13.12h1.47c1.623 0 2.755.98 2.755 2.386 0 .701-.347 1.38-.932 1.83-.493.379-1.054.55-1.831.55H4V13.12zm4.685 0h1.001v4.765h-1V13.12zm20.066 0h2.839v.808h-1.838v1.057h1.77v.807h-1.77v1.286h1.838v.807h-2.839V13.12zm3.502 0h1.484c1.155 0 1.816.515 1.816 1.407 0 .73-.414 1.208-1.168 1.35L36 17.886h-1.231l-1.386-1.914h-.13v1.914h-1V13.12zm1 .751v1.443h.292c.64 0 .979-.258.979-.737 0-.463-.34-.706-.963-.706h-.308zM5 13.928v3.15h.269c.647 0 1.055-.115 1.37-.378.346-.286.554-.743.554-1.2 0-.457-.208-.9-.554-1.187-.33-.278-.723-.385-1.37-.385H5z" fill="#FFF"/><path d="M21 13a2.5 2.5 0 012.5 2.498v.002a2.5 2.5 0 11-5 0v-.002A2.5 2.5 0 0121 13z" fill="#F47216"/></g></g></svg>