<svg width="40" height="30" xmlns="http://www.w3.org/2000/svg"><g fill="none" fill-rule="evenodd"><rect fill="#F0F2F4" fill-rule="nonzero" width="40" height="30" rx="2"/><g fill="#5CB531"><path d="M27.473 17.217h1.99c.057 0 .19-.019.246-.019a.89.89 0 00.701-.893.922.922 0 00-.701-.893c-.057-.02-.17-.02-.246-.02h-1.99v1.825z"/><path d="M29.235 4.616a3.454 3.454 0 00-3.448 3.459v3.592h4.87c.113 0 .246 0 .34.02 1.1.056 1.914.626 1.914 1.615 0 .78-.55 1.444-1.572 1.577v.038c1.118.076 1.97.704 1.97 1.673 0 1.045-.947 1.73-2.198 1.73h-5.343v7.032h5.059a3.454 3.454 0 003.449-3.459V4.616h-5.04z"/><path d="M30.164 13.53a.808.808 0 00-.701-.817c-.038 0-.133-.02-.19-.02h-1.8v1.673h1.8c.057 0 .17 0 .19-.019a.808.808 0 00.7-.817z"/></g><path d="M10.173 4.616a3.454 3.454 0 00-3.449 3.459v8.534c.967.475 1.971.78 2.975.78 1.194 0 1.838-.723 1.838-1.711v-4.03h2.956v4.01c0 1.56-.966 2.833-4.244 2.833-1.99 0-3.544-.437-3.544-.437v7.28h5.06a3.454 3.454 0 003.448-3.46V4.616h-5.04z" fill="#006FBC"/><path d="M19.704 4.616a3.454 3.454 0 00-3.448 3.459v4.524c.871-.742 2.387-1.217 4.831-1.103 1.308.057 2.71.418 2.71.418v1.464c-.701-.361-1.535-.684-2.615-.76-1.857-.133-2.975.779-2.975 2.375 0 1.616 1.118 2.528 2.975 2.376 1.08-.076 1.914-.418 2.615-.76v1.464s-1.383.36-2.71.418c-2.444.114-3.96-.361-4.831-1.103v7.983h5.059a3.454 3.454 0 003.448-3.459V4.616h-5.059z" fill="#E60039"/></g></svg>