<svg width="40" height="30" xmlns="http://www.w3.org/2000/svg"><g fill="none" fill-rule="evenodd"><rect fill="#323232" fill-rule="nonzero" width="40" height="30" rx="2"/><path d="M36.694 21.765v-.64h-.123l-.143.44-.143-.44h-.124v.64h.088v-.482l.134.416h.09l.134-.417v.483h.087zm-.784 0v-.53h.158v-.108h-.404v.108h.159v.53h.087z" fill="#0099DF" fill-rule="nonzero"/><path fill="#6C6BBD" d="M24.69 23.141h-9.012V6.596h9.013z"/><path d="M16.255 14.868c0-3.357 1.538-6.346 3.934-8.273a10.121 10.121 0 00-6.366-2.25c-5.689 0-10.3 4.711-10.3 10.523 0 5.81 4.611 10.522 10.3 10.522a10.12 10.12 0 006.366-2.25 10.587 10.587 0 01-3.934-8.272" fill="#EB001B"/><path d="M36.846 14.868c0 5.81-4.611 10.522-10.3 10.522-2.403 0-4.614-.841-6.367-2.25a10.586 10.586 0 003.935-8.272c0-3.357-1.538-6.346-3.935-8.273a10.124 10.124 0 016.367-2.25c5.689 0 10.3 4.711 10.3 10.523" fill="#0099DF"/></g></svg>