<svg width="40" height="30" xmlns="http://www.w3.org/2000/svg" xmlns:xlink="http://www.w3.org/1999/xlink"><defs><rect id="a" x="0" y="0" width="40" height="30" rx="2"/></defs><g fill="none" fill-rule="evenodd"><use fill="#F0F2F4" fill-rule="nonzero" xlink:href="#a"/><path d="M9.037 4h8.969c1.252 0 2.03.998 1.739 2.226l-4.176 17.53c-.295 1.223-1.548 2.222-2.801 2.222H3.8c-1.25 0-2.03-.999-1.739-2.223L6.24 6.226C6.53 4.998 7.784 4 9.037 4" fill="#E21836"/><path d="M17.26 4h10.314c1.251 0 .687.998.392 2.226l-4.175 17.53c-.292 1.223-.201 2.222-1.455 2.222H12.022c-1.255 0-2.031-.999-1.736-2.223L14.46 6.226C14.757 4.998 16.007 4 17.26 4" fill="#00447C"/><path d="M27.165 4h8.968c1.254 0 2.033.998 1.738 2.226l-4.175 17.53c-.294 1.223-1.549 2.222-2.802 2.222h-8.965c-1.254 0-2.032-.999-1.739-2.223l4.176-17.529C24.658 4.998 25.91 4 27.165 4" fill="#007B84"/><path d="M11.38 9.618c-.923.009-1.195 0-1.282-.02-.034.155-.656 2.962-.658 2.965-.134.568-.231.972-.563 1.234a1.017 1.017 0 01-.661.225c-.41 0-.648-.199-.688-.575l-.007-.13.124-.764s.653-2.559.77-2.897a.242.242 0 00.01-.038c-1.272.01-1.497 0-1.513-.02-.008.027-.04.186-.04.186l-.667 2.883-.057.245-.11.8c0 .237.047.43.142.594.304.52 1.17.597 1.66.597.633 0 1.225-.131 1.626-.37.695-.402.877-1.03 1.039-1.588l.075-.286s.673-2.657.787-3.003c.005-.019.007-.03.012-.038zm2.289 2.143c-.162 0-.459.039-.725.166-.097.049-.188.105-.284.16l.087-.307-.048-.051c-.565.111-.691.126-1.213.198l-.043.029c-.061.49-.115.86-.34 1.825-.085.355-.174.715-.262 1.07l.024.045c.534-.028.696-.028 1.16-.02l.038-.04c.06-.296.067-.365.198-.964.061-.284.19-.908.253-1.13.116-.052.23-.104.34-.104.26 0 .228.222.218.31-.011.149-.106.634-.203 1.05l-.065.27c-.045.198-.095.391-.14.588l.02.04c.526-.028.687-.028 1.137-.02l.053-.04c.081-.462.105-.586.25-1.258l.072-.309c.14-.604.212-.91.105-1.16-.113-.28-.384-.348-.632-.348zm2.557.633c-.28.053-.458.088-.636.11-.176.028-.347.053-.618.09l-.021.019-.02.015c-.028.197-.048.367-.085.568-.032.207-.08.442-.16.78a3.04 3.04 0 01-.128.44c-.034.091-.072.18-.141.434l.016.024.014.022c.253-.012.418-.02.588-.022.17-.006.346 0 .618.001l.024-.019.026-.02c.04-.23.045-.292.07-.404.023-.12.064-.286.165-.73.048-.21.1-.417.15-.63.051-.212.105-.42.156-.63l-.007-.025-.01-.023zm.006-.853c-.254-.147-.7-.1-1.001.102-.3.199-.334.481-.08.63.25.143.698.1.996-.104.299-.203.336-.483.085-.628zm1.54 3.4c.514 0 1.042-.138 1.439-.55.306-.334.446-.83.494-1.035.158-.678.035-.995-.12-1.187-.234-.294-.649-.389-1.08-.389-.258 0-.875.025-1.356.46-.346.313-.506.738-.602 1.145-.098.415-.21 1.162.493 1.44.217.092.53.117.731.117zm-.04-1.525c.118-.513.258-.944.616-.944.28 0 .3.32.176.835-.023.115-.125.54-.263.721-.097.134-.211.215-.338.215-.037 0-.261 0-.265-.325-.001-.16.032-.324.073-.502zm3.26 1.46l.04-.04c.058-.296.067-.366.193-.964.063-.284.194-.908.256-1.13.116-.053.229-.104.341-.104.259 0 .227.222.217.31-.01.15-.104.634-.203 1.05l-.062.27c-.047.198-.098.391-.143.588l.02.04a12.37 12.37 0 011.135-.02l.055-.04c.08-.462.1-.586.25-1.258l.07-.31c.142-.604.214-.91.109-1.16-.116-.28-.389-.347-.634-.347a1.8 1.8 0 00-.725.166c-.095.049-.19.105-.283.16l.082-.307-.044-.052c-.564.112-.693.127-1.214.2l-.04.028c-.064.49-.115.86-.34 1.825-.085.356-.174.715-.262 1.07l.023.045c.536-.028.696-.028 1.16-.02zm3.884.02c.033-.16.23-1.1.232-1.1 0 0 .168-.689.179-.714 0 0 .053-.072.106-.1h.077c.735 0 1.564 0 2.214-.468.442-.32.744-.794.88-1.37.034-.14.06-.308.06-.476 0-.22-.045-.438-.176-.609-.331-.453-.991-.461-1.753-.465l-.376.004c-.975.011-1.366.008-1.527-.011-.013.07-.039.193-.039.193l-.35 1.585-.875 3.525c.852-.01 1.201-.01 1.348.005zm.647-2.813l.37-1.573.012-.081.005-.062.149.015.784.066c.302.114.427.409.34.794-.08.351-.313.647-.613.79-.247.12-.549.13-.86.13h-.202l.015-.079zm2.313 1.362c-.098.41-.211 1.157.488 1.423.223.093.423.12.626.11.215-.011.413-.116.597-.268l-.05.187.032.04c.503-.02.66-.02 1.204-.016l.05-.037c.08-.458.154-.902.361-1.777.1-.42.201-.834.305-1.252l-.016-.046c-.563.102-.714.124-1.255.2l-.04.032-.017.124a.77.77 0 00-.395-.317c-.24-.093-.806.027-1.292.46-.341.308-.505.731-.598 1.137zm1.182.025c.12-.504.258-.93.617-.93.227 0 .346.204.322.553-.02.087-.04.178-.065.282-.036.15-.075.299-.113.447a1.075 1.075 0 01-.132.262c-.092.128-.312.207-.438.207-.036 0-.257 0-.265-.319a2.146 2.146 0 01.074-.502zm6.171-1.665l-.043-.048c-.557.11-.658.128-1.17.195l-.037.037-.006.023-.002-.008c-.38.86-.37.674-.68 1.35l-.003-.083-.078-1.466-.048-.048c-.584.11-.597.128-1.136.195l-.042.037c-.006.017-.006.037-.01.058l.004.007c.067.337.051.262.119.793.031.26.073.522.105.78.053.43.083.642.148 1.3-.364.586-.45.809-.8 1.324l.002.005-.247.381c-.028.04-.054.068-.09.08a.38.38 0 01-.161.022h-.137l-.203.66.697.012c.409-.001.666-.188.805-.44l.438-.734h-.007l.046-.051c.294-.62 2.536-4.38 2.536-4.38zm-7.353 8.675h-.296l1.094-3.538h.363l.115-.364.011.405c-.013.25.188.473.718.436h.612l.21-.681h-.23c-.132 0-.193-.033-.186-.103l-.01-.413h-1.135v.003c-.366.007-1.461.034-1.683.092-.268.067-.55.266-.55.266l.11-.365h-1.06l-.221.724-1.109 3.592h-.215l-.211.676h2.113l-.071.226h1.04l.07-.226h.292l.229-.73zm-.867-2.82c-.17.047-.486.186-.486.186l.281-.904h.843l-.203.659s-.26.015-.435.06zm.016 1.293s-.265.032-.439.07a4.357 4.357 0 00-.493.212l.29-.941h.847l-.205.659zm-.472 1.535h-.845l.245-.794h.842l-.242.794zm2.036-2.194h1.218l-.175.554h-1.234l-.186.607h1.08l-.818 1.126a.336.336 0 01-.165.135.494.494 0 01-.22.062h-.3l-.205.664h.784c.407 0 .648-.182.825-.42l.561-.75.12.762a.36.36 0 00.202.259c.079.038.16.105.275.114.122.005.211.01.27.01h.385l.232-.743h-.152c-.087 0-.238-.015-.263-.042-.026-.032-.026-.082-.04-.158l-.122-.764h-.5l.22-.255h1.232l.19-.607H30.62l.178-.554h1.137l.211-.684h-3.39l-.208.684zm-10.292 2.349l.284-.926h1.17l.213-.688h-1.17l.179-.569h1.143l.212-.666h-2.861l-.207.666h.65l-.174.57h-.652l-.216.7h.65l-.379 1.223c-.051.162.024.224.072.3a.312.312 0 00.209.149c.115.025.193.04.3.04h1.318l.234-.763-.584.079c-.113 0-.425-.013-.39-.115zm.134-4.43l-.296.524a.61.61 0 01-.172.218c-.045.028-.135.04-.265.04h-.154l-.207.67h.514c.246 0 .436-.09.526-.133.098-.051.123-.022.198-.093l.174-.147h1.603l.212-.697h-1.173l.205-.381H18.39zm2.366 4.443c-.027-.038-.007-.106.035-.247l.438-1.418h1.558c.227-.003.391-.006.498-.013.114-.012.24-.052.375-.124a.695.695 0 00.272-.245c.068-.091.176-.29.27-.597l.55-1.794-1.617.01s-.498.071-.718.15c-.22.089-.537.336-.537.336l.146-.492h-.999l-1.399 4.536c-.05.176-.082.304-.09.38-.003.083.107.165.177.227.084.062.208.052.327.062a7.8 7.8 0 00.547.015h.768l.235-.778-.687.063a.182.182 0 01-.149-.071zm.755-2.623h1.637l-.104.32c-.014.007-.05-.017-.216.003h-1.417l.1-.323zm.328-1.07h1.65l-.118.385s-.778-.008-.902.015a1.86 1.86 0 00-.869.379l.24-.778zm1.242 2.457a.17.17 0 01-.065.099c-.033.02-.087.028-.167.028h-.234l.014-.388h-.97l-.04 1.899c0 .137.013.216.115.28.103.079.419.089.844.089h.608l.22-.711-.53.028-.176.01c-.024-.01-.047-.019-.073-.044-.022-.021-.06-.008-.053-.145l.004-.487.555-.022c.3 0 .428-.096.537-.186.104-.087.138-.188.178-.323l.093-.43h-.763l-.097.303z" fill="#FEFEFE" fill-rule="nonzero"/></g></svg>