<svg width="40" height="30" xmlns="http://www.w3.org/2000/svg"><g fill="none" fill-rule="evenodd"><rect fill="#2566C4" fill-rule="nonzero" width="40" height="30" rx="2"/><g fill="#FFF"><path d="M9.19 20l-2.379-8.694A11.1 11.1 0 004 10.208L4.034 10H8.35c.58.022 1.05.211 1.213.845l.938 4.6.28 1.387 2.62-6.826h2.834l-4.213 9.99L9.19 20zm9.078 0h-2.315L17.4 10h2.317l-1.45 10zm4.178 0c-.985-.012-1.933-.246-2.446-.517l.308-2.169.283.154c.721.362 1.188.509 2.067.509.63 0 1.308-.297 1.313-.946.004-.424-.283-.727-1.137-1.202-.833-.463-1.937-1.24-1.924-2.632.013-1.883 1.54-3.197 3.71-3.197.852 0 1.533.21 1.968.407l-.297 2.1-.197-.112a3.468 3.468 0 00-1.643-.371c-.86 0-1.258.43-1.258.833-.005.454.465.753 1.233 1.201 1.266.691 1.851 1.53 1.843 2.632-.017 2.011-1.515 3.31-3.823 3.31z"/><path d="M33.568 20s-.24-1.15-.319-1.5l-3.357-.004c-.101.27-.551 1.504-.551 1.504h-2.753l3.893-9.17c.275-.652.745-.83 1.372-.83h2.026L36 20h-2.432zm-2.952-3.549h2.175l-.606-2.89-.178-.862c-.132.376-.363.982-.347.955l-1.044 2.797z" fill-rule="nonzero"/></g></g></svg>