<svg width="110" height="110" xmlns="http://www.w3.org/2000/svg" xmlns:xlink="http://www.w3.org/1999/xlink"><defs><linearGradient x1="50%" y1="23.943%" x2="50%" y2="72.295%" id="a"><stop stop-color="#4E913D" offset="0%"/><stop stop-color="#8D9E45" offset="100%"/></linearGradient><path d="M16.502 57.099c-1.617 0-2.728-.99-2.728-2.332h1.529c.011.55.539 1.001 1.243 1.001.682 0 1.133-.352 1.133-.891 0-.418-.308-.715-.957-.913l-.924-.264c-1.661-.44-1.958-1.441-1.958-2.123 0-1.353 1.166-2.255 2.618-2.255 1.43 0 2.53.869 2.53 2.31h-1.529c0-.539-.374-.957-1.034-.957-.594 0-1.045.363-1.045.869 0 .187.055.583.847.803l.847.242c1.144.319 2.145.924 2.145 2.211 0 1.507-1.287 2.299-2.717 2.299zm6.919 0c-1.54 0-2.893-1.056-2.893-2.805v-4.873h1.529v4.785c0 1.023.66 1.441 1.364 1.441.715 0 1.375-.418 1.375-1.441v-4.785h1.529v4.873c0 1.749-1.353 2.805-2.904 2.805zm6.963 0c-1.617 0-2.728-.99-2.728-2.332h1.529c.011.55.539 1.001 1.243 1.001.682 0 1.133-.352 1.133-.891 0-.418-.308-.715-.957-.913l-.924-.264c-1.661-.44-1.958-1.441-1.958-2.123 0-1.353 1.166-2.255 2.618-2.255 1.43 0 2.53.869 2.53 2.31h-1.529c0-.539-.374-.957-1.034-.957-.594 0-1.045.363-1.045.869 0 .187.055.583.847.803l.847.242c1.144.319 2.145.924 2.145 2.211 0 1.507-1.287 2.299-2.717 2.299zm8.943-7.678v1.353h-2.09V57h-1.529v-6.226h-2.09v-1.353h5.709zM44.552 57l-.616-1.815h-2.838L40.493 57h-1.628l2.827-7.579h1.65L46.158 57h-1.606zm-3.003-3.146h1.925l-.968-2.849-.957 2.849zM47.027 57v-7.579h1.529V57h-1.529zm7.502-7.579h1.529V57h-1.375l-2.75-4.752V57h-1.529v-7.579h1.419l2.706 4.697v-4.697zM62.614 57l-.616-1.815H59.16L58.555 57h-1.628l2.827-7.579h1.65L64.22 57h-1.606zm-3.003-3.146h1.925l-.968-2.849-.957 2.849zm9.658-.902c.968.165 1.441 1.023 1.441 1.881 0 1.045-.715 2.167-2.387 2.167h-3.234v-7.579h3.003c1.353 0 2.222.814 2.222 1.958 0 .561-.22 1.32-1.045 1.573zm-1.265-2.178h-1.386v1.661h1.386c.484 0 .781-.319.781-.836 0-.462-.242-.825-.781-.825zm.099 4.873c.715 0 1.067-.462 1.067-.968 0-.473-.319-.968-1.045-.968h-1.507v1.936h1.485zM72.107 57v-7.579h1.529V57h-1.529zm3.377 0v-7.579h1.529v6.226h2.871V57h-4.4zm5.544 0v-7.579h1.529V57h-1.529zm8.382-7.579v1.353h-2.09V57h-1.529v-6.226h-2.09v-1.353h5.709zm5.797 0h1.815l-2.948 4.158V57h-1.529v-3.443l-2.937-4.136h1.826l1.87 2.882 1.903-2.882z" id="b"/></defs><g fill="none"><path fill="url(#a)" d="M0 0h110v110H0z"/><use fill="#000" xlink:href="#b"/><use fill="#FFF" xlink:href="#b"/></g></svg>